<svg width="61" height="72" viewBox="0 0 61 72" fill="none" xmlns="http://www.w3.org/2000/svg">
<path d="M30.5 0L32.8828 13.8082L34.7891 20.2192L35.2877 21.5808C36.3576 24.5027 38.6278 26.8263 41.524 27.9637L42.4141 28.3133L48.8309 30.5753L54.8047 32.0548L61 33.2228L54.8047 34.5205L48.8309 36L42.4141 37.9726L41.9695 38.1603C38.8216 39.4889 36.4811 42.2198 35.65 45.5339L33.8359 52.7671L30.0234 72L27.1641 53.2603L25.4136 46.0052C24.5506 42.4282 21.9373 39.5302 18.4683 38.3032L18.1094 38.1763L11.659 36L0 33.2228L12.1356 30.5753L17.6328 28.8065L19.6015 27.9967C22.4231 26.8361 24.6274 24.5436 25.6765 21.6786L26.2109 20.2192L28.1172 13.8082L30.5 0Z" fill="#2158D2"/>
</svg>
