<svg width="45" height="53" viewBox="0 0 45 53" fill="none" xmlns="http://www.w3.org/2000/svg">
<path d="M22.5 0L24.2578 10.1644L25.6641 14.8836L26.033 15.8888C26.8216 18.0377 28.4929 19.7459 30.6242 20.5812L31.2891 20.8417L36.0228 22.5068L40.4297 23.5959L45 24.4557L40.4297 25.411L36.0228 26.5L31.2891 27.9521L30.9531 28.0935C28.636 29.0694 26.9125 31.0779 26.2996 33.5163L24.9609 38.8425L22.1484 53L20.0391 39.2055L18.7472 33.8626C18.1109 31.2311 16.1868 29.0999 13.6338 28.1989L13.3594 28.102L8.60092 26.5L0 24.4557L8.95248 22.5068L13.0078 21.2048L14.468 20.6054C16.5445 19.7532 18.1674 18.0678 18.9407 15.9606L19.3359 14.8836L20.7422 10.1644L22.5 0Z" fill="#77ADFF"/>
</svg>
