<svg width="44" height="53" viewBox="0 0 44 53" fill="none" xmlns="http://www.w3.org/2000/svg">
<path d="M22 0L23.7188 10.1644L25.0938 14.8836L25.4521 15.8822C26.2247 18.0355 27.8822 19.7549 30.0057 20.606L30.5938 20.8417L35.2223 22.5068L39.5312 23.5959L44 24.4557L39.5312 25.411L35.2223 26.5L30.5938 27.9521L30.3214 28.0694C28.0196 29.0609 26.3154 31.0737 25.7173 33.5076L24.4062 38.8425L21.6562 53L19.5938 39.2055L18.3294 33.8575C17.7078 31.2284 15.8012 29.0906 13.2601 28.1733L13.0625 28.102L8.40979 26.5L0 24.4557L8.75354 22.5068L12.7188 21.2048L14.0881 20.6299C16.1558 19.762 17.7643 18.0661 18.5217 15.9553L18.9062 14.8836L20.2812 10.1644L22 0Z" fill="#D7E7FF"/>
</svg>
