<svg width="48" height="48" viewBox="0 0 48 48" fill="none" xmlns="http://www.w3.org/2000/svg">
<path d="M31.0029 28H29.4229L28.8629 27.4599C30.1128 26.0079 31.0263 24.2975 31.538 22.4512C32.0497 20.6049 32.147 18.6683 31.8229 16.78C30.8829 11.22 26.2429 6.77995 20.6429 6.09995C18.6741 5.85088 16.6745 6.05549 14.7969 6.69813C12.9194 7.34076 11.2138 8.40439 9.81054 9.80761C8.40732 11.2108 7.34369 12.9165 6.70106 14.794C6.05842 16.6715 5.85381 18.6712 6.10288 20.6399C6.78288 26.2399 11.2229 30.88 16.7829 31.82C18.6712 32.1441 20.6078 32.0468 22.4541 31.5351C24.3004 31.0233 26.0108 30.1098 27.4629 28.86L28.0029 29.42V31L36.5029 39.5C37.3229 40.32 38.6629 40.32 39.4829 39.5C40.3029 38.68 40.3029 37.34 39.4829 36.52L31.0029 28ZM19.0029 28C14.0229 28 10.0029 23.9799 10.0029 18.9999C10.0029 14.0199 14.0229 9.99995 19.0029 9.99995C23.9829 9.99995 28.0029 14.0199 28.0029 18.9999C28.0029 23.9799 23.9829 28 19.0029 28Z" fill="#2158D2"/>
</svg>
