<svg width="24" height="24" viewBox="0 0 24 24" fill="none" xmlns="http://www.w3.org/2000/svg">
<path d="M22 15V9C22 4 20 2 15 2H9C4 2 2 4 2 9V15C2 20 4 22 9 22H15C20 22 22 20 22 15Z" stroke="white" stroke-width="1.5" stroke-linecap="round" stroke-linejoin="round"/>
<path d="M9.62 17.3C10.7908 17.3 11.74 16.3509 11.74 15.1801C11.74 14.0092 10.7908 13.0601 9.62 13.0601C8.44915 13.0601 7.5 14.0092 7.5 15.1801C7.5 16.3509 8.44915 17.3 9.62 17.3Z" stroke="white" stroke-width="1.5" stroke-linecap="round" stroke-linejoin="round"/>
<path d="M11.7422 15.18V7.77002" stroke="white" stroke-width="1.5" stroke-linecap="round" stroke-linejoin="round"/>
<path d="M13.1322 6.7701L15.4722 7.55006C16.0422 7.74006 16.5022 8.38006 16.5022 8.98006V9.60005C16.5022 10.4101 15.8722 10.8601 15.1122 10.6001L12.7722 9.82008C12.2022 9.63008 11.7422 8.99009 11.7422 8.39009V7.7701C11.7422 6.9701 12.3622 6.5101 13.1322 6.7701Z" stroke="white" stroke-width="1.5" stroke-linecap="round" stroke-linejoin="round"/>
</svg>
