<svg width="24" height="24" viewBox="0 0 24 24" fill="none" xmlns="http://www.w3.org/2000/svg">
<path d="M12.0199 20.5299C9.68987 20.5299 7.35987 20.1599 5.14987 19.4199C4.30987 19.1299 3.66987 18.5399 3.38987 17.7699C3.09987 16.9999 3.19987 16.1499 3.65987 15.3899L4.80987 13.4799C5.04987 13.0799 5.26987 12.2799 5.26987 11.8099V8.91992C5.26987 5.19992 8.29987 2.16992 12.0199 2.16992C15.7399 2.16992 18.7699 5.19992 18.7699 8.91992V11.8099C18.7699 12.2699 18.9899 13.0799 19.2299 13.4899L20.3699 15.3899C20.7999 16.1099 20.8799 16.9799 20.5899 17.7699C20.2999 18.5599 19.6699 19.1599 18.8799 19.4199C16.6799 20.1599 14.3499 20.5299 12.0199 20.5299ZM12.0199 3.66992C9.12987 3.66992 6.76987 6.01992 6.76987 8.91992V11.8099C6.76987 12.5399 6.46987 13.6199 6.09987 14.2499L4.94987 16.1599C4.72987 16.5299 4.66987 16.9199 4.79987 17.2499C4.91987 17.5899 5.21987 17.8499 5.62987 17.9899C9.80987 19.3899 14.2399 19.3899 18.4199 17.9899C18.7799 17.8699 19.0599 17.5999 19.1899 17.2399C19.3199 16.8799 19.2899 16.4899 19.0899 16.1599L17.9399 14.2499C17.5599 13.5999 17.2699 12.5299 17.2699 11.7999V8.91992C17.2699 6.01992 14.9199 3.66992 12.0199 3.66992Z" fill="#2158D2"/>
<path d="M13.8767 3.94018C13.8067 3.94018 13.7367 3.93018 13.6667 3.91018C13.3767 3.83018 13.0967 3.77018 12.8267 3.73018C11.9767 3.62018 11.1567 3.68018 10.3867 3.91018C10.1067 4.00018 9.8067 3.91018 9.6167 3.70018C9.4267 3.49018 9.3667 3.19018 9.4767 2.92018C9.8867 1.87018 10.8867 1.18018 12.0267 1.18018C13.1667 1.18018 14.1667 1.86018 14.5767 2.92018C14.6767 3.19018 14.6267 3.49018 14.4367 3.70018C14.2867 3.86018 14.0767 3.94018 13.8767 3.94018Z" fill="#2158D2"/>
<path d="M12.0234 22.8101C11.0334 22.8101 10.0734 22.4101 9.37344 21.7101C8.67344 21.0101 8.27344 20.0501 8.27344 19.0601H9.77344C9.77344 19.6501 10.0134 20.2301 10.4334 20.6501C10.8534 21.0701 11.4334 21.3101 12.0234 21.3101C13.2634 21.3101 14.2734 20.3001 14.2734 19.0601H15.7734C15.7734 21.1301 14.0934 22.8101 12.0234 22.8101Z" fill="#2158D2"/>
</svg>
