<svg width="87" height="100" viewBox="0 0 87 100" fill="none" xmlns="http://www.w3.org/2000/svg">
<path d="M43.5 0L46.8984 19.0312L49.6172 27.8672L50.9934 31.499C52.0963 34.4098 54.3937 36.7084 57.3039 37.8129L60.4922 39.023L69.6441 42.1406L78.1641 44.1797L87 45.7895L78.1641 47.5781L69.6441 49.6172L60.4922 52.3359L57.777 53.4434C54.5994 54.7395 52.22 57.4594 51.3579 60.7812L48.2578 72.7266L42.8203 99.2344L38.7422 73.4062L35.7059 61.2449C34.812 57.6648 32.1637 54.7822 28.672 53.5887L25.8281 52.6167L16.6284 49.6172L0 45.7895L17.3081 42.1406L25.1484 39.7026L29.8182 37.8465C32.6559 36.7186 34.8886 34.4495 35.9706 31.594L37.3828 27.8672L40.1016 19.0312L43.5 0Z" fill="#2158D2"/>
</svg>
