<svg width="24" height="24" viewBox="0 0 24 24" fill="none" xmlns="http://www.w3.org/2000/svg">
<path d="M15 22.75H9C3.57 22.75 1.25 20.43 1.25 15V9C1.25 3.57 3.57 1.25 9 1.25H11C11.41 1.25 11.75 1.59 11.75 2C11.75 2.41 11.41 2.75 11 2.75H9C4.39 2.75 2.75 4.39 2.75 9V15C2.75 19.61 4.39 21.25 9 21.25H15C19.61 21.25 21.25 19.61 21.25 15V13C21.25 12.59 21.59 12.25 22 12.25C22.41 12.25 22.75 12.59 22.75 13V15C22.75 20.43 20.43 22.75 15 22.75Z" fill="white"/>
<path d="M8.50325 17.6901C7.89325 17.6901 7.33325 17.4701 6.92325 17.0701C6.43325 16.5801 6.22325 15.8701 6.33325 15.1201L6.76325 12.1101C6.84325 11.5301 7.22325 10.7801 7.63325 10.3701L15.5133 2.49006C17.5033 0.500059 19.5233 0.500059 21.5133 2.49006C22.6033 3.58006 23.0933 4.69006 22.9933 5.80006C22.9033 6.70006 22.4233 7.58006 21.5133 8.48006L13.6333 16.3601C13.2233 16.7701 12.4733 17.1501 11.8933 17.2301L8.88325 17.6601C8.75325 17.6901 8.62325 17.6901 8.50325 17.6901ZM16.5733 3.55006L8.69325 11.4301C8.50325 11.6201 8.28325 12.0601 8.24325 12.3201L7.81325 15.3301C7.77325 15.6201 7.83325 15.8601 7.98325 16.0101C8.13325 16.1601 8.37325 16.2201 8.66325 16.1801L11.6733 15.7501C11.9333 15.7101 12.3833 15.4901 12.5633 15.3001L20.4433 7.42006C21.0933 6.77006 21.4333 6.19006 21.4833 5.65006C21.5433 5.00006 21.2033 4.31006 20.4433 3.54006C18.8433 1.94006 17.7433 2.39006 16.5733 3.55006Z" fill="white"/>
<path d="M19.8515 9.82978C19.7815 9.82978 19.7115 9.81978 19.6515 9.79978C17.0215 9.05978 14.9315 6.96978 14.1915 4.33978C14.0815 3.93978 14.3115 3.52978 14.7115 3.40978C15.1115 3.29978 15.5215 3.52978 15.6315 3.92978C16.2315 6.05978 17.9215 7.74978 20.0515 8.34978C20.4515 8.45978 20.6815 8.87978 20.5715 9.27978C20.4815 9.61978 20.1815 9.82978 19.8515 9.82978Z" fill="white"/>
</svg>
