<svg width="24" height="24" viewBox="0 0 24 24" fill="none" xmlns="http://www.w3.org/2000/svg">
<path d="M12 18.75C11.59 18.75 11.25 18.41 11.25 18V15C11.25 14.59 11.59 14.25 12 14.25C12.41 14.25 12.75 14.59 12.75 15V18C12.75 18.41 12.41 18.75 12 18.75Z" fill="white"/>
<path d="M17.597 22.5598H6.39703C4.57703 22.5598 2.91703 21.1598 2.61703 19.3698L1.28703 11.3998C1.06703 10.1598 1.67703 8.56982 2.66703 7.77982L9.59703 2.22982C10.937 1.14982 13.047 1.15982 14.397 2.23982L21.327 7.77982C22.307 8.56982 22.907 10.1598 22.707 11.3998L21.377 19.3598C21.077 21.1298 19.377 22.5598 17.597 22.5598ZM11.987 2.92982C11.457 2.92982 10.927 3.08982 10.537 3.39982L3.60703 8.95982C3.04703 9.40982 2.64703 10.4498 2.76703 11.1598L4.09703 19.1198C4.27703 20.1698 5.32703 21.0598 6.39703 21.0598H17.597C18.667 21.0598 19.717 20.1698 19.897 19.1098L21.227 11.1498C21.337 10.4498 20.937 9.38982 20.387 8.94982L13.457 3.40982C13.057 3.08982 12.517 2.92982 11.987 2.92982Z" fill="white"/>
</svg>
