<svg width="24" height="25" viewBox="0 0 24 25" fill="none" xmlns="http://www.w3.org/2000/svg">
<path d="M12 19.5C15.31 19.5 18 16.81 18 13.5V8.5C18 5.19 15.31 2.5 12 2.5C8.69 2.5 6 5.19 6 8.5V13.5C6 16.81 8.69 19.5 12 19.5Z" stroke="white" stroke-width="1.5" stroke-linecap="round" stroke-linejoin="round"/>
<path d="M3 11.5V13.5C3 18.47 7.03 22.5 12 22.5C16.97 22.5 21 18.47 21 13.5V11.5" stroke="white" stroke-width="1.5" stroke-linecap="round" stroke-linejoin="round"/>
<path d="M9.10938 7.98018C10.8894 7.33018 12.8294 7.33018 14.6094 7.98018" stroke="white" stroke-width="1.5" stroke-linecap="round" stroke-linejoin="round"/>
<path d="M10.0312 10.9799C11.2313 10.6499 12.5013 10.6499 13.7013 10.9799" stroke="white" stroke-width="1.5" stroke-linecap="round" stroke-linejoin="round"/>
</svg>
