<svg width="64" height="73" viewBox="0 0 64 73" fill="none" xmlns="http://www.w3.org/2000/svg">
<path d="M32 0L34.5 14L36.5 20.5L37.5124 23.1717C38.3237 25.3129 40.0138 27.0039 42.1546 27.8164L44.5 28.7065L51.2324 31L57.5 32.5L64 33.6842L57.5 35L51.2324 36.5L44.5 38.5L42.5026 39.3147C40.1651 40.2681 38.4147 42.269 37.7805 44.7126L35.5 53.5L31.5 73L28.5 54L26.2664 45.0538C25.6088 42.4201 23.6607 40.2996 21.0921 39.4216L19 38.7065L12.2324 36.5L0 33.6842L12.7324 31L18.5 29.2065L21.9352 27.8411C24.0227 27.0113 25.6652 25.3422 26.4611 23.2416L27.5 20.5L29.5 14L32 0Z" fill="#77ADFF"/>
</svg>
