<svg width="24" height="24" viewBox="0 0 24 24" fill="none" xmlns="http://www.w3.org/2000/svg">
<path d="M17.2532 15.0002C16.6918 15.003 16.1382 15.1318 15.6333 15.3771C15.1283 15.6225 14.6849 15.9781 14.3357 16.4177L8.85319 12.9902C9.053 12.3453 9.053 11.655 8.85319 11.0102L14.3357 7.58265C14.8921 8.27169 15.6745 8.74154 16.5442 8.90896C17.4139 9.07638 18.3148 8.93058 19.0873 8.49737C19.8598 8.06417 20.4541 7.37152 20.7648 6.54214C21.0755 5.71276 21.0826 4.80017 20.7849 3.96603C20.4872 3.13189 19.9038 2.43005 19.1382 1.98483C18.3726 1.5396 17.4741 1.37974 16.6019 1.53356C15.7296 1.68737 14.94 2.14493 14.3729 2.82519C13.8057 3.50545 13.4976 4.3645 13.5032 5.25015C13.5067 5.58554 13.5572 5.91877 13.6532 6.24015L8.17069 9.66765C7.68667 9.05834 7.02509 8.61469 6.27765 8.3982C5.53021 8.18171 4.73394 8.2031 3.9992 8.45941C3.26446 8.71572 2.62766 9.19426 2.17706 9.82868C1.72645 10.4631 1.48438 11.222 1.48438 12.0002C1.48437 12.7783 1.72645 13.5372 2.17706 14.1716C2.62766 14.8061 3.26446 15.2846 3.9992 15.5409C4.73394 15.7972 5.53021 15.8186 6.27765 15.6021C7.02509 15.3856 7.68667 14.942 8.17069 14.3327L13.6532 17.7602C13.5572 18.0815 13.5067 18.4148 13.5032 18.7502C13.5032 19.4918 13.7231 20.2169 14.1352 20.8335C14.5472 21.4502 15.1329 21.9309 15.8181 22.2147C16.5034 22.4985 17.2574 22.5728 17.9848 22.4281C18.7122 22.2834 19.3804 21.9263 19.9048 21.4018C20.4293 20.8774 20.7864 20.2092 20.9311 19.4817C21.0758 18.7543 21.0016 18.0003 20.7177 17.3151C20.4339 16.6299 19.9533 16.0442 19.3366 15.6321C18.7199 15.2201 17.9949 15.0002 17.2532 15.0002ZM17.2532 3.00015C17.6982 3.00015 18.1332 3.13211 18.5032 3.37935C18.8732 3.62658 19.1616 3.97798 19.3319 4.38912C19.5022 4.80025 19.5468 5.25265 19.46 5.68911C19.3731 6.12556 19.1588 6.52648 18.8442 6.84114C18.5295 7.15581 18.1286 7.3701 17.6921 7.45692C17.2557 7.54374 16.8033 7.49918 16.3922 7.32888C15.981 7.15859 15.6296 6.8702 15.3824 6.50019C15.1351 6.13018 15.0032 5.69516 15.0032 5.25015C15.0032 4.65342 15.2402 4.08112 15.6622 3.65916C16.0842 3.23721 16.6565 3.00015 17.2532 3.00015ZM5.25319 14.2502C4.80818 14.2502 4.37317 14.1182 4.00316 13.871C3.63315 13.6237 3.34476 13.2723 3.17446 12.8612C3.00416 12.4501 2.95961 11.9977 3.04642 11.5612C3.13324 11.1247 3.34753 10.7238 3.6622 10.4092C3.97687 10.0945 4.37778 9.8802 4.81424 9.79339C5.25069 9.70657 5.70309 9.75113 6.11423 9.92142C6.52536 10.0917 6.87676 10.3801 7.124 10.7501C7.37123 11.1201 7.50319 11.5551 7.50319 12.0002C7.50319 12.5969 7.26614 13.1692 6.84418 13.5911C6.42222 14.0131 5.84993 14.2502 5.25319 14.2502ZM17.2532 21.0002C16.8082 21.0002 16.3732 20.8682 16.0032 20.621C15.6331 20.3737 15.3448 20.0223 15.1745 19.6112C15.0042 19.2001 14.9596 18.7477 15.0464 18.3112C15.1332 17.8747 15.3475 17.4738 15.6622 17.1592C15.9769 16.8445 16.3778 16.6302 16.8142 16.5434C17.2507 16.4566 17.7031 16.5011 18.1142 16.6714C18.5254 16.8417 18.8768 17.1301 19.124 17.5001C19.3712 17.8701 19.5032 18.3051 19.5032 18.7502C19.5032 19.3469 19.2661 19.9192 18.8442 20.3411C18.4222 20.7631 17.8499 21.0002 17.2532 21.0002Z" fill="#287DFB"/>
</svg>
