<svg width="28" height="21" viewBox="0 0 28 21" fill="none" xmlns="http://www.w3.org/2000/svg">
<path d="M7.33329 14.0001H11.3333C11.6869 14.0001 12.0261 13.8596 12.2761 13.6096C12.5262 13.3595 12.6666 13.0204 12.6666 12.6667C12.6666 12.3131 12.5262 11.974 12.2761 11.7239C12.0261 11.4739 11.6869 11.3334 11.3333 11.3334H7.33329C6.97967 11.3334 6.64053 11.4739 6.39048 11.7239C6.14044 11.974 5.99996 12.3131 5.99996 12.6667C5.99996 13.0204 6.14044 13.3595 6.39048 13.6096C6.64053 13.8596 6.97967 14.0001 7.33329 14.0001ZM23.3333 0.666748H4.66663C3.60576 0.666748 2.58834 1.08818 1.8382 1.83832C1.08805 2.58847 0.666626 3.60588 0.666626 4.66675V16.6667C0.666626 17.7276 1.08805 18.745 1.8382 19.4952C2.58834 20.2453 3.60576 20.6667 4.66663 20.6667H23.3333C24.3942 20.6667 25.4116 20.2453 26.1617 19.4952C26.9119 18.745 27.3333 17.7276 27.3333 16.6667V4.66675C27.3333 3.60588 26.9119 2.58847 26.1617 1.83832C25.4116 1.08818 24.3942 0.666748 23.3333 0.666748ZM24.6666 16.6667C24.6666 17.0204 24.5262 17.3595 24.2761 17.6096C24.0261 17.8596 23.6869 18.0001 23.3333 18.0001H4.66663C4.313 18.0001 3.97387 17.8596 3.72382 17.6096C3.47377 17.3595 3.33329 17.0204 3.33329 16.6667V8.66675H24.6666V16.6667ZM24.6666 6.00008H3.33329V4.66675C3.33329 4.31313 3.47377 3.97399 3.72382 3.72394C3.97387 3.47389 4.313 3.33341 4.66663 3.33341H23.3333C23.6869 3.33341 24.0261 3.47389 24.2761 3.72394C24.5262 3.97399 24.6666 4.31313 24.6666 4.66675V6.00008Z" fill="#8F9092"/>
</svg>
