<svg width="48" height="48" viewBox="0 0 48 48" fill="none" xmlns="http://www.w3.org/2000/svg">
<rect width="48" height="48" rx="24" fill="white"/>
<path d="M31.9707 22.3867V27.72C31.9707 28.0667 31.9574 28.4 31.9174 28.72C31.6107 32.32 29.4907 34.1066 25.5841 34.1066H25.0507C24.7174 34.1066 24.3974 34.2667 24.1974 34.5333L22.5974 36.6667C21.8907 37.6133 20.7441 37.6133 20.0374 36.6667L18.4374 34.5333C18.264 34.3067 17.8774 34.1066 17.5841 34.1066H17.0507C12.7974 34.1066 10.6641 33.0533 10.6641 27.72V22.3867C10.6641 18.48 12.4641 16.36 16.0507 16.0533C16.3707 16.0133 16.7041 16 17.0507 16H25.5841C29.8374 16 31.9707 18.1333 31.9707 22.3867Z" stroke="#2563EB" stroke-width="1.5" stroke-miterlimit="10" stroke-linecap="round" stroke-linejoin="round"/>
<path d="M37.308 17.0546V22.388C37.308 26.308 35.508 28.4146 31.9213 28.7213C31.9613 28.4013 31.9747 28.068 31.9747 27.7213V22.388C31.9747 18.1346 29.8413 16.0013 25.588 16.0013H17.0547C16.708 16.0013 16.3747 16.0146 16.0547 16.0546C16.3614 12.468 18.4814 10.668 22.388 10.668H30.9213C35.1747 10.668 37.308 12.8013 37.308 17.0546Z" stroke="#2563EB" stroke-width="1.5" stroke-miterlimit="10" stroke-linecap="round" stroke-linejoin="round"/>
<path d="M25.9966 25.6667H26.0086" stroke="#2563EB" stroke-width="2" stroke-linecap="round" stroke-linejoin="round"/>
<path d="M21.3247 25.6667H21.3367" stroke="#2563EB" stroke-width="2" stroke-linecap="round" stroke-linejoin="round"/>
<path d="M16.6607 25.6667H16.6727" stroke="#2563EB" stroke-width="2" stroke-linecap="round" stroke-linejoin="round"/>
</svg>
