<svg width="126" height="27" viewBox="0 0 126 27" fill="none" xmlns="http://www.w3.org/2000/svg">
<path d="M14.0601 1.3457H27.5523L17.6328 16.8023H4.14062L14.0601 1.3457Z" fill="#007AFF"/>
<path d="M14.6506 18.2355L10.8086 24.2223H24.9408L34.8603 8.76562H24.4298L18.3524 18.2355H14.6506Z" fill="#312ECB"/>
<path d="M49.62 20.6191L43.34 6.51914H46.12L51.18 18.3591H50.34L55.4 6.51914H58.08L51.8 20.6191H49.62ZM62.5841 20.8191C61.5441 20.8191 60.6441 20.6058 59.8841 20.1791C59.1241 19.7525 58.5307 19.1458 58.1041 18.3591C57.6907 17.5725 57.4841 16.6391 57.4841 15.5591C57.4841 14.4791 57.6907 13.5525 58.1041 12.7791C58.5307 11.9925 59.1241 11.3858 59.8841 10.9591C60.6441 10.5325 61.5441 10.3191 62.5841 10.3191C63.6241 10.3191 64.5241 10.5325 65.2841 10.9591C66.0574 11.3858 66.6507 11.9925 67.0641 12.7791C67.4907 13.5525 67.7041 14.4791 67.7041 15.5591C67.7041 16.6391 67.4907 17.5725 67.0641 18.3591C66.6507 19.1458 66.0574 19.7525 65.2841 20.1791C64.5241 20.6058 63.6241 20.8191 62.5841 20.8191ZM62.5841 18.8991C63.3707 18.8991 63.9974 18.6258 64.4641 18.0791C64.9307 17.5191 65.1641 16.6791 65.1641 15.5591C65.1641 14.4391 64.9307 13.6058 64.4641 13.0591C63.9974 12.5125 63.3707 12.2391 62.5841 12.2391C61.7974 12.2391 61.1707 12.5125 60.7041 13.0591C60.2374 13.6058 60.0041 14.4391 60.0041 15.5591C60.0041 16.6791 60.2374 17.5191 60.7041 18.0791C61.1707 18.6258 61.7974 18.8991 62.5841 18.8991ZM68.0461 20.6191L72.7461 14.8391V15.9791L68.3061 10.5191H71.2661L74.1661 14.2591H73.2661L76.1661 10.5191H79.1061L74.7061 15.9791V14.8391L79.3861 20.6191H76.4061L73.2661 16.5991H74.1661L71.0061 20.6191H68.0461ZM84.9688 20.8191C83.9288 20.8191 83.0154 20.6058 82.2288 20.1791C81.4554 19.7525 80.8554 19.1458 80.4288 18.3591C80.0021 17.5591 79.7888 16.6125 79.7888 15.5191C79.7888 14.4258 80.0021 13.4925 80.4288 12.7191C80.8688 11.9458 81.4754 11.3525 82.2488 10.9391C83.0221 10.5258 83.9288 10.3191 84.9688 10.3191C85.6354 10.3191 86.2821 10.4258 86.9088 10.6391C87.5488 10.8391 88.0688 11.1325 88.4688 11.5191L87.7088 13.2591C87.3488 12.9258 86.9421 12.6791 86.4888 12.5191C86.0488 12.3458 85.6154 12.2591 85.1888 12.2591C84.2954 12.2591 83.5954 12.5391 83.0888 13.0991C82.5954 13.6591 82.3488 14.4725 82.3488 15.5391C82.3488 16.6058 82.5954 17.4258 83.0888 17.9991C83.5954 18.5725 84.2954 18.8591 85.1888 18.8591C85.6021 18.8591 86.0288 18.7791 86.4688 18.6191C86.9221 18.4591 87.3354 18.2125 87.7088 17.8791L88.4688 19.5991C88.0554 19.9858 87.5288 20.2858 86.8888 20.4991C86.2621 20.7125 85.6221 20.8191 84.9688 20.8191ZM90.4069 20.6191V5.89914H92.9069V20.6191H90.4069ZM95.6217 20.6191V10.5191H98.1217V20.6191H95.6217ZM95.4817 8.61914V6.17914H98.2617V8.61914H95.4817ZM100.837 24.9391V13.0391C100.837 12.6258 100.823 12.2058 100.797 11.7791C100.77 11.3525 100.73 10.9325 100.677 10.5191H103.097L103.317 12.6391H103.097C103.297 11.9325 103.717 11.3725 104.357 10.9591C105.01 10.5325 105.763 10.3191 106.617 10.3191C107.51 10.3191 108.29 10.5325 108.957 10.9591C109.623 11.3725 110.143 11.9725 110.517 12.7591C110.89 13.5325 111.077 14.4658 111.077 15.5591C111.077 16.6525 110.89 17.5925 110.517 18.3791C110.143 19.1658 109.623 19.7725 108.957 20.1991C108.29 20.6125 107.51 20.8191 106.617 20.8191C105.777 20.8191 105.037 20.6125 104.397 20.1991C103.757 19.7858 103.33 19.2325 103.117 18.5391H103.337V24.9391H100.837ZM105.917 18.8991C106.717 18.8991 107.357 18.6258 107.837 18.0791C108.317 17.5191 108.557 16.6791 108.557 15.5591C108.557 14.4391 108.317 13.6058 107.837 13.0591C107.357 12.5125 106.717 12.2391 105.917 12.2391C105.13 12.2391 104.497 12.5125 104.017 13.0591C103.537 13.6058 103.297 14.4391 103.297 15.5591C103.297 16.6791 103.537 17.5191 104.017 18.0791C104.497 18.6258 105.13 18.8991 105.917 18.8991ZM116.839 20.8191C115.972 20.8191 115.172 20.7191 114.439 20.5191C113.719 20.3058 113.112 20.0125 112.619 19.6391L113.319 17.9591C113.826 18.3058 114.386 18.5725 114.999 18.7591C115.612 18.9458 116.232 19.0391 116.859 19.0391C117.526 19.0391 118.019 18.9258 118.339 18.6991C118.672 18.4725 118.839 18.1658 118.839 17.7791C118.839 17.4725 118.732 17.2325 118.519 17.0591C118.319 16.8725 117.992 16.7325 117.539 16.6391L115.539 16.2591C114.686 16.0725 114.032 15.7525 113.579 15.2991C113.139 14.8458 112.919 14.2525 112.919 13.5191C112.919 12.8925 113.086 12.3391 113.419 11.8591C113.766 11.3791 114.252 11.0058 114.879 10.7391C115.519 10.4591 116.266 10.3191 117.119 10.3191C117.866 10.3191 118.566 10.4191 119.219 10.6191C119.886 10.8191 120.446 11.1191 120.899 11.5191L120.179 13.1391C119.766 12.8058 119.292 12.5458 118.759 12.3591C118.226 12.1725 117.706 12.0791 117.199 12.0791C116.506 12.0791 115.999 12.2058 115.679 12.4591C115.359 12.6991 115.199 13.0125 115.199 13.3991C115.199 13.6925 115.292 13.9391 115.479 14.1391C115.679 14.3258 115.986 14.4658 116.399 14.5591L118.399 14.9391C119.292 15.1125 119.966 15.4191 120.419 15.8591C120.886 16.2858 121.119 16.8725 121.119 17.6191C121.119 18.2858 120.939 18.8591 120.579 19.3391C120.219 19.8191 119.719 20.1858 119.079 20.4391C118.439 20.6925 117.692 20.8191 116.839 20.8191Z" fill="white"/>
</svg>
