<svg width="126" height="28" viewBox="0 0 126 28" fill="none" xmlns="http://www.w3.org/2000/svg">
<path d="M14.0601 2.22559H27.5523L17.6328 17.6822H4.14062L14.0601 2.22559Z" fill="#007AFF"/>
<path d="M14.6506 19.1149L10.8086 25.1017H24.9408L34.8603 9.64502H24.4298L18.3524 19.1149H14.6506Z" fill="#312ECB"/>
<path d="M49.62 21.5L43.34 7.4H46.12L51.18 19.24H50.34L55.4 7.4H58.08L51.8 21.5H49.62ZM62.5841 21.7C61.5441 21.7 60.6441 21.4867 59.8841 21.06C59.1241 20.6333 58.5307 20.0267 58.1041 19.24C57.6907 18.4533 57.4841 17.52 57.4841 16.44C57.4841 15.36 57.6907 14.4333 58.1041 13.66C58.5307 12.8733 59.1241 12.2667 59.8841 11.84C60.6441 11.4133 61.5441 11.2 62.5841 11.2C63.6241 11.2 64.5241 11.4133 65.2841 11.84C66.0574 12.2667 66.6507 12.8733 67.0641 13.66C67.4907 14.4333 67.7041 15.36 67.7041 16.44C67.7041 17.52 67.4907 18.4533 67.0641 19.24C66.6507 20.0267 66.0574 20.6333 65.2841 21.06C64.5241 21.4867 63.6241 21.7 62.5841 21.7ZM62.5841 19.78C63.3707 19.78 63.9974 19.5067 64.4641 18.96C64.9307 18.4 65.1641 17.56 65.1641 16.44C65.1641 15.32 64.9307 14.4867 64.4641 13.94C63.9974 13.3933 63.3707 13.12 62.5841 13.12C61.7974 13.12 61.1707 13.3933 60.7041 13.94C60.2374 14.4867 60.0041 15.32 60.0041 16.44C60.0041 17.56 60.2374 18.4 60.7041 18.96C61.1707 19.5067 61.7974 19.78 62.5841 19.78ZM68.0461 21.5L72.7461 15.72V16.86L68.3061 11.4H71.2661L74.1661 15.14H73.2661L76.1661 11.4H79.1061L74.7061 16.86V15.72L79.3861 21.5H76.4061L73.2661 17.48H74.1661L71.0061 21.5H68.0461ZM84.9688 21.7C83.9288 21.7 83.0154 21.4867 82.2288 21.06C81.4554 20.6333 80.8554 20.0267 80.4288 19.24C80.0021 18.44 79.7888 17.4933 79.7888 16.4C79.7888 15.3067 80.0021 14.3733 80.4288 13.6C80.8688 12.8267 81.4754 12.2333 82.2488 11.82C83.0221 11.4067 83.9288 11.2 84.9688 11.2C85.6354 11.2 86.2821 11.3067 86.9088 11.52C87.5488 11.72 88.0688 12.0133 88.4688 12.4L87.7088 14.14C87.3488 13.8067 86.9421 13.56 86.4888 13.4C86.0488 13.2267 85.6154 13.14 85.1888 13.14C84.2954 13.14 83.5954 13.42 83.0888 13.98C82.5954 14.54 82.3488 15.3533 82.3488 16.42C82.3488 17.4867 82.5954 18.3067 83.0888 18.88C83.5954 19.4533 84.2954 19.74 85.1888 19.74C85.6021 19.74 86.0288 19.66 86.4688 19.5C86.9221 19.34 87.3354 19.0933 87.7088 18.76L88.4688 20.48C88.0554 20.8667 87.5288 21.1667 86.8888 21.38C86.2621 21.5933 85.6221 21.7 84.9688 21.7ZM90.4069 21.5V6.78H92.9069V21.5H90.4069ZM95.6217 21.5V11.4H98.1217V21.5H95.6217ZM95.4817 9.5V7.06H98.2617V9.5H95.4817ZM100.837 25.82V13.92C100.837 13.5067 100.823 13.0867 100.797 12.66C100.77 12.2333 100.73 11.8133 100.677 11.4H103.097L103.317 13.52H103.097C103.297 12.8133 103.717 12.2533 104.357 11.84C105.01 11.4133 105.763 11.2 106.617 11.2C107.51 11.2 108.29 11.4133 108.957 11.84C109.623 12.2533 110.143 12.8533 110.517 13.64C110.89 14.4133 111.077 15.3467 111.077 16.44C111.077 17.5333 110.89 18.4733 110.517 19.26C110.143 20.0467 109.623 20.6533 108.957 21.08C108.29 21.4933 107.51 21.7 106.617 21.7C105.777 21.7 105.037 21.4933 104.397 21.08C103.757 20.6667 103.33 20.1133 103.117 19.42H103.337V25.82H100.837ZM105.917 19.78C106.717 19.78 107.357 19.5067 107.837 18.96C108.317 18.4 108.557 17.56 108.557 16.44C108.557 15.32 108.317 14.4867 107.837 13.94C107.357 13.3933 106.717 13.12 105.917 13.12C105.13 13.12 104.497 13.3933 104.017 13.94C103.537 14.4867 103.297 15.32 103.297 16.44C103.297 17.56 103.537 18.4 104.017 18.96C104.497 19.5067 105.13 19.78 105.917 19.78ZM116.839 21.7C115.972 21.7 115.172 21.6 114.439 21.4C113.719 21.1867 113.112 20.8933 112.619 20.52L113.319 18.84C113.826 19.1867 114.386 19.4533 114.999 19.64C115.612 19.8267 116.232 19.92 116.859 19.92C117.526 19.92 118.019 19.8067 118.339 19.58C118.672 19.3533 118.839 19.0467 118.839 18.66C118.839 18.3533 118.732 18.1133 118.519 17.94C118.319 17.7533 117.992 17.6133 117.539 17.52L115.539 17.14C114.686 16.9533 114.032 16.6333 113.579 16.18C113.139 15.7267 112.919 15.1333 112.919 14.4C112.919 13.7733 113.086 13.22 113.419 12.74C113.766 12.26 114.252 11.8867 114.879 11.62C115.519 11.34 116.266 11.2 117.119 11.2C117.866 11.2 118.566 11.3 119.219 11.5C119.886 11.7 120.446 12 120.899 12.4L120.179 14.02C119.766 13.6867 119.292 13.4267 118.759 13.24C118.226 13.0533 117.706 12.96 117.199 12.96C116.506 12.96 115.999 13.0867 115.679 13.34C115.359 13.58 115.199 13.8933 115.199 14.28C115.199 14.5733 115.292 14.82 115.479 15.02C115.679 15.2067 115.986 15.3467 116.399 15.44L118.399 15.82C119.292 15.9933 119.966 16.3 120.419 16.74C120.886 17.1667 121.119 17.7533 121.119 18.5C121.119 19.1667 120.939 19.74 120.579 20.22C120.219 20.7 119.719 21.0667 119.079 21.32C118.439 21.5733 117.692 21.7 116.839 21.7Z" fill="#292D32"/>
</svg>
