<svg width="9" height="6" viewBox="0 0 9 6" fill="none" xmlns="http://www.w3.org/2000/svg">
<path d="M3.00176 1.00071C3.04761 0.967882 2.94624 1.01429 3.00176 1.00071C3.05727 0.987133 2.94503 0.992975 3.00176 1.00071C2.95245 0.972834 3.05849 1.00845 3.00176 1.00071C3.05107 1.02859 3.96737 0.956938 4.00176 1.00071C4.03614 1.04449 3.98754 0.947706 4.00176 1.00071C4.01598 1.05372 4.00986 0.946544 4.00176 1.00071C3.99365 1.05488 4.03096 1.95363 4.00176 2.00071C3.97256 2.0478 3.04761 1.96788 3.00176 2.00071C2.31923 2.48948 2.22563 2.5857 2.00176 3.00071C2.30915 2.92516 2.70543 2.89211 3.00176 3.00071C3.29809 3.10932 3.82627 3.74818 4.00176 4.00071C4.17725 4.25325 4.01211 4.69781 4.00176 5.00071C3.99141 5.30362 4.19412 4.75964 4.00176 5.00071C3.8094 5.24179 3.30487 5.91078 3.00176 6.00071C2.69865 6.09065 2.30333 6.09524 2.00176 6.00071C1.70018 5.90619 1.19008 5.24468 1.00176 5.00071C0.813437 4.75675 1.00706 5.30374 1.00176 5.00071C0.94584 4.489 0.80026 3.47788 1.00176 3.00071C1.26229 2.37319 2.0731 1.66574 3.00176 1.00071ZM7.00176 1.00071C7.04761 0.967882 6.94624 1.01429 7.00176 1.00071C7.05727 0.987133 6.94503 0.992975 7.00176 1.00071C6.95245 0.972834 7.05849 1.00845 7.00176 1.00071C6.96737 0.956938 7.05107 1.02859 7.00176 1.00071C7.03614 1.04449 7.98754 0.947706 8.00176 1.00071C8.01598 1.05372 8.00986 0.946544 8.00176 1.00071C7.99365 1.05488 8.03096 1.95363 8.00176 2.00071C7.97256 2.0478 7.04761 1.96788 7.00176 2.00071C6.31923 2.48948 6.22563 2.5857 6.00176 3.00071C6.30915 2.92516 6.70543 2.89211 7.00176 3.00071C7.29809 3.10932 7.82627 3.74818 8.00176 4.00071C8.17725 4.25325 8.01211 4.69781 8.00176 5.00071C7.99141 5.30362 8.19412 4.75964 8.00176 5.00071C7.8094 5.24179 7.30487 5.91078 7.00176 6.00071C6.69865 6.09065 6.30333 6.09524 6.00176 6.00071C5.70018 5.90619 5.19008 5.24468 5.00176 5.00071C4.81344 4.75675 5.00706 5.30374 5.00176 5.00071C4.94584 4.489 4.80026 3.47788 5.00176 3.00071C5.26273 2.37319 6.0731 1.66574 7.00176 1.00071Z" fill="black" fill-opacity="0.6"/>
</svg>
