<svg width="28" height="28" viewBox="0 0 28 28" fill="none" xmlns="http://www.w3.org/2000/svg">
<path d="M12.1332 16.4001L9.23317 13.5001C8.98873 13.2556 8.68873 13.1334 8.33317 13.1334C7.97762 13.1334 7.6665 13.2667 7.39984 13.5334C7.15539 13.7779 7.03317 14.089 7.03317 14.4667C7.03317 14.8445 7.15539 15.1556 7.39984 15.4001L11.1998 19.2001C11.4443 19.4445 11.7554 19.5667 12.1332 19.5667C12.5109 19.5667 12.8221 19.4445 13.0665 19.2001L20.6332 11.6334C20.8776 11.389 20.9998 11.089 20.9998 10.7334C20.9998 10.3779 20.8665 10.0667 20.5998 9.80008C20.3554 9.55564 20.0443 9.43341 19.6665 9.43341C19.2887 9.43341 18.9776 9.55564 18.7332 9.80008L12.1332 16.4001ZM13.9998 27.3334C12.1554 27.3334 10.4221 26.9832 8.79984 26.2827C7.17762 25.5832 5.7665 24.6334 4.5665 23.4334C3.3665 22.2334 2.41673 20.8223 1.71717 19.2001C1.01673 17.5779 0.666504 15.8445 0.666504 14.0001C0.666504 12.1556 1.01673 10.4223 1.71717 8.80008C2.41673 7.17786 3.3665 5.76675 4.5665 4.56675C5.7665 3.36675 7.17762 2.41653 8.79984 1.71608C10.4221 1.01653 12.1554 0.666748 13.9998 0.666748C15.8443 0.666748 17.5776 1.01653 19.1998 1.71608C20.8221 2.41653 22.2332 3.36675 23.4332 4.56675C24.6332 5.76675 25.5829 7.17786 26.2825 8.80008C26.9829 10.4223 27.3332 12.1556 27.3332 14.0001C27.3332 15.8445 26.9829 17.5779 26.2825 19.2001C25.5829 20.8223 24.6332 22.2334 23.4332 23.4334C22.2332 24.6334 20.8221 25.5832 19.1998 26.2827C17.5776 26.9832 15.8443 27.3334 13.9998 27.3334Z" fill="#2563EB"/>
</svg>
