<svg width="21" height="18" viewBox="0 0 21 18" fill="none" xmlns="http://www.w3.org/2000/svg">
<path d="M18.7954 4.35144C18.8081 4.53555 18.8081 4.71965 18.8081 4.90546C18.8081 10.5669 14.5065 17.0964 6.64082 17.0964V17.093C4.31727 17.0964 2.04199 16.4295 0.0859375 15.1721C0.4238 15.2129 0.763357 15.2332 1.10376 15.2341C3.02933 15.2358 4.89985 14.5884 6.41473 13.3964C4.58485 13.3616 2.98021 12.1662 2.41965 10.421C3.06066 10.5449 3.72114 10.5194 4.35029 10.3472C2.35529 9.94335 0.92001 8.18713 0.92001 6.14754C0.92001 6.12887 0.92001 6.11106 0.92001 6.09324C1.51445 6.42497 2.18001 6.60908 2.86082 6.62944C0.981825 5.37124 0.402631 2.86671 1.53731 0.908567C3.70844 3.58532 6.91179 5.21258 10.3505 5.38481C10.0059 3.89669 10.4767 2.3373 11.5877 1.2912C13.31 -0.330969 16.0188 -0.247824 17.6379 1.47701C18.5956 1.28781 19.5135 0.935717 20.3535 0.436848C20.0342 1.42865 19.3661 2.27112 18.4736 2.80647C19.3213 2.70636 20.1494 2.47899 20.9293 2.13198C20.3552 2.99397 19.632 3.74482 18.7954 4.35144Z" fill="#1D9BF0"/>
</svg>
