<svg width="23" height="38" viewBox="0 0 23 38" fill="none" xmlns="http://www.w3.org/2000/svg">
<path d="M4.75003 0.800009L21.6 17.6C21.8 17.8 21.9414 18.0167 22.024 18.25C22.108 18.4833 22.15 18.7333 22.15 19C22.15 19.2667 22.108 19.5167 22.024 19.75C21.9414 19.9833 21.8 20.2 21.6 20.4L4.75002 37.25C4.28336 37.7167 3.70003 37.95 3.00002 37.95C2.30002 37.95 1.70003 37.7 1.20003 37.2C0.700026 36.7 0.450026 36.1167 0.450026 35.45C0.450026 34.7833 0.700026 34.2 1.20003 33.7L15.9 19L1.20003 4.30001C0.733361 3.83334 0.500028 3.25868 0.500028 2.57601C0.500028 1.89201 0.750028 1.30001 1.25003 0.800009C1.75003 0.300009 2.33336 0.0500089 3.00003 0.050009C3.66669 0.0500091 4.25003 0.300009 4.75003 0.800009Z" fill="#A2A2A5"/>
</svg>
