<svg width="54" height="54" viewBox="0 0 54 54" fill="none" xmlns="http://www.w3.org/2000/svg">
<path d="M21.1667 29.9167H3.66667C2.89312 29.9167 2.15125 30.224 1.60427 30.7709C1.05729 31.3179 0.75 32.0598 0.75 32.8333V50.3333C0.75 51.1069 1.05729 51.8488 1.60427 52.3957C2.15125 52.9427 2.89312 53.25 3.66667 53.25H21.1667C21.9402 53.25 22.6821 52.9427 23.2291 52.3957C23.776 51.8488 24.0833 51.1069 24.0833 50.3333V32.8333C24.0833 32.0598 23.776 31.3179 23.2291 30.7709C22.6821 30.224 21.9402 29.9167 21.1667 29.9167ZM18.25 47.4167H6.58333V35.75H18.25V47.4167ZM50.3333 0.75H32.8333C32.0598 0.75 31.3179 1.05729 30.7709 1.60427C30.224 2.15125 29.9167 2.89312 29.9167 3.66667V21.1667C29.9167 21.9402 30.224 22.6821 30.7709 23.2291C31.3179 23.776 32.0598 24.0833 32.8333 24.0833H50.3333C51.1069 24.0833 51.8488 23.776 52.3957 23.2291C52.9427 22.6821 53.25 21.9402 53.25 21.1667V3.66667C53.25 2.89312 52.9427 2.15125 52.3957 1.60427C51.8488 1.05729 51.1069 0.75 50.3333 0.75ZM47.4167 18.25H35.75V6.58333H47.4167V18.25ZM50.3333 38.6667H44.5V32.8333C44.5 32.0598 44.1927 31.3179 43.6457 30.7709C43.0988 30.224 42.3569 29.9167 41.5833 29.9167C40.8098 29.9167 40.0679 30.224 39.5209 30.7709C38.974 31.3179 38.6667 32.0598 38.6667 32.8333V38.6667H32.8333C32.0598 38.6667 31.3179 38.974 30.7709 39.5209C30.224 40.0679 29.9167 40.8098 29.9167 41.5833C29.9167 42.3569 30.224 43.0988 30.7709 43.6457C31.3179 44.1927 32.0598 44.5 32.8333 44.5H38.6667V50.3333C38.6667 51.1069 38.974 51.8488 39.5209 52.3957C40.0679 52.9427 40.8098 53.25 41.5833 53.25C42.3569 53.25 43.0988 52.9427 43.6457 52.3957C44.1927 51.8488 44.5 51.1069 44.5 50.3333V44.5H50.3333C51.1069 44.5 51.8488 44.1927 52.3957 43.6457C52.9427 43.0988 53.25 42.3569 53.25 41.5833C53.25 40.8098 52.9427 40.0679 52.3957 39.5209C51.8488 38.974 51.1069 38.6667 50.3333 38.6667ZM21.1667 0.75H3.66667C2.89312 0.75 2.15125 1.05729 1.60427 1.60427C1.05729 2.15125 0.75 2.89312 0.75 3.66667V21.1667C0.75 21.9402 1.05729 22.6821 1.60427 23.2291C2.15125 23.776 2.89312 24.0833 3.66667 24.0833H21.1667C21.9402 24.0833 22.6821 23.776 23.2291 23.2291C23.776 22.6821 24.0833 21.9402 24.0833 21.1667V3.66667C24.0833 2.89312 23.776 2.15125 23.2291 1.60427C22.6821 1.05729 21.9402 0.75 21.1667 0.75ZM18.25 18.25H6.58333V6.58333H18.25V18.25Z" fill="#2563EB"/>
</svg>
