<svg width="232" height="260" viewBox="0 0 232 260" fill="none" xmlns="http://www.w3.org/2000/svg">
<g clip-path="url(#clip0_1347_20592)">
<path d="M129.643 61.7857H128.214V22.6504C128.214 16.6432 125.828 10.882 121.58 6.63417C117.332 2.38639 111.571 7.57999e-06 105.564 0H22.6505C19.676 -7.50633e-06 16.7306 0.585856 13.9825 1.72414C11.2344 2.86242 8.73748 4.53084 6.63419 6.63412C4.5309 8.7374 2.86248 11.2344 1.72418 13.9824C0.585884 16.7305 6.5681e-06 19.6759 0 22.6504V237.35C-2.81489e-06 240.324 0.585859 243.269 1.72415 246.018C2.86244 248.766 4.53086 251.263 6.63415 253.366C8.73743 255.469 11.2344 257.138 13.9825 258.276C16.7305 259.414 19.6759 260 22.6504 260H105.564C111.571 260 117.332 257.614 121.58 253.366C125.828 249.118 128.214 243.357 128.214 237.35V89.6429H129.643V61.7857Z" fill="#E6E6E6"/>
<path d="M106.478 5.89065H95.6548C96.1525 7.1109 96.3425 8.43482 96.2081 9.74579C96.0736 11.0568 95.6188 12.3145 94.8837 13.4083C94.1486 14.5021 93.1558 15.3983 91.9928 16.0181C90.8298 16.6378 89.5322 16.962 88.2143 16.9621H40.7143C39.3964 16.962 38.0988 16.6378 36.9358 16.0181C35.7727 15.3983 34.7799 14.5021 34.0449 13.4083C33.3098 12.3145 32.855 11.0567 32.7205 9.74577C32.586 8.4348 32.776 7.11087 33.2737 5.89063H23.1651C18.6789 5.89062 14.3765 7.67274 11.2043 10.8449C8.03213 14.0171 6.25001 18.3195 6.25 22.8057V237.19C6.25 241.676 8.03211 245.978 11.2043 249.151C14.3765 252.323 18.6789 254.105 23.1651 254.105H106.478C108.699 254.105 110.899 253.667 112.951 252.817C115.003 251.967 116.868 250.721 118.439 249.151C120.009 247.58 121.255 245.715 122.105 243.663C122.955 241.611 123.393 239.411 123.393 237.19V22.8057C123.393 20.5844 122.955 18.3848 122.105 16.3326C121.255 14.2804 120.009 12.4157 118.439 10.8449C116.868 9.27424 115.003 8.02829 112.951 7.17823C110.899 6.32817 108.699 5.89065 106.478 5.89065Z" fill="white"/>
<path d="M116.518 174.276H16.6233C16.1329 174.275 15.6627 174.08 15.3159 173.733C14.9691 173.387 14.774 172.917 14.7734 172.426V147.647C14.774 147.156 14.9691 146.686 15.3159 146.339C15.6627 145.993 16.1329 145.797 16.6233 145.797H116.518C117.008 145.797 117.478 145.993 117.825 146.339C118.172 146.686 118.367 147.156 118.368 147.647V172.426C118.367 172.917 118.172 173.387 117.825 173.734C117.478 174.08 117.008 174.275 116.518 174.276ZM16.6233 146.537C16.329 146.537 16.0468 146.654 15.8387 146.862C15.6306 147.07 15.5136 147.352 15.5133 147.647V172.426C15.5136 172.721 15.6306 173.003 15.8387 173.211C16.0468 173.419 16.329 173.536 16.6233 173.536H116.518C116.812 173.536 117.094 173.419 117.302 173.211C117.51 173.003 117.627 172.721 117.628 172.426V147.647C117.627 147.352 117.51 147.07 117.302 146.862C117.094 146.654 116.812 146.537 116.518 146.537H16.6233Z" fill="#E6E6E6"/>
<path d="M29.5742 167.805C33.8652 167.805 37.3437 164.326 37.3437 160.035C37.3437 155.744 33.8652 152.266 29.5742 152.266C25.2832 152.266 21.8047 155.744 21.8047 160.035C21.8047 164.326 25.2832 167.805 29.5742 167.805Z" fill="#E6E6E6"/>
<path d="M47.5157 154.852C47.176 154.857 46.8522 154.996 46.6139 155.238C46.3757 155.481 46.2422 155.807 46.2422 156.147C46.2422 156.486 46.3757 156.812 46.6139 157.055C46.8522 157.297 47.176 157.436 47.5157 157.441H108.562C108.906 157.448 109.238 157.318 109.485 157.08C109.733 156.842 109.875 156.515 109.882 156.172C109.889 155.828 109.759 155.496 109.52 155.249C109.282 155.001 108.956 154.858 108.612 154.852L108.605 154.852C108.591 154.852 108.576 154.852 108.562 154.852H47.5157Z" fill="#E6E6E6"/>
<path d="M47.5157 162.625C47.176 162.631 46.8522 162.77 46.6139 163.012C46.3757 163.254 46.2422 163.58 46.2422 163.92C46.2422 164.26 46.3757 164.586 46.6139 164.828C46.8522 165.07 47.176 165.209 47.5157 165.215H108.562C108.905 165.22 109.236 165.088 109.482 164.849C109.728 164.611 109.869 164.284 109.875 163.941C109.881 163.598 109.75 163.267 109.512 163.021C109.274 162.774 108.948 162.632 108.605 162.625C108.591 162.625 108.576 162.625 108.562 162.625H47.5157Z" fill="#E6E6E6"/>
<path d="M116.518 215.713H16.6233C16.1329 215.713 15.6627 215.518 15.3159 215.171C14.9691 214.824 14.774 214.354 14.7734 213.864V189.084C14.774 188.594 14.9691 188.124 15.3159 187.777C15.6627 187.43 16.1329 187.235 16.6233 187.234H116.518C117.008 187.235 117.478 187.43 117.825 187.777C118.172 188.124 118.367 188.594 118.368 189.084V213.864C118.367 214.354 118.172 214.824 117.825 215.171C117.478 215.518 117.008 215.713 116.518 215.713ZM16.6233 187.974C16.329 187.975 16.0468 188.092 15.8387 188.3C15.6306 188.508 15.5136 188.79 15.5133 189.084V213.864C15.5136 214.158 15.6306 214.44 15.8387 214.648C16.0468 214.857 16.329 214.974 16.6233 214.974H116.518C116.812 214.974 117.094 214.857 117.302 214.648C117.51 214.44 117.627 214.158 117.628 213.864V189.084C117.627 188.79 117.51 188.508 117.302 188.3C117.094 188.092 116.812 187.975 116.518 187.974H16.6233Z" fill="#E6E6E6"/>
<path d="M29.5742 209.242C33.8652 209.242 37.3437 205.764 37.3437 201.473C37.3437 197.182 33.8652 193.703 29.5742 193.703C25.2832 193.703 21.8047 197.182 21.8047 201.473C21.8047 205.764 25.2832 209.242 29.5742 209.242Z" fill="#E6E6E6"/>
<path d="M47.5157 196.289C47.176 196.295 46.8522 196.434 46.6139 196.676C46.3757 196.918 46.2422 197.244 46.2422 197.584C46.2422 197.924 46.3757 198.25 46.6139 198.492C46.8522 198.734 47.176 198.873 47.5157 198.879H108.562C108.905 198.884 109.236 198.752 109.482 198.514C109.728 198.275 109.869 197.948 109.875 197.605C109.881 197.262 109.75 196.931 109.512 196.685C109.274 196.438 108.948 196.296 108.605 196.289C108.591 196.289 108.576 196.289 108.562 196.289H47.5157Z" fill="#E6E6E6"/>
<path d="M47.5157 204.063C47.176 204.068 46.8522 204.207 46.6139 204.449C46.3757 204.692 46.2422 205.018 46.2422 205.358C46.2422 205.697 46.3757 206.023 46.6139 206.266C46.8522 206.508 47.176 206.647 47.5157 206.652H108.562C108.905 206.657 109.236 206.526 109.482 206.287C109.728 206.048 109.869 205.722 109.875 205.379C109.881 205.036 109.75 204.705 109.512 204.458C109.274 204.211 108.948 204.069 108.605 204.063C108.591 204.062 108.576 204.062 108.562 204.063H47.5157Z" fill="#E6E6E6"/>
<path d="M64.4682 122.851C55.1503 122.855 46.2125 119.157 39.621 112.571C33.0295 105.985 29.3242 97.0501 29.3203 87.7322V87.7029C29.3203 87.6293 29.3203 87.5518 29.3246 87.4782C29.4318 68.2298 45.198 52.5547 64.4682 52.5547C73.79 52.5536 82.7304 56.2557 89.3226 62.8464C95.9149 69.4372 99.619 78.3768 99.62 87.6986C99.6211 97.0203 95.9191 105.961 89.3283 112.553C82.7375 119.145 73.798 122.849 64.4762 122.85H64.4682V122.851ZM64.4682 53.2938C55.3841 53.3142 46.675 56.9184 40.2332 63.3233C33.7914 69.7283 30.1373 78.4165 30.0648 87.5004C30.0609 87.5789 30.0609 87.6432 30.0609 87.7018C30.06 94.5079 32.0775 101.161 35.858 106.821C39.6386 112.481 45.0125 116.892 51.3002 119.497C57.5879 122.103 64.507 122.785 71.1825 121.458C77.858 120.131 83.9901 116.854 88.8033 112.042C93.6165 107.23 96.8948 101.099 98.2234 94.4238C99.552 87.7487 98.8714 80.8294 96.2676 74.5411C93.6638 68.2527 89.2538 62.8777 83.5952 59.0957C77.9366 55.3138 71.2836 53.2947 64.4775 53.2938H64.4682Z" fill="#E6E6E6"/>
<path d="M112.575 165.354C120.467 165.354 126.865 158.956 126.865 151.064C126.865 143.171 120.467 136.773 112.575 136.773C104.683 136.773 98.2852 143.171 98.2852 151.064C98.2852 158.956 104.683 165.354 112.575 165.354Z" fill="white"/>
<path d="M107.613 157.492C107.589 157.492 107.564 157.492 107.54 157.491H99.8589C98.8843 157.476 97.9548 157.078 97.2709 156.383C96.587 155.689 96.2035 154.753 96.2031 153.779C96.2027 152.804 96.5855 151.868 97.2688 151.173C97.9522 150.478 98.8813 150.079 99.8559 150.063H107.543C107.581 150.062 107.622 150.062 107.663 150.063C108.643 150.077 109.578 150.477 110.265 151.178C110.951 151.878 111.332 152.821 111.326 153.802C111.319 154.782 110.925 155.721 110.23 156.412C109.535 157.103 108.594 157.491 107.613 157.492Z" fill="#6C63FF"/>
<path d="M231.992 259.133H116.23V259.933H231.992V259.133Z" fill="#3F3D56"/>
<path d="M123.364 191.389C123.273 191.247 123.198 191.096 123.139 190.939L121.294 185.999C121.08 185.422 121.103 184.784 121.358 184.224C121.614 183.663 122.081 183.228 122.657 183.011L163.828 167.638C164.405 167.423 165.044 167.446 165.604 167.702C166.164 167.957 166.6 168.425 166.816 169.001L168.66 173.941C168.767 174.227 168.816 174.531 168.805 174.835C168.795 175.14 168.724 175.44 168.597 175.717C168.471 175.995 168.291 176.244 168.068 176.452C167.844 176.66 167.583 176.822 167.297 176.929L126.127 192.302C125.631 192.487 125.087 192.497 124.585 192.331C124.082 192.165 123.652 191.833 123.364 191.389Z" fill="#6C63FF"/>
<path d="M163.694 166.362L146.952 173.038C146.424 173.196 145.978 173.552 145.706 174.031C145.434 174.51 145.356 175.075 145.49 175.61L147.433 183.389C147.509 183.696 147.653 183.983 147.854 184.228C148.055 184.473 148.307 184.67 148.593 184.806C148.879 184.942 149.192 185.012 149.509 185.013C149.826 185.013 150.139 184.944 150.425 184.809L167.213 176.907C167.745 176.707 168.176 176.305 168.412 175.789C168.648 175.272 168.67 174.683 168.472 174.15L166.454 167.621C166.255 167.088 165.852 166.656 165.335 166.42C164.817 166.184 164.227 166.163 163.694 166.362Z" fill="#2F2E41"/>
<path d="M194.334 214.831C193.808 214.891 193.278 214.771 192.83 214.489C192.383 214.207 192.045 213.781 191.872 213.28L177.541 171.736C177.442 171.448 177.4 171.143 177.418 170.838C177.437 170.534 177.515 170.236 177.648 169.962C177.782 169.688 177.968 169.443 178.196 169.24C178.425 169.038 178.691 168.883 178.979 168.784L183.964 167.064C184.546 166.864 185.184 166.903 185.737 167.172C186.291 167.442 186.715 167.92 186.916 168.502L201.247 210.047C201.447 210.629 201.408 211.267 201.138 211.82C200.869 212.374 200.391 212.798 199.809 212.999L194.824 214.718C194.665 214.773 194.501 214.811 194.334 214.831Z" fill="#6C63FF"/>
<path d="M187.984 167.789L193.484 184.953C193.697 185.461 193.706 186.032 193.51 186.547C193.314 187.061 192.927 187.481 192.43 187.718L185.191 191.168C184.906 191.304 184.593 191.375 184.276 191.376C183.96 191.377 183.647 191.308 183.36 191.174C183.073 191.039 182.819 190.843 182.618 190.599C182.416 190.355 182.27 190.069 182.192 189.762L177.608 171.783C177.424 171.245 177.46 170.657 177.709 170.146C177.957 169.635 178.398 169.244 178.935 169.057L185.256 166.461C185.794 166.275 186.383 166.311 186.894 166.561C187.406 166.81 187.798 167.251 187.984 167.789Z" fill="#2F2E41"/>
<path d="M171.329 259.365H166.057C165.441 259.364 164.851 259.119 164.415 258.684C163.98 258.249 163.735 257.658 163.734 257.043V213.096C163.735 212.48 163.98 211.89 164.415 211.454C164.851 211.019 165.441 210.774 166.057 210.773H171.329C171.945 210.774 172.535 211.019 172.971 211.454C173.406 211.89 173.651 212.48 173.651 213.096V257.043C173.651 257.658 173.406 258.249 172.971 258.684C172.535 259.119 171.945 259.364 171.329 259.365Z" fill="#2F2E41"/>
<path d="M181.759 259.365H176.486C175.871 259.364 175.28 259.119 174.845 258.684C174.41 258.249 174.165 257.658 174.164 257.043V213.096C174.165 212.48 174.41 211.89 174.845 211.454C175.28 211.019 175.871 210.774 176.486 210.773H181.759C182.375 210.774 182.965 211.019 183.4 211.454C183.836 211.89 184.081 212.48 184.081 213.096V257.043C184.081 257.658 183.836 258.249 183.4 258.684C182.965 259.119 182.375 259.364 181.759 259.365Z" fill="#2F2E41"/>
<path d="M186.103 218.261H162.145C161.482 218.26 160.847 217.996 160.378 217.527C159.909 217.058 159.645 216.423 159.645 215.76V176.839C159.645 172.999 161.17 169.316 163.886 166.6C166.601 163.885 170.284 162.359 174.124 162.359C177.965 162.359 181.648 163.885 184.363 166.6C187.079 169.316 188.604 172.999 188.604 176.839V215.76C188.604 216.423 188.34 217.058 187.871 217.527C187.402 217.996 186.767 218.26 186.103 218.261Z" fill="#CCCCCC"/>
<path d="M189.713 227.78H177.566V159.133L177.792 159.194C181.213 160.133 184.231 162.169 186.385 164.988C188.538 167.807 189.707 171.254 189.713 174.802V227.78Z" fill="#2F2E41"/>
<path d="M169.701 227.78H157.555V174.802C157.561 171.254 158.73 167.807 160.883 164.988C163.036 162.169 166.055 160.133 169.476 159.194L169.701 159.133V227.78Z" fill="#2F2E41"/>
<path d="M173.944 154.31C184.504 154.31 193.064 145.75 193.064 135.19C193.064 124.631 184.504 116.07 173.944 116.07C163.384 116.07 154.824 124.631 154.824 135.19C154.824 145.75 163.384 154.31 173.944 154.31Z" fill="#6C63FF"/>
<path d="M195.561 130.791C195.561 130.791 196.633 101.139 182.7 110.785C182.7 110.785 174.662 83.8125 155.013 124.182L149.297 129.898C149.297 129.898 175.019 126.325 198.955 137.4L195.561 130.791Z" fill="#2F2E41"/>
<path d="M174.236 144.663C173.055 144.63 171.585 144.589 170.452 143.762C170.115 143.506 169.838 143.179 169.641 142.804C169.443 142.429 169.33 142.016 169.309 141.593C169.289 141.292 169.338 140.991 169.453 140.712C169.569 140.434 169.747 140.186 169.974 139.987C170.565 139.488 171.429 139.37 172.36 139.644L171.395 132.597L172.103 132.5L173.237 140.785L172.646 140.513C171.96 140.199 171.02 140.039 170.435 140.533C170.291 140.662 170.18 140.823 170.108 141.002C170.037 141.182 170.008 141.375 170.023 141.568C170.041 141.882 170.126 142.19 170.272 142.469C170.419 142.748 170.624 142.992 170.874 143.185C171.755 143.829 172.927 143.912 174.256 143.949L174.236 144.663Z" fill="#2F2E41"/>
<path d="M167.895 133.203H164.047V133.918H167.895V133.203Z" fill="#2F2E41"/>
<path d="M180.043 133.203H176.195V133.918H180.043V133.203Z" fill="#2F2E41"/>
<path d="M131.316 193.216C130.8 193.455 130.211 193.48 129.677 193.285C129.143 193.089 128.709 192.69 128.469 192.174L116.14 165.6C115.901 165.084 115.877 164.495 116.072 163.961C116.268 163.427 116.667 162.993 117.183 162.754C117.698 162.515 118.288 162.49 118.822 162.685C119.356 162.881 119.79 163.28 120.029 163.796L132.358 190.37C132.598 190.885 132.622 191.475 132.427 192.009C132.231 192.543 131.832 192.977 131.316 193.216Z" fill="#3F3D56"/>
<path d="M118.646 164.623C118.267 164.623 117.904 164.472 117.636 164.204C117.368 163.936 117.217 163.573 117.217 163.194V144.991H99.3548C98.9758 144.991 98.6123 144.84 98.3443 144.572C98.0763 144.304 97.9258 143.941 97.9258 143.562C97.9258 143.183 98.0763 142.819 98.3443 142.551C98.6123 142.283 98.9758 142.133 99.3548 142.133H118.646C119.025 142.133 119.389 142.283 119.657 142.551C119.925 142.819 120.075 143.183 120.075 143.562V163.194C120.075 163.573 119.925 163.936 119.657 164.204C119.389 164.472 119.025 164.623 118.646 164.623Z" fill="#6C63FF"/>
<path d="M118.986 166.641C115.91 168.068 112.479 168.551 109.128 168.029C105.777 167.507 102.656 166.002 100.16 163.706C97.6636 161.41 95.9044 158.425 95.1047 155.129C94.3049 151.833 94.5005 148.374 95.6666 145.189C96.8328 142.005 98.9171 139.237 101.656 137.237C104.395 135.237 107.666 134.094 111.054 133.952C114.443 133.811 117.797 134.678 120.693 136.443C123.59 138.208 125.897 140.792 127.325 143.869C129.233 147.995 129.427 152.71 127.864 156.979C126.301 161.248 123.108 164.723 118.986 166.641ZM106.356 139.419C104.049 140.49 102.111 142.22 100.787 144.392C99.4632 146.564 98.8133 149.08 98.9193 151.622C99.0253 154.163 99.8826 156.616 101.383 158.67C102.883 160.725 104.959 162.288 107.347 163.163C109.736 164.037 112.33 164.184 114.802 163.584C117.274 162.984 119.512 161.665 121.235 159.793C122.957 157.921 124.085 155.58 124.477 153.067C124.869 150.553 124.506 147.98 123.436 145.673C121.997 142.581 119.391 140.187 116.189 139.014C112.987 137.842 109.451 137.987 106.356 139.419Z" fill="#3F3D56"/>
</g>
<defs>
<clipPath id="clip0_1347_20592">
<rect width="231.991" height="260" fill="white"/>
</clipPath>
</defs>
</svg>
