<svg width="32" height="32" viewBox="0 0 32 32" fill="none" xmlns="http://www.w3.org/2000/svg">
<path d="M17.2273 3.01337L25.9073 7.69337C26.9207 8.24004 26.9207 9.80004 25.9073 10.3467L17.2273 15.0267C16.454 15.44 15.5473 15.44 14.774 15.0267L6.09398 10.3467C5.08065 9.80004 5.08065 8.24004 6.09398 7.69337L14.774 3.01337C15.5473 2.60004 16.454 2.60004 17.2273 3.01337Z" stroke="#2563EB" stroke-width="1.5" stroke-linecap="round" stroke-linejoin="round"/>
<path d="M4.81268 13.5066L12.8793 17.5466C13.8793 18.0532 14.5193 19.0799 14.5193 20.1999V27.8266C14.5193 28.9332 13.3593 29.6399 12.3727 29.1466L4.30602 25.1066C3.30602 24.5999 2.66602 23.5732 2.66602 22.4532V14.8266C2.66602 13.7199 3.82602 13.0132 4.81268 13.5066Z" stroke="#2563EB" stroke-width="1.5" stroke-linecap="round" stroke-linejoin="round"/>
<path d="M27.1871 13.5066L19.1205 17.5466C18.1205 18.0532 17.4805 19.0799 17.4805 20.1999V27.8266C17.4805 28.9332 18.6405 29.6399 19.6271 29.1466L27.6938 25.1066C28.6938 24.5999 29.3338 23.5732 29.3338 22.4532V14.8266C29.3338 13.7199 28.1738 13.0132 27.1871 13.5066Z" stroke="#2563EB" stroke-width="1.5" stroke-linecap="round" stroke-linejoin="round"/>
</svg>
