<svg width="32" height="32" viewBox="0 0 32 32" fill="none" xmlns="http://www.w3.org/2000/svg">
<path d="M29.0794 5.25341C27.026 10.3734 21.8794 17.3334 17.5727 20.7867L14.946 22.8934C14.6127 23.1334 14.2794 23.3467 13.906 23.4934C13.906 23.2534 13.8927 22.9867 13.8527 22.7334C13.706 21.6134 13.1994 20.5734 12.306 19.6801C11.3994 18.7734 10.2927 18.2401 9.15937 18.0934C8.89271 18.0801 8.62604 18.0534 8.35938 18.0801C8.50604 17.6667 8.73271 17.2801 9.01271 16.9601L11.0927 14.3334C14.5327 10.0267 21.5194 4.85341 26.626 2.81341C27.4127 2.52008 28.1727 2.73341 28.6527 3.22675C29.1594 3.72008 29.3994 4.48008 29.0794 5.25341Z" stroke="#2563EB" stroke-width="1.5" stroke-linecap="round" stroke-linejoin="round"/>
<path d="M13.9064 23.4933C13.9064 24.96 13.3464 26.36 12.293 27.4267C11.4797 28.24 10.373 28.8 9.05305 28.9733L5.77305 29.3333C3.98638 29.5333 2.45305 28.0133 2.66638 26.2L3.02638 22.92C3.34638 20 5.78638 18.1333 8.37305 18.08C8.63971 18.0667 8.91971 18.08 9.17305 18.0933C10.3064 18.24 11.413 18.76 12.3197 19.68C13.213 20.5733 13.7197 21.6133 13.8664 22.7333C13.8797 22.9867 13.9064 23.24 13.9064 23.4933Z" stroke="#2563EB" stroke-width="1.5" stroke-linecap="round" stroke-linejoin="round"/>
<path d="M18.9864 19.2932C18.9864 15.8132 16.1597 12.9866 12.6797 12.9866" stroke="#2563EB" stroke-width="1.5" stroke-linecap="round" stroke-linejoin="round"/>
</svg>
