<svg width="32" height="32" viewBox="0 0 32 32" fill="none" xmlns="http://www.w3.org/2000/svg">
<rect x="0.5" y="0.5" width="31" height="31" rx="7.5" stroke="#1877F2"/>
<path d="M26 16C26 10.5 21.5 6 16 6C10.5 6 6 10.5 6 16C6 21 9.625 25.125 14.375 25.875V18.875H11.875V16H14.375V13.75C14.375 11.25 15.875 9.875 18.125 9.875C19.25 9.875 20.375 10.125 20.375 10.125V12.625H19.125C17.875 12.625 17.5 13.375 17.5 14.125V16H20.25L19.75 18.875H17.375V26C22.375 25.25 26 21 26 16Z" fill="#1877F2"/>
</svg>
