<svg width="32" height="32" viewBox="0 0 32 32" fill="none" xmlns="http://www.w3.org/2000/svg">
<rect x="0.5" y="0.5" width="31" height="31" rx="7.5" stroke="#F00073"/>
<path d="M16 7.80723C18.6506 7.80723 19.0121 7.80723 20.0964 7.80723C21.0602 7.80723 21.5422 8.04819 21.9036 8.16868C22.3855 8.40964 22.747 8.53012 23.1084 8.89157C23.4699 9.25301 23.7108 9.61446 23.8313 10.0964C23.9518 10.4578 24.0723 10.9398 24.1928 11.9036C24.1928 12.988 24.1928 13.2289 24.1928 16C24.1928 18.7711 24.1928 19.0121 24.1928 20.0964C24.1928 21.0602 23.9518 21.5422 23.8313 21.9036C23.5904 22.3855 23.4699 22.747 23.1084 23.1084C22.747 23.4699 22.3855 23.7108 21.9036 23.8313C21.5422 23.9518 21.0602 24.0723 20.0964 24.1928C19.0121 24.1928 18.7711 24.1928 16 24.1928C13.2289 24.1928 12.988 24.1928 11.9036 24.1928C10.9398 24.1928 10.4578 23.9518 10.0964 23.8313C9.61446 23.5904 9.25301 23.4699 8.89157 23.1084C8.53012 22.747 8.28916 22.3855 8.16868 21.9036C8.04819 21.5422 7.92771 21.0602 7.80723 20.0964C7.80723 19.0121 7.80723 18.7711 7.80723 16C7.80723 13.2289 7.80723 12.988 7.80723 11.9036C7.80723 10.9398 8.04819 10.4578 8.16868 10.0964C8.40964 9.61446 8.53012 9.25301 8.89157 8.89157C9.25301 8.53012 9.61446 8.28916 10.0964 8.16868C10.4578 8.04819 10.9398 7.92771 11.9036 7.80723C12.988 7.80723 13.3494 7.80723 16 7.80723ZM16 6C13.2289 6 12.988 6 11.9036 6C10.8193 6 10.0964 6.24096 9.49398 6.48193C8.89157 6.72289 8.28916 7.08434 7.68675 7.68675C7.08434 8.28916 6.84337 8.77109 6.48193 9.49398C6.24096 10.0964 6.12048 10.8193 6 11.9036C6 12.988 6 13.3494 6 16C6 18.7711 6 19.0121 6 20.0964C6 21.1807 6.24096 21.9036 6.48193 22.506C6.72289 23.1084 7.08434 23.7108 7.68675 24.3133C8.28916 24.9157 8.77109 25.1566 9.49398 25.5181C10.0964 25.759 10.8193 25.8795 11.9036 26C12.988 26 13.3494 26 16 26C18.6506 26 19.0121 26 20.0964 26C21.1807 26 21.9036 25.759 22.506 25.5181C23.1084 25.2771 23.7108 24.9157 24.3133 24.3133C24.9157 23.7108 25.1566 23.2289 25.5181 22.506C25.759 21.9036 25.8795 21.1807 26 20.0964C26 19.0121 26 18.6506 26 16C26 13.3494 26 12.988 26 11.9036C26 10.8193 25.759 10.0964 25.5181 9.49398C25.2771 8.89157 24.9157 8.28916 24.3133 7.68675C23.7108 7.08434 23.2289 6.84337 22.506 6.48193C21.9036 6.24096 21.1807 6.12048 20.0964 6C19.0121 6 18.7711 6 16 6Z" fill="#F00073"/>
<path d="M16 10.8193C13.1084 10.8193 10.8193 13.1084 10.8193 16C10.8193 18.8916 13.1084 21.1807 16 21.1807C18.8916 21.1807 21.1807 18.8916 21.1807 16C21.1807 13.1084 18.8916 10.8193 16 10.8193ZM16 19.3735C14.1928 19.3735 12.6265 17.9277 12.6265 16C12.6265 14.1928 14.0723 12.6265 16 12.6265C17.8072 12.6265 19.3735 14.0723 19.3735 16C19.3735 17.8072 17.8072 19.3735 16 19.3735Z" fill="#F00073"/>
<path d="M21.3012 11.9036C21.9666 11.9036 22.506 11.3642 22.506 10.6988C22.506 10.0334 21.9666 9.49398 21.3012 9.49398C20.6358 9.49398 20.0964 10.0334 20.0964 10.6988C20.0964 11.3642 20.6358 11.9036 21.3012 11.9036Z" fill="#F00073"/>
</svg>
