<svg width="32" height="23" viewBox="0 0 32 23" fill="none" xmlns="http://www.w3.org/2000/svg">
<rect y="0.5" width="32" height="22" rx="4" fill="#C6C6C7"/>
<path d="M3.996 16.5V8.04H7.584C8.488 8.04 9.18 8.26 9.66 8.7C10.148 9.132 10.392 9.732 10.392 10.5C10.392 11.268 10.148 11.872 9.66 12.312C9.18 12.752 8.488 12.972 7.584 12.972H5.244V16.5H3.996ZM5.244 11.976H7.452C8.02 11.976 8.448 11.848 8.736 11.592C9.024 11.336 9.168 10.972 9.168 10.5C9.168 10.036 9.024 9.676 8.736 9.42C8.448 9.164 8.02 9.036 7.452 9.036H5.244V11.976ZM11.8944 16.5V8.04H15.4704C16.3744 8.04 17.0744 8.256 17.5704 8.688C18.0664 9.112 18.3144 9.708 18.3144 10.476C18.3144 10.98 18.2024 11.412 17.9784 11.772C17.7544 12.132 17.4384 12.408 17.0304 12.6C16.6224 12.784 16.1424 12.876 15.5904 12.876L15.7824 12.684H16.1064C16.4344 12.684 16.7264 12.768 16.9824 12.936C17.2464 13.104 17.4624 13.372 17.6304 13.74L18.8424 16.5H17.4744L16.2744 13.728C16.1544 13.4 15.9664 13.188 15.7104 13.092C15.4624 12.996 15.1544 12.948 14.7864 12.948H13.1424V16.5H11.8944ZM13.1424 12H15.2664C15.8664 12 16.3184 11.872 16.6224 11.616C16.9344 11.36 17.0904 10.992 17.0904 10.512C17.0904 10.024 16.9344 9.656 16.6224 9.408C16.3184 9.16 15.8664 9.036 15.2664 9.036H13.1424V12ZM19.915 12.264C19.915 11.376 20.071 10.608 20.383 9.96C20.695 9.312 21.147 8.812 21.739 8.46C22.339 8.108 23.051 7.932 23.875 7.932C24.691 7.932 25.395 8.108 25.987 8.46C26.579 8.812 27.035 9.312 27.355 9.96C27.683 10.608 27.847 11.372 27.847 12.252C27.847 13.14 27.683 13.912 27.355 14.568C27.035 15.216 26.575 15.72 25.975 16.08C25.383 16.432 24.683 16.608 23.875 16.608C23.051 16.608 22.343 16.432 21.751 16.08C21.159 15.72 20.703 15.216 20.383 14.568C20.071 13.912 19.915 13.144 19.915 12.264ZM21.223 12.264C21.223 13.288 21.447 14.088 21.895 14.664C22.343 15.24 23.003 15.528 23.875 15.528C24.723 15.528 25.379 15.244 25.843 14.676C26.307 14.1 26.539 13.296 26.539 12.264C26.539 11.232 26.307 10.432 25.843 9.864C25.387 9.296 24.731 9.012 23.875 9.012C23.003 9.012 22.343 9.296 21.895 9.864C21.447 10.432 21.223 11.232 21.223 12.264Z" fill="#292D32"/>
</svg>
