<svg width="32" height="32" viewBox="0 0 32 32" fill="none" xmlns="http://www.w3.org/2000/svg">
<path d="M26.127 20.7018L20.087 26.7418C17.607 29.2218 13.5803 29.2218 11.087 26.7418L5.23366 20.8885C2.75366 18.4085 2.75366 14.3818 5.23366 11.8885L11.287 5.86182C12.5537 4.59516 14.3003 3.91516 16.087 4.00849L22.7537 4.32849C25.4203 4.44849 27.5403 6.56849 27.6737 9.22182L27.9937 15.8885C28.0737 17.6885 27.3937 19.4352 26.127 20.7018Z" stroke="#2563EB" stroke-width="1.5" stroke-linecap="round" stroke-linejoin="round"/>
<path d="M19.0202 16.3019C17.1792 16.3019 15.6868 14.8095 15.6868 12.9686C15.6868 11.1276 17.1792 9.63525 19.0202 9.63525C20.8611 9.63525 22.3535 11.1276 22.3535 12.9686C22.3535 14.8095 20.8611 16.3019 19.0202 16.3019Z" stroke="#2563EB" stroke-width="1.5" stroke-linecap="round"/>
<path d="M14.3535 22.9686L9.02018 17.6353" stroke="#2563EB" stroke-width="1.5" stroke-miterlimit="10" stroke-linecap="round" stroke-linejoin="round"/>
</svg>
