<svg width="32" height="32" viewBox="0 0 32 32" fill="none" xmlns="http://www.w3.org/2000/svg">
<rect x="0.5" y="0.5" width="31" height="31" rx="7.5" stroke="#1DA1F2"/>
<path d="M25.6923 9.84615C24.9538 10.2154 24.2154 10.3385 23.3538 10.4615C24.2154 9.96923 24.8308 9.23077 25.0769 8.24615C24.3385 8.73846 23.4769 8.98462 22.4923 9.23077C21.7538 8.49231 20.6462 8 19.5385 8C16.9538 8 14.9846 10.4615 15.6 12.9231C12.2769 12.8 9.32308 11.2 7.23077 8.73846C6.12308 10.5846 6.73846 12.9231 8.46154 14.1538C7.84615 14.1538 7.23077 13.9077 6.61538 13.6615C6.61538 15.5077 7.96923 17.2308 9.81539 17.7231C9.2 17.8462 8.58462 17.9692 7.96923 17.8462C8.46154 19.4462 9.93846 20.6769 11.7846 20.6769C10.3077 21.7846 8.09231 22.4 6 22.1538C7.84615 23.2615 9.93846 24 12.1538 24C19.6615 24 23.8462 17.7231 23.6 11.9385C24.4615 11.4462 25.2 10.7077 25.6923 9.84615Z" fill="#1DA1F2"/>
</svg>
