<svg width="32" height="32" viewBox="0 0 32 32" fill="none" xmlns="http://www.w3.org/2000/svg">
<rect x="0.5" y="0.5" width="31" height="31" rx="7.5" stroke="#FF0000"/>
<path d="M25.5 11.125C25.25 10.25 24.625 9.625 23.75 9.375C22.25 9 15.875 9 15.875 9C15.875 9 9.62501 9 8.00001 9.375C7.12501 9.625 6.5 10.25 6.25 11.125C6 12.75 6 16 6 16C6 16 6 19.25 6.375 20.875C6.625 21.75 7.25 22.375 8.125 22.625C9.625 23 16 23 16 23C16 23 22.25 23 23.875 22.625C24.75 22.375 25.375 21.75 25.625 20.875C26 19.25 26 16 26 16C26 16 26 12.75 25.5 11.125ZM14 19V13L19.25 16L14 19Z" fill="#FF0000"/>
</svg>
