<svg width="295" height="237" viewBox="0 0 295 237" fill="none" xmlns="http://www.w3.org/2000/svg">
<g clip-path="url(#clip0_1347_20456)">
<path d="M49.5082 235.995C49.5082 235.995 45.2581 225.533 58.0079 217.688L49.5082 235.995Z" fill="#F0F0F0"/>
<path d="M44.28 235.799C44.28 235.799 42.9836 228.343 32.9492 228.407L44.28 235.799Z" fill="#F0F0F0"/>
<path d="M191.809 235.995C191.809 235.995 187.559 225.533 200.309 217.688L191.809 235.995Z" fill="#F0F0F0"/>
<path d="M186.581 235.799C186.581 235.799 185.284 228.343 175.25 228.407L186.581 235.799Z" fill="#F0F0F0"/>
<path d="M188.31 168.252C208.713 168.252 225.252 151.713 225.252 131.31C225.252 110.907 208.713 94.3672 188.31 94.3672C167.907 94.3672 151.367 110.907 151.367 131.31C151.367 151.713 167.907 168.252 188.31 168.252Z" fill="#F0F0F0"/>
<path d="M188.409 131.312H188.51L190.337 236.051H186.48L188.409 131.312Z" fill="#F0F0F0"/>
<path d="M267.625 186.601C282.506 186.601 294.569 174.537 294.569 159.656C294.569 144.775 282.506 132.711 267.625 132.711C252.743 132.711 240.68 144.775 240.68 159.656C240.68 174.537 252.743 186.601 267.625 186.601Z" fill="#F0F0F0"/>
<path d="M267.7 159.656H267.774L269.106 236.05H266.293L267.7 159.656Z" fill="#F0F0F0"/>
<path d="M118.418 159.931C118.934 159.872 119.431 159.7 119.873 159.428C120.316 159.156 120.693 158.79 120.979 158.357C121.265 157.923 121.453 157.432 121.528 156.918C121.604 156.404 121.566 155.879 121.417 155.382L131.659 147.994L125.524 145.664L116.738 153.037C115.919 153.342 115.24 153.938 114.83 154.711C114.421 155.484 114.309 156.38 114.516 157.23C114.723 158.08 115.234 158.824 115.953 159.322C116.672 159.82 117.549 160.037 118.418 159.931H118.418Z" fill="#FFB6B6"/>
<path d="M110.905 232.396L107.653 232.396L106.105 219.852H110.906L110.905 232.396Z" fill="#FFB6B6"/>
<path d="M111.737 235.551L101.25 235.55V235.418C101.25 234.335 101.68 233.297 102.446 232.531C103.211 231.766 104.249 231.336 105.332 231.336H105.332L111.737 231.336L111.737 235.551Z" fill="#292D32"/>
<path d="M86.0649 232.396L82.8126 232.396L81.2656 219.852H86.0655L86.0649 232.396Z" fill="#FFB6B6"/>
<path d="M86.8931 235.551L76.4062 235.55V235.418C76.4063 234.335 76.8364 233.297 77.6019 232.531C78.3673 231.766 79.4055 231.336 80.488 231.336H80.4883L86.8933 231.336L86.8931 235.551Z" fill="#292D32"/>
<path d="M88.5767 162.64L81.6842 200.333L79.2734 230.272L87.1003 229.888L91.5557 200.814L102.63 175.5L105.926 229.818L113.131 229.841L117.008 161.133L88.5767 162.64Z" fill="#292D32"/>
<path d="M117.892 119.5L108.231 115.656L97.1483 116.924L87.7529 122.118C87.7529 122.118 90.6269 158.163 86.4609 166.617C86.4609 166.617 89.7988 171.241 103.399 170.112C103.399 170.112 116.647 168.438 116.976 164.093C117.304 159.749 117.373 151.851 117.373 151.851L121.972 136.004L117.892 119.5Z" fill="#6C63FF"/>
<path d="M91.5292 122.811L87.7528 122.117C87.7528 122.117 83.7346 123.879 83.7758 129.129C83.8171 134.379 76.677 151.981 85.2193 152.719C93.7617 153.457 91.5292 140.237 91.5292 140.237V122.811Z" fill="#6C63FF"/>
<path d="M114.824 121.737L117.888 119.5C117.888 119.5 122.566 120.557 124.297 124.323C124.297 124.323 143.481 138.236 138.204 143.513C132.928 148.79 122.171 155.284 122.171 155.284L118.189 150.775L128.069 141.824L119.964 134.439L114.824 121.737Z" fill="#6C63FF"/>
<path d="M109.925 105.66C109.924 107.762 109.088 109.778 107.6 111.265C106.113 112.751 104.096 113.586 101.994 113.586C99.8912 113.586 97.8746 112.751 96.3874 111.265C94.9001 109.778 94.0639 107.762 94.0625 105.66V105.355C94.1438 103.281 95.0353 101.321 96.5455 99.8962C98.0557 98.4716 100.064 97.696 102.14 97.7358C104.216 97.7757 106.193 98.6278 107.647 100.109C109.102 101.591 109.917 103.583 109.919 105.66H109.925Z" fill="#FFB6B6"/>
<path d="M103.199 104.378C103.707 104.295 104.257 104.216 104.711 104.449C105.7 104.954 105.473 106.387 106.012 107.333C106.225 107.708 106.571 108.015 106.713 108.421C106.855 108.827 106.767 109.334 106.991 109.726C107.313 110.292 108.188 110.375 108.762 110.038C109.306 109.662 109.699 109.107 109.875 108.469C110.065 107.93 110.226 107.333 110.686 106.98C110.854 106.884 111.004 106.762 111.131 106.616C111.226 106.424 111.263 106.208 111.236 105.995C111.236 104.623 111.023 103.56 111.334 102.231C111.831 100.088 112.286 99.0281 110.711 97.439C109.904 96.6355 108.867 96.1046 107.744 95.9209C106.729 95.7545 105.235 97.1711 104.208 97.1386C101.596 97.0351 99.3921 94.616 96.9019 95.3973C95.8131 95.7394 94.8691 96.4341 94.2189 97.372C93.0012 99.1661 93.1108 99.8602 93.2874 102.001C93.2847 102.164 93.3322 102.323 93.4233 102.458C93.5146 102.568 93.6628 102.626 93.7521 102.738C93.8482 102.886 93.8845 103.064 93.8536 103.237C93.8264 103.586 93.7449 103.928 93.6121 104.252C93.5786 104.306 93.5579 104.367 93.5516 104.431C93.5452 104.494 93.5534 104.558 93.5755 104.617C93.6255 104.685 93.6971 104.734 93.7785 104.755C94.7932 105.121 95.8892 104.416 96.975 104.435C98.0607 104.453 99.0917 105.18 100.212 105.021C101.2 104.869 102.203 104.542 103.199 104.378Z" fill="#292D32"/>
<path d="M103.15 148.476C103.082 148.502 103.012 148.52 102.94 148.53L94.1331 149.759C93.9201 149.79 93.703 149.747 93.5176 149.638C93.3321 149.528 93.1894 149.359 93.1129 149.158L85.5321 129.432C85.483 129.305 85.4621 129.168 85.4706 129.031C85.4792 128.895 85.5171 128.762 85.5817 128.641C85.6464 128.52 85.7362 128.415 85.8452 128.332C85.9542 128.25 86.0798 128.192 86.2133 128.162H86.2134L94.4955 126.314C94.5594 126.299 94.6212 126.277 94.6793 126.246L102.735 122.035C102.797 122.002 102.863 121.976 102.931 121.958L111.796 119.595C112.023 119.534 112.264 119.559 112.474 119.666C112.683 119.773 112.846 119.954 112.93 120.173L119.54 137.373C119.598 137.523 119.617 137.685 119.595 137.844C119.573 138.003 119.511 138.154 119.415 138.283L117.129 141.353C117.021 141.497 116.875 141.608 116.707 141.673L111.711 143.593C111.675 143.606 111.64 143.623 111.607 143.642L103.282 148.413C103.24 148.437 103.195 148.458 103.15 148.476Z" fill="white"/>
<path d="M107.247 122.221L106.121 122.521L103.138 123.317L103.133 123.318L99.0483 125.453L97.5326 126.246L97.5318 126.246L95.2554 127.436L95.1929 127.451L92.8281 127.978L91.6851 128.233L87.0234 129.274L94.3417 148.316L99.1455 147.646L100.323 147.481L102.834 147.13L102.863 147.127L110.93 142.503L115.838 140.617L118.079 137.608L111.709 121.031L107.247 122.221Z" fill="#E4E4E4"/>
<path d="M112.757 123.767L88.4883 133.094L88.9039 134.175L113.173 124.848L112.757 123.767Z" fill="white"/>
<path d="M114.144 127.369L89.875 136.695L90.2906 137.777L114.559 128.45L114.144 127.369Z" fill="white"/>
<path d="M116.941 134.65L92.6719 143.977L93.0875 145.058L117.356 135.731L116.941 134.65Z" fill="white"/>
<path d="M107.247 122.227L114.513 141.132L113.431 141.548L106.121 122.527L107.247 122.227Z" fill="white"/>
<path d="M99.0463 125.453L97.5543 129.605L97.0371 131.044L95.8304 134.404L95.5718 135.122L95.3128 135.844L94.9723 136.792L92.5265 143.598L91.8906 141.944L93.8848 136.393L94.3361 135.136L94.402 134.953L94.9356 133.467L95.6088 131.593L96.1263 130.153L97.5297 126.246L97.5303 126.246L99.0463 125.453Z" fill="white"/>
<path d="M92.8267 127.977L100.322 147.48L99.1439 147.645L91.6836 128.232L92.8267 127.977Z" fill="white"/>
<path d="M91.2236 146.658C93.1291 146.658 94.6738 145.113 94.6738 143.208C94.6738 141.303 93.1291 139.758 91.2236 139.758C89.3181 139.758 87.7734 141.303 87.7734 143.208C87.7734 145.113 89.3181 146.658 91.2236 146.658Z" fill="#FFB6B6"/>
<path d="M233.69 122.623C267.552 122.623 295.002 95.1726 295.002 61.3113C295.002 27.45 267.552 0 233.69 0C199.829 0 172.379 27.45 172.379 61.3113C172.379 95.1726 199.829 122.623 233.69 122.623Z" fill="#E4E4E4"/>
<path opacity="0.1" d="M278.96 20.3594C284.679 33.7371 285.454 48.7124 281.148 62.6095C276.843 76.5065 267.735 88.4197 255.454 96.2201C243.173 104.021 228.519 107.2 214.109 105.19C199.7 103.181 186.475 96.1126 176.797 85.2495C180.29 93.4227 185.519 100.739 192.121 106.69C198.723 112.642 206.539 117.088 215.03 119.719C223.52 122.349 232.481 123.103 241.291 121.927C250.101 120.751 258.551 117.674 266.054 112.908C273.557 108.142 279.934 101.802 284.744 94.3276C289.553 86.8526 292.68 78.4214 293.908 69.618C295.135 60.8147 294.434 51.8496 291.853 43.3441C289.272 34.8385 284.873 26.9958 278.96 20.3594Z" fill="#292D32"/>
<path d="M233.521 61.3125H233.352L230.32 235.14H236.721L233.521 61.3125Z" fill="#E4E4E4"/>
<path d="M278.27 235.877H0.333258C0.244872 235.877 0.160107 235.842 0.0976087 235.78C0.0351107 235.717 0 235.633 0 235.544C0 235.456 0.0351107 235.371 0.0976087 235.309C0.160107 235.246 0.244872 235.211 0.333258 235.211H278.27C278.359 235.211 278.443 235.246 278.506 235.309C278.568 235.371 278.603 235.456 278.603 235.544C278.603 235.633 278.568 235.717 278.506 235.78C278.443 235.842 278.359 235.877 278.27 235.877Z" fill="#CACACA"/>
</g>
<defs>
<clipPath id="clip0_1347_20456">
<rect width="295" height="236.052" fill="white"/>
</clipPath>
</defs>
</svg>
