<svg width="25" height="24" viewBox="0 0 25 24" fill="none" xmlns="http://www.w3.org/2000/svg">
<path d="M22.3095 3.94C20.7695 7.78 16.9095 13 13.6795 15.59L11.7095 17.17C11.4595 17.35 11.2095 17.51 10.9295 17.62C10.9295 17.44 10.9195 17.24 10.8895 17.05C10.7795 16.21 10.3995 15.43 9.72953 14.76C9.04953 14.08 8.21953 13.68 7.36953 13.57C7.16953 13.56 6.96953 13.54 6.76953 13.56C6.87953 13.25 7.04953 12.96 7.25953 12.72L8.81953 10.75C11.3995 7.52 16.6395 3.64 20.4695 2.11C21.0595 1.89 21.6295 2.05 21.9895 2.42C22.3695 2.79 22.5495 3.36 22.3095 3.94Z" stroke="#2563EB" stroke-width="1.5" stroke-linecap="round" stroke-linejoin="round"/>
<path d="M10.9293 17.6201C10.9293 18.7201 10.5093 19.77 9.7193 20.57C9.1093 21.18 8.2793 21.6001 7.2893 21.7301L4.8293 22.0001C3.4893 22.1501 2.3393 21.01 2.4993 19.65L2.7693 17.1901C3.0093 15.0001 4.8393 13.6001 6.7793 13.5601C6.9793 13.5501 7.1893 13.56 7.3793 13.57C8.2293 13.68 9.0593 14.0701 9.7393 14.7601C10.4093 15.4301 10.7893 16.21 10.8993 17.05C10.9093 17.24 10.9293 17.4301 10.9293 17.6201Z" stroke="#2563EB" stroke-width="1.5" stroke-linecap="round" stroke-linejoin="round"/>
<path d="M14.7398 14.47C14.7398 11.86 12.6198 9.73999 10.0098 9.73999" stroke="#2563EB" stroke-width="1.5" stroke-linecap="round" stroke-linejoin="round"/>
</svg>
