<svg width="25" height="24" viewBox="0 0 25 24" fill="none" xmlns="http://www.w3.org/2000/svg">
<path d="M18.5001 7.16C18.4401 7.15 18.3701 7.15 18.3101 7.16C16.9301 7.11 15.8301 5.98 15.8301 4.58C15.8301 3.15 16.9801 2 18.4101 2C19.8401 2 20.9901 3.16 20.9901 4.58C20.9801 5.98 19.8801 7.11 18.5001 7.16Z" stroke="#292D32" stroke-width="1.5" stroke-linecap="round" stroke-linejoin="round"/>
<path d="M17.4695 14.44C18.8395 14.67 20.3495 14.43 21.4095 13.72C22.8195 12.78 22.8195 11.24 21.4095 10.3C20.3395 9.59004 18.8095 9.35003 17.4395 9.59003" stroke="#292D32" stroke-width="1.5" stroke-linecap="round" stroke-linejoin="round"/>
<path d="M6.46852 7.16C6.52852 7.15 6.59852 7.15 6.65852 7.16C8.03852 7.11 9.13852 5.98 9.13852 4.58C9.13852 3.15 7.98852 2 6.55852 2C5.12852 2 3.97852 3.16 3.97852 4.58C3.98852 5.98 5.08852 7.11 6.46852 7.16Z" stroke="#292D32" stroke-width="1.5" stroke-linecap="round" stroke-linejoin="round"/>
<path d="M7.49945 14.44C6.12945 14.67 4.61945 14.43 3.55945 13.72C2.14945 12.78 2.14945 11.24 3.55945 10.3C4.62945 9.59004 6.15945 9.35003 7.52945 9.59003" stroke="#292D32" stroke-width="1.5" stroke-linecap="round" stroke-linejoin="round"/>
<path d="M12.5001 14.63C12.4401 14.62 12.3701 14.62 12.3101 14.63C10.9301 14.58 9.83008 13.45 9.83008 12.05C9.83008 10.62 10.9801 9.46997 12.4101 9.46997C13.8401 9.46997 14.9901 10.63 14.9901 12.05C14.9801 13.45 13.8801 14.59 12.5001 14.63Z" stroke="#292D32" stroke-width="1.5" stroke-linecap="round" stroke-linejoin="round"/>
<path d="M9.5907 17.78C8.1807 18.72 8.1807 20.26 9.5907 21.2C11.1907 22.27 13.8107 22.27 15.4107 21.2C16.8207 20.26 16.8207 18.72 15.4107 17.78C13.8207 16.72 11.1907 16.72 9.5907 17.78Z" stroke="#292D32" stroke-width="1.5" stroke-linecap="round" stroke-linejoin="round"/>
</svg>
