<svg width="15" height="13" viewBox="0 0 15 13" fill="none" xmlns="http://www.w3.org/2000/svg">
<path d="M8.15 6.73684H14M14 6.73684L11.8335 4.13684M14 6.73684L11.8335 9.33684M8.8 3.48684V2.29994C8.79999 2.12013 8.76268 1.94228 8.69043 1.77763C8.61818 1.61297 8.51256 1.4651 8.38024 1.34335C8.24792 1.2216 8.09179 1.12863 7.9217 1.0703C7.75162 1.01197 7.57129 0.989562 7.3921 1.00449L2.1921 1.43739C1.86713 1.46445 1.56421 1.61266 1.34339 1.85261C1.12258 2.09257 1.00002 2.40674 1 2.73284V10.7408C1.00002 11.0669 1.12258 11.3811 1.34339 11.6211C1.56421 11.861 1.86713 12.0092 2.1921 12.0363L7.3921 12.4698C7.57134 12.4848 7.75173 12.4623 7.92186 12.404C8.09199 12.3456 8.24815 12.2526 8.38048 12.1307C8.51281 12.0089 8.61842 11.861 8.69063 11.6962C8.76284 11.5315 8.80008 11.3536 8.8 11.1737V9.98684" stroke="#292D32" stroke-width="1.04" stroke-linecap="round" stroke-linejoin="round"/>
</svg>
