<svg width="15" height="15" viewBox="0 0 15 15" fill="none" xmlns="http://www.w3.org/2000/svg">
<path d="M8.83036 7.08761C9.07411 6.06261 8.18035 5.16883 7.15535 5.41258C6.6741 5.53133 6.28035 5.9251 6.1616 6.40635C5.91785 7.43135 6.8116 8.32509 7.8366 8.08134C8.3241 7.96259 8.71786 7.56886 8.83036 7.08761Z" stroke="#292D32" stroke-linecap="round" stroke-linejoin="round"/>
<path d="M11.2578 10.7438C12.3266 9.74375 12.9953 8.32499 12.9953 6.74374C12.9953 3.70624 10.5328 1.25 7.50156 1.25C4.47031 1.25 2.00781 3.71249 2.00781 6.74374C2.00781 8.33124 2.68281 9.76248 3.76406 10.7625" stroke="#292D32" stroke-linecap="round" stroke-linejoin="round"/>
<path d="M5.00157 9.09375C4.42657 8.48125 4.07031 7.65624 4.07031 6.74374C4.07031 4.84999 5.60782 3.3125 7.50157 3.3125C9.39532 3.3125 10.9328 4.84999 10.9328 6.74374C10.9328 7.65624 10.5766 8.475 10.0016 9.09375" stroke="#292D32" stroke-linecap="round" stroke-linejoin="round"/>
<path d="M6.43941 10.4123L5.53941 11.5311C4.82691 12.4248 5.45816 13.7436 6.60191 13.7436H8.39565C9.5394 13.7436 10.1769 12.4186 9.45816 11.5311L8.55816 10.4123C8.02066 9.73105 6.98316 9.73105 6.43941 10.4123Z" stroke="#292D32" stroke-linecap="round" stroke-linejoin="round"/>
</svg>
