<svg width="15" height="13" viewBox="0 0 15 13" fill="none" xmlns="http://www.w3.org/2000/svg">
<path d="M7.5 8.375C8.53553 8.375 9.375 7.53553 9.375 6.5C9.375 5.46447 8.53553 4.625 7.5 4.625C6.46447 4.625 5.625 5.46447 5.625 6.5C5.625 7.53553 6.46447 8.375 7.5 8.375Z" stroke="#292D32" stroke-miterlimit="10" stroke-linecap="round" stroke-linejoin="round"/>
<path d="M1.25 7.0499V5.9499C1.25 5.2999 1.78125 4.7624 2.4375 4.7624C3.56875 4.7624 4.03125 3.9624 3.4625 2.98115C3.1375 2.41865 3.33125 1.6874 3.9 1.3624L4.98125 0.743649C5.475 0.449899 6.1125 0.624899 6.40625 1.11865L6.475 1.2374C7.0375 2.21865 7.9625 2.21865 8.53125 1.2374L8.6 1.11865C8.89375 0.624899 9.53125 0.449899 10.025 0.743649L11.1063 1.3624C11.675 1.6874 11.8687 2.41865 11.5437 2.98115C10.975 3.9624 11.4375 4.7624 12.5688 4.7624C13.2188 4.7624 13.7563 5.29365 13.7563 5.9499V7.0499C13.7563 7.6999 13.225 8.2374 12.5688 8.2374C11.4375 8.2374 10.975 9.0374 11.5437 10.0186C11.8687 10.5874 11.675 11.3124 11.1063 11.6374L10.025 12.2561C9.53125 12.5499 8.89375 12.3749 8.6 11.8812L8.53125 11.7624C7.96875 10.7811 7.04375 10.7811 6.475 11.7624L6.40625 11.8812C6.1125 12.3749 5.475 12.5499 4.98125 12.2561L3.9 11.6374C3.33125 11.3124 3.1375 10.5811 3.4625 10.0186C4.03125 9.0374 3.56875 8.2374 2.4375 8.2374C1.78125 8.2374 1.25 7.6999 1.25 7.0499Z" stroke="#292D32" stroke-miterlimit="10" stroke-linecap="round" stroke-linejoin="round"/>
</svg>
