<svg width="15" height="15" viewBox="0 0 15 15" fill="none" xmlns="http://www.w3.org/2000/svg">
<path d="M11.875 5.625C11.875 6.53125 11.6062 7.36251 11.1437 8.05626C10.4687 9.05626 9.4 9.7625 8.15625 9.94375C7.94375 9.98125 7.725 10 7.5 10C7.275 10 7.05625 9.98125 6.84375 9.94375C5.6 9.7625 4.53125 9.05626 3.85625 8.05626C3.39375 7.36251 3.125 6.53125 3.125 5.625C3.125 3.20625 5.08125 1.25 7.5 1.25C9.91875 1.25 11.875 3.20625 11.875 5.625Z" stroke="#292D32" stroke-linecap="round" stroke-linejoin="round"/>
<path d="M13.2785 11.5438L12.2472 11.7875C12.016 11.8437 11.8347 12.0188 11.7847 12.25L11.566 13.1688C11.4472 13.6688 10.8097 13.8188 10.4785 13.425L7.49724 10L4.51599 13.4312C4.18474 13.825 3.54724 13.675 3.42849 13.175L3.20974 12.2562C3.15349 12.025 2.97224 11.8438 2.74724 11.7938L1.71599 11.55C1.24099 11.4375 1.07224 10.8437 1.41599 10.5L3.85349 8.0625C4.52849 9.0625 5.59724 9.76876 6.84099 9.95001C7.05349 9.98751 7.27224 10.0063 7.49724 10.0063C7.72224 10.0063 7.94099 9.98751 8.15349 9.95001C9.39724 9.76876 10.466 9.0625 11.141 8.0625L13.5785 10.5C13.9222 10.8375 13.7535 11.4313 13.2785 11.5438Z" stroke="#292D32" stroke-linecap="round" stroke-linejoin="round"/>
<path d="M7.8637 3.7375L8.23245 4.475C8.28245 4.575 8.4137 4.675 8.53245 4.69375L9.2012 4.80624C9.6262 4.87499 9.7262 5.1875 9.41995 5.49375L8.9012 6.01249C8.8137 6.09999 8.7637 6.26875 8.79495 6.39375L8.94495 7.0375C9.0637 7.54375 8.79495 7.74374 8.34495 7.47499L7.71995 7.10624C7.60745 7.03749 7.41995 7.03749 7.30745 7.10624L6.68245 7.47499C6.23245 7.73749 5.9637 7.54375 6.08245 7.0375L6.23245 6.39375C6.25745 6.275 6.2137 6.09999 6.1262 6.01249L5.60745 5.49375C5.3012 5.1875 5.4012 4.88124 5.8262 4.80624L6.49495 4.69375C6.60745 4.675 6.7387 4.575 6.7887 4.475L7.15745 3.7375C7.3387 3.3375 7.6637 3.3375 7.8637 3.7375Z" stroke="#292D32" stroke-linecap="round" stroke-linejoin="round"/>
</svg>
