<svg width="34" height="34" viewBox="0 0 34 34" fill="none" xmlns="http://www.w3.org/2000/svg">
<path d="M19.3173 4.99995C19.3173 3.72691 19.8215 2.50601 20.7189 1.60584C21.6163 0.705664 22.8334 0.199951 24.1025 0.199951H28.8876C30.1567 0.199951 31.3738 0.705664 32.2712 1.60584C33.1686 2.50601 33.6728 3.72691 33.6728 4.99995V9.79995C33.6728 11.073 33.1686 12.2939 32.2712 13.1941C31.3738 14.0942 30.1567 14.6 28.8876 14.6H24.1025C22.8334 14.6 21.6163 14.0942 20.7189 13.1941C19.8215 12.2939 19.3173 11.073 19.3173 9.79995V4.99995ZM4.75377 1.81755C4.99444 1.33211 5.36536 0.92366 5.82481 0.638136C6.28426 0.352613 6.81402 0.201344 7.3545 0.201344C7.89497 0.201344 8.42473 0.352613 8.88418 0.638136C9.34363 0.92366 9.71455 1.33211 9.95522 1.81755L14.214 10.3064C15.1949 12.272 13.7857 14.6 11.6085 14.6H3.09572C0.918483 14.6 -0.493132 12.272 0.494999 10.304L4.75138 1.81755H4.75377ZM7.81626 2.89755C7.77482 2.80954 7.7093 2.73516 7.62733 2.68306C7.54537 2.63097 7.45033 2.60331 7.3533 2.60331C7.25627 2.60331 7.16123 2.63097 7.07927 2.68306C6.9973 2.73516 6.93178 2.80954 6.89034 2.89755L2.63396 11.384C2.5897 11.4667 2.56713 11.5594 2.56835 11.6533C2.56958 11.7472 2.59456 11.8392 2.64095 11.9208C2.68735 12.0023 2.75363 12.0707 2.8336 12.1196C2.91356 12.1684 3.00458 12.1961 3.09812 12.2H11.6133C11.9722 12.2 12.2808 11.7896 12.0774 11.384L7.81866 2.89515L7.81626 2.89755ZM14.5322 26.6C14.5322 28.5095 13.776 30.3409 12.4299 31.6911C11.0838 33.0414 9.25814 33.8 7.3545 33.8C5.45085 33.8 3.62517 33.0414 2.27909 31.6911C0.933008 30.3409 0.176787 28.5095 0.176787 26.6C0.176787 24.6904 0.933008 22.859 2.27909 21.5088C3.62517 20.1585 5.45085 19.4 7.3545 19.4C9.25814 19.4 11.0838 20.1585 12.4299 21.5088C13.776 22.859 14.5322 24.6904 14.5322 26.6ZM12.1396 26.6C12.1398 25.7535 11.9168 24.9222 11.4933 24.1901C11.0698 23.458 10.4608 22.8513 9.72815 22.4314C8.99549 22.0116 8.16519 21.7935 7.32143 21.7994C6.47766 21.8052 5.65044 22.0348 4.92365 22.4648L11.4793 29.0384C11.9136 28.2998 12.1417 27.4575 12.1396 26.6ZM7.3545 31.4C8.23975 31.4 9.07236 31.1576 9.78535 30.7352L3.22971 24.1616C2.80096 24.8908 2.57212 25.7208 2.56639 26.5674C2.56066 27.414 2.77825 28.247 3.19709 28.982C3.61593 29.717 4.22112 30.3278 4.95126 30.7525C5.6814 31.1771 6.51051 31.4005 7.3545 31.4ZM25.6337 19.6088C25.9001 19.4711 26.1954 19.3993 26.4951 19.3993C26.7947 19.3993 27.09 19.4711 27.3564 19.6088L32.6918 22.3736C32.9854 22.5233 33.2322 22.7512 33.4052 23.0323C33.5782 23.3134 33.6708 23.6368 33.6728 23.9672V29.2328C33.6708 29.5631 33.5782 29.8865 33.4052 30.1676C33.2322 30.4487 32.9854 30.6766 32.6918 30.8264L27.3564 33.5912C27.09 33.7288 26.7947 33.8006 26.4951 33.8006C26.1954 33.8006 25.9001 33.7288 25.6337 33.5912L20.2983 30.8264C20.0048 30.6766 19.7579 30.4487 19.5849 30.1676C19.4119 29.8865 19.3193 29.5631 19.3173 29.2328V23.9672C19.3193 23.6368 19.4119 23.3134 19.5849 23.0323C19.7579 22.7512 20.0048 22.5233 20.2983 22.3736L25.6337 19.6088ZM21.7099 24.344V28.856L26.4951 31.3352L31.2802 28.856V24.344L26.4951 21.8648L21.7099 24.344Z" fill="#2563EB"/>
</svg>
