<svg width="40" height="40" viewBox="0 0 40 40" fill="none" xmlns="http://www.w3.org/2000/svg">
<path d="M28.9999 0.5V3.5H34.3444L29.2819 8.609C27.4724 7.24265 25.2674 6.50237 22.9999 6.5C20.1949 6.5 17.5759 7.61 15.5929 9.5945C14.6127 10.5629 13.8345 11.7162 13.3034 12.9876C12.7724 14.259 12.499 15.6232 12.4991 17.0011C12.4992 18.3789 12.7729 19.7431 13.3043 21.0144C13.8356 22.2857 14.614 23.4388 15.5944 24.407C16.8994 25.712 18.4534 26.6495 20.1874 27.125C20.3584 26.9945 20.5504 26.858 20.7034 26.705C21.3322 26.0655 21.7839 25.2737 22.0144 24.407C20.3814 24.2054 18.8631 23.4623 17.7019 22.2965C16.2859 20.882 15.4999 19.004 15.4999 17C15.4999 14.996 16.2874 13.121 17.7049 11.705C19.1179 10.2845 20.9959 9.5 22.9999 9.5C25.0039 9.5 26.8804 10.2875 28.2949 11.705C28.9948 12.3976 29.5501 13.2223 29.9287 14.1313C30.3072 15.0402 30.5014 16.0154 30.4999 17C30.4999 18.2975 30.1324 19.505 29.5159 20.609C29.6599 21.383 29.7499 22.196 29.7499 23C29.7499 23.747 29.6869 24.485 29.5624 25.205C29.8624 24.9605 30.1294 24.683 30.4069 24.407C32.3899 22.421 33.4999 19.805 33.4999 17C33.4999 14.705 32.7439 12.524 31.3909 10.718L36.4999 5.657V11H39.4999V0.5H28.9999ZM19.8124 12.875C19.6414 13.0055 19.4494 13.142 19.2964 13.295C18.6484 13.946 18.2254 14.735 17.9854 15.5945C19.6204 15.8045 21.1129 16.5185 22.2979 17.7035C23.7154 19.118 24.5029 20.996 24.5029 22.9985C24.5029 25.001 23.7154 26.8775 22.2979 28.2935C20.8819 29.7155 19.0039 30.5 16.9999 30.5C14.9959 30.5 13.1194 29.7125 11.7049 28.295C11.0045 27.6028 10.4488 26.7782 10.0703 25.8691C9.69169 24.96 9.49782 23.9847 9.49992 23C9.49992 21.7025 9.86742 20.495 10.4839 19.391C10.3333 18.6028 10.255 17.8025 10.2499 17C10.2499 16.253 10.3129 15.515 10.4374 14.795C10.1374 15.0395 9.87192 15.317 9.59292 15.5945C7.61292 17.576 6.49992 20.195 6.49992 23C6.49992 25.295 7.25592 27.476 8.60892 29.282L6.07992 31.8125L3.07992 28.8125L0.919922 30.9215L3.91992 33.9215L0.919922 36.9215L3.07992 39.0815L6.07992 36.0815L9.07992 39.0815L11.1874 36.9215L8.18742 33.9215L10.7194 31.3925C12.5272 32.7609 14.7326 33.501 16.9999 33.5C19.8049 33.5 22.4239 32.39 24.4069 30.4055C26.3899 28.424 27.4999 25.805 27.4999 23C27.4999 20.195 26.3899 17.579 24.4054 15.593C23.1004 14.288 21.5464 13.3505 19.8124 12.875Z" fill="#2563EB"/>
</svg>
