<svg width="295" height="295" viewBox="0 0 295 295" fill="none" xmlns="http://www.w3.org/2000/svg">
<path d="M148.16 279.557C225.885 279.557 288.893 242.541 288.893 196.88C288.893 151.219 225.885 114.203 148.16 114.203C70.4359 114.203 7.42773 151.219 7.42773 196.88C7.42773 242.541 70.4359 279.557 148.16 279.557Z" fill="#F5F5F5"/>
<path d="M20.6963 202.743L87.1303 241.093C87.9786 241.523 88.9165 241.748 89.8679 241.748C90.8192 241.748 91.7572 241.523 92.6055 241.093L217.709 168.871C219.219 167.997 219.219 166.581 217.709 165.708L151.275 127.358C150.427 126.928 149.489 126.703 148.537 126.703C147.586 126.703 146.648 126.928 145.8 127.358L20.7199 199.586C19.1859 200.453 19.1859 201.869 20.6963 202.743Z" fill="#E0E0E0"/>
<path d="M250.029 224.528C262.255 224.528 272.166 218.806 272.166 211.748C272.166 204.69 262.255 198.969 250.029 198.969C237.804 198.969 227.893 204.69 227.893 211.748C227.893 218.806 237.804 224.528 250.029 224.528Z" fill="#E0E0E0"/>
<path d="M188.238 239.356C206.424 239.356 221.166 230.845 221.166 220.346C221.166 209.847 206.424 201.336 188.238 201.336C170.053 201.336 155.311 209.847 155.311 220.346C155.311 230.845 170.053 239.356 188.238 239.356Z" fill="#E0E0E0"/>
<path d="M25.1345 189.507C24.2082 190.227 24.3085 191.277 25.4354 191.903L87.3205 227.621C88.0189 227.972 88.7897 228.155 89.5713 228.155C90.3529 228.155 91.1237 227.972 91.8222 227.621L210.005 159.364C211.15 158.703 211.244 157.665 210.271 156.945C210.852 157.385 211.33 157.945 211.672 158.588C212.015 159.231 212.213 159.941 212.253 160.668V163.618C212.223 164.403 212.006 165.17 211.622 165.855C211.237 166.541 210.695 167.125 210.04 167.559L91.7986 235.787C91.1013 236.142 90.3301 236.327 89.5477 236.327C88.7654 236.327 87.9941 236.142 87.2969 235.787L25.4413 200.08C24.7847 199.654 24.2385 199.079 23.8477 198.401C23.457 197.723 23.2327 196.962 23.1934 196.18V193.201C23.234 192.482 23.4283 191.781 23.7631 191.143C24.098 190.506 24.5656 189.948 25.1345 189.507Z" fill="#263238"/>
<path d="M25.4356 191.906L87.3207 227.625C88.0192 227.976 88.79 228.158 89.5716 228.158C90.3532 228.158 91.124 227.976 91.8224 227.625L210.005 159.368C211.244 158.654 211.25 157.486 210.005 156.772L148.15 121.059C147.452 120.707 146.681 120.523 145.899 120.523C145.117 120.523 144.346 120.707 143.648 121.059L25.4356 189.31C24.1907 190.03 24.1907 191.192 25.4356 191.906ZM134.137 130.293C135.199 129.703 136.308 130.033 137.37 130.652L193.615 163.102C194.677 163.692 194.683 164.713 193.615 165.327L101.575 218.468C100.977 218.769 100.316 218.926 99.6458 218.926C98.9758 218.926 98.3151 218.769 97.7165 218.468L41.4777 186.012C40.4098 185.422 40.4098 184.401 41.4777 183.788L134.137 130.293Z" fill="#455A64"/>
<path d="M210.271 156.945C210.852 157.385 211.33 157.945 211.672 158.588C212.015 159.231 212.213 159.941 212.253 160.668V163.618C212.223 164.404 212.006 165.172 211.622 165.858C211.237 166.544 210.695 167.129 210.041 167.565L91.7987 235.793C91.1051 236.161 90.3299 236.347 89.5449 236.336V228.158C90.3295 228.173 91.1049 227.988 91.7987 227.621L210.005 159.37C211.15 158.715 211.221 157.671 210.271 156.945Z" fill="#37474F"/>
<path d="M173.142 142.423C172.31 141.94 172.31 141.161 173.142 140.683C173.609 140.445 174.127 140.32 174.652 140.32C175.177 140.32 175.694 140.445 176.162 140.683C176.994 141.161 176.994 141.94 176.162 142.423C175.694 142.659 175.176 142.782 174.652 142.782C174.127 142.782 173.61 142.659 173.142 142.423Z" fill="#292D32"/>
<path d="M62.2104 208.863C60.922 208.888 59.6486 208.583 58.5111 207.978C57.4668 207.388 56.8945 206.556 56.8945 205.677C56.8945 204.797 57.4845 203.971 58.5111 203.37C59.6574 202.788 60.9249 202.484 62.2104 202.484C63.496 202.484 64.7634 202.788 65.9097 203.37C66.954 203.96 67.5263 204.792 67.5263 205.677C67.5263 206.562 66.9363 207.376 65.9097 207.978C64.7722 208.583 63.4988 208.888 62.2104 208.863ZM62.2104 203.069C61.0256 203.046 59.8544 203.324 58.8061 203.877C57.9506 204.373 57.4845 205.01 57.4845 205.677C57.4845 206.343 57.9506 206.975 58.8061 207.447C59.8615 207.981 61.0277 208.259 62.2104 208.259C63.3932 208.259 64.5594 207.981 65.6147 207.447C66.4643 206.951 66.9363 206.314 66.9363 205.677C66.9363 205.039 66.4643 204.373 65.6147 203.877C64.5654 203.329 63.3942 203.055 62.2104 203.081V203.069Z" fill="#E6E6E6"/>
<path d="M174.641 148.196L162.995 141.476C162.304 141.074 162.269 140.443 162.918 140.066C163.299 139.881 163.718 139.789 164.142 139.797C164.565 139.806 164.981 139.914 165.355 140.113L177.001 146.833C177.697 147.234 177.727 147.865 177.078 148.243C176.697 148.427 176.277 148.519 175.854 148.511C175.43 148.503 175.015 148.395 174.641 148.196Z" fill="#292D32"/>
<path d="M134.136 130.293C135.198 129.703 136.307 130.034 137.369 130.653L193.614 163.103C194.676 163.693 194.682 164.714 193.614 165.327L101.574 218.469C100.976 218.77 100.315 218.926 99.6448 218.926C98.9748 218.926 98.3141 218.77 97.7155 218.469L41.4767 186.013C40.4088 185.423 40.4088 184.402 41.4767 183.789L134.136 130.293Z" fill="#173E94"/>
<path opacity="0.8" d="M134.136 130.293C135.198 129.703 136.307 130.034 137.369 130.653L193.614 163.103C194.676 163.693 194.682 164.714 193.614 165.327L101.574 218.469C100.976 218.77 100.315 218.926 99.6448 218.926C98.9748 218.926 98.3141 218.77 97.7155 218.469L41.4767 186.013C40.4088 185.423 40.4088 184.402 41.4767 183.789L134.136 130.293Z" fill="#FEFEFE"/>
<path d="M57.6614 178.924L61.5731 176.688C61.5731 176.688 63.4493 166.351 62.0451 157.465C60.0745 144.975 51.5667 140.668 48.4751 141.907C45.3835 143.146 44.6637 146.851 50.2451 154.067C53.5314 158.327 57.7676 167.33 57.6614 178.924Z" fill="#173E94"/>
<path opacity="0.3" d="M57.6614 178.924L61.5731 176.688C61.5731 176.688 63.4493 166.351 62.0451 157.465C60.0745 144.975 51.5667 140.668 48.4751 141.907C45.3835 143.146 44.6637 146.851 50.2451 154.067C53.5314 158.327 57.7676 167.33 57.6614 178.924Z" fill="#292D32"/>
<path d="M59.076 173.962H59.0406C58.967 173.95 58.9008 173.911 58.8557 173.851C58.8106 173.792 58.7902 173.717 58.7987 173.643C60.4153 161.95 55.713 149.135 50.4266 143.972C50.3734 143.921 50.3429 143.85 50.3418 143.776C50.3407 143.702 50.3691 143.63 50.4207 143.577C50.4724 143.524 50.543 143.493 50.6172 143.492C50.6913 143.491 50.7628 143.519 50.816 143.571C56.1968 148.834 60.9935 161.861 59.3533 173.72C59.3447 173.787 59.3117 173.849 59.2606 173.894C59.2095 173.938 59.1438 173.963 59.076 173.962Z" fill="#FEFEFE"/>
<path d="M46.8104 185.19C46.2204 185.544 44.9165 184.771 44.4504 184.446C43.6107 183.877 42.932 183.101 42.4798 182.192C41.9747 181.163 41.8035 180.002 41.9901 178.871C42.0889 178.272 42.2289 177.68 42.409 177.101L42.9046 175.39C43.1033 174.836 43.1876 174.248 43.1524 173.661C43.0049 172.481 41.9724 171.667 41.0166 170.959C39.9723 170.18 38.8808 169.148 38.8867 167.737C38.9665 166.644 39.404 165.607 40.1316 164.787C40.8042 163.932 41.6066 163.177 42.2143 162.28C42.6958 161.651 42.9477 160.877 42.9282 160.085C42.8612 159.602 42.6988 159.136 42.4503 158.716C41.8754 157.843 41.3741 156.923 40.9517 155.967C40.6095 154.982 40.6567 153.754 41.4237 153.052C41.7696 152.798 42.1626 152.615 42.5799 152.513C42.9972 152.412 43.4305 152.395 43.8545 152.462C44.6545 152.562 45.4233 152.834 46.1083 153.259C48.3503 154.504 49.6483 157.153 52.0083 158.115C52.9472 158.401 53.9028 158.63 54.8698 158.799C55.3545 158.89 55.8148 159.082 56.2212 159.361C56.6276 159.64 56.9712 160.002 57.2298 160.421C58.0971 162.191 56.4805 164.31 57.0941 166.162C57.6369 167.796 59.2299 168.422 60.1208 169.897C60.4838 170.551 60.6304 171.302 60.5397 172.044C60.4606 173.295 60.1548 174.52 59.637 175.661C59.0546 176.796 58.39 177.886 57.6487 178.924C57.6251 178.959 46.9048 185.137 46.8104 185.19Z" fill="#173E94"/>
<path opacity="0.15" d="M46.8104 185.19C46.2204 185.544 44.9165 184.771 44.4504 184.446C43.6107 183.877 42.932 183.101 42.4798 182.192C41.9747 181.163 41.8035 180.002 41.9901 178.871C42.0889 178.272 42.2289 177.68 42.409 177.101L42.9046 175.39C43.1033 174.836 43.1876 174.248 43.1524 173.661C43.0049 172.481 41.9724 171.667 41.0166 170.959C39.9723 170.18 38.8808 169.148 38.8867 167.737C38.9665 166.644 39.404 165.607 40.1316 164.787C40.8042 163.932 41.6066 163.177 42.2143 162.28C42.6958 161.651 42.9477 160.877 42.9282 160.085C42.8612 159.602 42.6988 159.136 42.4503 158.716C41.8754 157.843 41.3741 156.923 40.9517 155.967C40.6095 154.982 40.6567 153.754 41.4237 153.052C41.7696 152.798 42.1626 152.615 42.5799 152.513C42.9972 152.412 43.4305 152.395 43.8545 152.462C44.6545 152.562 45.4233 152.834 46.1083 153.259C48.3503 154.504 49.6483 157.153 52.0083 158.115C52.9472 158.401 53.9028 158.63 54.8698 158.799C55.3545 158.89 55.8148 159.082 56.2212 159.361C56.6276 159.64 56.9712 160.002 57.2298 160.421C58.0971 162.191 56.4805 164.31 57.0941 166.162C57.6369 167.796 59.2299 168.422 60.1208 169.897C60.4838 170.551 60.6304 171.302 60.5397 172.044C60.4606 173.295 60.1548 174.52 59.637 175.661C59.0546 176.796 58.39 177.886 57.6487 178.924C57.6251 178.959 46.9048 185.137 46.8104 185.19Z" fill="#292D32"/>
<path d="M53.1587 181.806C53.1218 181.806 53.0853 181.798 53.0516 181.783C53.0178 181.768 52.9874 181.746 52.9622 181.719C52.9369 181.692 52.9172 181.66 52.9044 181.626C52.8915 181.591 52.8857 181.554 52.8873 181.517C53.3475 170.449 48.1319 158.224 44.3382 154.672C44.3121 154.647 44.2914 154.617 44.2773 154.583C44.2631 154.55 44.2559 154.514 44.2559 154.478C44.2559 154.441 44.2631 154.405 44.2773 154.372C44.2914 154.339 44.3121 154.308 44.3382 154.283C44.3901 154.232 44.46 154.203 44.5329 154.203C44.6058 154.203 44.6757 154.232 44.7276 154.283C48.598 157.906 53.9198 170.331 53.4537 181.559C53.4462 181.63 53.4113 181.696 53.3562 181.742C53.3012 181.788 53.2304 181.811 53.1587 181.806Z" fill="#FEFEFE"/>
<path d="M51.5015 168.743C51.4743 168.749 51.4461 168.749 51.4189 168.743C48.7953 168.021 46.1007 167.588 43.3831 167.451C43.3157 167.441 43.2542 167.408 43.2096 167.356C43.1651 167.305 43.1406 167.239 43.1406 167.171C43.1406 167.103 43.1651 167.037 43.2096 166.986C43.2542 166.934 43.3157 166.9 43.3831 166.891C46.1485 167.035 48.8902 167.478 51.5605 168.212C51.6244 168.231 51.6792 168.273 51.7149 168.33C51.7505 168.386 51.7647 168.453 51.7546 168.519C51.7446 168.585 51.711 168.646 51.6602 168.689C51.6094 168.732 51.5446 168.756 51.4779 168.755L51.5015 168.743Z" fill="#FEFEFE"/>
<path d="M94.7424 78.4108L87.5267 74.2454C87.2022 74.0625 86.9721 74.0153 86.8423 74.0861L85.9632 74.5994C85.8098 74.682 85.8157 74.9475 86.0104 75.3487L87.7804 78.9831L86.4706 80.1631C86.3316 80.2702 86.2227 80.4114 86.1542 80.5729C86.0857 80.7344 86.06 80.9109 86.0796 81.0852C86.0991 81.2595 86.1633 81.4259 86.2659 81.5682C86.3685 81.7105 86.506 81.824 86.6653 81.8977L93.8751 86.0631L94.7601 85.5557L94.7424 78.4108Z" fill="#173E94"/>
<path opacity="0.5" d="M94.7424 78.4108L87.5267 74.2454C87.2022 74.0625 86.9721 74.0153 86.8423 74.0861L85.9632 74.5994C85.8098 74.682 85.8157 74.9475 86.0104 75.3487L87.7804 78.9831L86.4706 80.1631C86.3316 80.2702 86.2227 80.4114 86.1542 80.5729C86.0857 80.7344 86.06 80.9109 86.0796 81.0852C86.0991 81.2595 86.1633 81.4259 86.2659 81.5682C86.3685 81.7105 86.506 81.824 86.6653 81.8977L93.8751 86.0631L94.7601 85.5557L94.7424 78.4108Z" fill="#FEFEFE"/>
<path d="M86.647 74.7573C85.939 74.3443 85.6558 74.6098 86.0098 75.3473L87.7798 78.9817L86.47 80.1617C86.3311 80.2688 86.2221 80.41 86.1536 80.5715C86.0852 80.733 86.0595 80.9095 86.079 81.0838C86.0986 81.2582 86.1628 81.4245 86.2654 81.5668C86.368 81.7092 86.5055 81.8226 86.6647 81.8963L93.8745 86.0617V78.9168L86.647 74.7573Z" fill="#173E94"/>
<path d="M94.707 101.368C94.4822 101.367 94.267 101.277 94.108 101.118C93.949 100.959 93.859 100.743 93.8574 100.519V76.5527C93.8574 76.3274 93.9469 76.1113 94.1063 75.952C94.2656 75.7926 94.4817 75.7031 94.707 75.7031C94.9324 75.7031 95.1485 75.7926 95.3078 75.952C95.4671 76.1113 95.5566 76.3274 95.5566 76.5527V100.519C95.5551 100.743 95.4651 100.959 95.3061 101.118C95.1471 101.277 94.9319 101.367 94.707 101.368Z" fill="#E0E0E0"/>
<path d="M60.5626 185.653V184.155H60.9284C61.4889 183.148 62.3319 182.328 63.3533 181.795C67.0821 179.641 73.1237 179.641 76.8525 181.795C77.8739 182.328 78.7169 183.148 79.2774 184.155H79.6491V185.606C79.6491 187.04 78.7523 188.474 76.8584 189.571C73.1296 191.719 67.088 191.719 63.3592 189.571C61.483 188.491 60.5508 187.069 60.5626 185.653Z" fill="#263238"/>
<path d="M70.1028 189.67C75.3751 189.67 79.649 187.202 79.649 184.159C79.649 181.116 75.3751 178.648 70.1028 178.648C64.8306 178.648 60.5566 181.116 60.5566 184.159C60.5566 187.202 64.8306 189.67 70.1028 189.67Z" fill="#455A64"/>
<path d="M72.569 110V183.49C72.5489 183.706 72.4717 183.913 72.3452 184.09C72.2187 184.266 72.0475 184.405 71.8492 184.493C71.3109 184.767 70.7155 184.91 70.1116 184.91C69.5078 184.91 68.9124 184.767 68.3741 184.493C68.1758 184.405 68.0046 184.266 67.8781 184.09C67.7516 183.913 67.6744 183.706 67.6543 183.49V110H72.569Z" fill="#37474F"/>
<path d="M67.6484 116.203V121.023L72.5631 123.855V119.047L67.6484 116.203Z" fill="#263238"/>
<path d="M88.5654 107.201L97.6514 112.452C97.6049 112.524 97.5448 112.586 97.4744 112.635L81.5798 121.81C81.4441 121.886 81.3379 121.81 81.3379 121.668V110.216C81.3811 108.013 81.8312 105.837 82.6654 103.797L88.5654 107.201Z" fill="#37474F"/>
<path d="M97.7208 99.7071V112.522L82.6699 103.831C82.6831 103.787 82.6989 103.744 82.7171 103.701C84.3337 99.6717 87.0536 96.2497 90.0036 94.5564C91.0258 93.9111 92.2 93.5468 93.4079 93.5003C96.0688 93.4708 97.7208 95.8485 97.7208 99.7071Z" fill="#263238"/>
<path d="M114.071 126.805V125.672H113.965V125.831C113.894 125.514 113.793 125.203 113.664 124.905C112.843 123.245 111.511 121.892 109.864 121.046L99.1203 114.822C98.8694 114.692 98.5913 114.625 98.309 114.625C98.0268 114.625 97.7486 114.692 97.4978 114.822L81.0427 124.315C80.8345 124.15 80.6568 123.951 80.5176 123.725V124.905C80.5283 125.006 80.5649 125.102 80.6238 125.185C80.6827 125.268 80.7619 125.334 80.8539 125.377L91.6096 131.572C94.769 133.265 98.3161 134.103 101.899 134.003C104.882 134.033 107.825 133.317 110.46 131.92C112.879 130.528 114.071 128.687 114.071 126.805Z" fill="#263238"/>
<path d="M113.664 124.893C112.844 123.233 111.512 121.881 109.864 121.035L99.1206 114.822C98.8697 114.692 98.5916 114.625 98.3093 114.625C98.0271 114.625 97.7489 114.692 97.4981 114.822L81.043 124.315L91.6099 130.421C94.7693 132.115 98.3164 132.952 101.899 132.852C104.882 132.883 107.825 132.167 110.46 130.77C112.632 129.519 113.817 127.908 114.036 126.227C113.975 125.767 113.85 125.318 113.664 124.893Z" fill="#455A64"/>
<path d="M114.035 126.221C113.974 125.761 113.849 125.312 113.663 124.887C112.843 123.227 111.511 121.875 109.863 121.029L99.1196 114.816C98.8687 114.687 98.5906 114.619 98.3083 114.619C98.0261 114.619 97.7479 114.687 97.4971 114.816L81.042 124.309L80.8532 124.203C80.7546 124.171 80.6686 124.109 80.6076 124.025C80.5465 123.941 80.5137 123.841 80.5137 123.737C80.5137 123.633 80.5465 123.532 80.6076 123.449C80.6686 123.365 80.7546 123.303 80.8532 123.271L97.4853 113.666C97.7361 113.536 98.0143 113.469 98.2965 113.469C98.5788 113.469 98.8569 113.536 99.1078 113.666L109.863 119.872C111.799 120.993 113.061 122.339 113.663 123.737C113.86 124.188 113.989 124.665 114.047 125.153C114.084 125.508 114.08 125.867 114.035 126.221Z" fill="#37474F"/>
<path d="M81.2129 123.105L97.845 113.5L97.4792 112.633L81.5846 121.813L81.2129 123.105Z" fill="#455A64"/>
<path d="M96.2589 98.9211C96.2515 98.7832 96.2118 98.6489 96.1432 98.529C96.0745 98.4091 95.9788 98.307 95.8636 98.2308L75.6089 86.5429C75.487 86.4788 75.3513 86.4453 75.2136 86.4453C75.0759 86.4453 74.9402 86.4788 74.8183 86.5429L74.3699 86.7966C74.2555 86.8722 74.1602 86.9734 74.0916 87.0922C74.023 87.211 73.983 87.3441 73.9746 87.481V103.01C73.983 103.147 74.023 103.28 74.0916 103.399C74.1602 103.517 74.2555 103.619 74.3699 103.694L94.6246 115.382C94.7465 115.446 94.8822 115.48 95.0199 115.48C95.1576 115.48 95.2933 115.446 95.4152 115.382L95.8636 115.128C95.9777 115.052 96.0727 114.951 96.1413 114.832C96.2099 114.714 96.2501 114.581 96.2589 114.444V98.9211Z" fill="#173E94"/>
<path opacity="0.35" d="M96.1713 98.5336L95.0504 99.1826L74.123 87.0994C74.19 86.9799 74.2852 86.8786 74.4003 86.8044L74.8487 86.5507C74.9707 86.4866 75.1063 86.4531 75.244 86.4531C75.3818 86.4531 75.5174 86.4866 75.6393 86.5507L95.8881 98.2386C96.0052 98.3124 96.1024 98.4137 96.1713 98.5336Z" fill="#292D32"/>
<path opacity="0.2" d="M95.0199 99.1769L94.8134 99.3009C94.8783 99.3287 94.933 99.376 94.97 99.4362C95.007 99.4964 95.0244 99.5666 95.0199 99.6371V115.16C95.0257 115.211 95.0171 115.262 94.9952 115.308C94.9733 115.354 94.9389 115.392 94.896 115.42C94.8353 115.443 94.7679 115.443 94.7072 115.42L94.6246 115.384L74.3699 103.69C74.2555 103.615 74.1602 103.514 74.0916 103.395C74.023 103.276 73.983 103.143 73.9746 103.006V87.489C73.9799 87.3494 74.0205 87.2134 74.0926 87.0938L95.0199 99.1769Z" fill="#292D32"/>
<path opacity="0.2" d="M95.02 99.1754L85.639 102.662C85.3148 102.782 84.9594 102.79 84.6307 102.682C84.3019 102.575 84.0189 102.36 83.8277 102.072L82.3232 99.7654L74.016 87.0391L82.0105 99.8657L73.9629 103.016C73.9721 103.156 74.0146 103.292 74.0868 103.412L82.0341 99.8716L83.8041 102.674C83.9975 102.985 84.2967 103.216 84.6468 103.325C84.9969 103.433 85.3743 103.412 85.7098 103.264L86.9547 102.715L94.902 115.394C94.9449 115.367 94.9792 115.328 95.0012 115.282C95.0231 115.237 95.0316 115.185 95.0259 115.135V114.875L86.9901 102.721L95.02 99.1754Z" fill="#292D32"/>
<path d="M91.4503 101.658C91.4434 101.521 91.4039 101.387 91.3351 101.268C91.2664 101.149 91.1704 101.049 91.055 100.974L70.8003 89.2801C70.6764 89.2192 70.5401 89.1875 70.4021 89.1875C70.264 89.1875 70.1277 89.2192 70.0038 89.2801L69.5613 89.5397C69.4459 89.6143 69.3499 89.7153 69.2812 89.8343C69.2124 89.9532 69.173 90.0869 69.166 90.2241V105.747C69.173 105.884 69.2124 106.018 69.2812 106.137C69.3499 106.256 69.4459 106.357 69.5613 106.431L89.8101 118.125C89.9329 118.186 90.0682 118.218 90.2054 118.218C90.3426 118.218 90.478 118.186 90.6007 118.125L91.0491 117.866C91.1645 117.791 91.2605 117.69 91.3293 117.571C91.398 117.452 91.4375 117.318 91.4444 117.181L91.4503 101.658Z" fill="#173E94"/>
<path opacity="0.35" d="M91.3491 101.269L90.2222 101.918L69.2949 89.8353C69.3639 89.7154 69.4611 89.6141 69.5781 89.5403L70.0265 89.2807C70.1493 89.2194 70.2846 89.1875 70.4218 89.1875C70.559 89.1875 70.6944 89.2194 70.8171 89.2807L91.0659 100.974C91.1842 101.047 91.2818 101.148 91.3491 101.269Z" fill="#292D32"/>
<path opacity="0.2" d="M90.2289 101.919L90.0224 102.043C90.0873 102.071 90.142 102.118 90.179 102.178C90.216 102.239 90.2334 102.309 90.2289 102.379V117.902C90.2346 117.953 90.2261 118.004 90.2042 118.05C90.1823 118.096 90.1479 118.135 90.105 118.162C90.0443 118.186 89.9769 118.186 89.9162 118.162L89.8336 118.126L69.5789 106.433C69.4645 106.357 69.3692 106.256 69.3006 106.137C69.232 106.018 69.1919 105.885 69.1836 105.748V90.2312C69.1889 90.0916 69.2295 89.9556 69.3016 89.8359L90.2289 101.919Z" fill="#292D32"/>
<path opacity="0.2" d="M90.223 101.921L80.8302 105.426C80.5061 105.547 80.1504 105.555 79.8214 105.448C79.4923 105.341 79.2094 105.125 79.0189 104.836L77.5144 102.529L69.2249 89.7969L77.2312 102.606L69.1836 105.756C69.1884 105.897 69.2313 106.034 69.3075 106.152L77.2548 102.659L79.0248 105.455C79.2193 105.767 79.5195 105.998 79.8706 106.107C80.2217 106.215 80.6001 106.193 80.9364 106.045L82.1813 105.491L90.1286 118.176C90.1699 118.146 90.2026 118.106 90.2234 118.059C90.2441 118.012 90.2521 117.961 90.2466 117.91V117.657L82.2226 105.479L90.223 101.921Z" fill="#292D32"/>
<path d="M86.671 104.431C86.6641 104.293 86.6246 104.16 86.5559 104.041C86.4871 103.922 86.3911 103.821 86.2757 103.746L66.021 92.0406C65.8987 91.978 65.7632 91.9453 65.6257 91.9453C65.4883 91.9453 65.3528 91.978 65.2304 92.0406L64.782 92.3002C64.6666 92.3748 64.5706 92.4758 64.5019 92.5948C64.4332 92.7138 64.3937 92.8474 64.3867 92.9846V108.502C64.3946 108.639 64.4345 108.772 64.5031 108.891C64.5718 109.01 64.6673 109.111 64.782 109.186L85.0367 120.88C85.1595 120.941 85.2948 120.973 85.432 120.973C85.5692 120.973 85.7046 120.941 85.8273 120.88L86.2757 120.62C86.3905 120.545 86.486 120.444 86.5546 120.325C86.6233 120.206 86.6631 120.073 86.671 119.936V104.431Z" fill="#173E94"/>
<path opacity="0.35" d="M86.5522 104.024L85.4312 104.673L64.5039 92.5897C64.5692 92.4689 64.6647 92.3673 64.7812 92.2947L65.2296 92.0351C65.3515 91.971 65.4872 91.9375 65.6249 91.9375C65.7626 91.9375 65.8983 91.971 66.0202 92.0351L86.2749 103.729C86.3914 103.801 86.4869 103.903 86.5522 104.024Z" fill="#292D32"/>
<path opacity="0.2" d="M85.432 104.669L85.2255 104.793C85.2904 104.821 85.3452 104.868 85.3821 104.928C85.4191 104.989 85.4365 105.059 85.432 105.129V120.652C85.4378 120.703 85.4292 120.754 85.4073 120.8C85.3854 120.846 85.351 120.885 85.3081 120.912C85.2474 120.936 85.18 120.936 85.1193 120.912L85.0367 120.876L64.782 109.189C64.6676 109.113 64.5723 109.012 64.5037 108.893C64.4351 108.774 64.3951 108.641 64.3867 108.504V92.9812C64.392 92.8416 64.4326 92.7056 64.5047 92.5859L85.432 104.669Z" fill="#292D32"/>
<path opacity="0.2" d="M85.432 104.669L76.051 108.168C75.728 108.291 75.3725 108.3 75.044 108.192C74.7154 108.085 74.4336 107.868 74.2456 107.578L72.7352 105.265L64.428 92.5391L72.4343 105.354L64.3867 108.504C64.397 108.644 64.4394 108.779 64.5106 108.9L72.4579 105.36L74.2279 108.162C74.4213 108.474 74.7206 108.705 75.0706 108.813C75.4207 108.921 75.7982 108.9 76.1336 108.752L77.3785 108.204L85.3258 120.883C85.3687 120.855 85.4031 120.817 85.425 120.771C85.4469 120.725 85.4555 120.674 85.4497 120.623V120.363L77.4198 108.186L85.432 104.669Z" fill="#292D32"/>
<path d="M95.6151 93.0598C94.0044 92.2161 91.8686 92.3636 89.5322 93.7147C86.9067 95.2251 84.5408 97.9568 82.8829 101.096C82.4974 101.82 82.1508 102.564 81.8445 103.326C80.9334 105.511 80.443 107.849 80.399 110.217V123.309C80.1176 123.312 79.8399 123.245 79.5907 123.114L50.781 106.447C50.5434 106.289 50.3463 106.078 50.2059 105.83C50.0654 105.582 49.9855 105.304 49.9727 105.019V92.6291C49.9727 86.4223 54.0614 79.0591 59.1 76.1091C61.46 74.7285 63.6607 74.6164 65.2891 75.5191L95.6151 93.0598Z" fill="#455A64"/>
<path d="M81.844 103.326C80.933 105.512 80.4426 107.85 80.3985 110.217V123.309C80.2995 123.309 80.2007 123.299 80.1035 123.28C80.1035 122.525 80.1035 118.324 80.1035 110.223C80.1035 100.594 87.508 94.476 89.5435 93.7031C86.918 95.2135 84.5521 97.9452 82.8942 101.084C82.5043 101.812 82.1538 102.56 81.844 103.326Z" fill="#37474F"/>
<path d="M81.5845 121.814C81.4488 121.896 81.3367 121.814 81.3367 121.678V110.22C81.3821 108.018 81.8342 105.844 82.6701 103.807C82.6833 103.763 82.699 103.719 82.7173 103.677C83.0389 102.869 83.4093 102.08 83.8265 101.317C85.4431 98.3316 87.6497 95.8772 90.0038 94.5261C91.026 93.8808 92.2002 93.5165 93.4081 93.47C94.0245 93.4664 94.6323 93.6143 95.1781 93.9007C96.7652 94.7503 97.6974 96.8035 97.6974 99.6768V112.208C97.6941 112.293 97.6703 112.376 97.6282 112.45C97.5861 112.524 97.5269 112.587 97.4555 112.633L97.8213 113.5L97.9039 113.447C98.0328 113.358 98.1464 113.248 98.2402 113.123C98.4755 112.831 98.6119 112.471 98.6296 112.096V99.7122C98.6296 96.3905 97.4496 94.0777 95.5911 93.0983C93.9745 92.2487 91.8446 92.3962 89.5023 93.7473C86.8827 95.2577 84.5168 97.9894 82.853 101.128C82.4694 101.853 82.1248 102.597 81.8205 103.358C80.9094 105.544 80.419 107.882 80.375 110.25V123.312H80.5166C80.7498 123.298 80.9773 123.234 81.1833 123.123L81.5845 121.814Z" fill="#455A64"/>
<path d="M270.321 173.672H229.711L233.251 209.532C233.469 211.827 235.098 214.087 238.136 215.839C244.691 219.627 255.311 219.627 261.866 215.839C264.904 214.069 266.527 211.827 266.751 209.532L270.321 173.672Z" fill="#37474F"/>
<path d="M250.019 184.755C261.251 184.755 270.356 179.499 270.356 173.014C270.356 166.53 261.251 161.273 250.019 161.273C238.787 161.273 229.682 166.53 229.682 173.014C229.682 179.499 238.787 184.755 250.019 184.755Z" fill="#455A64"/>
<path d="M250.019 183.082C244.874 183.082 240.066 181.943 236.449 179.872C233.151 177.967 231.334 175.53 231.334 173.017C231.334 170.503 233.151 168.067 236.449 166.161C240.042 164.09 244.851 162.945 250.019 162.945C255.188 162.945 259.973 164.09 263.56 166.161C266.864 168.067 268.681 170.503 268.681 173.017C268.681 175.53 266.864 177.967 263.56 179.872C259.973 181.943 255.164 183.082 250.019 183.082Z" fill="#37474F"/>
<path opacity="0.1" d="M263.979 175.396C262.964 174.635 261.159 175.325 260.439 174.263C260.215 173.927 260.173 173.473 259.849 173.213C258.905 172.434 257.489 174.546 256.486 173.803C256.12 173.538 256.026 172.971 255.619 172.788C255.318 172.658 254.975 172.788 254.651 172.788C254.302 172.729 253.976 172.575 253.708 172.345C253.44 172.114 253.24 171.814 253.129 171.478C252.916 170.802 252.6 170.163 252.191 169.585C251.839 169.202 251.357 168.964 250.84 168.918C249.565 168.806 248.521 169.844 247.665 170.794C247.53 170.947 247.388 171.101 247.252 171.26C247.01 171.565 246.712 171.822 246.373 172.015C246.195 172.119 245.983 172.149 245.783 172.098C245.677 172.054 245.581 171.989 245.501 171.907C245.421 171.825 245.358 171.727 245.317 171.62C244.957 170.841 245.04 169.644 244.208 169.425C243.984 169.366 243.718 169.396 243.541 169.242C243.364 169.089 243.37 168.859 243.246 168.688C243.157 168.591 243.049 168.515 242.927 168.464C242.806 168.413 242.676 168.389 242.544 168.393C240.833 168.263 239.323 169.413 237.995 170.499C237.281 170.027 237.205 168.983 237.476 168.139C238.16 166.098 240.314 164.971 242.332 164.216C243.276 163.862 244.237 163.549 245.205 163.266C242.123 163.66 239.143 164.631 236.42 166.127C233.122 168.033 231.305 170.47 231.305 172.983C231.305 175.496 233.122 177.933 236.42 179.839C240.013 181.91 244.822 183.048 249.99 183.048C255.158 183.048 259.943 181.91 263.53 179.839L263.743 179.709C263.943 179.29 264.126 178.865 264.286 178.429C264.693 177.426 264.858 176.063 263.979 175.396Z" fill="#292D32"/>
<path d="M240.461 213.227C239.569 212.886 238.705 212.476 237.877 212C237.57 211.823 237.287 211.646 237.004 211.457C236.434 210.914 236.094 210.173 236.054 209.386L234.042 185.261C233.971 184.453 234.337 184.134 234.892 184.506C235.218 184.726 235.56 184.938 235.918 185.143C236.944 185.734 238.018 186.237 239.128 186.648C239.525 186.812 239.871 187.08 240.129 187.423C240.388 187.767 240.549 188.173 240.597 188.6L241.777 212.23C241.809 212.399 241.794 212.573 241.732 212.733C241.671 212.894 241.566 213.034 241.429 213.137C241.292 213.241 241.129 213.305 240.958 213.32C240.787 213.336 240.615 213.304 240.461 213.227Z" fill="#263238"/>
<path d="M253.145 189.85L252.744 213.309C252.735 213.71 252.576 214.094 252.299 214.386C252.022 214.677 251.646 214.855 251.245 214.884C250.431 214.919 249.605 214.919 248.785 214.884C248.385 214.853 248.011 214.675 247.735 214.384C247.459 214.093 247.301 213.709 247.292 213.309L246.909 189.85C246.903 189.662 246.937 189.475 247.009 189.301C247.081 189.128 247.188 188.971 247.325 188.842C247.461 188.713 247.624 188.614 247.801 188.551C247.978 188.489 248.167 188.465 248.354 188.481C249.469 188.54 250.585 188.54 251.7 188.481C251.887 188.465 252.075 188.489 252.253 188.551C252.43 188.614 252.593 188.713 252.729 188.842C252.866 188.971 252.973 189.128 253.045 189.301C253.117 189.475 253.151 189.662 253.145 189.85Z" fill="#263238"/>
<path d="M266.026 185.264L263.991 209.406C263.945 210.194 263.604 210.936 263.035 211.483C262.758 211.666 262.445 211.849 262.162 212.02C261.34 212.487 260.484 212.892 259.601 213.23C259.448 213.308 259.276 213.341 259.105 213.326C258.933 213.311 258.769 213.249 258.632 213.145C258.494 213.042 258.388 212.903 258.326 212.742C258.264 212.582 258.248 212.407 258.28 212.238L259.46 188.603C259.507 188.176 259.669 187.769 259.927 187.426C260.186 187.082 260.531 186.814 260.929 186.65C262.033 186.238 263.103 185.737 264.127 185.151C264.486 184.945 264.835 184.727 265.165 184.502C265.72 184.125 266.091 184.438 266.026 185.264Z" fill="#263238"/>
<path d="M232.525 176.45C233.576 177.865 234.923 179.033 236.472 179.872C240.066 181.943 244.874 183.082 250.042 183.082C255.211 183.082 259.996 181.943 263.583 179.872C264.631 179.281 265.599 178.557 266.462 177.719C266.393 177.366 266.272 177.026 266.102 176.71C265.923 176.368 265.663 176.074 265.344 175.856C265.025 175.638 264.657 175.502 264.273 175.459C263.831 175.459 263.394 175.559 262.958 175.536C262.738 175.546 262.521 175.486 262.338 175.364C262.156 175.242 262.017 175.064 261.943 174.857C261.902 174.662 261.943 174.456 261.913 174.267C261.813 173.754 261.164 173.536 260.645 173.63C260.126 173.724 259.671 174.025 259.164 174.155C258.917 174.245 258.647 174.247 258.399 174.161C258.151 174.075 257.94 173.906 257.801 173.683C257.701 173.435 257.736 173.14 257.595 172.91C257.311 172.432 256.474 172.538 256.196 172.055C255.978 171.671 256.249 171.211 256.314 170.78C256.337 170.415 256.249 170.051 256.063 169.735C255.877 169.42 255.601 169.167 255.27 169.01C254.606 168.71 253.887 168.549 253.158 168.538C252.376 168.38 251.564 168.494 250.857 168.863C250.172 169.335 249.919 170.202 249.594 170.963C249.27 171.724 248.668 172.521 247.824 172.515C247.802 172.17 247.687 171.839 247.49 171.555C247.294 171.271 247.024 171.046 246.709 170.904C246.324 170.775 245.929 170.676 245.529 170.609C244.319 170.279 243.169 169.27 241.989 169.594C241.489 169.77 241.037 170.058 240.667 170.438L238.697 172.167C238.217 172.517 237.845 172.996 237.623 173.547C237.583 173.792 237.511 174.029 237.411 174.255C237.039 174.845 236.266 174.609 235.694 174.621C234.91 174.566 234.133 174.801 233.511 175.282C233.103 175.597 232.767 175.995 232.525 176.45Z" fill="#173E94"/>
<path opacity="0.1" d="M263.559 179.868C264.607 179.277 265.575 178.553 266.438 177.715C266.411 177.593 266.378 177.473 266.338 177.355C265.648 177.922 264.837 178.323 263.968 178.528C263.098 178.733 262.193 178.735 261.323 178.535C260.754 178.33 260.157 178.211 259.553 178.181C259.247 178.174 258.948 178.278 258.713 178.475C258.477 178.671 258.321 178.946 258.273 179.249C258.294 179.328 258.294 179.411 258.273 179.49C258.243 179.531 258.205 179.565 258.161 179.589C258.117 179.613 258.069 179.628 258.019 179.632C256.473 179.968 254.715 179.042 253.346 179.85C252.907 180.21 252.433 180.524 251.93 180.788C251.316 180.908 250.679 180.821 250.119 180.541C249.95 180.494 249.795 180.409 249.665 180.293C249.429 180.051 249.434 179.667 249.252 179.39C249.085 179.191 248.872 179.035 248.632 178.936C247.838 178.442 246.918 178.188 245.983 178.204C245.426 178.308 244.905 178.556 244.474 178.923C244.042 179.291 243.714 179.765 243.523 180.299C241.346 179.538 239.77 176.995 237.475 177.237C237.275 176.529 238.118 175.992 238.826 175.779C239.534 175.567 240.413 175.237 240.443 174.499C240.443 174.192 240.301 173.909 240.337 173.59C240.39 173.166 240.815 172.788 240.685 172.375C240.596 172.196 240.478 172.032 240.337 171.891C240.141 171.621 240.06 171.283 240.112 170.953L238.761 172.133C238.281 172.484 237.909 172.962 237.688 173.514C237.647 173.758 237.576 173.996 237.475 174.222C237.103 174.812 236.331 174.576 235.758 174.588C234.974 174.533 234.197 174.768 233.575 175.248C233.162 175.566 232.822 175.968 232.578 176.428C233.629 177.843 234.976 179.011 236.525 179.85C240.118 181.921 244.927 183.06 250.095 183.06C255.264 183.06 259.972 181.939 263.559 179.868Z" fill="#292D32"/>
<path d="M234.077 133.823C234.07 133.693 234.034 133.567 233.969 133.454C233.904 133.341 233.814 133.245 233.705 133.174L214.577 122.135C214.461 122.077 214.332 122.047 214.202 122.047C214.072 122.047 213.944 122.077 213.828 122.135L213.409 122.383C213.3 122.453 213.209 122.548 213.143 122.66C213.078 122.771 213.039 122.897 213.031 123.026V137.688C213.038 137.818 213.076 137.945 213.142 138.058C213.208 138.17 213.299 138.266 213.409 138.337L232.537 149.382C232.652 149.44 232.779 149.47 232.908 149.47C233.037 149.47 233.165 149.44 233.28 149.382L233.705 149.134C233.813 149.063 233.903 148.968 233.968 148.857C234.032 148.745 234.07 148.619 234.077 148.491V133.823Z" fill="#173E94"/>
<path opacity="0.4" d="M233.97 133.45L232.908 134.04L213.143 122.629C213.205 122.514 213.297 122.416 213.408 122.346L213.827 122.104C213.943 122.046 214.072 122.016 214.202 122.016C214.332 122.016 214.46 122.046 214.576 122.104L233.704 133.149C233.815 133.227 233.906 133.33 233.97 133.45Z" fill="#FEFEFE"/>
<path opacity="0.2" d="M234.076 133.819V148.48C234.069 148.609 234.032 148.734 233.968 148.846C233.903 148.958 233.813 149.053 233.705 149.123L233.28 149.371L233.18 149.418L233.026 149.454C232.928 149.468 232.829 149.468 232.731 149.454H232.66C232.645 149.459 232.629 149.459 232.613 149.454C232.641 149.467 232.671 149.474 232.702 149.474C232.732 149.474 232.763 149.467 232.79 149.454C232.831 149.427 232.864 149.39 232.885 149.347C232.906 149.303 232.914 149.254 232.908 149.206V134.521C232.913 134.454 232.896 134.388 232.861 134.331C232.826 134.274 232.775 134.229 232.714 134.202L232.908 134.09L233.97 133.5C234.028 133.598 234.064 133.706 234.076 133.819Z" fill="#292D32"/>
<path opacity="0.2" d="M232.908 134.06L224.058 137.369C223.748 137.481 223.41 137.483 223.099 137.375C222.788 137.268 222.523 137.058 222.347 136.779L220.925 134.596L213.078 122.578L220.66 134.709L213.055 137.659C213.063 137.792 213.104 137.922 213.173 138.036L220.66 134.744L222.318 137.387C222.5 137.681 222.783 137.899 223.114 138.001C223.444 138.103 223.801 138.082 224.117 137.942L225.297 137.423L232.796 149.4C232.837 149.373 232.87 149.336 232.891 149.292C232.911 149.249 232.92 149.2 232.914 149.152V148.91L225.333 137.405L232.908 134.06Z" fill="#292D32"/>
<path d="M216.583 105.948L207.81 90.1119C207.81 90.1119 198.057 77.9343 201.874 72.8839C207.078 72.406 211.68 73.3146 216.034 81.7339C220.925 91.1208 223.25 97.9176 225.793 104.036C226.495 105.729 226.424 114.066 226.259 120.373C226.153 124.503 226.401 128.981 226.401 128.981L223.097 127.075C222.341 126.639 221.486 126.403 220.613 126.391H219.787C218.968 127.248 218.362 128.284 218.017 129.418C217.492 131.778 216.2 132.509 215.503 131.955C215.167 131.683 214.913 130.291 215.698 126.987C216.335 124.273 218.807 121.618 218.483 119.541L216.583 105.948Z" fill="#FFA8A7"/>
<path d="M201.875 72.8822C201.875 72.8822 205.191 72.1388 207.681 72.9766C210.17 73.8144 211.917 74.7879 214.578 78.7527C217.239 82.7175 223.139 96.5589 223.139 96.5589C223.139 96.5589 222.425 100.37 213.699 101.739L205.002 87.7384L201.875 72.8822Z" fill="#37474F"/>
<path d="M188.275 68.4695L190.028 79.5202L200.99 78.9361L199.42 66.0859L188.275 68.4695Z" fill="#FFA8A7"/>
<path d="M180.907 54.8984C180.907 54.8984 178.294 58.8632 178.594 59.2526C178.895 59.642 180.813 59.996 180.813 59.996L180.907 54.8984Z" fill="#F28F8F"/>
<path d="M188.164 43.9406C182.854 45.0557 181.35 47.3803 180.848 55.776C180.329 64.5493 181.226 67.3105 182.376 68.4905C183.155 69.287 187.48 69.4345 189.663 68.8327C192.394 68.0775 198.566 65.8827 201.463 61.4754C204.861 56.2834 205.752 49.2447 202.112 46.3596C196.985 42.2945 190.312 43.4863 188.164 43.9406Z" fill="#FFA8A7"/>
<path d="M188.375 69.0693C189.318 68.8961 190.248 68.6616 191.16 68.3672C190.46 69.1473 189.53 69.6845 188.505 69.9012L188.375 69.0693Z" fill="#F28F8F"/>
<path d="M179.78 47.2016C180.188 47.6025 180.641 47.9549 181.131 48.2518C181.838 48.708 182.575 49.1161 183.337 49.4731C184.083 49.7418 184.802 50.0796 185.485 50.482C186.447 51.1664 186.57 52.0691 186.594 53.1724C186.594 53.8922 186.594 54.789 186.594 55.7625C186.594 57.2198 187.538 58.3231 187.992 56.3525C187.992 56.3525 188.83 53.1134 191.562 53.5205C194.294 53.9276 194.512 57.0074 193.237 59.4205C192.441 60.8896 190.317 60.5061 190.317 60.5061C190.242 61.865 190.458 63.2242 190.95 64.493C191.443 65.7618 192.2 66.9108 193.173 67.8634C193.173 67.8634 195.279 68.5006 199.58 67.5861C202.223 66.9961 204.76 64.111 206.33 60.6123C209.651 53.2137 209.87 46.5526 205.15 44.5584C204.636 41.1482 201.952 39.6201 198.896 38.918C194.317 37.8678 190.046 40.5818 185.508 39.5729C184.763 39.4151 184.026 39.2182 183.302 38.9829C183.023 38.8526 182.705 38.8315 182.411 38.9239C182.249 39.0326 182.123 39.1856 182.046 39.3647C181.97 39.5437 181.947 39.741 181.98 39.9328C182.014 40.3715 182.152 40.7958 182.384 41.1697C182.616 41.5435 182.935 41.8559 183.314 42.0804C183.219 42.0273 182.777 42.1453 182.659 42.1512C182.405 42.1512 182.151 42.1512 181.898 42.1807C181.4 42.1719 180.904 42.1365 180.411 42.0745C180.069 42.0211 179.721 42.0331 179.384 42.1099C179.014 42.253 178.699 42.5115 178.486 42.8472C178.274 43.1829 178.175 43.578 178.204 43.9743C178.281 44.7641 178.561 45.5205 179.018 46.1691C179.182 46.4434 179.366 46.7057 179.567 46.9538C179.662 47.0541 179.721 47.119 179.78 47.2016Z" fill="#263238"/>
<path d="M205.268 45.7287L208.43 43.8643C208.183 43.4449 207.779 43.1409 207.308 43.0192C206.837 42.8975 206.336 42.968 205.917 43.2153C205.498 43.4625 205.194 43.8662 205.072 44.3376C204.95 44.8089 205.021 45.3093 205.268 45.7287Z" fill="#263238"/>
<path d="M208.217 209.917L208.27 210.631C208.397 211.565 208.42 212.511 208.341 213.451C208.264 214.1 208.075 214.979 207.473 215.333C206.828 215.702 206.133 215.974 205.408 216.141C203.806 216.535 202.118 216.368 200.623 215.669C199.384 215.079 198.411 214.124 197.083 213.746C195.696 213.401 194.284 213.169 192.859 213.05C192.228 212.998 191.603 212.883 190.995 212.708C190.531 212.549 190.081 212.351 189.649 212.118C188.147 211.405 186.792 210.417 185.655 209.203C184.946 208.39 184.456 207.409 184.233 206.353C184.109 205.734 183.856 203.94 184.894 203.993C189.98 204.223 195.013 205.315 200.104 205.256C200.435 205.24 200.767 205.254 201.095 205.297C201.718 205.428 202.301 205.701 202.801 206.094C203.012 206.277 203.264 206.407 203.536 206.474C203.808 206.54 204.092 206.541 204.364 206.477C205.239 206.339 206.131 206.351 207.001 206.513C207.187 206.536 207.366 206.601 207.523 206.704C207.681 206.806 207.813 206.942 207.91 207.103C207.954 207.226 207.979 207.355 207.987 207.486C208.057 208.271 208.14 209.103 208.217 209.917Z" fill="#263238"/>
<path d="M207.681 203.822L207.421 207.657C207.174 209.114 202.2 210.017 201.173 207.426L200.684 203.078L207.681 203.822Z" fill="#FFA8A7"/>
<path d="M188.801 218.982C188.801 218.982 189.391 220.977 189.721 222.717C189.969 224.098 190.311 226.405 189.816 227.437C189.32 228.47 187.414 229.089 184.506 229.001C182.618 228.942 179.65 230.181 177.609 231.237C175.567 232.293 171.166 232.718 168.971 232.417C166.381 232.051 163.732 230.487 163.336 229.402C162.941 228.316 163.525 227.219 169.691 224.753C169.75 224.753 178.252 222.174 181.284 218.977L188.801 218.982Z" fill="#263238"/>
<path d="M188.829 216.533C188.829 216.533 188.782 218.221 188.764 219.188C188.747 220.156 187.584 221.548 184.634 221.395C182.563 221.271 181.13 220.681 181.254 218.976L181.307 216.516L188.829 216.533Z" fill="#FFA8A7"/>
<path d="M209.705 174.38C208.832 166.916 208.177 162.645 208.177 162.645C208.177 162.645 208.324 152.255 208.938 142.585C209.593 132.118 209.445 118.938 209.705 116.33C209.705 116.33 176.075 109.149 175.803 121.274C175.485 135.363 176.393 164.515 176.623 168.309C176.907 173.619 176.918 179.182 177.803 187.826C178.694 196.363 181.284 216.529 181.284 216.529C185.102 218.707 188.813 216.529 188.813 216.529C188.813 216.529 191.733 192.339 191.621 186.221C191.549 181.765 191.122 177.323 190.347 172.934L192.996 145.588C192.996 145.588 194.034 154.043 194.318 159.37C194.601 164.698 195.326 167.955 196.642 177.867C197.787 186.475 200.684 204.629 200.684 204.629C201.784 205.252 203.036 205.555 204.299 205.505C205.563 205.455 206.787 205.053 207.834 204.346C207.834 204.346 210.578 181.843 209.705 174.38Z" fill="#173E94"/>
<path opacity="0.15" d="M205.805 132.867C205.805 132.867 203.474 136.708 196.406 139.528L194.436 146.13L194.223 157.736C193.952 153.995 193.539 149.912 193.014 145.588L193.81 138.785C193.81 138.785 201.616 136.419 205.805 132.867Z" fill="#292D32"/>
<path d="M210.996 79.9583C209.644 75.1557 206.476 73.0317 202.954 72.8075C202.057 72.7485 200.24 72.8075 200.24 72.8075C200.488 74.843 194.216 76.2826 189.337 75.1321C187.868 75.5215 185.431 76.0702 184.204 76.4773C180.699 77.6573 176.492 82.0292 175.944 93.4693C175.944 93.4693 175.389 118.055 175.56 125.194C184.221 128.852 192.582 129.324 197.626 128.321C208.134 126.273 209.863 121.772 209.863 121.772C209.863 121.772 209.762 115.523 209.373 105.558C211.155 91.4102 211.58 82.0469 210.996 79.9583Z" fill="#455A64"/>
<path d="M137.511 73.3187C137.489 73.2626 137.479 73.2027 137.481 73.1425C137.482 73.0823 137.496 73.0231 137.52 72.9682C137.545 72.9133 137.581 72.8638 137.625 72.8227C137.669 72.7816 137.72 72.7497 137.777 72.7287L159.217 64.1029C159.547 64.0198 159.894 64.0446 160.208 64.1737L160.857 64.4451C161.167 64.5687 161.423 64.7961 161.583 65.0882L166.852 78.906C166.874 78.962 166.885 79.0221 166.884 79.0825C166.883 79.1429 166.87 79.2025 166.845 79.2576C166.82 79.3127 166.784 79.3622 166.74 79.4032C166.696 79.4442 166.643 79.4757 166.586 79.496L145.14 88.1218C144.81 88.2049 144.463 88.1801 144.149 88.051L143.5 87.7796C143.189 87.6559 142.931 87.4287 142.768 87.1365L137.511 73.3187Z" fill="#173E94"/>
<path opacity="0.4" d="M137.523 72.9825L139.158 73.661L161.306 64.7461C161.172 64.6297 161.021 64.5342 160.858 64.4629L160.209 64.1915C159.895 64.0594 159.547 64.0345 159.218 64.1207L137.777 72.7465C137.666 72.7906 137.576 72.8748 137.523 72.9825Z" fill="#FEFEFE"/>
<path opacity="0.2" d="M137.51 73.3224L142.779 87.1402C142.941 87.4325 143.2 87.6596 143.51 87.7833L144.159 88.0547L144.313 88.1078L144.525 88.155C144.655 88.1664 144.785 88.1664 144.915 88.155H145.003H145.056C144.979 88.1787 144.897 88.1787 144.82 88.155C144.765 88.1347 144.714 88.1025 144.673 88.0607C144.631 88.0189 144.599 87.9686 144.578 87.9131L139.31 74.1012C139.295 74.0739 139.287 74.0434 139.287 74.0125C139.287 73.9815 139.294 73.9509 139.308 73.9232C139.322 73.8956 139.342 73.8716 139.367 73.8533C139.392 73.835 139.421 73.8229 139.451 73.818L139.156 73.6941L137.522 73.0156C137.482 73.1132 137.477 73.222 137.51 73.3224Z" fill="#292D32"/>
<path opacity="0.2" d="M139.158 73.6633L152.109 77.6045C153.035 77.8877 153.879 77.7343 154.18 77.2328L155.283 75.3153L161.384 64.6953L155.69 75.392L166.859 78.932C166.903 79.0397 166.903 79.1606 166.859 79.2683L155.696 75.4451L154.451 77.8051C154.168 78.342 153.23 78.4895 152.256 78.1591L150.486 77.5691L144.822 88.1537C144.767 88.1334 144.716 88.1012 144.675 88.0594C144.633 88.0176 144.601 87.9673 144.58 87.9118L144.492 87.6817L150.451 77.5219L139.158 73.6633Z" fill="#292D32"/>
<path d="M173.991 84.5183C170.009 89.6277 164.433 96.8139 161.283 101.074C159.017 98.8966 150.763 91.0968 149.914 89.8637C148.964 88.4949 149.005 86.6187 148.22 84.6127C147.583 82.9725 146.143 80.9488 145.772 80.111C145.093 78.577 143.601 77.8159 143.577 80.0579C143.577 81.9223 144.462 84.1407 144.362 84.5655C144.314 84.7484 143.577 84.3767 142.775 83.6215C142.42 83.284 142.1 82.9124 141.819 82.5123L140.143 80.2408L138.963 77.2023C138.963 77.2023 138.497 77.2672 137.907 78.6714C136.208 82.7188 136.432 87.1497 139.707 90.7192C141.648 92.8373 144.916 95.7342 148.309 99.8052C151.701 103.876 158.061 110.921 160.775 112.484C163.218 113.888 166.198 111.67 169.625 108.201C174.434 103.357 181.868 95.2209 181.868 95.2209C181.868 95.2209 187.414 85.8163 184.181 76.4766C180.127 76.63 179.077 77.9988 173.991 84.5183Z" fill="#FFA8A7"/>
<path d="M185.509 76.1094C185.509 76.1094 181.597 76.3631 179.107 77.6316C178.441 77.9738 176.529 80.0506 174.712 82.4814C171.172 87.2545 164.924 95.5263 164.924 95.5263C164.924 95.5263 165.042 103.367 172.73 105.556C172.73 105.556 180.429 97.6562 182.5 95.2136C185.196 92.0394 187.828 82.5994 185.509 76.1094Z" fill="#37474F"/>
</svg>
