<svg width="295" height="215" viewBox="0 0 295 215" fill="none" xmlns="http://www.w3.org/2000/svg">
<g clip-path="url(#clip0_1347_20658)">
<path opacity="0.1" d="M290.002 171.476C282.696 186.554 267.851 196.637 252.473 203.286C240.161 208.574 227.146 212.047 213.835 213.597C211.286 213.899 208.729 214.134 206.163 214.301C199.607 214.728 193.029 214.721 186.474 214.279C182.531 214.017 178.602 213.598 174.686 213.022C161.081 211.037 147.816 207.174 135.273 201.545C131.652 199.914 128.105 198.134 124.632 196.205C118.83 192.989 113.271 189.354 107.999 185.327C106.833 184.436 105.681 183.526 104.544 182.596L104.076 182.213C103.182 181.476 102.296 180.722 101.397 179.99C99.9016 178.738 98.3144 177.6 96.6486 176.585C96.5358 176.519 96.423 176.453 96.3075 176.389C95.9994 176.211 95.6858 176.043 95.3667 175.883C94.7092 175.552 94.0353 175.254 93.3474 174.992C90.17 173.781 86.767 173.341 83.3173 173.416C82.7451 173.416 82.1729 173.454 81.5979 173.493C80.7946 173.548 79.9886 173.63 79.1853 173.735L78.8882 173.776C76.3284 174.138 73.7976 174.682 71.3147 175.402C67.4798 176.502 63.7137 177.878 59.9229 179.118C58.3135 179.649 56.7014 180.156 55.0756 180.609L54.718 180.708C52.4056 181.359 50.0518 181.852 47.6727 182.183C42.2663 182.874 36.7752 182.432 31.5491 180.885L31.3675 180.832L31.0319 180.733L30.5725 180.59C29.8022 180.348 29.0384 180.083 28.2809 179.795L27.8215 179.619C27.0879 179.337 26.3699 179.033 25.6675 178.709L25.2081 178.499C24.4745 178.158 23.7565 177.798 23.054 177.418C22.801 177.286 22.5506 177.143 22.303 177.008C21.5547 176.59 20.8211 176.152 20.1022 175.693C19.3393 175.207 18.5928 174.7 17.8629 174.172C17.5255 173.93 17.1917 173.682 16.8616 173.427C14.9585 171.971 13.1765 170.364 11.5329 168.621C11.4421 168.53 11.3568 168.436 11.2715 168.346C10.8341 167.872 10.405 167.391 9.98957 166.898C9.83552 166.717 9.68146 166.535 9.53016 166.348C9.03681 165.747 8.56089 165.131 8.10239 164.502C8.03362 164.412 7.96759 164.318 7.90157 164.227C6.02192 161.628 4.46362 158.811 3.26064 155.837C3.22213 155.746 3.18637 155.652 3.15335 155.562C2.78655 154.617 2.45185 153.657 2.14924 152.681C2.02545 152.274 1.90715 151.856 1.80261 151.449C1.76685 151.328 1.73384 151.204 1.70358 151.083C0.185031 145.105 0.0117188 138.891 0.0117188 132.712C0.0117188 131.991 0.0117188 131.271 0.0117188 130.552C0.0557346 120.558 0.20979 110.393 1.68432 100.536C1.68432 100.468 1.70358 100.399 1.71458 100.333C2.2081 97.0144 2.87939 93.725 3.72556 90.4787C4.61116 87.0724 5.74296 83.7349 7.11203 80.4926C10.504 72.5147 15.4365 65.2548 20.9138 58.5259C27.5162 50.4297 35.0814 42.958 43.5077 36.793C44.7181 35.9072 45.9451 35.0471 47.1885 34.2126L47.7635 33.8357C47.9643 33.7009 48.1651 33.5606 48.3659 33.4423C48.7786 33.1672 49.1912 32.9086 49.6094 32.6473L50.077 32.3557L50.9684 31.8055L51.2435 31.6487L51.7194 31.3736L52.1898 31.0985C52.74 30.7739 53.2966 30.4566 53.8597 30.1466C56.264 28.806 58.7253 27.5809 61.2433 26.4713C61.9861 26.143 62.7335 25.8267 63.4854 25.5222C66.8992 24.1318 70.4061 22.9819 73.9804 22.0807C75.3009 21.7469 76.6296 21.4535 77.9666 21.2004C79.5439 20.896 81.1293 20.6438 82.7231 20.4439C85.2592 20.1248 87.8099 19.9347 90.3653 19.8744C108.335 19.437 126.486 25.2856 140.568 36.4959C146.18 40.9635 151.223 46.2537 157.525 49.6787C163.027 52.6608 169.467 53.896 175.36 51.5494C180.229 49.6099 183.398 48.6471 188.867 48.9414C200.184 49.5789 211.341 51.9121 221.965 55.8629C222.394 56.0197 222.823 56.182 223.249 56.3443C250.955 66.9494 274.775 88.0083 287.149 115.07C287.476 115.785 287.794 116.506 288.104 117.232C295.485 134.467 298.148 154.673 290.002 171.476Z" fill="#6C63FF"/>
<path opacity="0.1" d="M55.0678 76.3082V180.615L54.7102 180.714C52.3978 181.364 50.044 181.857 47.6649 182.188C42.2585 182.88 36.7674 182.437 31.5413 180.89L31.3597 180.838L31.0241 180.739L30.5647 180.596C29.7944 180.354 29.0306 180.089 28.2731 179.801L27.8137 179.625C27.0801 179.342 26.3621 179.039 25.6597 178.714L25.2003 178.505C24.4667 178.164 23.7486 177.803 23.0462 177.424C22.7931 177.292 22.5428 177.149 22.2952 177.014C21.5469 176.596 20.8133 176.157 20.0944 175.699C19.3315 175.213 18.585 174.706 17.8551 174.178C17.5176 173.935 17.1839 173.687 16.8537 173.432C14.9507 171.976 13.1687 170.369 11.5251 168.626C11.4343 168.535 11.349 168.442 11.2637 168.351C10.8263 167.878 10.3972 167.396 9.98176 166.904C9.8277 166.722 9.67365 166.541 9.52234 166.354C9.029 165.752 8.55308 165.137 8.09458 164.508C8.0258 164.417 7.95978 164.324 7.89375 164.233C6.0141 161.633 4.45581 158.816 3.25283 155.842C3.21432 155.751 3.17855 155.658 3.14554 155.567C2.77874 154.623 2.44404 153.663 2.14143 152.687C2.01763 152.28 1.89934 151.862 1.7948 151.454C1.75904 151.333 1.72603 151.21 1.69577 151.089C0.177218 145.111 0.00390625 138.896 0.00390625 132.717C0.00390625 131.997 0.00390625 131.277 0.00390625 130.558C0.0479221 120.563 0.201977 110.399 1.67651 100.542C1.67651 100.473 1.69577 100.404 1.70677 100.338C2.20029 97.0199 2.87158 93.7304 3.71775 90.4841H31.8109V76.3082H37.4119V64.9219H49.4668V76.3082H55.0678Z" fill="#6C63FF"/>
<path opacity="0.1" d="M290.002 171.48C282.696 186.559 267.851 196.641 252.473 203.29C240.161 208.579 227.146 212.052 213.836 213.601C211.286 213.904 208.729 214.138 206.163 214.305C199.607 214.732 193.03 214.725 186.474 214.283C182.531 214.021 178.602 213.602 174.686 213.026C161.081 211.041 147.817 207.179 135.273 201.549C131.652 199.918 128.106 198.138 124.632 196.209C118.83 192.993 113.271 189.358 107.999 185.332C106.833 184.44 105.681 183.53 104.544 182.6L104.077 182.218C103.182 181.48 102.297 180.727 101.397 179.995C99.9018 178.742 98.3146 177.604 96.6488 176.589C96.5361 176.523 96.4233 176.457 96.3077 176.394C95.9996 176.215 95.686 176.047 95.3669 175.888C94.7095 175.556 94.0355 175.259 93.3477 174.996V132.326H144.403V141.825H166.81V72.3401H193.184V100.125H206.229V83.6742H217.008V66.1009H221.959V55.8672C222.389 56.024 222.818 56.1863 223.244 56.3486V66.1009H228.064V83.6852H238.834V100.136H254.715V162.812H279.959V117.231H288.093C295.485 134.471 298.148 154.677 290.002 171.48Z" fill="#6C63FF"/>
<path opacity="0.1" d="M186.479 82.7969H174.691V94.5849H186.479V82.7969Z" fill="#6C63FF"/>
<path opacity="0.1" d="M186.479 107.227H174.691V119.015H186.479V107.227Z" fill="#6C63FF"/>
<path opacity="0.1" d="M186.479 131.664H174.691V143.452H186.479V131.664Z" fill="#6C63FF"/>
<path opacity="0.1" d="M186.479 156.102H174.691V167.89H186.479V156.102Z" fill="#6C63FF"/>
<path opacity="0.1" d="M186.479 180.539H174.691V192.327H186.479V180.539Z" fill="#6C63FF"/>
<path opacity="0.1" d="M186.479 204.969V214.278C182.536 214.016 178.607 213.597 174.691 213.021V204.969H186.479Z" fill="#6C63FF"/>
<path opacity="0.1" d="M138.497 147.555H97.2344V152.894H138.497V147.555Z" fill="#6C63FF"/>
<path opacity="0.1" d="M138.497 163.773H97.2344V169.113H138.497V163.773Z" fill="#6C63FF"/>
<path opacity="0.1" d="M138.497 179.992V185.329H108.005C106.838 184.438 105.687 183.527 104.549 182.597L104.082 182.215C103.188 181.478 102.302 180.724 101.402 179.992H138.497Z" fill="#6C63FF"/>
<path opacity="0.1" d="M138.496 196.203V201.543H135.278C131.657 199.912 128.11 198.132 124.637 196.203H138.496Z" fill="#6C63FF"/>
<path opacity="0.1" d="M213.84 114.711H206.168V122.383H213.84V114.711Z" fill="#6C63FF"/>
<path opacity="0.1" d="M47.6803 78.9531H40.0078V86.6256H47.6803V78.9531Z" fill="#6C63FF"/>
<path opacity="0.1" d="M47.6803 96.7812H40.0078V104.454H47.6803V96.7812Z" fill="#6C63FF"/>
<path opacity="0.1" d="M47.6803 114.609H40.0078V122.282H47.6803V114.609Z" fill="#6C63FF"/>
<path opacity="0.1" d="M47.6803 132.43H40.0078V140.102H47.6803V132.43Z" fill="#6C63FF"/>
<path opacity="0.1" d="M47.6803 150.258H40.0078V157.93H47.6803V150.258Z" fill="#6C63FF"/>
<path opacity="0.1" d="M47.6803 168.086H40.0078V175.758H47.6803V168.086Z" fill="#6C63FF"/>
<path opacity="0.1" d="M243.137 114.711H235.465V122.383H243.137V114.711Z" fill="#6C63FF"/>
<path opacity="0.1" d="M213.84 133.641H206.168V141.313H213.84V133.641Z" fill="#6C63FF"/>
<path opacity="0.1" d="M243.137 133.641H235.465V141.313H243.137V133.641Z" fill="#6C63FF"/>
<path opacity="0.1" d="M213.84 152.57H206.168V160.243H213.84V152.57Z" fill="#6C63FF"/>
<path opacity="0.1" d="M243.137 152.57H235.465V160.243H243.137V152.57Z" fill="#6C63FF"/>
<path opacity="0.1" d="M213.84 171.5H206.168V179.173H213.84V171.5Z" fill="#6C63FF"/>
<path opacity="0.1" d="M243.137 171.5H235.465V179.173H243.137V171.5Z" fill="#6C63FF"/>
<path opacity="0.1" d="M213.84 190.43H206.168V198.102H213.84V190.43Z" fill="#6C63FF"/>
<path opacity="0.1" d="M243.137 190.43H235.465V198.102H243.137V190.43Z" fill="#6C63FF"/>
<path opacity="0.1" d="M206.168 214.301V209.352H213.84V213.596L206.168 214.301Z" fill="#6C63FF"/>
<path opacity="0.1" d="M1.67969 100.344V104.745H31.0245V100.344H1.67969ZM4.29313 104.47H2.1391V100.619H4.29313V104.47ZM6.90657 104.47H4.75255V100.619H6.90657V104.47ZM9.52002 104.47H7.36599V100.619H9.52002V104.47ZM12.1335 104.47H9.97943V100.619H12.1335V104.47ZM14.7469 104.47H12.5929V100.619H14.7469V104.47ZM17.3603 104.47H15.2063V100.619H17.3603V104.47ZM19.9738 104.47H17.8198V100.619H19.9738V104.47ZM22.5872 104.47H20.4332V100.619H22.5872V104.47ZM25.2007 104.47H23.0467V100.619H25.2007V104.47ZM27.8141 104.47H25.6601V100.619H27.8141V104.47ZM30.5651 104.47H28.2735V100.619H30.5651V104.47Z" fill="#6C63FF"/>
<path opacity="0.1" d="M1.67969 113.125V117.513H31.0245V113.125H1.67969ZM4.29313 117.238H2.1391V113.4H4.29313V117.238ZM6.90657 117.238H4.75255V113.4H6.90657V117.238ZM9.52002 117.238H7.36599V113.4H9.52002V117.238ZM12.1335 117.238H9.97943V113.4H12.1335V117.238ZM14.7469 117.238H12.5929V113.4H14.7469V117.238ZM17.3603 117.238H15.2063V113.4H17.3603V117.238ZM19.9738 117.238H17.8198V113.4H19.9738V117.238ZM22.5872 117.238H20.4332V113.4H22.5872V117.238ZM25.2007 117.238H23.0467V113.4H25.2007V117.238ZM27.8141 117.238H25.6601V113.4H27.8141V117.238ZM30.5651 117.238H28.2735V113.4H30.5651V117.238Z" fill="#6C63FF"/>
<path opacity="0.1" d="M1.67969 125.898V130.286H31.0245V125.898H1.67969ZM4.29313 130.011H2.1391V126.174H4.29313V130.011ZM6.90657 130.011H4.75255V126.174H6.90657V130.011ZM9.52002 130.011H7.36599V126.174H9.52002V130.011ZM12.1335 130.011H9.97943V126.174H12.1335V130.011ZM14.7469 130.011H12.5929V126.174H14.7469V130.011ZM17.3603 130.011H15.2063V126.174H17.3603V130.011ZM19.9738 130.011H17.8198V126.174H19.9738V130.011ZM22.5872 130.011H20.4332V126.174H22.5872V130.011ZM25.2007 130.011H23.0467V126.174H25.2007V130.011ZM27.8141 130.011H25.6601V126.174H27.8141V130.011ZM30.5651 130.011H28.2735V126.174H30.5651V130.011Z" fill="#6C63FF"/>
<path opacity="0.1" d="M1.67969 138.672V143.073H31.0245V138.672H1.67969ZM4.29313 142.798H2.1391V138.947H4.29313V142.798ZM6.90657 142.798H4.75255V138.947H6.90657V142.798ZM9.52002 142.798H7.36599V138.947H9.52002V142.798ZM12.1335 142.798H9.97943V138.947H12.1335V142.798ZM14.7469 142.798H12.5929V138.947H14.7469V142.798ZM17.3603 142.798H15.2063V138.947H17.3603V142.798ZM19.9738 142.798H17.8198V138.947H19.9738V142.798ZM22.5872 142.798H20.4332V138.947H22.5872V142.798ZM25.2007 142.798H23.0467V138.947H25.2007V142.798ZM27.8141 142.798H25.6601V138.947H27.8141V142.798ZM30.5651 142.798H28.2735V138.947H30.5651V142.798Z" fill="#6C63FF"/>
<path opacity="0.1" d="M1.78906 151.461C1.8936 151.874 2.01189 152.286 2.13569 152.693V151.736H4.28972V155.587H3.1398C3.17281 155.678 3.20858 155.772 3.24709 155.863H31.0321V151.461H1.78906ZM6.90316 155.587H4.74913V151.736H6.90316V155.587ZM9.5166 155.587H7.36258V151.736H9.5166V155.587ZM12.13 155.587H9.97602V151.736H12.13V155.587ZM14.7435 155.587H12.5895V151.736H14.7435V155.587ZM17.3569 155.587H15.2029V151.736H17.3569V155.587ZM19.9704 155.587H17.8164V151.736H19.9704V155.587ZM22.5838 155.587H20.4298V151.736H22.5838V155.587ZM25.1973 155.587H23.0432V151.736H25.1973V155.587ZM27.8107 155.587H25.6567V151.736H27.8107V155.587ZM30.5617 155.587H28.2701V151.736H30.5617V155.587Z" fill="#6C63FF"/>
<path opacity="0.1" d="M7.89062 164.234C7.95665 164.325 8.02267 164.419 8.09145 164.509H9.51921V166.355C9.67052 166.54 9.82457 166.721 9.97863 166.906V164.512H12.1327V168.364H11.2606C11.3459 168.454 11.4312 168.548 11.5219 168.639H31.0237V164.237L7.89062 164.234ZM14.7461 168.361H12.5921V164.509H14.7461V168.361ZM17.3595 168.361H15.2055V164.509H17.3595V168.361ZM19.973 168.361H17.819V164.509H19.973V168.361ZM22.5864 168.361H20.4324V164.509H22.5864V168.361ZM25.1999 168.361H23.0458V164.509H25.1999V168.361ZM27.8133 168.361H25.6593V164.509H27.8133V168.361ZM30.5643 168.361H28.2727V164.509H30.5643V168.361Z" fill="#6C63FF"/>
<path opacity="0.1" d="M22.293 177.016C22.5406 177.156 22.7909 177.291 23.044 177.426V177.291H25.198V178.507L25.6574 178.716V177.291H27.8115V179.626L28.2709 179.802V177.291H30.5625V180.592L31.0219 180.735V177.016H22.293Z" fill="#6C63FF"/>
<path opacity="0.1" d="M112.779 62.2351C112.779 62.2351 106.221 61.839 107.002 66.4331C106.962 66.6666 106.997 66.9068 107.102 67.1193C107.206 67.3318 107.376 67.5057 107.585 67.6161C107.585 67.6161 107.585 67.275 108.257 67.3905C108.492 67.4292 108.731 67.4402 108.969 67.4235C109.291 67.4023 109.597 67.2768 109.841 67.0659C109.841 67.0659 111.684 66.3039 112.402 63.2915C112.402 63.2915 112.931 62.634 112.911 62.4662L111.811 62.9394C111.811 62.9394 112.191 63.7372 111.893 64.4002C111.893 64.4002 111.858 62.9696 111.643 63.0027C111.602 63.0027 111.068 63.2778 111.068 63.2778C111.068 63.2778 111.72 64.6698 111.228 65.6794C111.228 65.6794 111.415 63.9683 110.867 63.3795L110.07 63.839C110.07 63.839 110.832 65.275 110.314 66.4469C110.314 66.4469 110.449 64.6505 109.907 63.9518L109.2 64.5019C109.2 64.5019 109.915 65.916 109.475 66.8898C109.475 66.8898 109.418 64.7963 109.043 64.6367C108.775 64.863 108.536 65.1218 108.331 65.407C108.331 65.407 108.821 66.4331 108.518 66.9751C108.518 66.9751 108.331 65.5831 108.177 65.5748C108.177 65.5748 107.563 66.4992 107.5 67.1319C107.528 66.5449 107.71 65.9757 108.028 65.4813C107.674 65.5484 107.347 65.7176 107.087 65.9682C107.087 65.9682 107.184 65.3162 108.188 65.2585C108.188 65.2585 108.697 64.5597 108.834 64.5157C108.834 64.5157 107.841 64.4332 107.239 64.7C107.239 64.7 107.77 64.0838 109.016 64.3644L109.712 63.7949C109.712 63.7949 108.405 63.6161 107.852 63.8142C107.852 63.8142 108.488 63.264 109.899 63.6656L110.658 63.2117C110.075 63.084 109.478 63.0322 108.881 63.0577C108.881 63.0577 109.58 62.6808 110.881 63.0907L111.431 62.8459C111.431 62.8459 110.606 62.6863 110.378 62.6615C110.149 62.6368 110.125 62.5708 110.125 62.5708C110.641 62.4846 111.172 62.5436 111.657 62.7413C111.657 62.7413 112.798 62.3067 112.779 62.2351Z" fill="#6C63FF"/>
<path opacity="0.1" d="M95.5626 84.5941C95.5626 84.5941 93.3205 90.7673 97.9477 91.3313C98.1596 91.4355 98.399 91.4701 98.6317 91.4301C98.8644 91.39 99.0785 91.2775 99.2434 91.1084C99.2434 91.1084 98.9215 91.0012 99.2187 90.3987C99.3228 90.1846 99.4021 89.9594 99.4552 89.7274C99.5248 89.4123 99.4901 89.083 99.3562 88.7894C99.3562 88.7894 99.1499 86.8059 96.4649 85.2626C96.4649 85.2626 95.9862 84.5666 95.8184 84.5391L95.956 85.7357C95.956 85.7357 96.828 85.5982 97.381 86.0714C97.381 86.0714 96.0055 85.7 95.9697 85.9146C95.9697 85.9558 96.0715 86.5445 96.0715 86.5445C96.0715 86.5445 97.5901 86.3135 98.4181 87.0727C98.4181 87.0727 96.828 86.407 96.11 86.7674L96.3246 87.6422C96.3246 87.6422 97.9174 87.3231 98.894 88.1484C98.894 88.1484 97.2104 87.5129 96.3851 87.832L96.7125 88.6573C96.7125 88.6573 98.2723 88.3822 99.0811 89.0672C99.0811 89.0672 97.0564 88.517 96.8005 88.8416C96.9414 89.1619 97.1206 89.464 97.3342 89.7412C97.3342 89.7412 98.4594 89.5651 98.8913 90.0163C98.8913 90.0163 97.502 89.799 97.4525 89.942C97.4525 89.942 98.165 90.7948 98.7537 91.0424C98.2009 90.8468 97.7087 90.5101 97.326 90.0658C97.2895 90.4255 97.3593 90.788 97.5268 91.1084C97.5268 91.1084 96.9271 90.8333 97.1554 89.8567C97.1554 89.8567 96.6272 89.1717 96.6272 89.0314C96.6272 89.0314 96.2641 89.9585 96.3521 90.6133C96.3521 90.6133 95.912 89.9283 96.5337 88.8141L96.1871 87.9888C96.1871 87.9888 95.6369 89.191 95.6754 89.7797C95.6754 89.7797 95.3343 89.0122 96.1155 87.7715L95.8982 86.9159C95.6103 87.4356 95.3911 87.9904 95.2462 88.5665C95.2462 88.5665 95.0812 87.788 95.8432 86.6573L95.7634 86.0686C95.7634 86.0686 95.3783 86.8059 95.2875 87.0287C95.1967 87.2515 95.1279 87.2433 95.1279 87.2433C95.1913 86.723 95.398 86.2306 95.7249 85.821C95.7249 85.821 95.6369 84.5941 95.5626 84.5941Z" fill="#6C63FF"/>
<path opacity="0.1" d="M139.038 79.3937C139.038 79.3937 136.799 85.5779 141.423 86.1281C141.636 86.2323 141.876 86.2665 142.109 86.226C142.342 86.1855 142.557 86.0723 142.722 85.9026C142.722 85.9026 142.397 85.7953 142.697 85.1955C142.802 84.9812 142.88 84.7549 142.931 84.5216C143.001 84.2067 142.967 83.8775 142.835 83.5835C142.835 83.5835 142.628 81.6 139.943 80.0567C139.943 80.0567 139.462 79.3634 139.294 79.3359L139.434 80.5299C139.434 80.5299 140.306 80.3951 140.859 80.8682C140.859 80.8682 139.484 80.4969 139.445 80.7087C139.445 80.7527 139.547 81.3387 139.547 81.3387C139.547 81.3387 141.066 81.1103 141.896 81.8669C141.896 81.8669 140.306 81.2039 139.586 81.5615L139.803 82.4391C139.803 82.4391 141.396 82.1172 142.372 82.9452C142.372 82.9452 140.686 82.307 139.861 82.6261L140.188 83.4514C140.188 83.4514 141.748 83.1763 142.557 83.8613C142.557 83.8613 140.535 83.3111 140.276 83.6385C140.421 83.9601 140.606 84.2622 140.826 84.5381C140.826 84.5381 141.949 84.3593 142.383 84.8132C142.383 84.8132 140.994 84.5958 140.945 84.7416C140.945 84.7416 141.654 85.5917 142.243 85.842C141.691 85.6472 141.199 85.3104 140.818 84.8654C140.782 85.2248 140.85 85.5871 141.016 85.9081C141.016 85.9081 140.419 85.633 140.647 84.6591C140.647 84.6591 140.119 83.9714 140.117 83.8338C140.117 83.8338 139.756 84.7636 139.841 85.4156C139.841 85.4156 139.401 84.7334 140.023 83.6165L139.676 82.7912C139.676 82.7912 139.126 83.9934 139.165 84.5793C139.165 84.5793 138.824 83.8146 139.605 82.5739L139.385 81.7155C139.097 82.2352 138.878 82.79 138.733 83.3661C138.733 83.3661 138.57 82.5876 139.332 81.457L139.253 80.8682C139.253 80.8682 138.868 81.6055 138.774 81.8283C138.681 82.0512 138.614 82.0429 138.614 82.0429C138.68 81.5227 138.887 81.0305 139.214 80.6207C139.214 80.6207 139.115 79.3965 139.038 79.3937Z" fill="#6C63FF"/>
<path opacity="0.1" d="M76.8946 129.865C76.8946 129.865 74.6526 136.041 79.2797 136.605C79.4918 136.709 79.7315 136.743 79.9643 136.703C80.1971 136.662 80.4111 136.549 80.5754 136.379C80.5754 136.379 80.2536 136.272 80.5507 135.672C80.6564 135.458 80.7359 135.231 80.7873 134.998C80.8583 134.683 80.8235 134.353 80.6882 134.06C80.6882 134.06 80.4819 132.077 77.7969 130.536C77.7969 130.536 77.3183 129.84 77.1505 129.812L77.288 131.006C77.288 131.006 78.1628 130.872 78.713 131.345C78.713 131.345 77.3375 130.973 77.3018 131.185C77.3018 131.229 77.4035 131.815 77.4035 131.815C77.4035 131.815 78.9221 131.587 79.7501 132.343C79.7501 132.343 78.1601 131.68 77.4421 132.038L77.6566 132.916C77.6566 132.916 79.2495 132.594 80.2261 133.422C80.2261 133.422 78.5425 132.784 77.7172 133.103L78.0445 133.928C78.0445 133.928 79.6043 133.653 80.4131 134.338C80.4131 134.338 78.3912 133.788 78.1326 134.115C78.2735 134.435 78.4527 134.737 78.6663 135.015C78.6663 135.015 79.7914 134.836 80.2261 135.29C80.2261 135.29 78.8341 135.072 78.7845 135.218C78.7845 135.218 79.4971 136.068 80.0858 136.319C79.5328 136.125 79.0405 135.789 78.658 135.345C78.6216 135.704 78.6914 136.065 78.8588 136.385C78.8588 136.385 78.2591 136.11 78.4874 135.136C78.4874 135.136 77.962 134.448 77.9592 134.31C77.9592 134.31 77.5961 135.24 77.6841 135.892C77.6841 135.892 77.244 135.21 77.8657 134.093L77.5191 133.268C77.5191 133.268 76.9689 134.47 77.0102 135.056C77.0102 135.056 76.669 134.291 77.4503 133.05L77.2302 132.195C76.9418 132.714 76.7226 133.269 76.5783 133.845C76.5783 133.845 76.4132 133.064 77.1752 131.936L77.0954 131.345C77.0954 131.345 76.7103 132.082 76.6195 132.305C76.5287 132.528 76.46 132.519 76.46 132.519C76.5235 131.999 76.7313 131.506 77.0597 131.097C77.0597 131.097 76.9689 129.865 76.8946 129.865Z" fill="#6C63FF"/>
<path opacity="0.1" d="M67.9952 71.6566C67.9952 71.6566 65.7559 77.8298 70.3803 78.3938C70.5927 78.4978 70.8324 78.5323 71.0655 78.4923C71.2986 78.4523 71.5132 78.3398 71.6787 78.1709C71.6787 78.1709 71.3541 78.0637 71.654 77.4612C71.7577 77.2463 71.8362 77.0201 71.8878 76.7872C71.9582 76.4732 71.9244 76.1449 71.7915 75.8519C71.7915 75.8519 71.5852 73.8684 68.8975 72.3251C68.8975 72.3251 68.4188 71.6291 68.251 71.6016L68.3913 72.7982C68.3913 72.7982 69.2634 72.6607 69.8136 73.1339C69.8136 73.1339 68.4381 72.7625 68.4023 72.9771C68.4023 73.0183 68.5041 73.607 68.5041 73.607C68.5041 73.607 70.0226 73.376 70.8534 74.1352C70.8534 74.1352 69.2634 73.4695 68.5426 73.8299L68.7572 74.7047C68.7572 74.7047 70.35 74.3828 71.3294 75.2109C71.3294 75.2109 69.643 74.5726 68.8177 74.8945L69.1451 75.7198C69.1451 75.7198 70.7049 75.4447 71.5137 76.1324C71.5137 76.1324 69.4917 75.5822 69.2331 75.9069C69.374 76.2272 69.5532 76.5293 69.7668 76.8064C69.7668 76.8064 70.892 76.6304 71.3266 77.0815C71.3266 77.0815 69.9374 76.8642 69.8878 77.0073C69.8878 77.0073 70.5976 77.8601 71.1863 78.1077C70.6338 77.9113 70.1418 77.5748 69.7585 77.1311C69.7221 77.4908 69.7919 77.8533 69.9594 78.1737C69.9594 78.1737 69.3596 77.8986 69.5907 76.922C69.5907 76.922 69.0625 76.237 69.0598 76.0967C69.0598 76.0967 68.6994 77.0238 68.7847 77.6785C68.7847 77.6785 68.3418 76.9935 68.9663 75.8794L68.6169 75.0541C68.6169 75.0541 68.0667 76.2562 68.108 76.845C68.108 76.845 67.7668 76.0774 68.5481 74.8367L68.328 73.9812C68.0401 74.5008 67.821 75.0557 67.676 75.6318C67.676 75.6318 67.5137 74.8532 68.273 73.7226L68.196 73.1339C68.196 73.1339 67.8081 73.8711 67.7173 74.0912C67.6265 74.3113 67.5578 74.3085 67.5578 74.3085C67.6213 73.7879 67.829 73.2953 68.1575 72.8863C68.1575 72.8863 68.0722 71.6566 67.9952 71.6566Z" fill="#6C63FF"/>
<path opacity="0.1" d="M84.625 105.275C84.625 105.275 86.3554 111.602 90.4599 109.402C90.6931 109.364 90.9086 109.255 91.0757 109.088C91.2427 108.921 91.3526 108.705 91.3897 108.472C91.3897 108.472 91.0651 108.571 90.9633 107.908C90.9245 107.672 90.858 107.443 90.7652 107.223C90.6433 106.924 90.4255 106.674 90.1462 106.513C90.1462 106.513 88.834 105.011 85.7447 105.297C85.7447 105.297 84.9524 105.008 84.7983 105.083L85.6016 105.977C85.6016 105.977 86.2371 105.363 86.9606 105.426C86.9606 105.426 85.6154 105.922 85.7144 106.111C85.7364 106.15 86.1601 106.568 86.1601 106.568C86.1601 106.568 87.2605 105.503 88.3829 105.644C88.3829 105.644 86.702 106.018 86.3224 106.728L87.0019 107.319C87.0019 107.319 88.1188 106.139 89.3952 106.249C89.3952 106.249 87.6483 106.7 87.1587 107.437L87.9069 107.93C87.9069 107.93 89.0073 106.799 90.0802 106.901C90.0802 106.901 88.116 107.624 88.0857 108.032C88.3862 108.212 88.7077 108.356 89.0431 108.458C89.0431 108.458 89.8684 107.666 90.4709 107.778C90.4709 107.778 89.2082 108.403 89.2522 108.549C89.2522 108.549 90.3251 108.824 90.944 108.692C90.3804 108.852 89.7848 108.861 89.2164 108.719C89.3934 109.034 89.6594 109.29 89.9812 109.454C89.9812 109.454 89.3319 109.572 88.9578 108.645C88.9578 108.645 88.1325 108.389 88.0445 108.274C88.0445 108.274 88.2866 109.242 88.7322 109.726C88.7322 109.726 87.9785 109.421 87.8437 108.15L87.0816 107.674C87.0816 107.674 87.332 108.97 87.6951 109.429C87.6951 109.429 86.9744 109 86.8973 107.536L86.2261 106.964C86.2914 107.558 86.4339 108.14 86.6497 108.697C86.6497 108.697 86.0693 108.147 86.039 106.794L85.6346 106.356C85.6346 106.356 85.7447 107.182 85.7969 107.415C85.8492 107.649 85.7969 107.69 85.7969 107.69C85.5491 107.228 85.4348 106.706 85.4668 106.183C85.4668 106.183 84.6883 105.234 84.625 105.275Z" fill="#6C63FF"/>
<path opacity="0.1" d="M131.566 110.925C131.566 110.925 133.297 117.253 137.399 115.052C137.632 115.016 137.849 114.906 138.016 114.739C138.184 114.572 138.294 114.356 138.331 114.122C138.331 114.122 138.004 114.221 137.902 113.572C137.865 113.336 137.8 113.106 137.707 112.887C137.583 112.588 137.364 112.339 137.085 112.177C137.085 112.177 135.773 110.675 132.683 110.964C132.683 110.964 131.891 110.672 131.74 110.746L132.54 111.641C132.54 111.641 133.176 111.027 133.899 111.09C133.899 111.09 132.554 111.586 132.656 111.775C132.675 111.814 133.101 112.232 133.101 112.232C133.101 112.232 134.202 111.167 135.324 111.308C135.324 111.308 133.641 111.682 133.261 112.392L133.943 112.983C133.943 112.983 135.044 111.803 136.334 111.913C136.334 111.913 134.59 112.364 134.1 113.101L134.848 113.594C134.848 113.594 135.949 112.463 137.019 112.565C137.019 112.565 135.055 113.288 135.027 113.696C135.327 113.876 135.647 114.02 135.982 114.122C135.982 114.122 136.807 113.33 137.41 113.442C137.41 113.442 136.15 114.067 136.191 114.213C136.191 114.213 137.264 114.488 137.885 114.356C137.321 114.515 136.724 114.525 136.155 114.383C136.333 114.697 136.599 114.953 136.92 115.118C136.92 115.118 136.271 115.236 135.896 114.309C135.896 114.309 135.071 114.053 134.986 113.938C134.986 113.938 135.225 114.906 135.671 115.39C135.671 115.39 134.917 115.085 134.782 113.814L134.02 113.332C134.02 113.332 134.271 114.628 134.637 115.088C134.637 115.088 133.916 114.658 133.839 113.195L133.165 112.623C133.23 113.217 133.373 113.799 133.591 114.356C133.591 114.356 133.008 113.806 132.978 112.452L132.573 112.015C132.573 112.015 132.683 112.84 132.736 113.074C132.788 113.308 132.736 113.349 132.736 113.349C132.488 112.887 132.373 112.365 132.405 111.841C132.405 111.841 131.63 110.884 131.566 110.925Z" fill="#6C63FF"/>
<path d="M113.954 174.471C113.954 174.471 128.226 169.665 125.272 152.637L107.143 147.93L102.934 161.902L113.954 174.471Z" fill="#CED7E7"/>
<path opacity="0.1" d="M102.934 161.898L113.951 174.467C113.951 174.467 128.223 169.661 125.269 152.633L102.934 161.898Z" fill="#292D32"/>
<path d="M42.9615 36.0962C42.9615 36.0962 44.8872 39.2296 47.5199 37.6643C50.1526 36.099 47.6272 31.7744 47.6272 31.7744C47.6272 31.7744 42.5846 31.0839 42.9615 36.0962Z" fill="#FED253"/>
<path opacity="0.1" d="M47.52 37.6627C47.2095 37.8636 46.8611 37.999 46.4964 38.0605C46.1317 38.122 45.7582 38.1083 45.399 38.0203C44.4334 37.7755 43.6906 37.0327 43.2917 36.5458C43.1727 36.4031 43.0625 36.2534 42.9616 36.0974C42.8268 34.3092 43.3825 33.2446 44.1528 32.6174C45.2119 31.7563 46.6782 31.7205 47.3109 31.748C47.5062 31.748 47.619 31.7756 47.619 31.7756L47.6713 31.8636C47.7456 32.0039 47.9079 32.3148 48.0812 32.7302C48.6699 34.0919 49.3714 36.5595 47.52 37.6627Z" fill="#292D32"/>
<path d="M115.358 151.836L125.262 152.636L143.693 152.788L129.171 170.669C129.171 170.669 124.563 170.92 123.614 171.569C122.665 172.218 109.339 171.871 109.339 171.871L107.188 162.705L115.358 151.836Z" fill="#FFA2A2"/>
<path opacity="0.05" d="M115.358 151.836L125.262 152.636L143.693 152.788L129.171 170.669C129.171 170.669 124.563 170.92 123.614 171.569C122.665 172.218 109.339 171.871 109.339 171.871L107.188 162.705L115.358 151.836Z" fill="#292D32"/>
<path d="M105.341 103.755L107.643 107.661L108.144 114.473C108.144 114.473 109.748 120.28 110.95 121.983C112.152 123.686 112.653 128.195 112.653 128.195C112.653 128.195 113.153 132.401 113.753 133.301C114.353 134.2 115.156 140.728 115.156 140.728C115.156 140.728 120.466 151.345 125.272 152.646C125.272 152.646 101.434 160.459 113.954 174.48C113.954 174.48 105.041 176.681 102.936 174.181C100.832 171.68 95.3242 134.618 95.3242 134.618L97.0271 103.367L105.341 103.755Z" fill="#CED7E7"/>
<path opacity="0.05" d="M105.341 103.755L107.643 107.661L108.144 114.473C108.144 114.473 109.748 120.28 110.95 121.983C112.152 123.686 112.653 128.195 112.653 128.195C112.653 128.195 113.153 132.401 113.753 133.301C114.353 134.2 115.156 140.728 115.156 140.728C115.156 140.728 120.466 151.345 125.272 152.646C125.272 152.646 101.434 160.459 113.954 174.48C113.954 174.48 105.041 176.681 102.936 174.181C100.832 171.68 95.3242 134.618 95.3242 134.618L97.0271 103.367L105.341 103.755Z" fill="#292D32"/>
<path d="M76.4206 65.6819C75.7517 69.1519 75.9502 72.7334 76.9983 76.1082L73.29 86.7243C73.29 86.7243 45.0456 70.9996 47.4499 67.1922C48.8117 65.0327 48.985 59.3189 48.8749 54.7797C48.7952 51.33 48.5503 48.5625 48.5503 48.5625C48.5503 48.5625 83.2128 51.971 78.5994 59.8828C77.5554 61.6811 76.819 63.6411 76.4206 65.6819Z" fill="#FFA2A2"/>
<path opacity="0.1" d="M78.5999 59.8828C77.5559 61.6811 76.8195 63.6411 76.4211 65.6819C71.2771 67.3276 65.7219 67.1407 60.7001 65.1532C55.6783 63.1656 51.4999 59.5 48.8754 54.7797C48.7956 51.33 48.5508 48.5625 48.5508 48.5625C48.5508 48.5625 83.205 51.971 78.5999 59.8828Z" fill="#292D32"/>
<path d="M92.6203 42.8544C92.6227 46.5267 91.7585 50.1476 90.098 53.423C88.4376 56.6984 86.0276 59.5357 83.0642 61.7044C80.1007 63.8731 76.6674 65.3118 73.0432 65.9038C69.419 66.4958 65.7062 66.2242 62.2067 65.1112C58.7073 63.9981 55.5198 62.075 52.9035 59.4982C50.2871 56.9214 48.3157 53.7636 47.1496 50.2814C45.9834 46.7993 45.6553 43.0911 46.192 39.4584C46.7288 35.8256 48.1151 32.3707 50.2385 29.3746C50.5686 28.9106 50.9161 28.4576 51.2811 28.0156C53.3606 25.488 55.9485 23.426 58.8766 21.9634C60.4652 21.1686 62.1408 20.5612 63.8696 20.1532C66.9913 19.4137 70.2318 19.3244 73.3895 19.8909C76.5471 20.4575 79.5545 21.6677 82.2244 23.4463C84.8943 25.225 87.1696 27.534 88.9088 30.2297C90.6481 32.9254 91.814 35.9502 92.3342 39.1158C92.5285 40.3525 92.6241 41.6026 92.6203 42.8544Z" fill="#FFA2A2"/>
<path d="M101.833 138.812C101.484 140.678 101.921 144.086 102.584 147.555C102.612 147.706 102.642 147.858 102.672 148.009C102.702 148.16 102.746 148.394 102.785 148.584C103.09 150.075 103.423 151.552 103.748 152.895C104.072 154.237 104.364 155.387 104.612 156.334C104.986 157.75 105.242 158.642 105.242 158.642C105.242 158.642 105.275 159.516 105.319 160.908C105.343 161.712 105.371 162.691 105.398 163.772C105.398 164.086 105.418 164.405 105.426 164.735C105.44 165.31 105.453 165.907 105.467 166.518C105.467 166.716 105.467 166.914 105.481 167.115C105.481 167.772 105.506 168.443 105.517 169.112C105.531 170.031 105.542 170.95 105.547 171.841C105.547 172.182 105.547 172.518 105.547 172.848C105.547 173.701 105.547 174.518 105.547 175.269C105.517 177.401 105.431 179.01 105.25 179.475C105.187 179.634 105.129 179.808 105.074 179.989C104.835 180.843 104.662 181.714 104.557 182.594L104.089 182.212C103.195 181.475 102.309 180.721 101.41 179.989C99.9143 178.737 98.3271 177.598 96.6613 176.584C96.5485 176.518 96.4357 176.452 96.3202 176.388C96.0121 176.209 95.6985 176.042 95.3793 175.882C94.7219 175.551 94.048 175.253 93.3601 174.991C90.1827 173.78 86.7797 173.34 83.33 173.414C81.9545 173.94 81.0604 174.317 81.0604 174.317L79.3108 174.845L79.0192 174.933C77.1237 175.511 74.458 176.33 73.4979 176.672C71.9464 177.222 58.4748 180.025 58.4748 180.025C57.244 180.361 55.9868 180.591 54.7169 180.713C52.4046 181.363 50.0507 181.856 47.6716 182.187C42.2652 182.879 36.7741 182.436 31.548 180.889C31.392 180.898 31.2355 180.894 31.0804 180.875C31.1767 180.875 31.2702 180.853 31.3555 180.837L31.0198 180.738L30.5604 180.595C29.7901 180.352 29.0263 180.087 28.2689 179.799L27.8094 179.623C27.0758 179.341 26.3578 179.037 25.6554 178.713L25.196 178.504C24.4624 178.163 23.7444 177.802 23.042 177.423C22.7889 177.291 22.5385 177.148 22.2909 177.013C21.5427 176.595 20.8091 176.156 20.0901 175.698C19.9691 174.661 19.9058 173.967 19.9058 173.967L18.8329 168.625L18.7779 168.35L18.0076 164.498L17.9526 164.223L16.2773 155.844L16.2223 155.569L15.452 151.717L15.397 151.442L13.6996 143.068L13.6446 142.793L12.8743 138.942L12.8193 138.667L11.1357 130.276L11.0806 130.001L10.3104 126.163L10.2553 125.888L9.94999 124.375L9.49057 122.084C9.49057 122.084 8.02429 119.987 6.3737 117.509L6.18938 117.234C5.71896 116.538 5.23478 115.814 4.76436 115.104C4.60756 114.871 4.45625 114.639 4.30495 114.411C4.0757 114.064 3.85378 113.726 3.63921 113.396L3.49065 113.168L3.46039 113.121C1.08904 109.451 2.67636 107.856 2.67636 107.856C2.67636 107.856 3.67222 106.508 4.95693 104.725C5.02021 104.634 5.08623 104.543 5.15501 104.45C5.7052 103.68 6.31042 102.838 6.90464 101.996L7.36405 101.341C7.53737 101.096 7.70793 100.851 7.87299 100.609C7.93901 100.519 8.00228 100.425 8.06281 100.334C9.33101 98.5021 10.3764 96.9038 10.591 96.3371C10.9266 95.443 13.0669 92.7993 15.1989 90.4802C16.8797 88.6481 18.5523 87.0195 19.3034 86.6288C21.0062 85.7293 21.7077 82.8215 21.7077 82.8215C21.7077 82.8215 25.4133 81.523 25.914 80.5216C26.4147 79.5203 33.427 75.0197 33.427 75.0197C33.427 75.0197 36.2632 73.193 37.4104 72.0926C37.5728 71.9487 37.7144 71.783 37.8313 71.6002C38.2302 70.8849 40.8354 70.2962 41.8945 70.0844C42.1696 70.0294 42.3402 69.9991 42.3402 69.9991C42.7678 69.2221 43.3083 68.5129 43.944 67.8946C44.3759 67.5122 44.9151 66.1945 45.369 64.918C45.8615 63.526 46.2438 62.1863 46.2438 62.1863C47.0471 59.482 48.6482 60.2826 48.6482 60.2826C48.646 60.652 48.6811 61.0206 48.7528 61.383C49.4212 64.6842 53.0525 66.0597 54.959 67.603C57.0635 69.3031 60.3674 73.7129 62.9726 74.6125C65.1294 75.358 67.6301 78.1695 68.4223 79.1076L68.4829 79.1792C68.6149 79.3332 68.6809 79.4212 68.6809 79.4212C68.6809 79.4212 70.1582 79.3442 71.0578 79.3277H71.3852C71.5682 79.3093 71.742 79.2387 71.8859 79.1241C72.7799 78.5162 74.1114 76.7335 74.6919 76.3236C75.3906 75.8202 76.0949 67.7075 76.0949 67.7075L76.1306 67.691C78.6258 66.5218 81.3025 78.2246 81.3025 78.2246C81.3025 78.2246 86.0095 79.6276 86.4111 80.6289C86.4881 80.827 86.843 81.1791 87.3767 81.6055C89.8067 83.4626 92.3932 85.1056 95.107 86.5161C95.1675 86.5463 95.2253 86.5766 95.2858 86.6013C95.3404 86.6307 95.3964 86.6574 95.4536 86.6811C95.5554 86.7306 95.6544 86.7746 95.748 86.8159C95.8965 86.8819 96.0341 86.937 96.1606 86.981L96.3257 87.0387C96.72 87.1699 97.0913 87.3621 97.4261 87.6082C97.5251 87.6797 97.6241 87.754 97.7204 87.8338C98.095 88.1456 98.4395 88.4919 98.7493 88.8682C98.7961 88.9232 98.8401 88.9809 98.8841 89.036C99.0932 89.2973 99.2802 89.5559 99.4343 89.7952C99.6871 90.1645 99.9177 90.5485 100.125 90.9452C100.125 90.9452 104.229 97.9574 105.533 98.7552C106.837 99.553 107.638 107.671 107.638 107.671L103.236 123.987C103.236 123.987 103.03 128.114 102.645 132.323C102.43 134.683 102.158 137.085 101.833 138.812Z" fill="#CED7E7"/>
<path d="M68.6806 79.9213C68.6806 79.9213 65.7288 81.5224 63.4235 81.6737C63.1217 81.6878 62.8193 81.6703 62.5212 81.6214C60.1058 81.2555 56.5625 79.2693 56.5625 79.2693L60.7192 74.7109L65.7756 77.2171L67.6352 78.9475L68.6806 79.9213Z" fill="#63667E"/>
<path opacity="0.1" d="M92.3243 39.1181C92.2197 39.2661 92.1009 39.4033 91.9695 39.528C90.5224 40.9035 87.953 40.3341 85.9805 40.015C84.2666 39.7348 82.5922 39.2508 80.993 38.5734C79.601 37.9792 77.9311 37.253 76.6794 38.1058C76.198 38.4304 75.8679 38.9503 75.3672 39.2364C74.8665 39.5225 74.2283 39.5418 73.6368 39.55C71.7111 39.55 69.7854 39.5721 67.9065 39.1374C65.1033 38.4827 62.2037 36.8348 59.538 37.9215C57.4527 38.7688 56.3221 41.0383 55.7581 43.2199C55.483 44.29 55.2795 45.4207 54.6577 46.3285C54.036 47.2363 52.8338 47.8801 51.8105 47.4536C50.3002 46.8237 50.0773 44.2597 48.2562 44.1305C46.2562 43.9902 46.281 46.0561 46.8642 47.5499C47.728 49.7507 48.8586 51.9515 48.9082 54.2458C46.7587 50.396 45.7431 46.0164 45.9787 41.6135C46.2143 37.2105 47.6916 32.9643 50.2396 29.3659C50.6831 29.0913 51.0301 28.6856 51.2327 28.205C51.2531 28.14 51.2697 28.0738 51.2823 28.0069C51.4336 27.2394 51.0072 26.4333 50.9824 25.63C50.8861 23.6686 53.0099 22.3013 54.9576 22.0537C56.2533 21.8887 57.5793 22.0152 58.8778 21.9739C59.5318 21.9595 60.1822 21.8728 60.8172 21.7154C61.9126 21.3871 62.9384 20.8602 63.8433 20.161C66.965 19.4215 70.2055 19.3322 73.3631 19.8988C76.5208 20.4653 79.5281 21.6755 82.198 23.4542C84.8679 25.2328 87.1433 27.5418 88.8825 30.2375C90.6218 32.9332 91.7877 35.958 92.3078 39.1236L92.3243 39.1181Z" fill="#292D32"/>
<path d="M92.7932 37.4972C92.6561 38.0413 92.3703 38.5366 91.9679 38.9277C90.5209 40.3032 87.9515 39.731 85.979 39.4119C84.2649 39.1378 82.5902 38.6575 80.9914 37.9814C79.5994 37.3899 77.9296 36.6637 76.6779 37.5165C76.1965 37.8411 75.8664 38.361 75.3657 38.6471C74.865 38.9332 74.2268 38.9525 73.6353 38.958C71.7096 38.9717 69.7839 38.9827 67.905 38.5481C65.1017 37.8906 62.2022 36.2455 59.5365 37.3294C57.4512 38.1767 56.3205 40.449 55.7566 42.6306C55.4815 43.7007 55.2779 44.8314 54.6562 45.7364C54.0345 46.6415 52.8323 47.2907 51.8089 46.8643C50.2986 46.2344 50.0758 43.6704 48.2546 43.5411C46.2547 43.4008 46.2794 45.4668 46.8626 46.9606C47.886 49.5658 49.278 52.1572 48.8213 54.9192C48.3674 54.9192 47.6164 54.9027 47.1707 54.8917C47.5174 54.3003 46.8571 53.596 46.1996 53.3952C45.5422 53.1944 44.7746 53.1971 44.2739 52.7185C43.7733 52.2398 43.7705 51.4998 43.8228 50.8368C43.9369 49.4197 44.2836 48.0312 44.8489 46.7268C45.2093 45.9015 45.6742 45.0074 45.3991 44.1436C45.234 43.7521 45.0352 43.3756 44.8049 43.0184C44.2327 41.9181 44.3675 40.5426 44.8572 39.4064C45.0662 38.9222 45.2175 38.4656 45.3909 38.0309C45.6097 37.413 45.9265 36.8344 46.3289 36.317C46.9589 35.533 47.5751 34.3528 46.8791 33.6238C46.7031 33.4395 47.0552 33.3129 46.9424 33.0736C46.9225 33.0327 46.9086 32.9892 46.9011 32.9443C46.8688 32.6545 46.9389 32.3626 47.0992 32.119C47.1317 32.0557 47.1675 31.9942 47.2065 31.9347C47.2381 31.8718 47.274 31.8112 47.3138 31.7531C47.923 30.7361 48.7326 29.8534 49.6934 29.1589C50.2904 28.727 50.9891 28.3116 51.2257 27.6129C51.5008 26.7876 51.0166 25.91 50.9754 25.038C50.8791 23.0765 53.0028 21.7093 54.9505 21.4617C56.8983 21.2141 58.9175 21.624 60.8157 21.1205C63.5089 20.4108 65.4016 18.0339 67.8472 16.6997C69.1851 15.9843 70.6688 15.5842 72.185 15.5298C73.7011 15.4755 75.2097 15.7684 76.5954 16.3861C79.4509 17.6901 81.6049 20.3255 84.587 21.3159C85.6434 21.668 86.7878 21.8083 87.7396 22.3915C88.84 23.0683 89.5085 24.2512 90.0807 25.4176C90.9528 27.1865 91.1289 28.9636 91.7313 30.8371C92.21 32.3226 92.873 34.2648 92.928 35.9759C92.9589 36.4869 92.9135 36.9996 92.7932 37.4972Z" fill="#896363"/>
<g opacity="0.1">
<path d="M47.2371 34.0523C47.2811 33.8762 47.2855 33.6926 47.2498 33.5146C47.2141 33.3367 47.1393 33.1689 47.0308 33.0234C47.1023 33.238 46.7915 33.3618 46.962 33.5406C47.0979 33.6835 47.1929 33.8602 47.2371 34.0523Z" fill="#292D32"/>
<path d="M47.0226 32.3906C46.9902 32.4866 46.9708 32.5866 46.9648 32.6877C47.0171 32.5997 47.0886 32.5089 47.0226 32.3906Z" fill="#292D32"/>
<path d="M92.0456 38.2545C90.5958 39.63 88.0291 39.0605 86.0512 38.7387C84.3383 38.4629 82.6653 37.9798 81.0691 37.2999C79.6743 36.7057 78.0072 35.9794 76.7528 36.8322C76.2741 37.1569 75.944 37.6768 75.4406 37.9629C74.9371 38.249 74.3017 38.2683 73.7102 38.2738C71.7845 38.2738 69.8588 38.2985 67.9771 37.8611C65.1766 37.2064 62.2771 35.564 59.6114 36.6452C57.5261 37.4952 56.3954 39.7648 55.8315 41.9463C55.5564 43.0165 55.3556 44.1471 54.7311 45.055C54.1066 45.9628 52.9044 46.6065 51.8838 46.1829C50.3735 45.5501 50.1507 42.989 48.3295 42.8597C46.9073 42.7579 46.5111 43.7757 46.6074 44.9064C46.6899 44.0426 47.1576 43.3769 48.3295 43.4594C50.1507 43.5887 50.3735 46.1526 51.8838 46.7826C52.9044 47.209 54.1094 46.568 54.7311 45.6547C55.3528 44.7413 55.5564 43.6162 55.8315 42.5488C56.3954 40.3673 57.5261 38.0949 59.6114 37.2476C62.2771 36.1637 65.1766 37.7978 67.9771 38.4636C69.8478 38.901 71.79 38.8872 73.7102 38.8735C74.3017 38.8735 74.9261 38.857 75.4406 38.5654C75.955 38.2738 76.2659 37.7593 76.7528 37.432C78.0072 36.5819 79.6743 37.3082 81.0691 37.8996C82.6656 38.5791 84.3385 39.0631 86.0512 39.3411C88.0291 39.6603 90.5958 40.2352 92.0456 38.8542C92.8324 38.1032 93.0689 37.0166 93.0167 35.8281C92.9727 36.7717 92.6976 37.6273 92.0456 38.2545Z" fill="#292D32"/>
<path d="M51.0726 24.5391C51.0574 24.6761 51.0518 24.8139 51.0561 24.9517C51.0836 25.5239 51.3009 26.0961 51.3697 26.6546C51.4715 25.9696 51.1551 25.2543 51.0726 24.5391Z" fill="#292D32"/>
<path d="M45.4833 44.0578C45.5059 44.14 45.5234 44.2237 45.5355 44.3081C45.5801 44.0243 45.5623 43.7342 45.4833 43.4581C45.3193 43.0651 45.1204 42.6876 44.8891 42.3302C44.6824 41.9232 44.5598 41.4788 44.5287 41.0234C44.4727 41.6808 44.5973 42.3409 44.8891 42.9326C45.1209 43.2888 45.3198 43.6654 45.4833 44.0578Z" fill="#292D32"/>
<path d="M48.8971 54.2288L47.2878 54.204C47.3253 54.3013 47.3404 54.4057 47.3318 54.5096C47.3232 54.6134 47.2913 54.714 47.2383 54.8038C47.6922 54.8038 48.446 54.8203 48.8889 54.8313C48.9658 54.3604 48.9926 53.8827 48.9687 53.4062C48.9624 53.6817 48.9385 53.9564 48.8971 54.2288Z" fill="#292D32"/>
<path d="M46.2637 52.7099C45.6063 52.5118 44.8415 52.5091 44.3518 52.0277C44.0635 51.7123 43.901 51.3022 43.8951 50.875C43.8539 51.5077 43.8951 52.19 44.3518 52.6301C44.8415 53.1116 45.6063 53.1143 46.2637 53.3124C46.4777 53.3746 46.6766 53.4799 46.8483 53.6218C47.0201 53.7638 47.161 53.9393 47.2624 54.1377C47.5402 53.5682 46.902 52.8997 46.2637 52.7099Z" fill="#292D32"/>
</g>
<path opacity="0.1" d="M96.3139 176.392C96.0058 176.213 95.6922 176.045 95.3731 175.886C94.7157 175.554 94.0417 175.257 93.3539 174.994C90.1765 173.784 86.7735 173.344 83.3238 173.418C81.9483 173.943 81.0542 174.32 81.0542 174.32L79.3046 174.848L79.0129 174.936C78.9937 174.744 78.9717 174.551 78.9524 174.356C78.9332 174.161 78.9112 173.974 78.8892 173.781C78.2729 167.946 77.7888 161.952 77.7888 161.952V156.774V156.172L77.7557 140.918L77.4806 135.889L77.3513 133.663L77.3266 133.24L77.2771 132.37L77.2496 131.853C77.1888 131.689 77.1374 131.522 77.0955 131.352C77.0763 131.284 77.057 131.207 77.0405 131.127C76.9717 130.852 76.8974 130.497 76.8204 130.112C76.317 127.581 75.687 123.314 75.6485 122.447C75.599 121.292 74.5976 114.382 74.5976 114.382C74.4958 110.577 71.2964 103.413 70.4904 102.063C69.6843 100.712 68.7848 92.5964 69.0874 92.159C69.2442 91.9252 69.346 90.5414 69.4092 89.265C69.4092 89.1192 69.423 88.9761 69.4285 88.8358C69.4698 87.8372 69.489 87.0037 69.489 87.0037L72.6361 86.3819L73.4807 86.2169L73.5467 86.2031L73.5742 86.2581C73.665 86.426 73.9484 86.9624 74.2812 87.6667C74.3198 87.7409 74.3555 87.8207 74.394 87.9005C74.4105 87.939 74.4298 87.9775 74.4491 88.016C75.0653 89.364 75.7778 91.1384 75.7475 92.159C75.698 93.9637 77.753 98.3212 77.753 98.3212C77.9511 99.3226 82.3086 109.287 82.3086 109.287C82.3086 109.287 85.8657 119.053 85.6649 120.657C85.464 122.26 87.3677 132.876 87.3677 132.876L89.3209 143.795C90.27 145.946 91.5217 150.904 91.5217 150.904L91.9976 153.715L92.0884 154.252L93.3566 161.754L93.9784 165.429C93.9784 165.429 94.2397 167.382 94.6358 169.555C94.6688 169.751 94.7074 169.949 94.7459 170.147C94.9899 171.578 95.3365 172.989 95.783 174.37C96.0044 175.031 96.1818 175.707 96.3139 176.392Z" fill="#292D32"/>
<path d="M96.6524 176.585C96.5396 176.519 96.4268 176.453 96.3113 176.389C96.0032 176.211 95.6896 176.043 95.3704 175.883C94.713 175.552 94.0391 175.254 93.3512 174.992C90.1738 173.781 86.7708 173.341 83.3211 173.416C81.9456 173.941 81.0515 174.318 81.0515 174.318L79.3019 174.846C79.2799 174.654 79.2606 174.461 79.2386 174.266C79.2166 174.07 79.2001 173.913 79.1836 173.737C78.5674 167.916 78.0832 161.949 78.0832 161.949V156.723V156.12L78.0502 140.904L77.7751 136.101L77.7201 135.105L77.6815 134.431L77.632 133.54L77.5825 132.635L77.5468 131.983V131.84C77.5468 131.826 77.5468 131.81 77.5275 131.793C77.4752 131.644 77.412 131.419 77.3432 131.133L77.3102 130.995C77.2964 130.932 77.2799 130.863 77.2662 130.794C76.749 128.448 75.9897 123.389 75.9484 122.44C75.8989 121.284 74.8975 114.374 74.8975 114.374C74.7958 110.569 71.5964 103.406 70.7903 102.055C69.9843 100.704 69.0874 92.5886 69.3873 92.1512C69.5606 91.8761 69.6624 90.2063 69.7284 88.828C69.7284 88.718 69.7284 88.6107 69.7284 88.5089C69.7642 87.6588 69.778 86.9959 69.778 86.9959L72.705 86.4181L73.4478 86.2723L73.5633 86.2503L73.8384 86.1953C73.8384 86.1953 74.1988 86.8611 74.6307 87.7771L74.6857 87.8927C75.3157 89.2517 76.0612 91.1003 76.0392 92.1512C75.9897 93.9559 78.0447 98.3134 78.0447 98.3134C78.2428 99.3148 82.6003 109.279 82.6003 109.279C82.6003 109.279 86.1574 119.045 85.9565 120.649C85.7557 122.253 87.6594 132.869 87.6594 132.869L89.6126 143.787C90.5617 145.939 91.8134 150.896 91.8134 150.896L92.2563 153.515L92.3471 154.046L93.3457 159.966L94.2673 165.421C94.2673 165.421 94.5424 167.366 94.922 169.548C94.9578 169.746 94.9935 169.944 95.0321 170.145C95.2757 171.582 95.6223 172.999 96.0692 174.387C96.3131 175.105 96.5079 175.84 96.6524 176.585Z" fill="#63667E"/>
<path d="M94.1713 35.2968C94.1713 35.2968 93.1204 36.6503 92.1713 36.6503C91.2223 36.6503 87.5277 36.4989 85.602 35.8992C83.6763 35.2995 74.2349 34.8456 74.2349 34.8456C74.2349 34.8456 60.865 34.8951 60.4139 34.444C59.9627 33.9928 52.1004 31.5884 51.2998 31.7397C51.132 31.7727 50.7221 31.8443 50.1747 31.9351L49.5475 32.0368C48.5984 32.1881 47.4127 32.3642 46.3288 32.4935C44.9891 32.6503 43.8116 32.7301 43.4375 32.5925V31.4399C43.4375 31.4399 44.9891 29.1841 45.0881 28.5376C45.1871 27.8911 46.4911 18.5185 49.8968 15.165C51.3038 12.4754 53.5808 10.342 56.3562 9.11281C60.9641 7.10733 65.572 5.40722 65.572 5.40722L66.378 5.29168L68.9777 4.90654C69.0568 4.82787 69.1423 4.75609 69.2336 4.69196C69.9543 4.14176 72.1386 2.94508 74.9859 5.51726L75.4893 6.32055C75.4893 6.32055 84.2512 8.37279 88.3062 15.5336C92.3612 22.6945 92.5647 29.7067 92.8646 32.9117C92.8646 32.9117 92.6638 33.814 93.0654 34.1634C93.2108 34.2918 93.3495 34.4277 93.4808 34.5705C93.5166 34.6063 93.5523 34.642 93.5854 34.6805C93.7009 34.7961 93.8082 34.9171 93.8962 35.0162C93.9067 35.0239 93.916 35.0332 93.9237 35.0437C93.9452 35.0697 93.9682 35.0945 93.9925 35.1179L94.1713 35.2968Z" fill="#FED253"/>
<path opacity="0.05" d="M94.1715 35.2995C94.1715 35.2995 93.1207 36.653 92.1716 36.653C91.2225 36.653 87.5279 36.5017 85.6022 35.902C83.6765 35.3022 74.2351 34.8483 74.2351 34.8483C74.2351 34.8483 60.8653 34.8979 60.4141 34.4467C59.9629 33.9955 52.1006 31.5912 51.3001 31.7425C51.1323 31.7755 50.7224 31.847 50.1749 31.9378L50.0319 31.0575L49.9961 30.8401C49.9961 30.8401 65.1706 27.5857 75.286 29.2913C85.4014 30.9969 92.8648 32.8951 92.8648 32.8951C92.8648 32.8951 92.664 33.7975 93.0656 34.1468C93.2111 34.2753 93.3497 34.4112 93.481 34.554C93.5168 34.5897 93.5526 34.6255 93.5856 34.664C93.7011 34.7796 93.8084 34.9006 93.8964 34.9996C93.9069 35.0074 93.9162 35.0166 93.924 35.0272C93.9455 35.0532 93.9684 35.078 93.9927 35.1014L94.1715 35.2995Z" fill="#292D32"/>
<path opacity="0.1" d="M92.7938 37.5012C90.9204 37.647 87.4679 37.1903 85.9576 36.9675C85.5285 36.9042 85.1075 36.8272 84.6839 36.7337C83.0636 36.3816 78.0815 35.3939 75.0554 35.8506C71.3993 36.4008 61.0831 35.3994 61.0831 35.3994C61.0831 35.3994 54.7228 34.0982 52.1672 33.0473C51.2291 32.6595 49.661 32.5384 48.1012 32.731C47.7034 32.7806 47.3085 32.8513 46.9183 32.9428C44.789 33.4462 42.9926 34.5934 43.3035 36.5494C43.1844 36.4067 43.0742 36.257 42.9733 36.1009C42.8385 34.3128 43.3942 33.2482 44.1645 32.6209L44.3461 32.5467C45.287 32.2793 46.2446 32.0744 47.2126 31.9332C47.3639 31.9084 47.5207 31.8864 47.6803 31.8672C50.4175 31.4985 54.3762 31.416 57.7159 33.0969C57.7159 33.0969 60.819 34.5521 62.9235 34.5521C65.028 34.5521 82.153 34.7034 86.1612 35.8534C86.9591 36.0839 87.7728 36.2558 88.5958 36.3678C90.0571 36.5562 91.542 36.4162 92.9424 35.9579C92.971 36.4769 92.9209 36.9972 92.7938 37.5012Z" fill="#292D32"/>
<path opacity="0.1" d="M94.1713 35.2992C94.1713 35.2992 93.1204 36.6527 92.1713 36.6527C91.2223 36.6527 87.5277 36.5013 85.602 35.9016C83.6763 35.3019 74.2349 34.848 74.2349 34.848C74.2349 34.848 60.865 34.8975 60.4139 34.4464C59.9627 33.9952 52.1004 31.5908 51.2998 31.7421C51.132 31.7751 50.7221 31.8467 50.1747 31.9375L49.5475 32.0392C48.458 32.0337 47.3737 32.1875 46.3288 32.4959C44.9891 32.6527 43.8116 32.7325 43.4375 32.5949V32.3666C43.726 32.1992 44.0267 32.0539 44.3371 31.9319C46.1935 31.4121 48.1051 31.1148 50.0316 31.0461C52.4332 30.9581 55.242 31.2387 57.7097 32.4821C57.7097 32.4821 60.8128 33.9374 62.9173 33.9374C65.0218 33.9374 82.1467 34.086 86.1549 35.2386C86.9532 35.467 87.7668 35.638 88.5896 35.7503C90.3948 35.9778 92.228 35.7146 93.8962 34.9883C93.9067 34.996 93.916 35.0053 93.9237 35.0158C93.9453 35.0418 93.9682 35.0666 93.9925 35.0901L94.1713 35.2992Z" fill="#292D32"/>
<path d="M43.3434 36.5019C43.3434 36.5019 39.9872 33.9462 44.3447 32.2434C44.3447 32.2434 51.9567 29.8913 57.7173 32.7936C57.7173 32.7936 60.8204 34.2433 62.9249 34.2433C65.0294 34.2433 82.1544 34.3946 86.1626 35.5473C86.9608 35.776 87.7745 35.947 88.5972 36.059C90.7296 36.3176 92.8897 35.9071 94.7787 34.8843C95.0538 34.733 95.3014 34.656 95.3756 34.744C95.626 35.0466 95.4279 36.799 93.2244 37.1484C91.505 37.4235 87.5986 36.9035 85.9562 36.6642C85.5298 36.6009 85.1062 36.5212 84.6853 36.4304C83.065 36.0783 78.0829 35.0906 75.0431 35.5473C71.3897 36.0975 61.0708 35.0961 61.0708 35.0961C61.0708 35.0961 54.7132 33.7949 52.1575 32.7413C49.6019 31.6877 42.3915 32.5955 43.3434 36.5019Z" fill="#FED253"/>
<path opacity="0.1" d="M71.6345 9.65073C71.3594 9.25459 67.8243 6.42382 66.3828 5.2794L68.9825 4.89426C69.0615 4.8156 69.1471 4.74381 69.2383 4.67969C71.1283 6.66315 71.6345 9.65073 71.6345 9.65073Z" fill="#292D32"/>
<path opacity="0.1" d="M60.1683 24.8338L59.0156 26.5366L63.4227 26.3881L63.5218 24.4844L60.1683 24.8338Z" fill="#292D32"/>
<path opacity="0.1" d="M87.0625 26.8828L87.5632 28.4344L90.3692 28.8855L89.167 27.0314L87.0625 26.8828Z" fill="#292D32"/>
<path opacity="0.1" d="M38.8867 78.9766C39.1866 79.4772 49.0516 92.4564 51.6568 92.0961C54.262 91.7357 38.8867 78.9766 38.8867 78.9766Z" fill="#292D32"/>
<path opacity="0.1" d="M71.9375 90.8359C71.9375 90.8359 74.3419 93.1413 73.9897 94.0408C73.6376 94.9404 71.9375 90.8359 71.9375 90.8359Z" fill="#292D32"/>
<path opacity="0.1" d="M45.6962 106.664C45.6962 106.664 43.5917 116.529 44.6948 116.843C45.798 117.156 45.6962 106.664 45.6962 106.664Z" fill="#292D32"/>
<path opacity="0.1" d="M72.7383 144.969C73.0877 145.97 75.9927 152.482 76.6447 152.831C77.2967 153.18 72.7383 144.969 72.7383 144.969Z" fill="#292D32"/>
<path opacity="0.1" d="M106.493 118.227C106.391 118.576 103.888 120.631 104.438 121.382C104.988 122.133 106.493 118.227 106.493 118.227Z" fill="#292D32"/>
<path opacity="0.1" d="M87.0623 136.508C87.0128 136.761 86.5121 142.01 87.4639 143.019C88.4158 144.029 87.0623 136.508 87.0623 136.508Z" fill="#292D32"/>
<path opacity="0.1" d="M112.72 163.776C111.994 164.181 111.243 164.571 110.478 164.946C109.653 165.347 108.827 165.73 107.986 166.09C107.65 166.236 107.314 166.379 106.982 166.516C106.475 166.725 105.975 166.926 105.48 167.119C103.975 167.708 102.525 168.219 101.235 168.651C100.734 168.819 100.255 168.973 99.8097 169.116C97.5649 169.829 96.0739 170.216 96.0739 170.216C95.7333 170.144 95.3847 170.115 95.0368 170.131C94.9405 170.131 94.8414 170.131 94.7397 170.131C94.2738 170.165 93.81 170.224 93.3504 170.307C90.2775 170.857 85.9365 172.401 83.3203 173.41C81.9448 173.936 81.0507 174.313 81.0507 174.313L79.3011 174.841L79.0095 174.929C77.114 175.507 74.4483 176.326 73.4882 176.668C71.9367 177.218 58.4651 180.021 58.4651 180.021C57.2343 180.357 55.9771 180.587 54.7072 180.709C51.5779 180.996 48.4325 181.068 45.2933 180.923C42.1407 181.127 37.0403 180.434 34.072 179.966L33.5988 179.892C32.4517 179.705 31.7227 179.57 31.7227 179.57L32.1078 179.039L40.0059 168.142L40.0527 168.076L47.4116 157.928L47.6867 157.559L48.3552 156.638C48.3552 156.638 48.7568 156.087 50.3029 156.052C50.4844 156.052 50.6825 156.052 50.8998 156.052C52.1985 156.156 53.4797 156.417 54.7155 156.83L55.0731 156.937C60.4018 158.464 68.6382 158.082 68.6382 158.082C68.6382 158.082 73.7633 157.257 77.7908 156.761L78.0906 156.723C79.4067 156.537 80.7319 156.422 82.0603 156.379C84.5142 156.429 89.8236 155.127 89.8236 155.127C90.9653 154.882 91.4467 154.676 92.0905 154.217C92.1757 154.156 92.2665 154.09 92.3655 154.019C92.6406 153.812 92.957 153.559 93.3642 153.246C94.1069 152.676 95.1496 151.903 96.7891 150.819C96.9322 150.726 97.0835 150.632 97.2458 150.544C97.4081 150.456 97.6144 150.338 97.8125 150.239C99.4004 149.487 101.074 148.932 102.797 148.588C104.226 148.281 105.677 148.081 107.136 147.991H107.353C111.479 147.771 115.694 148.478 118.159 150.797C118.59 151.205 118.965 151.667 119.276 152.173C119.426 152.413 119.561 152.663 119.677 152.921C119.902 153.414 120.069 153.931 120.175 154.462C120.196 154.561 120.212 154.66 120.225 154.759C120.225 154.789 120.225 154.816 120.225 154.847C120.225 154.926 120.241 155.006 120.247 155.086C120.467 158.379 117.05 161.356 112.72 163.776Z" fill="#292D32"/>
<path d="M31.7227 178.974C31.7227 178.974 40.6359 180.625 45.2933 180.325C45.2933 180.325 53.8571 180.776 58.4651 179.425C58.4651 179.425 71.9449 176.619 73.4882 176.069C75.0315 175.519 81.0507 173.714 81.0507 173.714C81.0507 173.714 92.7699 168.807 96.0739 169.607C96.0739 169.607 122.016 162.897 120.162 153.833C118.307 144.768 101.934 146.823 96.7781 150.226C91.6228 153.629 92.3765 153.984 89.8181 154.534C89.8181 154.534 84.5087 155.836 82.0548 155.786C79.6009 155.737 68.6327 157.489 68.6327 157.489C68.6327 157.489 60.0194 157.891 54.7127 156.237C49.406 154.584 48.3524 156.036 48.3524 156.036L31.7227 178.974Z" fill="#FFA2A2"/>
<path opacity="0.1" d="M51.0525 155.447C51.0538 155.458 51.0538 155.469 51.0525 155.48C51.0333 155.684 50.9803 155.884 50.8957 156.071C49.8393 158.663 43.8421 165.653 43.8421 165.653C43.5687 166.483 43.2387 167.294 42.8545 168.079C42.0282 169.758 41.0764 171.372 40.0072 172.907C38.4225 175.204 36.6922 177.398 34.8271 179.474H34.8134C34.576 179.65 34.329 179.812 34.0733 179.961C33.4269 180.346 32.4558 180.822 31.5397 180.88C31.3837 180.889 31.2272 180.884 31.072 180.866C31.1683 180.866 31.2618 180.844 31.3471 180.827L31.0115 180.728L30.5521 180.585C29.7818 180.343 29.0179 180.078 28.2605 179.79L27.8011 179.614C27.0675 179.332 26.3495 179.028 25.647 178.704L25.1876 178.494C24.454 178.153 23.736 177.793 23.0336 177.413C22.7805 177.281 22.5302 177.138 22.2826 177.003C21.5343 176.585 20.8007 176.147 20.0818 175.688C19.3188 175.202 18.5724 174.695 17.8425 174.167C17.2923 173.147 16.8384 172.241 16.5908 171.755C16.1396 170.849 16.1011 169.554 16.1561 168.616C16.1561 168.519 16.1561 168.429 16.1726 168.341C16.2194 167.752 16.2909 167.347 16.2909 167.347C15.8833 166.802 15.5155 166.229 15.1905 165.631C15.0038 165.334 14.8976 164.994 14.8824 164.643C14.8948 164.503 14.8818 164.361 14.8439 164.225C14.6321 163.356 13.7215 161.862 12.8797 160.924C12.2525 160.233 12.2139 157.653 12.2745 155.824C12.3102 154.723 12.379 153.914 12.379 153.914C12.2557 153.835 12.1635 153.715 12.1177 153.576C11.8965 152.974 11.7469 152.348 11.672 151.711C11.672 151.62 11.6472 151.529 11.6335 151.436C11.4574 150.173 11.3776 148.905 11.3776 148.905C9.34191 147.422 8.37356 145.108 7.92239 143.045L7.86462 142.77C7.61685 141.502 7.51166 140.21 7.55101 138.919C7.55101 138.795 7.55101 138.701 7.55101 138.644C7.55101 138.586 7.55101 138.575 7.55101 138.575C7.55101 138.575 7.82061 132.613 8.57438 130.286C8.60464 130.187 8.63765 130.096 8.67066 130.011C8.7262 129.865 8.79819 129.725 8.88524 129.596C9.16034 129.23 9.35566 128.539 9.51797 127.722C9.63076 127.155 9.72429 126.525 9.79307 125.898C9.85634 125.376 9.90586 124.856 9.94437 124.374C10.0517 123.087 10.0847 122.083 10.0847 122.083L9.57574 119.574C9.43544 118.889 9.32815 118.198 9.25387 117.508C9.25387 117.417 9.23187 117.326 9.22086 117.233C9.0922 115.957 9.0692 114.674 9.15209 113.395C9.15209 113.301 9.15209 113.211 9.16859 113.12C9.3834 110.207 10.1449 107.36 11.4134 104.729L11.551 104.454C11.7344 104.087 11.9269 103.727 12.1287 103.373C12.2745 103.112 12.4285 102.853 12.5881 102.597C13.0111 101.912 13.4702 101.25 13.9636 100.614C14.0351 100.52 14.1094 100.43 14.1837 100.339C15.0421 99.2745 15.9961 98.291 17.0337 97.4007C19.8122 95.0128 22.3624 93.9757 24.6787 93.8959C34.8078 93.5383 40.4887 111.453 41.4075 114.592C41.4955 114.894 41.5395 115.059 41.5395 115.059C41.5395 115.059 45.644 119.167 44.4418 120.968C44.2087 121.365 44.0668 121.809 44.0264 122.267C43.6963 124.691 44.6427 128.682 44.6427 128.682C44.6427 128.682 44.9783 129.783 45.9576 132.418L46.2465 133.188C46.86 134.839 47.003 137.609 46.6509 140.091C46.3125 142.467 45.5175 144.569 44.2438 145.108C41.6386 146.209 42.3401 147.309 42.9398 148.214C43.2962 148.863 43.5935 149.543 43.8284 150.245C44.2052 151.26 44.5546 152.327 44.6867 152.742C44.7252 152.858 44.7444 152.921 44.7444 152.921C45.1093 152.78 45.4884 152.678 45.8751 152.619C46.3675 152.55 46.8545 152.599 46.948 153.02C46.9975 153.246 47.2809 153.513 47.6797 153.78C48.8627 154.594 51.0525 155.447 51.0525 155.447Z" fill="#292D32"/>
<path d="M50.4519 155.447C50.4351 155.656 50.382 155.861 50.2951 156.052C49.2442 158.646 43.2415 165.653 43.2415 165.653C42.9669 166.483 42.637 167.294 42.2539 168.08C41.5901 169.435 40.8393 170.746 40.0064 172.005C38.2819 174.607 36.3714 177.08 34.2898 179.405L34.2265 179.474C34.2265 179.474 33.9844 179.658 33.5993 179.895C32.9111 180.334 32.1528 180.653 31.3573 180.836L31.0216 180.737L30.5622 180.594C29.7919 180.352 29.0281 180.087 28.2706 179.799L27.8112 179.623C27.0776 179.34 26.3596 179.037 25.6572 178.712L25.1978 178.503C24.4642 178.162 23.7462 177.802 23.0438 177.422C22.7907 177.29 22.5403 177.147 22.2927 177.012C21.5445 176.594 20.8109 176.156 20.0919 175.697C19.329 175.211 18.5826 174.704 17.8526 174.176C17.5152 173.934 17.1814 173.685 16.8513 173.43C16.4799 172.726 16.1828 172.132 15.9985 171.763C15.5473 170.858 15.5088 169.562 15.5638 168.624C15.5638 168.528 15.5638 168.437 15.5803 168.349C15.6271 167.76 15.6986 167.356 15.6986 167.356C15.6986 167.356 15.4758 167.056 15.2062 166.649C15.0549 166.423 14.8926 166.162 14.7468 165.904C14.4717 165.419 14.2571 164.93 14.2983 164.652C14.3039 164.604 14.3039 164.556 14.2983 164.509C14.2942 164.416 14.2804 164.324 14.2571 164.234C14.0453 163.364 13.1319 161.871 12.2901 160.932C11.6629 160.242 11.6244 157.662 11.6822 155.832C11.6822 155.739 11.6822 155.648 11.6822 155.557C11.7207 154.608 11.7784 153.923 11.7784 153.923C11.4676 153.788 11.2282 152.79 11.0742 151.722L11.0329 151.447C10.8569 150.184 10.7771 148.916 10.7771 148.916C8.74134 147.433 7.77299 145.12 7.32458 143.057C7.01218 141.611 6.89193 140.131 6.96695 138.655C6.96695 138.611 6.96695 138.586 6.96695 138.586C6.96695 138.586 7.20353 132.594 7.95731 130.264C7.98757 130.165 8.02058 130.075 8.05359 129.989C8.1196 129.846 8.20175 129.712 8.29843 129.588C8.71658 129.004 8.99443 127.601 9.176 126.165L9.20901 125.89C9.43734 123.965 9.50061 122.075 9.50061 122.075L8.98893 119.566C8.84954 118.878 8.74225 118.189 8.66706 117.5C8.65331 117.409 8.64505 117.315 8.63405 117.225C8.50541 115.95 8.48241 114.666 8.56527 113.387C8.56527 113.293 8.56527 113.203 8.58453 113.112C8.79803 110.199 9.55964 107.352 10.8293 104.721C10.8734 104.628 10.9174 104.537 10.9669 104.446C11.3206 103.732 11.7137 103.037 12.1443 102.367C12.2929 102.133 12.4442 101.902 12.6037 101.673C12.8541 101.31 13.1154 100.953 13.3878 100.606L13.6078 100.331C14.4589 99.2707 15.4046 98.29 16.4331 97.401C19.4592 94.8068 22.2102 93.8055 24.6861 93.8962C34.4384 94.2456 39.9128 111.516 40.8124 114.592C40.9004 114.895 40.9445 115.06 40.9445 115.06C40.9445 115.06 45.0517 119.167 43.8495 120.969C43.6164 121.365 43.4745 121.809 43.4341 122.267C43.1012 124.691 44.0503 128.683 44.0503 128.683C44.0503 128.683 44.386 129.783 45.3653 132.418C45.4533 132.663 45.5496 132.919 45.6404 133.189C46.2539 134.839 46.3969 137.61 46.0448 140.091C45.7064 142.471 44.9141 144.57 43.6377 145.109C41.0352 146.209 41.734 147.31 42.3365 148.215C42.6928 148.863 42.9902 149.543 43.225 150.245C43.701 151.541 44.1384 152.922 44.1384 152.922C44.3184 152.852 44.5021 152.792 44.6886 152.743C45.0713 152.617 45.4766 152.575 45.877 152.619C45.9878 152.628 46.093 152.671 46.1776 152.743C46.2621 152.815 46.3216 152.912 46.3474 153.021C46.4217 153.351 46.9911 153.761 47.6816 154.149C48.5782 154.636 49.5033 155.07 50.4519 155.447Z" fill="#CED7E7"/>
<path opacity="0.1" d="M14.2461 128.996C15.1979 128.946 25.4151 124.99 27.5196 126.341C29.6241 127.692 42.6501 136.456 42.6501 136.456C42.6501 136.456 34.4879 125.791 27.3766 123.287C20.2653 120.784 14.2461 128.996 14.2461 128.996Z" fill="#292D32"/>
<path opacity="0.1" d="M28.9336 145.125C28.9336 145.125 39.1508 147.177 40.7023 148.58L28.9336 145.125Z" fill="#292D32"/>
<path opacity="0.1" d="M26.9658 160.398C26.8172 160.55 23.1144 168.86 23.4115 168.86C23.7086 168.86 26.8667 163.909 26.8667 163.909L26.9658 160.398Z" fill="#292D32"/>
<path opacity="0.1" d="M33.9291 150.43C33.9291 150.43 30.925 151.483 31.2744 151.582C31.6237 151.681 33.8273 150.881 33.9291 150.43Z" fill="#292D32"/>
<path opacity="0.1" d="M30.9258 163C31.4265 164.051 33.0275 167.206 33.3797 166.706C33.7318 166.205 30.9258 163 30.9258 163Z" fill="#292D32"/>
<path opacity="0.1" d="M68.4235 79.706L67.9943 80.3167C67.9943 80.3167 64.5858 77.9151 63.1856 76.7129C61.7853 75.5107 58.4786 81.0182 55.8734 82.5203C53.2682 84.0223 48.8639 84.424 48.8639 84.424C48.8639 84.424 45.4582 81.0182 45.5627 80.0224C45.6673 79.0265 43.9616 78.7212 43.8598 78.0196C43.7581 77.3181 43.1583 75.3154 42.3578 74.3141C41.9341 73.7859 41.8736 72.1325 41.9121 70.6938C42.1872 70.6387 42.3578 70.6085 42.3578 70.6085C42.7854 69.8315 43.3259 69.1223 43.9616 68.504C44.864 67.7034 46.2642 62.7957 46.2642 62.7957C47.0648 60.0914 48.6658 60.892 48.6658 60.892C48.6658 64.9992 52.8748 66.5012 54.9766 68.2041C57.0784 69.907 60.3851 74.3141 62.9903 75.2164C65.1278 75.9454 67.6284 78.7652 68.4235 79.706Z" fill="#292D32"/>
<path d="M68.4255 79.1036L67.9963 79.7171C67.9963 79.7171 64.5741 77.3209 63.1739 76.1105C61.7736 74.9001 58.4669 80.4158 55.8617 81.9179C53.2565 83.4199 48.8522 83.8243 48.8522 83.8243C48.8522 83.8243 45.4465 80.4158 45.551 79.4227C45.6555 78.4296 43.9499 78.1215 43.8481 77.4172C43.7463 76.713 43.1466 74.713 42.3461 73.7116C41.9224 73.1835 41.8619 71.5301 41.9004 70.0913L42.3461 70.0088C42.7737 69.2318 43.3142 68.5226 43.9499 67.9043C44.8522 67.101 46.2525 62.196 46.2525 62.196C47.053 59.4918 48.6541 60.2895 48.6541 60.2895C48.6541 64.3968 52.8631 65.9016 54.9649 67.6044C57.0667 69.3073 60.3733 73.7116 62.9785 74.614C65.1298 75.354 67.6305 78.1628 68.4255 79.1036Z" fill="#CED7E7"/>
<path opacity="0.1" d="M68.6829 79.9168C68.6829 79.9168 65.7311 81.5179 63.4258 81.6692C63.124 81.6833 62.8216 81.6658 62.5234 81.617C62.5234 81.617 65.0681 79.716 67.4312 79.3281L68.6829 79.9168Z" fill="#292D32"/>
<path opacity="0.1" d="M74.694 88.0834C74.694 88.0834 70.9719 86.6336 69.7422 88.8151C69.7835 87.8138 69.8 86.983 69.8 86.983L73.8577 86.1797C73.8577 86.1797 74.2483 86.9032 74.705 87.877C74.694 88.0063 74.694 88.0834 74.694 88.0834Z" fill="#292D32"/>
<path d="M62.5234 81.6209C62.5234 81.6209 66.9828 78.9442 69.1258 79.1697C71.3734 79.4036 75.7282 79.5686 75.7282 79.5686C75.7282 79.5686 74.2262 82.9744 74.427 83.6759C74.6278 84.3774 74.6773 87.7831 74.6773 87.7831C74.6773 87.7831 70.1712 86.0307 69.4202 89.2852C69.4202 89.2852 66.9663 85.6291 65.3129 84.5259C64.2159 83.7333 63.2709 82.7492 62.5234 81.6209Z" fill="#63667E"/>
<path opacity="0.1" d="M87.714 84.7243C86.4128 84.7243 81.8048 81.8165 80.8035 79.9156C79.8021 78.0146 78.3991 80.1136 77.0979 80.8179C76.2726 81.2691 73.0017 80.3255 71.2383 79.6405C72.1324 79.0325 74.1131 77.3214 74.6935 76.9115C75.3923 76.4081 76.0965 68.2954 76.0965 68.2954C78.5999 66.9942 81.3042 78.8124 81.3042 78.8124C81.3042 78.8124 86.0139 80.2154 86.4128 81.2168C86.4898 81.4149 86.8447 81.767 87.3784 82.1934C87.9286 83.5799 88.2312 84.7243 87.714 84.7243Z" fill="#292D32"/>
<path d="M87.7132 84.1223C86.412 84.1223 81.804 81.2173 80.8027 79.3163C79.8013 77.4154 78.3983 79.5144 77.0971 80.2159C76.2718 80.6671 73.6501 79.795 71.8867 79.1155C72.7808 78.5103 74.1123 76.7276 74.6927 76.315C75.3915 75.8143 76.0957 67.7016 76.0957 67.7016C78.5991 66.4004 81.3034 78.2187 81.3034 78.2187C81.3034 78.2187 86.0131 79.6217 86.412 80.623C86.489 80.8211 86.8439 81.1732 87.3776 81.5996C87.9278 82.9779 88.2304 84.1223 87.7132 84.1223Z" fill="#CED7E7"/>
<path d="M105.509 171.872L149.06 135.559C149.495 135.191 150.048 134.996 150.617 135.008L166.865 135.435C166.865 135.435 167.99 136.26 166.339 138.065L125.256 171.778C124.812 172.141 124.261 172.348 123.688 172.367L105.922 172.956C105.794 172.96 105.669 172.924 105.562 172.853C105.456 172.782 105.375 172.68 105.329 172.561C105.284 172.441 105.277 172.311 105.309 172.187C105.341 172.064 105.411 171.954 105.509 171.872Z" fill="#6C63FF"/>
<path d="M126.574 167.407C126.574 167.407 136.087 181.03 146.656 168.359C157.226 155.688 154.169 149.031 150.965 148.678C147.76 148.326 129.727 162.2 126.574 167.407Z" fill="#FFA2A2"/>
<path opacity="0.1" d="M190.738 15.0397C190.738 15.0397 202.999 -8.75636 217.492 3.51582C217.492 3.51582 220.655 4.66849 220.416 8.0137C220.416 8.0137 219.197 7.34521 218.229 9.90088C217.873 10.8077 217.412 11.6693 216.853 12.4676C216.112 13.546 215.04 14.3549 213.8 14.7729C213.8 14.7729 207.297 19.6449 195.25 15.887C195.25 15.887 191.844 16.3767 191.294 15.9531L195.253 13.059C195.253 13.059 197.264 16.0438 200.204 16.385C200.204 16.385 195.253 13.2763 195.819 12.6024C195.935 12.4648 197.987 11.1636 197.987 11.1636C197.987 11.1636 201.506 16.3382 206.067 16.7206C206.067 16.7206 199.676 13.8073 198.76 10.6684L201.971 8.87751C201.971 8.87751 205.42 14.5308 210.6 15.1635C210.6 15.1635 204.026 11.8871 202.7 8.53363L206.097 7.20766C206.097 7.20766 209.572 12.6546 213.882 13.1526C213.882 13.1526 206.669 8.59966 206.895 6.95457C206.895 6.95457 210.089 5.92569 211.068 6.06049C211.068 6.06049 213.651 9.91188 216.182 9.98066C216.182 9.98066 211.684 6.42638 211.981 5.87893C211.981 5.87893 216.499 5.64509 218.859 6.73724C218.859 6.73724 215.503 4.86931 211.981 5.17192C211.981 5.17192 213.574 3.29849 215.651 2.88585C215.651 2.88585 213.162 1.86248 210.887 5.2407C210.887 5.2407 207.374 5.56256 206.939 5.9532C206.939 5.9532 208.716 2.29988 210.903 0.745573C210.903 0.745573 207.643 1.32053 206.028 6.27232L202.584 7.52952C202.584 7.52952 204.678 2.57773 206.523 1.04818C206.523 1.04818 203.288 2.14858 201.742 7.92567L198.573 9.64779C198.573 9.64779 200.05 5.2462 201.737 3.09767C201.737 3.09767 198.955 4.76477 197.682 10.1732L195.701 11.568C195.701 11.568 196.837 8.37133 197.247 7.48276C197.657 6.59418 197.451 6.40987 197.451 6.40987C196.074 8.03768 195.176 10.0157 194.857 12.1237C194.857 12.1237 190.967 15.2598 190.738 15.0397Z" fill="#6C63FF"/>
<path opacity="0.1" d="M241.445 27.7653C241.445 27.7653 246.986 17.0116 253.533 22.5576C253.533 22.5576 254.964 23.0776 254.854 24.5879C254.854 24.5879 254.303 24.288 253.866 25.4434C253.708 25.8527 253.501 26.2415 253.25 26.6016C252.915 27.0877 252.433 27.4532 251.874 27.6442C251.874 27.6442 248.934 29.845 243.489 28.1477C243.489 28.1477 241.951 28.3677 241.704 28.1779L243.492 26.8684C243.492 26.8684 244.4 28.2192 245.731 28.3705C245.731 28.3705 243.498 26.9675 243.751 26.6621C243.8 26.6016 244.727 26.0129 244.727 26.0129C244.727 26.0129 246.317 28.3512 248.381 28.5245C248.381 28.5245 245.492 27.2068 245.079 25.7735L246.532 24.9675C246.532 24.9675 248.089 27.5232 250.43 27.8093C250.43 27.8093 247.459 26.3292 246.854 24.8135L248.389 24.2137C248.389 24.2137 249.957 26.6759 251.905 26.9015C251.905 26.9015 248.645 24.8437 248.749 24.1009C248.749 24.1009 250.191 23.636 250.634 23.6965C250.634 23.6965 251.8 25.4379 252.944 25.4654C252.944 25.4654 250.911 23.8616 251.046 23.614C251.046 23.614 253.088 23.5095 254.149 24.0019C254.149 24.0019 252.634 23.1574 251.046 23.2949C251.484 22.7969 252.058 22.4374 252.697 22.2605C252.697 22.2605 251.572 21.7984 250.543 23.3252C250.543 23.3252 248.956 23.471 248.76 23.647C248.76 23.647 249.563 21.9964 250.551 21.2949C250.551 21.2949 249.077 21.5535 248.35 23.7928L246.81 24.3705C246.81 24.3705 247.753 22.134 248.59 21.4407C248.59 21.4407 247.126 21.9387 246.427 24.5466L244.997 25.3224C244.997 25.3224 245.663 23.3307 246.425 22.3623C246.425 22.3623 245.167 23.1161 244.595 25.559L243.698 26.1889C243.698 26.1889 244.213 24.7447 244.397 24.343C244.581 23.9414 244.488 23.8589 244.488 23.8589C243.866 24.597 243.46 25.493 243.316 26.4475C243.316 26.4475 241.542 27.8643 241.445 27.7653Z" fill="#6C63FF"/>
<path opacity="0.1" d="M181.41 40.2809C181.41 40.2809 186.951 29.5273 193.515 35.0733C193.515 35.0733 194.942 35.5932 194.835 37.1062C194.835 37.1062 194.285 36.8036 193.847 37.959C193.688 38.3678 193.481 38.7566 193.231 39.1172C192.893 39.6057 192.405 39.9715 191.842 40.1598C191.842 40.1598 188.904 42.3606 183.46 40.6633C183.46 40.6633 181.922 40.8861 181.674 40.6935L183.462 39.3841C183.462 39.3841 184.37 40.7348 185.699 40.8889C185.699 40.8889 183.465 39.4831 183.718 39.1777C183.77 39.1172 184.698 38.5285 184.698 38.5285C184.698 38.5285 186.288 40.8669 188.348 41.0402C188.348 41.0402 185.462 39.7224 185.047 38.2892L186.499 37.4859C186.499 37.4859 188.059 40.0388 190.4 40.3249C190.4 40.3249 187.429 38.8449 186.824 37.3291L188.359 36.7294C188.359 36.7294 189.93 39.1915 191.878 39.4171C191.878 39.4171 188.618 37.3593 188.72 36.6166C188.72 36.6166 190.164 36.1516 190.607 36.2122C190.607 36.2122 191.773 37.9535 192.918 37.9838C192.918 37.9838 190.885 36.3772 191.019 36.1296C191.019 36.1296 193.058 36.0251 194.122 36.5175C194.122 36.5175 192.604 35.673 191.017 35.8105C191.454 35.3125 192.028 34.953 192.667 34.7761C192.667 34.7761 191.545 34.314 190.516 35.8408C190.516 35.8408 188.929 35.9866 188.733 36.1626C188.733 36.1626 189.534 34.5121 190.524 33.8106C190.524 33.8106 189.05 34.0691 188.323 36.3085L186.764 36.8862C186.764 36.8862 187.71 34.6496 188.543 33.9591C188.543 33.9591 187.083 34.4543 186.384 37.0622L184.951 37.838C184.951 37.838 185.619 35.8463 186.381 34.8779C186.381 34.8779 185.124 35.6317 184.549 38.0746L183.652 38.7046C183.652 38.7046 184.167 37.2603 184.351 36.8586C184.535 36.457 184.444 36.3745 184.444 36.3745C183.821 37.1118 183.415 38.0082 183.273 38.9632C183.273 38.9632 181.506 40.3799 181.41 40.2809Z" fill="#6C63FF"/>
</g>
<defs>
<clipPath id="clip0_1347_20658">
<rect width="295" height="214.616" fill="white"/>
</clipPath>
</defs>
</svg>
