<svg width="698" height="566" viewBox="0 0 698 566" fill="none" xmlns="http://www.w3.org/2000/svg">
<mask id="mask0_1347_14168" style="mask-type:alpha" maskUnits="userSpaceOnUse" x="76" y="49" width="500" height="61">
<path fill-rule="evenodd" clip-rule="evenodd" d="M96 49.502C84.9543 49.502 76 58.4563 76 69.502V79.5019V89.5019V109.502H96H556H576V89.5019V79.5019V69.502C576 58.4563 567.045 49.502 556 49.502H96Z" fill="white"/>
</mask>
<g mask="url(#mask0_1347_14168)">
<path fill-rule="evenodd" clip-rule="evenodd" d="M96 49.5C84.9543 49.5 76 58.4543 76 69.5V79.5V89.5V109.5H96H556H576V89.5V79.5V69.5C576 58.4543 567.045 49.5 556 49.5H96Z" fill="white"/>
<path d="M75.9995 109.502H68.4995V117.002H75.9995V109.502ZM576 109.502V117.002H583.5V109.502H576ZM83.4995 69.502C83.4995 62.5984 89.096 57.002 95.9995 57.002V42.002C80.8117 42.002 68.4995 54.3141 68.4995 69.502H83.4995ZM83.4995 79.502V69.502H68.4995V79.502H83.4995ZM83.4995 89.502V79.502H68.4995V89.502H83.4995ZM83.4995 109.502V89.502H68.4995V109.502H83.4995ZM95.9995 102.002H75.9995V117.002H95.9995V102.002ZM556 102.002H95.9995V117.002H556V102.002ZM576 102.002H556V117.002H576V102.002ZM568.5 89.502V109.502H583.5V89.502H568.5ZM568.5 79.502V89.502H583.5V79.502H568.5ZM568.5 69.502V79.502H583.5V69.502H568.5ZM556 57.002C562.902 57.002 568.5 62.5984 568.5 69.502H583.5C583.5 54.3141 571.187 42.002 556 42.002V57.002ZM95.9995 57.002H556V42.002H95.9995V57.002Z" fill="#E3E9F0"/>
</g>
<path fill-rule="evenodd" clip-rule="evenodd" d="M108.5 87.002C112.642 87.002 116 83.6442 116 79.502C116 75.3597 112.642 72.002 108.5 72.002C104.358 72.002 101 75.3597 101 79.502C101 83.6442 104.358 87.002 108.5 87.002Z" fill="#E3E9F0"/>
<path fill-rule="evenodd" clip-rule="evenodd" d="M133.5 87.002C137.642 87.002 141 83.6442 141 79.502C141 75.3597 137.642 72.002 133.5 72.002C129.358 72.002 126 75.3597 126 79.502C126 83.6442 129.358 87.002 133.5 87.002Z" fill="#E3E9F0"/>
<path fill-rule="evenodd" clip-rule="evenodd" d="M158.5 87.002C162.642 87.002 166 83.6442 166 79.502C166 75.3597 162.642 72.002 158.5 72.002C154.358 72.002 151 75.3597 151 79.502C151 83.6442 154.358 87.002 158.5 87.002Z" fill="#E3E9F0"/>
<mask id="mask1_1347_14168" style="mask-type:alpha" maskUnits="userSpaceOnUse" x="76" y="101" width="500" height="401">
<path fill-rule="evenodd" clip-rule="evenodd" d="M556 501.99C567.045 501.99 576 493.035 576 481.99V301.99V121.99V101.99H556H96H76V121.99V301.99V481.99C76 493.035 84.9543 501.99 96 501.99H556Z" fill="white"/>
</mask>
<g mask="url(#mask1_1347_14168)">
<path fill-rule="evenodd" clip-rule="evenodd" d="M556 501.992C567.045 501.992 576 493.037 576 481.992V301.992V121.992V101.992H556H96H76V121.992V301.992V481.992C76 493.037 84.9543 501.992 96 501.992H556Z" fill="white"/>
<path d="M576 481.994H583.5H576ZM576 301.994H568.5H576ZM576 101.994H583.5V94.4941H576V101.994ZM75.9995 101.994V94.4941H68.4995V101.994H75.9995ZM75.9995 301.994H68.4995H75.9995ZM75.9995 481.994H83.4995H75.9995ZM568.5 481.994C568.5 488.897 562.902 494.494 556 494.494V509.494C571.187 509.494 583.5 497.182 583.5 481.994H568.5ZM568.5 301.994V481.994H583.5V301.994H568.5ZM568.5 121.994V301.994H583.5V121.994H568.5ZM568.5 101.994V121.994H583.5V101.994H568.5ZM556 109.494H576V94.4941H556V109.494ZM95.9995 109.494H556V94.4941H95.9995V109.494ZM75.9995 109.494H95.9995V94.4941H75.9995V109.494ZM83.4995 121.994V101.994H68.4995V121.994H83.4995ZM83.4995 301.994V121.994H68.4995V301.994H83.4995ZM83.4995 481.994V301.994H68.4995V481.994H83.4995ZM95.9995 494.494C89.096 494.494 83.4995 488.897 83.4995 481.994H68.4995C68.4995 497.182 80.8117 509.494 95.9995 509.494V494.494ZM556 494.494H95.9995V509.494H556V494.494Z" fill="#E3E9F0"/>
</g>
<path d="M506.337 140.752H148.163C144.207 140.752 141 142.431 141 144.502V279.502C141 281.573 144.207 283.252 148.163 283.252H506.337C510.293 283.252 513.5 281.573 513.5 279.502V144.502C513.5 142.431 510.293 140.752 506.337 140.752Z" fill="#ECECEC" stroke="#003169" stroke-opacity="0.2"/>
<path fill-rule="evenodd" clip-rule="evenodd" d="M319.018 233.711C310.712 237.798 301 231.752 301 222.495V199.518C301 190.261 310.712 184.215 319.018 188.302L342.37 199.79C351.68 204.37 351.68 217.643 342.37 222.223L319.018 233.711Z" fill="white"/>
<path d="M304.75 222.49V199.513C304.75 193.033 311.548 188.801 317.363 191.662L340.715 203.15C347.233 206.356 347.233 215.647 340.715 218.853L317.363 230.342C311.548 233.202 304.75 228.97 304.75 222.49Z" stroke="#2563EB" stroke-width="7.5"/>
<path d="M509.75 369.5H144.75C142.679 369.5 141 367.82 141 365.75V302H513.5V365.75C513.5 367.82 511.82 369.5 509.75 369.5Z" fill="white" stroke="#003169" stroke-opacity="0.2"/>
<path d="M387.25 330.748H167.25C164.489 330.748 162.25 332.987 162.25 335.748C162.25 338.509 164.489 340.748 167.25 340.748H387.25C390.011 340.748 392.25 338.509 392.25 335.748C392.25 332.987 390.011 330.748 387.25 330.748Z" fill="#E3E9F0"/>
<path fill-rule="evenodd" clip-rule="evenodd" d="M217.25 345.75C222.773 345.75 227.25 341.273 227.25 335.75C227.25 330.227 222.773 325.75 217.25 325.75C211.728 325.75 207.25 330.227 207.25 335.75C207.25 341.273 211.728 345.75 217.25 345.75Z" fill="#2563EB"/>
<path fill-rule="evenodd" clip-rule="evenodd" d="M217.25 345.75C222.773 345.75 227.25 341.273 227.25 335.75C227.25 330.227 222.773 325.75 217.25 325.75C211.728 325.75 207.25 330.227 207.25 335.75C207.25 341.273 211.728 345.75 217.25 345.75Z" stroke="#E3E9F0"/>
<path d="M487.249 330.748H422.249C419.488 330.748 417.249 332.987 417.249 335.748C417.249 338.509 419.488 340.748 422.249 340.748H487.249C490.011 340.748 492.249 338.509 492.249 335.748C492.249 332.987 490.011 330.748 487.249 330.748Z" fill="#E3E9F0"/>
<path fill-rule="evenodd" clip-rule="evenodd" d="M467.249 345.75C472.772 345.75 477.249 341.273 477.249 335.75C477.249 330.227 472.772 325.75 467.249 325.75C461.727 325.75 457.249 330.227 457.249 335.75C457.249 341.273 461.727 345.75 467.249 345.75Z" fill="#2563EB"/>
<path fill-rule="evenodd" clip-rule="evenodd" d="M467.249 345.75C472.772 345.75 477.249 341.273 477.249 335.75C477.249 330.227 472.772 325.75 467.249 325.75C461.727 325.75 457.249 330.227 457.249 335.75C457.249 341.273 461.727 345.75 467.249 345.75Z" stroke="#E3E9F0"/>
<path d="M414.167 406.998H237.834C223.014 406.998 211 419.012 211 433.831C211 448.651 223.014 460.665 237.834 460.665H414.167C428.987 460.665 441 448.651 441 433.831C441 419.012 428.987 406.998 414.167 406.998Z" fill="#2563EB"/>
<path d="M414.167 412.752H237.834C226.19 412.752 216.75 422.191 216.75 433.835C216.75 445.479 226.19 454.919 237.834 454.919H414.167C425.811 454.919 435.25 445.479 435.25 433.835C435.25 422.191 425.811 412.752 414.167 412.752Z" stroke="#02306A" stroke-opacity="0.2"/>
<path fill-rule="evenodd" clip-rule="evenodd" d="M327.435 424.5C326.068 424.5 324.959 425.602 324.959 426.959V435.972L322.776 433.803C321.808 432.842 320.242 432.842 319.275 433.803L319.226 433.852C318.258 434.813 318.258 436.37 319.226 437.329L325.67 443.73L325.72 443.78C326.687 444.74 328.254 444.74 329.221 443.78L329.271 443.73L335.275 437.767C336.242 436.806 336.242 435.249 335.275 434.29L335.225 434.239C334.258 433.278 332.691 433.278 331.724 434.239L329.981 435.972V426.959C329.981 425.602 328.873 424.5 327.505 424.5H327.435Z" fill="#E3E9F0"/>
<path d="M277.358 64.3823L281.411 76.3819L285.476 64.2969C285.687 63.6621 285.846 63.2227 285.952 62.9785C286.057 62.7262 286.232 62.5024 286.477 62.3071C286.721 62.1037 287.054 62.002 287.478 62.002C287.787 62.002 288.072 62.0793 288.332 62.2339C288.601 62.3885 288.808 62.596 288.955 62.8564C289.109 63.1087 289.186 63.3651 289.186 63.6255C289.186 63.8045 289.162 63.9998 289.113 64.2114C289.064 64.4149 289.003 64.6183 288.93 64.8218C288.857 65.0171 288.784 65.2205 288.71 65.4321L284.377 77.1264C284.222 77.5741 284.068 78.0014 283.913 78.4081C283.758 78.8069 283.579 79.1609 283.376 79.4701C283.172 79.7714 282.9 80.0196 282.558 80.2149C282.224 80.4101 281.813 80.5079 281.325 80.5079C280.837 80.5079 280.422 80.4101 280.08 80.2149C279.746 80.0276 279.474 79.7794 279.262 79.4701C279.059 79.1529 278.88 78.7946 278.725 78.3959C278.57 77.9971 278.416 77.5741 278.261 77.1264L274.001 65.5298C273.928 65.3182 273.85 65.1107 273.769 64.9072C273.696 64.7038 273.631 64.4841 273.574 64.248C273.525 64.012 273.5 63.8127 273.5 63.6499C273.5 63.2349 273.667 62.8564 274.001 62.5146C274.335 62.1729 274.754 62.002 275.258 62.002C275.877 62.002 276.312 62.1932 276.564 62.5757C276.825 62.95 277.089 63.5522 277.358 64.3823ZM294.567 78.2984V64.1992C294.567 63.4668 294.734 62.9175 295.068 62.5513C295.401 62.1851 295.833 62.002 296.362 62.002C296.907 62.002 297.346 62.1851 297.68 62.5513C298.022 62.9093 298.193 63.4587 298.193 64.1992V78.2984C298.193 79.0389 298.022 79.5924 297.68 79.9584C297.346 80.3246 296.907 80.5079 296.362 80.5079C295.841 80.5079 295.41 80.3246 295.068 79.9584C294.734 79.5841 294.567 79.0306 294.567 78.2984ZM307.004 62.3071H311.728C312.957 62.3071 314.011 62.4211 314.89 62.6489C315.769 62.8768 316.566 63.304 317.282 63.9307C319.146 65.5257 320.078 67.9508 320.078 71.2061C320.078 72.2803 319.984 73.2609 319.797 74.1479C319.61 75.0349 319.321 75.8366 318.93 76.5526C318.54 77.2606 318.039 77.8954 317.429 78.4571C316.949 78.8884 316.424 79.2341 315.854 79.4946C315.284 79.7551 314.67 79.9381 314.011 80.0439C313.36 80.1496 312.623 80.2026 311.801 80.2026H307.077C306.418 80.2026 305.922 80.1049 305.588 79.9096C305.254 79.7061 305.034 79.4254 304.929 79.0674C304.831 78.7011 304.782 78.2291 304.782 77.6514V64.5288C304.782 63.7476 304.957 63.182 305.307 62.832C305.657 62.4821 306.223 62.3071 307.004 62.3071ZM308.408 65.1758V77.3219H311.154C311.756 77.3219 312.228 77.3054 312.57 77.2729C312.912 77.2404 313.266 77.1591 313.632 77.0289C313.998 76.8986 314.316 76.7154 314.584 76.4794C315.797 75.4541 316.403 73.6881 316.403 71.1816C316.403 69.4157 316.135 68.0933 315.598 67.2144C315.069 66.3354 314.414 65.778 313.632 65.542C312.851 65.2979 311.907 65.1758 310.8 65.1758H308.408ZM337.555 65.1025H329.388V69.4971H336.908C337.463 69.4971 337.873 69.6232 338.14 69.8755C338.418 70.1196 338.555 70.4452 338.555 70.8521C338.555 71.259 338.423 71.5926 338.153 71.853C337.885 72.1053 337.47 72.2314 336.908 72.2314H329.388V77.3219H337.835C338.405 77.3219 338.833 77.4561 339.118 77.7246C339.41 77.9851 339.558 78.3349 339.558 78.7744C339.558 79.1976 339.41 79.5434 339.118 79.8121C338.833 80.0724 338.405 80.2026 337.835 80.2026H327.985C327.196 80.2026 326.626 80.0276 326.276 79.6776C325.935 79.3279 325.764 78.7621 325.764 77.9809V64.5288C325.764 64.008 325.841 63.5848 325.996 63.2593C326.15 62.9256 326.39 62.6855 326.716 62.5391C327.049 62.3844 327.473 62.3071 327.985 62.3071H337.555C338.133 62.3071 338.56 62.4373 338.838 62.6978C339.123 62.95 339.265 63.2837 339.265 63.6987C339.265 64.1219 339.123 64.4637 338.838 64.7241C338.56 64.9764 338.133 65.1025 337.555 65.1025ZM352.813 62.002C354.668 62.002 356.258 62.3804 357.585 63.1372C358.92 63.8859 359.928 64.9561 360.613 66.3477C361.295 67.7311 361.638 69.3587 361.638 71.2305C361.638 72.6139 361.45 73.8711 361.075 75.0024C360.703 76.1336 360.14 77.1141 359.39 77.9444C358.643 78.7744 357.723 79.4091 356.633 79.8486C355.543 80.2881 354.293 80.5079 352.885 80.5079C351.485 80.5079 350.233 80.2841 349.125 79.8364C348.018 79.3806 347.095 78.7419 346.355 77.9199C345.613 77.0979 345.053 76.1091 344.67 74.9536C344.295 73.7981 344.108 72.5488 344.108 71.2061C344.108 69.8307 344.303 68.5693 344.695 67.4219C345.093 66.2744 345.668 65.2979 346.415 64.4922C347.165 63.6865 348.075 63.0721 349.15 62.6489C350.223 62.2176 351.445 62.002 352.813 62.002ZM357.963 71.2061C357.963 69.8958 357.753 68.7606 357.328 67.8003C356.905 66.84 356.298 66.1157 355.51 65.6274C354.728 65.131 353.83 64.8828 352.813 64.8828C352.088 64.8828 351.415 65.0212 350.798 65.2979C350.188 65.5664 349.658 65.9611 349.21 66.4819C348.77 67.0028 348.42 67.6701 348.16 68.4839C347.908 69.2896 347.783 70.1969 347.783 71.2061C347.783 72.2233 347.908 73.1429 348.16 73.9649C348.42 74.7869 348.783 75.4704 349.248 76.0156C349.72 76.5526 350.258 76.9556 350.858 77.2241C351.47 77.4926 352.135 77.6269 352.86 77.6269C353.788 77.6269 354.638 77.3951 355.413 76.9311C356.193 76.4674 356.813 75.7511 357.268 74.7826C357.73 73.8144 357.963 72.6221 357.963 71.2061ZM380.838 74.8316C380.838 75.9139 380.555 76.8864 379.995 77.7491C379.44 78.6116 378.628 79.2871 377.553 79.7754C376.478 80.2636 375.205 80.5079 373.733 80.5079C371.965 80.5079 370.51 80.1741 369.363 79.5069C368.548 79.0266 367.885 78.3879 367.373 77.5904C366.868 76.7846 366.615 76.0034 366.615 75.2466C366.615 74.8071 366.765 74.4329 367.068 74.1236C367.375 73.8061 367.768 73.6474 368.24 73.6474C368.623 73.6474 368.943 73.7696 369.203 74.0136C369.473 74.2579 369.7 74.6199 369.888 75.1001C370.115 75.6696 370.36 76.1459 370.62 76.5284C370.888 76.9109 371.263 77.2281 371.743 77.4804C372.223 77.7246 372.853 77.8466 373.635 77.8466C374.708 77.8466 375.58 77.5984 376.248 77.1021C376.923 76.5974 377.26 75.9709 377.26 75.2221C377.26 74.6281 377.078 74.1479 376.71 73.7816C376.353 73.4074 375.885 73.1226 375.308 72.9271C374.738 72.7319 373.973 72.5244 373.013 72.3047C371.725 72.0036 370.648 71.6536 369.778 71.2549C368.915 70.848 368.228 70.2987 367.715 69.6069C367.21 68.9071 366.958 68.0404 366.958 67.0068C366.958 66.0221 367.225 65.1473 367.763 64.3823C368.3 63.6174 369.078 63.0314 370.095 62.6245C371.113 62.2095 372.308 62.002 373.683 62.002C374.783 62.002 375.73 62.1403 376.528 62.417C377.333 62.6855 378 63.0477 378.53 63.5034C379.058 63.951 379.445 64.423 379.69 64.9194C379.933 65.4159 380.055 65.9001 380.055 66.3721C380.055 66.8034 379.9 67.194 379.593 67.5439C379.29 67.8857 378.913 68.0566 378.455 68.0566C378.04 68.0566 377.723 67.9549 377.505 67.7515C377.293 67.5399 377.06 67.1981 376.808 66.7261C376.483 66.0506 376.093 65.5257 375.638 65.1514C375.18 64.7689 374.448 64.5776 373.44 64.5776C372.503 64.5776 371.748 64.7852 371.168 65.2002C370.6 65.6071 370.315 66.0994 370.315 66.6772C370.315 67.0353 370.413 67.3446 370.608 67.605C370.803 67.8654 371.07 68.0892 371.413 68.2764C371.755 68.4635 372.1 68.61 372.45 68.7158C372.8 68.8216 373.378 68.9762 374.183 69.1797C375.193 69.4157 376.105 69.6761 376.918 69.9609C377.74 70.2458 378.435 70.5916 379.005 70.9985C379.583 71.4054 380.03 71.9222 380.348 72.5488C380.673 73.1674 380.838 73.9281 380.838 74.8316Z" fill="#E3E9F0"/>
<rect x="346" width="352" height="123" rx="10" fill="white"/>
<path d="M383.5 57H392.5C400 57 403 54 403 46.5V37.5C403 30 400 27 392.5 27H383.5C376 27 373 30 373 37.5V46.5C373 54 376 57 383.5 57Z" stroke="#2563EB" stroke-width="2.25" stroke-linecap="round" stroke-linejoin="round"/>
<path d="M393.25 38.625C394.493 38.625 395.5 37.6176 395.5 36.375C395.5 35.1324 394.493 34.125 393.25 34.125C392.007 34.125 391 35.1324 391 36.375C391 37.6176 392.007 38.625 393.25 38.625Z" stroke="#2563EB" stroke-width="2.25" stroke-miterlimit="10" stroke-linecap="round" stroke-linejoin="round"/>
<path d="M382.75 38.625C383.993 38.625 385 37.6176 385 36.375C385 35.1324 383.993 34.125 382.75 34.125C381.507 34.125 380.5 35.1324 380.5 36.375C380.5 37.6176 381.507 38.625 382.75 38.625Z" stroke="#2563EB" stroke-width="2.25" stroke-miterlimit="10" stroke-linecap="round" stroke-linejoin="round"/>
<path d="M382.6 43.9512H393.4C394.15 43.9512 394.75 44.5512 394.75 45.3012C394.75 49.0362 391.735 52.0512 388 52.0512C384.265 52.0512 381.25 49.0362 381.25 45.3012C381.25 44.5512 381.85 43.9512 382.6 43.9512Z" stroke="#2563EB" stroke-width="2.25" stroke-miterlimit="10" stroke-linecap="round" stroke-linejoin="round"/>
<path d="M423.94 44.18C422.527 44.18 421.313 43.8867 420.3 43.3C419.3 42.7133 418.533 41.88 418 40.8C417.467 39.7067 417.2 38.42 417.2 36.94C417.2 35.46 417.467 34.18 418 33.1C418.533 32.02 419.3 31.1867 420.3 30.6C421.313 30.0133 422.527 29.72 423.94 29.72C424.953 29.72 425.853 29.8733 426.64 30.18C427.427 30.4733 428.113 30.9067 428.7 31.48L428.02 32.98C427.38 32.42 426.747 32.02 426.12 31.78C425.507 31.5267 424.793 31.4 423.98 31.4C422.42 31.4 421.227 31.88 420.4 32.84C419.573 33.8 419.16 35.1667 419.16 36.94C419.16 38.7133 419.573 40.0867 420.4 41.06C421.227 42.02 422.42 42.5 423.98 42.5C424.793 42.5 425.507 42.38 426.12 42.14C426.747 41.8867 427.38 41.48 428.02 40.92L428.7 42.4C428.113 42.9733 427.42 43.4133 426.62 43.72C425.833 44.0267 424.94 44.18 423.94 44.18ZM434.748 44.18C433.762 44.18 432.908 43.9733 432.188 43.56C431.468 43.1333 430.908 42.5333 430.508 41.76C430.108 40.9733 429.908 40.04 429.908 38.96C429.908 37.8933 430.108 36.9733 430.508 36.2C430.908 35.4133 431.468 34.8133 432.188 34.4C432.908 33.9733 433.762 33.76 434.748 33.76C435.735 33.76 436.588 33.9733 437.308 34.4C438.042 34.8133 438.602 35.4133 438.988 36.2C439.388 36.9733 439.588 37.8933 439.588 38.96C439.588 40.04 439.388 40.9733 438.988 41.76C438.602 42.5333 438.042 43.1333 437.308 43.56C436.588 43.9733 435.735 44.18 434.748 44.18ZM434.748 42.74C435.655 42.74 436.382 42.42 436.928 41.78C437.475 41.14 437.748 40.2 437.748 38.96C437.748 37.72 437.475 36.7867 436.928 36.16C436.382 35.5333 435.655 35.22 434.748 35.22C433.828 35.22 433.095 35.5333 432.548 36.16C432.015 36.7867 431.748 37.72 431.748 38.96C431.748 40.2 432.015 41.14 432.548 41.78C433.095 42.42 433.828 42.74 434.748 42.74ZM442.032 44V36.32C442.032 35.9333 442.018 35.54 441.992 35.14C441.965 34.74 441.925 34.34 441.872 33.94H443.632L443.832 36.1H443.592C443.898 35.34 444.372 34.76 445.012 34.36C445.652 33.96 446.398 33.76 447.252 33.76C448.438 33.76 449.332 34.0867 449.932 34.74C450.532 35.38 450.832 36.38 450.832 37.74V44H449.012V37.84C449.012 36.92 448.832 36.26 448.472 35.86C448.112 35.4467 447.552 35.24 446.792 35.24C445.885 35.24 445.165 35.5133 444.632 36.06C444.112 36.6067 443.852 37.3467 443.852 38.28V44H442.032ZM458.289 48.48C457.409 48.48 456.602 48.3733 455.869 48.16C455.136 47.9467 454.476 47.62 453.889 47.18L454.369 45.84C454.782 46.12 455.189 46.3467 455.589 46.52C455.989 46.6933 456.402 46.82 456.829 46.9C457.269 46.98 457.722 47.02 458.189 47.02C459.176 47.02 459.916 46.7667 460.409 46.26C460.902 45.7533 461.149 45.0333 461.149 44.1V41.28H461.349C461.136 42.04 460.696 42.6467 460.029 43.1C459.376 43.54 458.602 43.76 457.709 43.76C456.802 43.76 456.009 43.56 455.329 43.16C454.662 42.7467 454.142 42.1667 453.769 41.42C453.396 40.66 453.209 39.7733 453.209 38.76C453.209 37.7333 453.396 36.8467 453.769 36.1C454.142 35.3533 454.662 34.78 455.329 34.38C456.009 33.9667 456.802 33.76 457.709 33.76C458.602 33.76 459.376 33.98 460.029 34.42C460.682 34.86 461.116 35.4667 461.329 36.24L461.149 36.06L461.329 33.94H463.089C463.049 34.34 463.009 34.74 462.969 35.14C462.942 35.54 462.929 35.9333 462.929 36.32V43.88C462.929 45.3733 462.536 46.5133 461.749 47.3C460.976 48.0867 459.822 48.48 458.289 48.48ZM458.109 42.32C459.029 42.32 459.762 42.0067 460.309 41.38C460.856 40.7533 461.129 39.88 461.129 38.76C461.129 37.6267 460.856 36.7533 460.309 36.14C459.762 35.5267 459.029 35.22 458.109 35.22C457.176 35.22 456.429 35.5267 455.869 36.14C455.322 36.7533 455.049 37.6267 455.049 38.76C455.049 39.88 455.322 40.7533 455.869 41.38C456.429 42.0067 457.176 42.32 458.109 42.32ZM465.957 44V36.4C465.957 36 465.944 35.5933 465.917 35.18C465.904 34.7533 465.87 34.34 465.817 33.94H467.577L467.797 36.46L467.497 36.48C467.63 35.8667 467.857 35.36 468.177 34.96C468.51 34.5467 468.904 34.2467 469.357 34.06C469.824 33.86 470.304 33.76 470.797 33.76C471.01 33.76 471.19 33.7667 471.337 33.78C471.484 33.7933 471.63 33.8267 471.777 33.88L471.737 35.5C471.537 35.42 471.35 35.3733 471.177 35.36C471.017 35.3333 470.817 35.32 470.577 35.32C469.99 35.32 469.484 35.4533 469.057 35.72C468.644 35.9867 468.324 36.34 468.097 36.78C467.884 37.22 467.777 37.6933 467.777 38.2V44H465.957ZM477.122 44.18C476.242 44.18 475.468 43.9733 474.802 43.56C474.135 43.1467 473.615 42.5467 473.242 41.76C472.868 40.9733 472.682 40.04 472.682 38.96C472.682 37.88 472.868 36.9533 473.242 36.18C473.615 35.3933 474.135 34.7933 474.802 34.38C475.468 33.9667 476.242 33.76 477.122 33.76C478.015 33.76 478.788 33.9867 479.442 34.44C480.108 34.88 480.548 35.4867 480.762 36.26H480.522L480.742 33.94H482.502C482.462 34.34 482.422 34.74 482.382 35.14C482.355 35.54 482.342 35.9333 482.342 36.32V44H480.522V41.7H480.742C480.528 42.46 480.088 43.0667 479.422 43.52C478.768 43.96 478.002 44.18 477.122 44.18ZM477.542 42.74C478.448 42.74 479.175 42.42 479.722 41.78C480.268 41.14 480.542 40.2 480.542 38.96C480.542 37.72 480.268 36.7867 479.722 36.16C479.175 35.5333 478.448 35.22 477.542 35.22C476.635 35.22 475.902 35.5333 475.342 36.16C474.795 36.7867 474.522 37.72 474.522 38.96C474.522 40.2 474.795 41.14 475.342 41.78C475.888 42.42 476.622 42.74 477.542 42.74ZM489.151 44.18C488.098 44.18 487.298 43.8933 486.751 43.32C486.218 42.7333 485.951 41.8533 485.951 40.68V35.34H483.991V33.94H485.951V31.24L487.771 30.74V33.94H490.611V35.34H487.771V40.52C487.771 41.2933 487.904 41.8467 488.171 42.18C488.451 42.5 488.851 42.66 489.371 42.66C489.638 42.66 489.864 42.64 490.051 42.6C490.251 42.5467 490.431 42.4867 490.591 42.42V43.92C490.391 44 490.158 44.06 489.891 44.1C489.638 44.1533 489.391 44.18 489.151 44.18ZM496.1 44.18C494.887 44.18 493.973 43.8533 493.36 43.2C492.76 42.5467 492.46 41.54 492.46 40.18V33.94H494.28V40.14C494.28 41.02 494.46 41.6667 494.82 42.08C495.18 42.4933 495.74 42.7 496.5 42.7C497.327 42.7 497.993 42.4267 498.5 41.88C499.02 41.32 499.28 40.58 499.28 39.66V33.94H501.1V44H499.34V41.78H499.6C499.32 42.54 498.873 43.1333 498.26 43.56C497.647 43.9733 496.927 44.18 496.1 44.18ZM504.161 44V29.28H505.981V44H504.161ZM512.864 44.18C511.984 44.18 511.211 43.9733 510.544 43.56C509.877 43.1467 509.357 42.5467 508.984 41.76C508.611 40.9733 508.424 40.04 508.424 38.96C508.424 37.88 508.611 36.9533 508.984 36.18C509.357 35.3933 509.877 34.7933 510.544 34.38C511.211 33.9667 511.984 33.76 512.864 33.76C513.757 33.76 514.531 33.9867 515.184 34.44C515.851 34.88 516.291 35.4867 516.504 36.26H516.264L516.484 33.94H518.244C518.204 34.34 518.164 34.74 518.124 35.14C518.097 35.54 518.084 35.9333 518.084 36.32V44H516.264V41.7H516.484C516.271 42.46 515.831 43.0667 515.164 43.52C514.511 43.96 513.744 44.18 512.864 44.18ZM513.284 42.74C514.191 42.74 514.917 42.42 515.464 41.78C516.011 41.14 516.284 40.2 516.284 38.96C516.284 37.72 516.011 36.7867 515.464 36.16C514.917 35.5333 514.191 35.22 513.284 35.22C512.377 35.22 511.644 35.5333 511.084 36.16C510.537 36.7867 510.264 37.72 510.264 38.96C510.264 40.2 510.537 41.14 511.084 41.78C511.631 42.42 512.364 42.74 513.284 42.74ZM524.893 44.18C523.84 44.18 523.04 43.8933 522.493 43.32C521.96 42.7333 521.693 41.8533 521.693 40.68V35.34H519.733V33.94H521.693V31.24L523.513 30.74V33.94H526.353V35.34H523.513V40.52C523.513 41.2933 523.647 41.8467 523.913 42.18C524.193 42.5 524.593 42.66 525.113 42.66C525.38 42.66 525.607 42.64 525.793 42.6C525.993 42.5467 526.173 42.4867 526.333 42.42V43.92C526.133 44 525.9 44.06 525.633 44.1C525.38 44.1533 525.133 44.18 524.893 44.18ZM528.262 44V33.94H530.082V44H528.262ZM528.102 31.74V29.78H530.262V31.74H528.102ZM537.365 44.18C536.379 44.18 535.525 43.9733 534.805 43.56C534.085 43.1333 533.525 42.5333 533.125 41.76C532.725 40.9733 532.525 40.04 532.525 38.96C532.525 37.8933 532.725 36.9733 533.125 36.2C533.525 35.4133 534.085 34.8133 534.805 34.4C535.525 33.9733 536.379 33.76 537.365 33.76C538.352 33.76 539.205 33.9733 539.925 34.4C540.659 34.8133 541.219 35.4133 541.605 36.2C542.005 36.9733 542.205 37.8933 542.205 38.96C542.205 40.04 542.005 40.9733 541.605 41.76C541.219 42.5333 540.659 43.1333 539.925 43.56C539.205 43.9733 538.352 44.18 537.365 44.18ZM537.365 42.74C538.272 42.74 538.999 42.42 539.545 41.78C540.092 41.14 540.365 40.2 540.365 38.96C540.365 37.72 540.092 36.7867 539.545 36.16C538.999 35.5333 538.272 35.22 537.365 35.22C536.445 35.22 535.712 35.5333 535.165 36.16C534.632 36.7867 534.365 37.72 534.365 38.96C534.365 40.2 534.632 41.14 535.165 41.78C535.712 42.42 536.445 42.74 537.365 42.74ZM544.649 44V36.32C544.649 35.9333 544.636 35.54 544.609 35.14C544.582 34.74 544.542 34.34 544.489 33.94H546.249L546.449 36.1H546.209C546.516 35.34 546.989 34.76 547.629 34.36C548.269 33.96 549.016 33.76 549.869 33.76C551.056 33.76 551.949 34.0867 552.549 34.74C553.149 35.38 553.449 36.38 553.449 37.74V44H551.629V37.84C551.629 36.92 551.449 36.26 551.089 35.86C550.729 35.4467 550.169 35.24 549.409 35.24C548.502 35.24 547.782 35.5133 547.249 36.06C546.729 36.6067 546.469 37.3467 546.469 38.28V44H544.649ZM559.826 44.18C559.013 44.18 558.253 44.0733 557.546 43.86C556.853 43.6467 556.28 43.34 555.826 42.94L556.406 41.68C556.9 42.0533 557.44 42.34 558.026 42.54C558.626 42.7267 559.24 42.82 559.866 42.82C560.626 42.82 561.2 42.68 561.586 42.4C561.986 42.12 562.186 41.7467 562.186 41.28C562.186 40.9067 562.06 40.6067 561.806 40.38C561.553 40.1533 561.153 39.9867 560.606 39.88L558.706 39.5C557.853 39.3 557.206 38.98 556.766 38.54C556.34 38.0867 556.126 37.5067 556.126 36.8C556.126 36.2133 556.286 35.6933 556.606 35.24C556.926 34.7733 557.38 34.4133 557.966 34.16C558.566 33.8933 559.266 33.76 560.066 33.76C560.8 33.76 561.48 33.8667 562.106 34.08C562.746 34.2933 563.273 34.6067 563.686 35.02L563.086 36.24C562.673 35.88 562.206 35.6067 561.686 35.42C561.18 35.22 560.66 35.12 560.126 35.12C559.353 35.12 558.78 35.2733 558.406 35.58C558.033 35.8733 557.846 36.26 557.846 36.74C557.846 37.1 557.96 37.4 558.186 37.64C558.413 37.8667 558.78 38.04 559.286 38.16L561.186 38.54C562.08 38.7267 562.753 39.0333 563.206 39.46C563.66 39.8867 563.886 40.4533 563.886 41.16C563.886 41.7867 563.713 42.3267 563.366 42.78C563.033 43.2333 562.56 43.58 561.946 43.82C561.346 44.06 560.64 44.18 559.826 44.18ZM566.608 40.2L566.048 29.9H568.308L567.728 40.2H566.608ZM566.068 44V41.78H568.288V44H566.068ZM575.969 48.54L575.549 47.06C576.176 46.9133 576.696 46.74 577.109 46.54C577.522 46.3533 577.869 46.1067 578.149 45.8C578.429 45.4933 578.676 45.1067 578.889 44.64L579.389 43.44L579.349 44.2L574.969 33.94H576.929L580.429 42.56H579.909L583.409 33.94H585.289L580.669 44.78C580.389 45.4333 580.082 45.98 579.749 46.42C579.429 46.86 579.076 47.22 578.689 47.5C578.316 47.78 577.902 48 577.449 48.16C576.996 48.32 576.502 48.4467 575.969 48.54ZM591.076 44.18C590.09 44.18 589.236 43.9733 588.516 43.56C587.796 43.1333 587.236 42.5333 586.836 41.76C586.436 40.9733 586.236 40.04 586.236 38.96C586.236 37.8933 586.436 36.9733 586.836 36.2C587.236 35.4133 587.796 34.8133 588.516 34.4C589.236 33.9733 590.09 33.76 591.076 33.76C592.063 33.76 592.916 33.9733 593.636 34.4C594.37 34.8133 594.93 35.4133 595.316 36.2C595.716 36.9733 595.916 37.8933 595.916 38.96C595.916 40.04 595.716 40.9733 595.316 41.76C594.93 42.5333 594.37 43.1333 593.636 43.56C592.916 43.9733 592.063 44.18 591.076 44.18ZM591.076 42.74C591.983 42.74 592.71 42.42 593.256 41.78C593.803 41.14 594.076 40.2 594.076 38.96C594.076 37.72 593.803 36.7867 593.256 36.16C592.71 35.5333 591.983 35.22 591.076 35.22C590.156 35.22 589.423 35.5333 588.876 36.16C588.343 36.7867 588.076 37.72 588.076 38.96C588.076 40.2 588.343 41.14 588.876 41.78C589.423 42.42 590.156 42.74 591.076 42.74ZM601.94 44.18C600.727 44.18 599.813 43.8533 599.2 43.2C598.6 42.5467 598.3 41.54 598.3 40.18V33.94H600.12V40.14C600.12 41.02 600.3 41.6667 600.66 42.08C601.02 42.4933 601.58 42.7 602.34 42.7C603.167 42.7 603.833 42.4267 604.34 41.88C604.86 41.32 605.12 40.58 605.12 39.66V33.94H606.94V44H605.18V41.78H605.44C605.16 42.54 604.713 43.1333 604.1 43.56C603.487 43.9733 602.767 44.18 601.94 44.18ZM615.274 44V29.28H617.094V36.12H616.834C617.127 35.3467 617.601 34.76 618.254 34.36C618.907 33.96 619.661 33.76 620.514 33.76C621.727 33.76 622.621 34.0867 623.194 34.74C623.781 35.3933 624.074 36.38 624.074 37.7V44H622.254V37.8C622.254 36.9067 622.081 36.26 621.734 35.86C621.387 35.4467 620.821 35.24 620.034 35.24C619.154 35.24 618.441 35.5133 617.894 36.06C617.361 36.6067 617.094 37.3333 617.094 38.24V44H615.274ZM630.891 44.18C630.011 44.18 629.238 43.9733 628.571 43.56C627.905 43.1467 627.385 42.5467 627.011 41.76C626.638 40.9733 626.451 40.04 626.451 38.96C626.451 37.88 626.638 36.9533 627.011 36.18C627.385 35.3933 627.905 34.7933 628.571 34.38C629.238 33.9667 630.011 33.76 630.891 33.76C631.785 33.76 632.558 33.9867 633.211 34.44C633.878 34.88 634.318 35.4867 634.531 36.26H634.291L634.511 33.94H636.271C636.231 34.34 636.191 34.74 636.151 35.14C636.125 35.54 636.111 35.9333 636.111 36.32V44H634.291V41.7H634.511C634.298 42.46 633.858 43.0667 633.191 43.52C632.538 43.96 631.771 44.18 630.891 44.18ZM631.311 42.74C632.218 42.74 632.945 42.42 633.491 41.78C634.038 41.14 634.311 40.2 634.311 38.96C634.311 37.72 634.038 36.7867 633.491 36.16C632.945 35.5333 632.218 35.22 631.311 35.22C630.405 35.22 629.671 35.5333 629.111 36.16C628.565 36.7867 628.291 37.72 628.291 38.96C628.291 40.2 628.565 41.14 629.111 41.78C629.658 42.42 630.391 42.74 631.311 42.74ZM642.023 44L637.723 33.94H639.683L643.183 42.58H642.623L646.183 33.94H648.043L643.723 44H642.023ZM654.17 44.18C652.57 44.18 651.304 43.72 650.37 42.8C649.45 41.88 648.99 40.6133 648.99 39C648.99 37.9333 649.19 37.0133 649.59 36.24C650.004 35.4533 650.57 34.8467 651.29 34.42C652.01 33.98 652.85 33.76 653.81 33.76C654.73 33.76 655.51 33.96 656.15 34.36C656.79 34.7467 657.277 35.3 657.61 36.02C657.944 36.74 658.11 37.5933 658.11 38.58V39.18H650.41V38.1H656.87L656.53 38.36C656.53 37.32 656.297 36.5133 655.83 35.94C655.377 35.3667 654.704 35.08 653.81 35.08C652.837 35.08 652.084 35.42 651.55 36.1C651.017 36.7667 650.75 37.68 650.75 38.84V39.02C650.75 40.2467 651.05 41.1733 651.65 41.8C652.264 42.4267 653.11 42.74 654.19 42.74C654.79 42.74 655.35 42.6533 655.87 42.48C656.39 42.3067 656.89 42.02 657.37 41.62L657.97 42.88C657.517 43.2933 656.95 43.6133 656.27 43.84C655.604 44.0667 654.904 44.18 654.17 44.18ZM420.92 69.18C420.107 69.18 419.347 69.0733 418.64 68.86C417.947 68.6467 417.373 68.34 416.92 67.94L417.5 66.68C417.993 67.0533 418.533 67.34 419.12 67.54C419.72 67.7267 420.333 67.82 420.96 67.82C421.72 67.82 422.293 67.68 422.68 67.4C423.08 67.12 423.28 66.7467 423.28 66.28C423.28 65.9067 423.153 65.6067 422.9 65.38C422.647 65.1533 422.247 64.9867 421.7 64.88L419.8 64.5C418.947 64.3 418.3 63.98 417.86 63.54C417.433 63.0867 417.22 62.5067 417.22 61.8C417.22 61.2133 417.38 60.6933 417.7 60.24C418.02 59.7733 418.473 59.4133 419.06 59.16C419.66 58.8933 420.36 58.76 421.16 58.76C421.893 58.76 422.573 58.8667 423.2 59.08C423.84 59.2933 424.367 59.6067 424.78 60.02L424.18 61.24C423.767 60.88 423.3 60.6067 422.78 60.42C422.273 60.22 421.753 60.12 421.22 60.12C420.447 60.12 419.873 60.2733 419.5 60.58C419.127 60.8733 418.94 61.26 418.94 61.74C418.94 62.1 419.053 62.4 419.28 62.64C419.507 62.8667 419.873 63.04 420.38 63.16L422.28 63.54C423.173 63.7267 423.847 64.0333 424.3 64.46C424.753 64.8867 424.98 65.4533 424.98 66.16C424.98 66.7867 424.807 67.3267 424.46 67.78C424.127 68.2333 423.653 68.58 423.04 68.82C422.44 69.06 421.733 69.18 420.92 69.18ZM431.041 69.18C429.828 69.18 428.915 68.8533 428.301 68.2C427.701 67.5467 427.401 66.54 427.401 65.18V58.94H429.221V65.14C429.221 66.02 429.401 66.6667 429.761 67.08C430.121 67.4933 430.681 67.7 431.441 67.7C432.268 67.7 432.935 67.4267 433.441 66.88C433.961 66.32 434.221 65.58 434.221 64.66V58.94H436.041V69H434.281V66.78H434.541C434.261 67.54 433.815 68.1333 433.201 68.56C432.588 68.9733 431.868 69.18 431.041 69.18ZM443.422 69.18C442.422 69.18 441.555 68.9733 440.822 68.56C440.089 68.1333 439.515 67.5267 439.102 66.74C438.702 65.94 438.502 64.9933 438.502 63.9C438.502 62.82 438.709 61.9 439.122 61.14C439.535 60.3667 440.109 59.78 440.842 59.38C441.575 58.9667 442.435 58.76 443.422 58.76C444.075 58.76 444.709 58.8733 445.322 59.1C445.935 59.3133 446.435 59.6267 446.822 60.04L446.202 61.32C445.815 60.9467 445.389 60.6733 444.922 60.5C444.455 60.3133 443.995 60.22 443.542 60.22C442.555 60.22 441.782 60.54 441.222 61.18C440.662 61.8067 440.382 62.72 440.382 63.92C440.382 65.1333 440.662 66.0667 441.222 66.72C441.782 67.3733 442.555 67.7 443.542 67.7C443.982 67.7 444.435 67.6133 444.902 67.44C445.369 67.2667 445.802 66.9933 446.202 66.62L446.822 67.88C446.422 68.3067 445.909 68.6333 445.282 68.86C444.669 69.0733 444.049 69.18 443.422 69.18ZM453.168 69.18C452.168 69.18 451.301 68.9733 450.568 68.56C449.835 68.1333 449.261 67.5267 448.848 66.74C448.448 65.94 448.248 64.9933 448.248 63.9C448.248 62.82 448.455 61.9 448.868 61.14C449.281 60.3667 449.855 59.78 450.588 59.38C451.321 58.9667 452.181 58.76 453.168 58.76C453.821 58.76 454.455 58.8733 455.068 59.1C455.681 59.3133 456.181 59.6267 456.568 60.04L455.948 61.32C455.561 60.9467 455.135 60.6733 454.668 60.5C454.201 60.3133 453.741 60.22 453.288 60.22C452.301 60.22 451.528 60.54 450.968 61.18C450.408 61.8067 450.128 62.72 450.128 63.92C450.128 65.1333 450.408 66.0667 450.968 66.72C451.528 67.3733 452.301 67.7 453.288 67.7C453.728 67.7 454.181 67.6133 454.648 67.44C455.115 67.2667 455.548 66.9933 455.948 66.62L456.568 67.88C456.168 68.3067 455.655 68.6333 455.028 68.86C454.415 69.0733 453.795 69.18 453.168 69.18ZM463.174 69.18C461.574 69.18 460.308 68.72 459.374 67.8C458.454 66.88 457.994 65.6133 457.994 64C457.994 62.9333 458.194 62.0133 458.594 61.24C459.008 60.4533 459.574 59.8467 460.294 59.42C461.014 58.98 461.854 58.76 462.814 58.76C463.734 58.76 464.514 58.96 465.154 59.36C465.794 59.7467 466.281 60.3 466.614 61.02C466.948 61.74 467.114 62.5933 467.114 63.58V64.18H459.414V63.1H465.874L465.534 63.36C465.534 62.32 465.301 61.5133 464.834 60.94C464.381 60.3667 463.708 60.08 462.814 60.08C461.841 60.08 461.088 60.42 460.554 61.1C460.021 61.7667 459.754 62.68 459.754 63.84V64.02C459.754 65.2467 460.054 66.1733 460.654 66.8C461.268 67.4267 462.114 67.74 463.194 67.74C463.794 67.74 464.354 67.6533 464.874 67.48C465.394 67.3067 465.894 67.02 466.374 66.62L466.974 67.88C466.521 68.2933 465.954 68.6133 465.274 68.84C464.608 69.0667 463.908 69.18 463.174 69.18ZM472.893 69.18C472.079 69.18 471.319 69.0733 470.613 68.86C469.919 68.6467 469.346 68.34 468.893 67.94L469.473 66.68C469.966 67.0533 470.506 67.34 471.093 67.54C471.693 67.7267 472.306 67.82 472.933 67.82C473.693 67.82 474.266 67.68 474.653 67.4C475.053 67.12 475.253 66.7467 475.253 66.28C475.253 65.9067 475.126 65.6067 474.873 65.38C474.619 65.1533 474.219 64.9867 473.673 64.88L471.773 64.5C470.919 64.3 470.273 63.98 469.833 63.54C469.406 63.0867 469.193 62.5067 469.193 61.8C469.193 61.2133 469.353 60.6933 469.673 60.24C469.993 59.7733 470.446 59.4133 471.033 59.16C471.633 58.8933 472.333 58.76 473.133 58.76C473.866 58.76 474.546 58.8667 475.173 59.08C475.813 59.2933 476.339 59.6067 476.753 60.02L476.153 61.24C475.739 60.88 475.273 60.6067 474.753 60.42C474.246 60.22 473.726 60.12 473.193 60.12C472.419 60.12 471.846 60.2733 471.473 60.58C471.099 60.8733 470.913 61.26 470.913 61.74C470.913 62.1 471.026 62.4 471.253 62.64C471.479 62.8667 471.846 63.04 472.353 63.16L474.253 63.54C475.146 63.7267 475.819 64.0333 476.273 64.46C476.726 64.8867 476.953 65.4533 476.953 66.16C476.953 66.7867 476.779 67.3267 476.433 67.78C476.099 68.2333 475.626 68.58 475.013 68.82C474.413 69.06 473.706 69.18 472.893 69.18ZM482.834 69.18C482.021 69.18 481.261 69.0733 480.554 68.86C479.861 68.6467 479.287 68.34 478.834 67.94L479.414 66.68C479.907 67.0533 480.447 67.34 481.034 67.54C481.634 67.7267 482.247 67.82 482.874 67.82C483.634 67.82 484.207 67.68 484.594 67.4C484.994 67.12 485.194 66.7467 485.194 66.28C485.194 65.9067 485.067 65.6067 484.814 65.38C484.561 65.1533 484.161 64.9867 483.614 64.88L481.714 64.5C480.861 64.3 480.214 63.98 479.774 63.54C479.347 63.0867 479.134 62.5067 479.134 61.8C479.134 61.2133 479.294 60.6933 479.614 60.24C479.934 59.7733 480.387 59.4133 480.974 59.16C481.574 58.8933 482.274 58.76 483.074 58.76C483.807 58.76 484.487 58.8667 485.114 59.08C485.754 59.2933 486.281 59.6067 486.694 60.02L486.094 61.24C485.681 60.88 485.214 60.6067 484.694 60.42C484.187 60.22 483.667 60.12 483.134 60.12C482.361 60.12 481.787 60.2733 481.414 60.58C481.041 60.8733 480.854 61.26 480.854 61.74C480.854 62.1 480.967 62.4 481.194 62.64C481.421 62.8667 481.787 63.04 482.294 63.16L484.194 63.54C485.087 63.7267 485.761 64.0333 486.214 64.46C486.667 64.8867 486.894 65.4533 486.894 66.16C486.894 66.7867 486.721 67.3267 486.374 67.78C486.041 68.2333 485.567 68.58 484.954 68.82C484.354 69.06 483.647 69.18 482.834 69.18ZM492.955 69.18C491.742 69.18 490.829 68.8533 490.215 68.2C489.615 67.5467 489.315 66.54 489.315 65.18V58.94H491.135V65.14C491.135 66.02 491.315 66.6667 491.675 67.08C492.035 67.4933 492.595 67.7 493.355 67.7C494.182 67.7 494.849 67.4267 495.355 66.88C495.875 66.32 496.135 65.58 496.135 64.66V58.94H497.955V69H496.195V66.78H496.455C496.175 67.54 495.729 68.1333 495.115 68.56C494.502 68.9733 493.782 69.18 492.955 69.18ZM501.576 69V60.34H499.616V58.94H502.076L501.576 59.4V57.78C501.576 56.6067 501.869 55.72 502.456 55.12C503.043 54.5067 503.896 54.2 505.016 54.2C505.283 54.2 505.563 54.22 505.856 54.26C506.163 54.3 506.416 54.3667 506.616 54.46V55.94C506.456 55.8733 506.256 55.82 506.016 55.78C505.776 55.74 505.543 55.72 505.316 55.72C504.916 55.72 504.569 55.8 504.276 55.96C503.983 56.12 503.763 56.36 503.616 56.68C503.469 56.9867 503.396 57.3933 503.396 57.9V59.32L503.116 58.94H506.176V60.34H503.396V69H501.576ZM511.491 69.18C510.277 69.18 509.364 68.8533 508.751 68.2C508.151 67.5467 507.851 66.54 507.851 65.18V58.94H509.671V65.14C509.671 66.02 509.851 66.6667 510.211 67.08C510.571 67.4933 511.131 67.7 511.891 67.7C512.717 67.7 513.384 67.4267 513.891 66.88C514.411 66.32 514.671 65.58 514.671 64.66V58.94H516.491V69H514.731V66.78H514.991C514.711 67.54 514.264 68.1333 513.651 68.56C513.037 68.9733 512.317 69.18 511.491 69.18ZM519.551 69V54.28H521.371V69H519.551ZM524.415 69V54.28H526.235V69H524.415ZM528.938 73.54L528.518 72.06C529.144 71.9133 529.664 71.74 530.078 71.54C530.491 71.3533 530.838 71.1067 531.118 70.8C531.398 70.4933 531.644 70.1067 531.858 69.64L532.358 68.44L532.318 69.2L527.938 58.94H529.898L533.398 67.56H532.878L536.378 58.94H538.258L533.638 69.78C533.358 70.4333 533.051 70.98 532.718 71.42C532.398 71.86 532.044 72.22 531.658 72.5C531.284 72.78 530.871 73 530.418 73.16C529.964 73.32 529.471 73.4467 528.938 73.54ZM549.075 69.18C548.195 69.18 547.422 68.9733 546.755 68.56C546.088 68.1467 545.568 67.5467 545.195 66.76C544.822 65.9733 544.635 65.04 544.635 63.96C544.635 62.88 544.822 61.9533 545.195 61.18C545.568 60.3933 546.088 59.7933 546.755 59.38C547.422 58.9667 548.195 58.76 549.075 58.76C549.955 58.76 550.722 58.98 551.375 59.42C552.042 59.86 552.488 60.4667 552.715 61.24H552.475V54.28H554.295V69H552.495V66.66H552.715C552.502 67.4467 552.062 68.0667 551.395 68.52C550.742 68.96 549.968 69.18 549.075 69.18ZM549.495 67.74C550.402 67.74 551.128 67.42 551.675 66.78C552.235 66.14 552.515 65.2 552.515 63.96C552.515 62.72 552.235 61.7867 551.675 61.16C551.128 60.5333 550.402 60.22 549.495 60.22C548.588 60.22 547.855 60.5333 547.295 61.16C546.748 61.7867 546.475 62.72 546.475 63.96C546.475 65.2 546.748 66.14 547.295 66.78C547.855 67.42 548.588 67.74 549.495 67.74ZM561.584 69.18C560.598 69.18 559.744 68.9733 559.024 68.56C558.304 68.1333 557.744 67.5333 557.344 66.76C556.944 65.9733 556.744 65.04 556.744 63.96C556.744 62.8933 556.944 61.9733 557.344 61.2C557.744 60.4133 558.304 59.8133 559.024 59.4C559.744 58.9733 560.598 58.76 561.584 58.76C562.571 58.76 563.424 58.9733 564.144 59.4C564.878 59.8133 565.438 60.4133 565.824 61.2C566.224 61.9733 566.424 62.8933 566.424 63.96C566.424 65.04 566.224 65.9733 565.824 66.76C565.438 67.5333 564.878 68.1333 564.144 68.56C563.424 68.9733 562.571 69.18 561.584 69.18ZM561.584 67.74C562.491 67.74 563.218 67.42 563.764 66.78C564.311 66.14 564.584 65.2 564.584 63.96C564.584 62.72 564.311 61.7867 563.764 61.16C563.218 60.5333 562.491 60.22 561.584 60.22C560.664 60.22 559.931 60.5333 559.384 61.16C558.851 61.7867 558.584 62.72 558.584 63.96C558.584 65.2 558.851 66.14 559.384 66.78C559.931 67.42 560.664 67.74 561.584 67.74ZM571.431 69L567.671 58.94H569.571L572.611 67.56H572.091L575.211 58.94H576.691L579.791 67.56H579.291L582.351 58.94H584.171L580.391 69H578.671L575.471 60.24H576.351L573.171 69H571.431ZM586.153 69V61.32C586.153 60.9333 586.139 60.54 586.113 60.14C586.086 59.74 586.046 59.34 585.993 58.94H587.753L587.953 61.1H587.713C588.019 60.34 588.493 59.76 589.133 59.36C589.773 58.96 590.519 58.76 591.373 58.76C592.559 58.76 593.453 59.0867 594.053 59.74C594.653 60.38 594.953 61.38 594.953 62.74V69H593.133V62.84C593.133 61.92 592.953 61.26 592.593 60.86C592.233 60.4467 591.673 60.24 590.913 60.24C590.006 60.24 589.286 60.5133 588.753 61.06C588.233 61.6067 587.973 62.3467 587.973 63.28V69H586.153ZM597.93 69V54.28H599.75V69H597.93ZM607.033 69.18C606.047 69.18 605.193 68.9733 604.473 68.56C603.753 68.1333 603.193 67.5333 602.793 66.76C602.393 65.9733 602.193 65.04 602.193 63.96C602.193 62.8933 602.393 61.9733 602.793 61.2C603.193 60.4133 603.753 59.8133 604.473 59.4C605.193 58.9733 606.047 58.76 607.033 58.76C608.02 58.76 608.873 58.9733 609.593 59.4C610.327 59.8133 610.887 60.4133 611.273 61.2C611.673 61.9733 611.873 62.8933 611.873 63.96C611.873 65.04 611.673 65.9733 611.273 66.76C610.887 67.5333 610.327 68.1333 609.593 68.56C608.873 68.9733 608.02 69.18 607.033 69.18ZM607.033 67.74C607.94 67.74 608.667 67.42 609.213 66.78C609.76 66.14 610.033 65.2 610.033 63.96C610.033 62.72 609.76 61.7867 609.213 61.16C608.667 60.5333 607.94 60.22 607.033 60.22C606.113 60.22 605.38 60.5333 604.833 61.16C604.3 61.7867 604.033 62.72 604.033 63.96C604.033 65.2 604.3 66.14 604.833 66.78C605.38 67.42 606.113 67.74 607.033 67.74ZM618.157 69.18C617.277 69.18 616.504 68.9733 615.837 68.56C615.17 68.1467 614.65 67.5467 614.277 66.76C613.904 65.9733 613.717 65.04 613.717 63.96C613.717 62.88 613.904 61.9533 614.277 61.18C614.65 60.3933 615.17 59.7933 615.837 59.38C616.504 58.9667 617.277 58.76 618.157 58.76C619.05 58.76 619.824 58.9867 620.477 59.44C621.144 59.88 621.584 60.4867 621.797 61.26H621.557L621.777 58.94H623.537C623.497 59.34 623.457 59.74 623.417 60.14C623.39 60.54 623.377 60.9333 623.377 61.32V69H621.557V66.7H621.777C621.564 67.46 621.124 68.0667 620.457 68.52C619.804 68.96 619.037 69.18 618.157 69.18ZM618.577 67.74C619.484 67.74 620.21 67.42 620.757 66.78C621.304 66.14 621.577 65.2 621.577 63.96C621.577 62.72 621.304 61.7867 620.757 61.16C620.21 60.5333 619.484 60.22 618.577 60.22C617.67 60.22 616.937 60.5333 616.377 61.16C615.83 61.7867 615.557 62.72 615.557 63.96C615.557 65.2 615.83 66.14 616.377 66.78C616.924 67.42 617.657 67.74 618.577 67.74ZM630.266 69.18C629.386 69.18 628.613 68.9733 627.946 68.56C627.28 68.1467 626.76 67.5467 626.386 66.76C626.013 65.9733 625.826 65.04 625.826 63.96C625.826 62.88 626.013 61.9533 626.386 61.18C626.76 60.3933 627.28 59.7933 627.946 59.38C628.613 58.9667 629.386 58.76 630.266 58.76C631.146 58.76 631.913 58.98 632.566 59.42C633.233 59.86 633.68 60.4667 633.906 61.24H633.666V54.28H635.486V69H633.686V66.66H633.906C633.693 67.4467 633.253 68.0667 632.586 68.52C631.933 68.96 631.16 69.18 630.266 69.18ZM630.686 67.74C631.593 67.74 632.32 67.42 632.866 66.78C633.426 66.14 633.706 65.2 633.706 63.96C633.706 62.72 633.426 61.7867 632.866 61.16C632.32 60.5333 631.593 60.22 630.686 60.22C629.78 60.22 629.046 60.5333 628.486 61.16C627.94 61.7867 627.666 62.72 627.666 63.96C627.666 65.2 627.94 66.14 628.486 66.78C629.046 67.42 629.78 67.74 630.686 67.74ZM643.116 69.18C641.516 69.18 640.249 68.72 639.316 67.8C638.396 66.88 637.936 65.6133 637.936 64C637.936 62.9333 638.136 62.0133 638.536 61.24C638.949 60.4533 639.516 59.8467 640.236 59.42C640.956 58.98 641.796 58.76 642.756 58.76C643.676 58.76 644.456 58.96 645.096 59.36C645.736 59.7467 646.222 60.3 646.556 61.02C646.889 61.74 647.056 62.5933 647.056 63.58V64.18H639.356V63.1H645.816L645.476 63.36C645.476 62.32 645.242 61.5133 644.776 60.94C644.322 60.3667 643.649 60.08 642.756 60.08C641.782 60.08 641.029 60.42 640.496 61.1C639.962 61.7667 639.696 62.68 639.696 63.84V64.02C639.696 65.2467 639.996 66.1733 640.596 66.8C641.209 67.4267 642.056 67.74 643.136 67.74C643.736 67.74 644.296 67.6533 644.816 67.48C645.336 67.3067 645.836 67.02 646.316 66.62L646.916 67.88C646.462 68.2933 645.896 68.6133 645.216 68.84C644.549 69.0667 643.849 69.18 643.116 69.18ZM653.274 69.18C652.394 69.18 651.621 68.9733 650.954 68.56C650.287 68.1467 649.767 67.5467 649.394 66.76C649.021 65.9733 648.834 65.04 648.834 63.96C648.834 62.88 649.021 61.9533 649.394 61.18C649.767 60.3933 650.287 59.7933 650.954 59.38C651.621 58.9667 652.394 58.76 653.274 58.76C654.154 58.76 654.921 58.98 655.574 59.42C656.241 59.86 656.687 60.4667 656.914 61.24H656.674V54.28H658.494V69H656.694V66.66H656.914C656.701 67.4467 656.261 68.0667 655.594 68.52C654.941 68.96 654.167 69.18 653.274 69.18ZM653.694 67.74C654.601 67.74 655.327 67.42 655.874 66.78C656.434 66.14 656.714 65.2 656.714 63.96C656.714 62.72 656.434 61.7867 655.874 61.16C655.327 60.5333 654.601 60.22 653.694 60.22C652.787 60.22 652.054 60.5333 651.494 61.16C650.947 61.7867 650.674 62.72 650.674 63.96C650.674 65.2 650.947 66.14 651.494 66.78C652.054 67.42 652.787 67.74 653.694 67.74ZM417.18 98.54L416.76 97.06C417.387 96.9133 417.907 96.74 418.32 96.54C418.733 96.3533 419.08 96.1067 419.36 95.8C419.64 95.4933 419.887 95.1067 420.1 94.64L420.6 93.44L420.56 94.2L416.18 83.94H418.14L421.64 92.56H421.12L424.62 83.94H426.5L421.88 94.78C421.6 95.4333 421.293 95.98 420.96 96.42C420.64 96.86 420.287 97.22 419.9 97.5C419.527 97.78 419.113 98 418.66 98.16C418.207 98.32 417.713 98.4467 417.18 98.54ZM432.287 94.18C431.301 94.18 430.447 93.9733 429.727 93.56C429.007 93.1333 428.447 92.5333 428.047 91.76C427.647 90.9733 427.447 90.04 427.447 88.96C427.447 87.8933 427.647 86.9733 428.047 86.2C428.447 85.4133 429.007 84.8133 429.727 84.4C430.447 83.9733 431.301 83.76 432.287 83.76C433.274 83.76 434.127 83.9733 434.847 84.4C435.581 84.8133 436.141 85.4133 436.527 86.2C436.927 86.9733 437.127 87.8933 437.127 88.96C437.127 90.04 436.927 90.9733 436.527 91.76C436.141 92.5333 435.581 93.1333 434.847 93.56C434.127 93.9733 433.274 94.18 432.287 94.18ZM432.287 92.74C433.194 92.74 433.921 92.42 434.467 91.78C435.014 91.14 435.287 90.2 435.287 88.96C435.287 87.72 435.014 86.7867 434.467 86.16C433.921 85.5333 433.194 85.22 432.287 85.22C431.367 85.22 430.634 85.5333 430.087 86.16C429.554 86.7867 429.287 87.72 429.287 88.96C429.287 90.2 429.554 91.14 430.087 91.78C430.634 92.42 431.367 92.74 432.287 92.74ZM443.151 94.18C441.937 94.18 441.024 93.8533 440.411 93.2C439.811 92.5467 439.511 91.54 439.511 90.18V83.94H441.331V90.14C441.331 91.02 441.511 91.6667 441.871 92.08C442.231 92.4933 442.791 92.7 443.551 92.7C444.377 92.7 445.044 92.4267 445.551 91.88C446.071 91.32 446.331 90.58 446.331 89.66V83.94H448.151V94H446.391V91.78H446.651C446.371 92.54 445.924 93.1333 445.311 93.56C444.697 93.9733 443.977 94.18 443.151 94.18ZM451.191 94V86.4C451.191 86 451.178 85.5933 451.151 85.18C451.138 84.7533 451.105 84.34 451.051 83.94H452.811L453.031 86.46L452.731 86.48C452.865 85.8667 453.091 85.36 453.411 84.96C453.745 84.5467 454.138 84.2467 454.591 84.06C455.058 83.86 455.538 83.76 456.031 83.76C456.245 83.76 456.425 83.7667 456.571 83.78C456.718 83.7933 456.865 83.8267 457.011 83.88L456.971 85.5C456.771 85.42 456.585 85.3733 456.411 85.36C456.251 85.3333 456.051 85.32 455.811 85.32C455.225 85.32 454.718 85.4533 454.291 85.72C453.878 85.9867 453.558 86.34 453.331 86.78C453.118 87.22 453.011 87.6933 453.011 88.2V94H451.191ZM466.847 94L462.547 83.94H464.507L468.007 92.58H467.447L471.007 83.94H472.867L468.547 94H466.847ZM474.571 94V83.94H476.391V94H474.571ZM474.411 81.74V79.78H476.571V81.74H474.411ZM483.274 94.18C482.394 94.18 481.621 93.9733 480.954 93.56C480.287 93.1467 479.767 92.5467 479.394 91.76C479.021 90.9733 478.834 90.04 478.834 88.96C478.834 87.88 479.021 86.9533 479.394 86.18C479.767 85.3933 480.287 84.7933 480.954 84.38C481.621 83.9667 482.394 83.76 483.274 83.76C484.154 83.76 484.921 83.98 485.574 84.42C486.241 84.86 486.687 85.4667 486.914 86.24H486.674V79.28H488.494V94H486.694V91.66H486.914C486.701 92.4467 486.261 93.0667 485.594 93.52C484.941 93.96 484.167 94.18 483.274 94.18ZM483.694 92.74C484.601 92.74 485.327 92.42 485.874 91.78C486.434 91.14 486.714 90.2 486.714 88.96C486.714 87.72 486.434 86.7867 485.874 86.16C485.327 85.5333 484.601 85.22 483.694 85.22C482.787 85.22 482.054 85.5333 481.494 86.16C480.947 86.7867 480.674 87.72 480.674 88.96C480.674 90.2 480.947 91.14 481.494 91.78C482.054 92.42 482.787 92.74 483.694 92.74ZM496.123 94.18C494.523 94.18 493.257 93.72 492.323 92.8C491.403 91.88 490.943 90.6133 490.943 89C490.943 87.9333 491.143 87.0133 491.543 86.24C491.957 85.4533 492.523 84.8467 493.243 84.42C493.963 83.98 494.803 83.76 495.763 83.76C496.683 83.76 497.463 83.96 498.103 84.36C498.743 84.7467 499.23 85.3 499.563 86.02C499.897 86.74 500.063 87.5933 500.063 88.58V89.18H492.363V88.1H498.823L498.483 88.36C498.483 87.32 498.25 86.5133 497.783 85.94C497.33 85.3667 496.657 85.08 495.763 85.08C494.79 85.08 494.037 85.42 493.503 86.1C492.97 86.7667 492.703 87.68 492.703 88.84V89.02C492.703 90.2467 493.003 91.1733 493.603 91.8C494.217 92.4267 495.063 92.74 496.143 92.74C496.743 92.74 497.303 92.6533 497.823 92.48C498.343 92.3067 498.843 92.02 499.323 91.62L499.923 92.88C499.47 93.2933 498.903 93.6133 498.223 93.84C497.557 94.0667 496.857 94.18 496.123 94.18ZM506.682 94.18C505.695 94.18 504.842 93.9733 504.122 93.56C503.402 93.1333 502.842 92.5333 502.442 91.76C502.042 90.9733 501.842 90.04 501.842 88.96C501.842 87.8933 502.042 86.9733 502.442 86.2C502.842 85.4133 503.402 84.8133 504.122 84.4C504.842 83.9733 505.695 83.76 506.682 83.76C507.669 83.76 508.522 83.9733 509.242 84.4C509.975 84.8133 510.535 85.4133 510.922 86.2C511.322 86.9733 511.522 87.8933 511.522 88.96C511.522 90.04 511.322 90.9733 510.922 91.76C510.535 92.5333 509.975 93.1333 509.242 93.56C508.522 93.9733 507.669 94.18 506.682 94.18ZM506.682 92.74C507.589 92.74 508.315 92.42 508.862 91.78C509.409 91.14 509.682 90.2 509.682 88.96C509.682 87.72 509.409 86.7867 508.862 86.16C508.315 85.5333 507.589 85.22 506.682 85.22C505.762 85.22 505.029 85.5333 504.482 86.16C503.949 86.7867 503.682 87.72 503.682 88.96C503.682 90.2 503.949 91.14 504.482 91.78C505.029 92.42 505.762 92.74 506.682 92.74ZM519.239 98.32V86.32C519.239 85.9333 519.225 85.54 519.199 85.14C519.172 84.74 519.132 84.34 519.079 83.94H520.839L521.059 86.26H520.839C521.039 85.4867 521.465 84.88 522.119 84.44C522.772 83.9867 523.552 83.76 524.459 83.76C525.352 83.76 526.132 83.9667 526.799 84.38C527.465 84.7933 527.979 85.3933 528.339 86.18C528.712 86.9533 528.899 87.88 528.899 88.96C528.899 90.04 528.712 90.9733 528.339 91.76C527.979 92.5467 527.465 93.1467 526.799 93.56C526.132 93.9733 525.352 94.18 524.459 94.18C523.565 94.18 522.792 93.96 522.139 93.52C521.499 93.0667 521.065 92.46 520.839 91.7H521.059V98.32H519.239ZM524.039 92.74C524.959 92.74 525.692 92.42 526.239 91.78C526.785 91.14 527.059 90.2 527.059 88.96C527.059 87.72 526.785 86.7867 526.239 86.16C525.692 85.5333 524.959 85.22 524.039 85.22C523.119 85.22 522.385 85.5333 521.839 86.16C521.305 86.7867 521.039 87.72 521.039 88.96C521.039 90.2 521.305 91.14 521.839 91.78C522.385 92.42 523.119 92.74 524.039 92.74ZM535.588 94.18C534.601 94.18 533.748 93.9733 533.028 93.56C532.308 93.1333 531.748 92.5333 531.348 91.76C530.948 90.9733 530.748 90.04 530.748 88.96C530.748 87.8933 530.948 86.9733 531.348 86.2C531.748 85.4133 532.308 84.8133 533.028 84.4C533.748 83.9733 534.601 83.76 535.588 83.76C536.575 83.76 537.428 83.9733 538.148 84.4C538.881 84.8133 539.441 85.4133 539.828 86.2C540.228 86.9733 540.428 87.8933 540.428 88.96C540.428 90.04 540.228 90.9733 539.828 91.76C539.441 92.5333 538.881 93.1333 538.148 93.56C537.428 93.9733 536.575 94.18 535.588 94.18ZM535.588 92.74C536.495 92.74 537.221 92.42 537.768 91.78C538.315 91.14 538.588 90.2 538.588 88.96C538.588 87.72 538.315 86.7867 537.768 86.16C537.221 85.5333 536.495 85.22 535.588 85.22C534.668 85.22 533.935 85.5333 533.388 86.16C532.855 86.7867 532.588 87.72 532.588 88.96C532.588 90.2 532.855 91.14 533.388 91.78C533.935 92.42 534.668 92.74 535.588 92.74ZM546.712 94.18C545.832 94.18 545.058 93.9733 544.392 93.56C543.725 93.1467 543.205 92.5467 542.832 91.76C542.458 90.9733 542.272 90.04 542.272 88.96C542.272 87.88 542.458 86.9533 542.832 86.18C543.205 85.3933 543.725 84.7933 544.392 84.38C545.058 83.9667 545.832 83.76 546.712 83.76C547.592 83.76 548.358 83.98 549.012 84.42C549.678 84.86 550.125 85.4667 550.352 86.24H550.112V79.28H551.932V94H550.132V91.66H550.352C550.138 92.4467 549.698 93.0667 549.032 93.52C548.378 93.96 547.605 94.18 546.712 94.18ZM547.132 92.74C548.038 92.74 548.765 92.42 549.312 91.78C549.872 91.14 550.152 90.2 550.152 88.96C550.152 87.72 549.872 86.7867 549.312 86.16C548.765 85.5333 548.038 85.22 547.132 85.22C546.225 85.22 545.492 85.5333 544.932 86.16C544.385 86.7867 544.112 87.72 544.112 88.96C544.112 90.2 544.385 91.14 544.932 91.78C545.492 92.42 546.225 92.74 547.132 92.74ZM559.301 94.18C558.301 94.18 557.434 93.9733 556.701 93.56C555.968 93.1333 555.394 92.5267 554.981 91.74C554.581 90.94 554.381 89.9933 554.381 88.9C554.381 87.82 554.588 86.9 555.001 86.14C555.414 85.3667 555.988 84.78 556.721 84.38C557.454 83.9667 558.314 83.76 559.301 83.76C559.954 83.76 560.588 83.8733 561.201 84.1C561.814 84.3133 562.314 84.6267 562.701 85.04L562.081 86.32C561.694 85.9467 561.268 85.6733 560.801 85.5C560.334 85.3133 559.874 85.22 559.421 85.22C558.434 85.22 557.661 85.54 557.101 86.18C556.541 86.8067 556.261 87.72 556.261 88.92C556.261 90.1333 556.541 91.0667 557.101 91.72C557.661 92.3733 558.434 92.7 559.421 92.7C559.861 92.7 560.314 92.6133 560.781 92.44C561.248 92.2667 561.681 91.9933 562.081 91.62L562.701 92.88C562.301 93.3067 561.788 93.6333 561.161 93.86C560.548 94.0733 559.928 94.18 559.301 94.18ZM568.684 94.18C567.804 94.18 567.031 93.9733 566.364 93.56C565.698 93.1467 565.178 92.5467 564.804 91.76C564.431 90.9733 564.244 90.04 564.244 88.96C564.244 87.88 564.431 86.9533 564.804 86.18C565.178 85.3933 565.698 84.7933 566.364 84.38C567.031 83.9667 567.804 83.76 568.684 83.76C569.578 83.76 570.351 83.9867 571.004 84.44C571.671 84.88 572.111 85.4867 572.324 86.26H572.084L572.304 83.94H574.064C574.024 84.34 573.984 84.74 573.944 85.14C573.918 85.54 573.904 85.9333 573.904 86.32V94H572.084V91.7H572.304C572.091 92.46 571.651 93.0667 570.984 93.52C570.331 93.96 569.564 94.18 568.684 94.18ZM569.104 92.74C570.011 92.74 570.738 92.42 571.284 91.78C571.831 91.14 572.104 90.2 572.104 88.96C572.104 87.72 571.831 86.7867 571.284 86.16C570.738 85.5333 570.011 85.22 569.104 85.22C568.198 85.22 567.464 85.5333 566.904 86.16C566.358 86.7867 566.084 87.72 566.084 88.96C566.084 90.2 566.358 91.14 566.904 91.78C567.451 92.42 568.184 92.74 569.104 92.74ZM580.354 94.18C579.54 94.18 578.78 94.0733 578.074 93.86C577.38 93.6467 576.807 93.34 576.354 92.94L576.934 91.68C577.427 92.0533 577.967 92.34 578.554 92.54C579.154 92.7267 579.767 92.82 580.394 92.82C581.154 92.82 581.727 92.68 582.114 92.4C582.514 92.12 582.714 91.7467 582.714 91.28C582.714 90.9067 582.587 90.6067 582.334 90.38C582.08 90.1533 581.68 89.9867 581.134 89.88L579.234 89.5C578.38 89.3 577.734 88.98 577.294 88.54C576.867 88.0867 576.654 87.5067 576.654 86.8C576.654 86.2133 576.814 85.6933 577.134 85.24C577.454 84.7733 577.907 84.4133 578.494 84.16C579.094 83.8933 579.794 83.76 580.594 83.76C581.327 83.76 582.007 83.8667 582.634 84.08C583.274 84.2933 583.8 84.6067 584.214 85.02L583.614 86.24C583.2 85.88 582.734 85.6067 582.214 85.42C581.707 85.22 581.187 85.12 580.654 85.12C579.88 85.12 579.307 85.2733 578.934 85.58C578.56 85.8733 578.374 86.26 578.374 86.74C578.374 87.1 578.487 87.4 578.714 87.64C578.94 87.8667 579.307 88.04 579.814 88.16L581.714 88.54C582.607 88.7267 583.28 89.0333 583.734 89.46C584.187 89.8867 584.414 90.4533 584.414 91.16C584.414 91.7867 584.24 92.3267 583.894 92.78C583.56 93.2333 583.087 93.58 582.474 93.82C581.874 94.06 581.167 94.18 580.354 94.18ZM590.557 94.18C589.504 94.18 588.704 93.8933 588.157 93.32C587.624 92.7333 587.357 91.8533 587.357 90.68V85.34H585.397V83.94H587.357V81.24L589.177 80.74V83.94H592.017V85.34H589.177V90.52C589.177 91.2933 589.311 91.8467 589.577 92.18C589.857 92.5 590.257 92.66 590.777 92.66C591.044 92.66 591.271 92.64 591.457 92.6C591.657 92.5467 591.837 92.4867 591.997 92.42V93.92C591.797 94 591.564 94.06 591.297 94.1C591.044 94.1533 590.797 94.18 590.557 94.18ZM594.186 90.2L593.626 79.9H595.886L595.306 90.2H594.186ZM593.646 94V91.78H595.866V94H593.646Z" fill="#292D32"/>
<rect x="346.5" y="0.5" width="351" height="122" rx="9.5" stroke="#2563EB" stroke-opacity="0.2"/>
<rect y="407" width="187" height="159" rx="10" fill="white"/>
<path d="M100.94 432.254C103.94 434.339 106.01 437.654 106.43 441.479" stroke="#2563EB" stroke-width="2.25" stroke-linecap="round" stroke-linejoin="round"/>
<path d="M80.7354 441.555C81.1254 437.745 83.1654 434.43 86.1354 432.33" stroke="#2563EB" stroke-width="2.25" stroke-linecap="round" stroke-linejoin="round"/>
<path d="M87.7847 454.408C89.5247 455.293 91.5047 455.788 93.5897 455.788C95.5997 455.788 97.4897 455.338 99.1847 454.513" stroke="#2563EB" stroke-width="2.25" stroke-linecap="round" stroke-linejoin="round"/>
<path d="M93.5894 434.551C95.8925 434.551 97.7594 432.684 97.7594 430.381C97.7594 428.078 95.8925 426.211 93.5894 426.211C91.2864 426.211 89.4194 428.078 89.4194 430.381C89.4194 432.684 91.2864 434.551 93.5894 434.551Z" stroke="#2563EB" stroke-width="2.25" stroke-linecap="round" stroke-linejoin="round"/>
<path d="M82.7447 452.879C85.0477 452.879 86.9147 451.012 86.9147 448.709C86.9147 446.406 85.0477 444.539 82.7447 444.539C80.4417 444.539 78.5747 446.406 78.5747 448.709C78.5747 451.012 80.4417 452.879 82.7447 452.879Z" stroke="#2563EB" stroke-width="2.25" stroke-linecap="round" stroke-linejoin="round"/>
<path d="M104.255 452.879C106.558 452.879 108.425 451.012 108.425 448.709C108.425 446.406 106.558 444.539 104.255 444.539C101.952 444.539 100.085 446.406 100.085 448.709C100.085 451.012 101.952 452.879 104.255 452.879Z" stroke="#2563EB" stroke-width="2.25" stroke-linecap="round" stroke-linejoin="round"/>
<path d="M49.3917 495.18C48.2584 495.18 47.2384 495.033 46.3317 494.74C45.4251 494.447 44.6384 494.033 43.9717 493.5L44.6117 492.02C45.0784 492.367 45.5517 492.66 46.0317 492.9C46.5117 493.127 47.0251 493.3 47.5717 493.42C48.1317 493.527 48.7384 493.58 49.3917 493.58C50.5517 493.58 51.4051 493.373 51.9517 492.96C52.5117 492.533 52.7917 491.973 52.7917 491.28C52.7917 490.68 52.5984 490.22 52.2117 489.9C51.8251 489.58 51.1517 489.327 50.1917 489.14L48.0517 488.7C46.7584 488.433 45.7917 488 45.1517 487.4C44.5251 486.787 44.2117 485.96 44.2117 484.92C44.2117 484.08 44.4317 483.347 44.8717 482.72C45.3251 482.08 45.9451 481.587 46.7317 481.24C47.5317 480.893 48.4651 480.72 49.5317 480.72C50.5184 480.72 51.4317 480.867 52.2717 481.16C53.1117 481.453 53.8184 481.887 54.3917 482.46L53.7517 483.88C53.1517 483.333 52.5051 482.94 51.8117 482.7C51.1317 482.447 50.3584 482.32 49.4917 482.32C48.4384 482.32 47.6051 482.547 46.9917 483C46.3784 483.453 46.0717 484.067 46.0717 484.84C46.0717 485.453 46.2651 485.94 46.6517 486.3C47.0384 486.647 47.6784 486.913 48.5717 487.1L50.7117 487.52C52.0717 487.787 53.0651 488.207 53.6917 488.78C54.3317 489.353 54.6517 490.147 54.6517 491.16C54.6517 491.96 54.4384 492.667 54.0117 493.28C53.5851 493.88 52.9784 494.347 52.1917 494.68C51.4051 495.013 50.4717 495.18 49.3917 495.18ZM57.0903 495V480.28H58.9103V487.12H58.6503C58.9436 486.347 59.417 485.76 60.0703 485.36C60.7236 484.96 61.477 484.76 62.3303 484.76C63.5436 484.76 64.437 485.087 65.0103 485.74C65.597 486.393 65.8903 487.38 65.8903 488.7V495H64.0703V488.8C64.0703 487.907 63.897 487.26 63.5503 486.86C63.2036 486.447 62.637 486.24 61.8503 486.24C60.9703 486.24 60.257 486.513 59.7103 487.06C59.177 487.607 58.9103 488.333 58.9103 489.24V495H57.0903ZM72.7077 495.18C71.8277 495.18 71.0543 494.973 70.3877 494.56C69.721 494.147 69.201 493.547 68.8277 492.76C68.4543 491.973 68.2677 491.04 68.2677 489.96C68.2677 488.88 68.4543 487.953 68.8277 487.18C69.201 486.393 69.721 485.793 70.3877 485.38C71.0543 484.967 71.8277 484.76 72.7077 484.76C73.601 484.76 74.3743 484.987 75.0277 485.44C75.6943 485.88 76.1343 486.487 76.3477 487.26H76.1077L76.3277 484.94H78.0877C78.0477 485.34 78.0077 485.74 77.9677 486.14C77.941 486.54 77.9277 486.933 77.9277 487.32V495H76.1077V492.7H76.3277C76.1143 493.46 75.6743 494.067 75.0077 494.52C74.3543 494.96 73.5877 495.18 72.7077 495.18ZM73.1277 493.74C74.0343 493.74 74.761 493.42 75.3077 492.78C75.8543 492.14 76.1277 491.2 76.1277 489.96C76.1277 488.72 75.8543 487.787 75.3077 487.16C74.761 486.533 74.0343 486.22 73.1277 486.22C72.221 486.22 71.4877 486.533 70.9277 487.16C70.381 487.787 70.1077 488.72 70.1077 489.96C70.1077 491.2 70.381 492.14 70.9277 492.78C71.4743 493.42 72.2077 493.74 73.1277 493.74ZM80.957 495V487.4C80.957 487 80.9437 486.593 80.917 486.18C80.9037 485.753 80.8704 485.34 80.817 484.94H82.577L82.797 487.46L82.497 487.48C82.6304 486.867 82.857 486.36 83.177 485.96C83.5104 485.547 83.9037 485.247 84.357 485.06C84.8237 484.86 85.3037 484.76 85.797 484.76C86.0104 484.76 86.1904 484.767 86.337 484.78C86.4837 484.793 86.6304 484.827 86.777 484.88L86.737 486.5C86.537 486.42 86.3504 486.373 86.177 486.36C86.017 486.333 85.817 486.32 85.577 486.32C84.9904 486.32 84.4837 486.453 84.057 486.72C83.6437 486.987 83.3237 487.34 83.097 487.78C82.8837 488.22 82.777 488.693 82.777 489.2V495H80.957ZM92.8227 495.18C91.2227 495.18 89.956 494.72 89.0227 493.8C88.1027 492.88 87.6427 491.613 87.6427 490C87.6427 488.933 87.8427 488.013 88.2427 487.24C88.656 486.453 89.2227 485.847 89.9427 485.42C90.6627 484.98 91.5027 484.76 92.4627 484.76C93.3827 484.76 94.1627 484.96 94.8027 485.36C95.4427 485.747 95.9293 486.3 96.2627 487.02C96.596 487.74 96.7627 488.593 96.7627 489.58V490.18H89.0627V489.1H95.5227L95.1827 489.36C95.1827 488.32 94.9493 487.513 94.4827 486.94C94.0293 486.367 93.356 486.08 92.4627 486.08C91.4893 486.08 90.736 486.42 90.2027 487.1C89.6693 487.767 89.4027 488.68 89.4027 489.84V490.02C89.4027 491.247 89.7027 492.173 90.3027 492.8C90.916 493.427 91.7627 493.74 92.8427 493.74C93.4427 493.74 94.0027 493.653 94.5227 493.48C95.0427 493.307 95.5427 493.02 96.0227 492.62L96.6227 493.88C96.1693 494.293 95.6027 494.613 94.9227 494.84C94.256 495.067 93.556 495.18 92.8227 495.18ZM104.075 499.54L103.655 498.06C104.281 497.913 104.801 497.74 105.215 497.54C105.628 497.353 105.975 497.107 106.255 496.8C106.535 496.493 106.781 496.107 106.995 495.64L107.495 494.44L107.455 495.2L103.075 484.94H105.035L108.535 493.56H108.015L111.515 484.94H113.395L108.775 495.78C108.495 496.433 108.188 496.98 107.855 497.42C107.535 497.86 107.181 498.22 106.795 498.5C106.421 498.78 106.008 499 105.555 499.16C105.101 499.32 104.608 499.447 104.075 499.54ZM119.182 495.18C118.195 495.18 117.342 494.973 116.622 494.56C115.902 494.133 115.342 493.533 114.942 492.76C114.542 491.973 114.342 491.04 114.342 489.96C114.342 488.893 114.542 487.973 114.942 487.2C115.342 486.413 115.902 485.813 116.622 485.4C117.342 484.973 118.195 484.76 119.182 484.76C120.169 484.76 121.022 484.973 121.742 485.4C122.475 485.813 123.035 486.413 123.422 487.2C123.822 487.973 124.022 488.893 124.022 489.96C124.022 491.04 123.822 491.973 123.422 492.76C123.035 493.533 122.475 494.133 121.742 494.56C121.022 494.973 120.169 495.18 119.182 495.18ZM119.182 493.74C120.089 493.74 120.815 493.42 121.362 492.78C121.909 492.14 122.182 491.2 122.182 489.96C122.182 488.72 121.909 487.787 121.362 487.16C120.815 486.533 120.089 486.22 119.182 486.22C118.262 486.22 117.529 486.533 116.982 487.16C116.449 487.787 116.182 488.72 116.182 489.96C116.182 491.2 116.449 492.14 116.982 492.78C117.529 493.42 118.262 493.74 119.182 493.74ZM130.045 495.18C128.832 495.18 127.919 494.853 127.305 494.2C126.705 493.547 126.405 492.54 126.405 491.18V484.94H128.225V491.14C128.225 492.02 128.405 492.667 128.765 493.08C129.125 493.493 129.685 493.7 130.445 493.7C131.272 493.7 131.939 493.427 132.445 492.88C132.965 492.32 133.225 491.58 133.225 490.66V484.94H135.045V495H133.285V492.78H133.545C133.265 493.54 132.819 494.133 132.205 494.56C131.592 494.973 130.872 495.18 130.045 495.18ZM138.086 495V487.4C138.086 487 138.073 486.593 138.046 486.18C138.033 485.753 137.999 485.34 137.946 484.94H139.706L139.926 487.46L139.626 487.48C139.759 486.867 139.986 486.36 140.306 485.96C140.639 485.547 141.033 485.247 141.486 485.06C141.953 484.86 142.433 484.76 142.926 484.76C143.139 484.76 143.319 484.767 143.466 484.78C143.613 484.793 143.759 484.827 143.906 484.88L143.866 486.5C143.666 486.42 143.479 486.373 143.306 486.36C143.146 486.333 142.946 486.32 142.706 486.32C142.119 486.32 141.613 486.453 141.186 486.72C140.773 486.987 140.453 487.34 140.226 487.78C140.013 488.22 139.906 488.693 139.906 489.2V495H138.086ZM26.5152 520L22.2152 509.94H24.1752L27.6752 518.58H27.1152L30.6752 509.94H32.5352L28.2152 520H26.5152ZM34.2388 520V509.94H36.0588V520H34.2388ZM34.0788 507.74V505.78H36.2388V507.74H34.0788ZM42.942 520.18C42.062 520.18 41.2887 519.973 40.622 519.56C39.9554 519.147 39.4354 518.547 39.062 517.76C38.6887 516.973 38.502 516.04 38.502 514.96C38.502 513.88 38.6887 512.953 39.062 512.18C39.4354 511.393 39.9554 510.793 40.622 510.38C41.2887 509.967 42.062 509.76 42.942 509.76C43.822 509.76 44.5887 509.98 45.242 510.42C45.9087 510.86 46.3554 511.467 46.582 512.24H46.342V505.28H48.162V520H46.362V517.66H46.582C46.3687 518.447 45.9287 519.067 45.262 519.52C44.6087 519.96 43.8354 520.18 42.942 520.18ZM43.362 518.74C44.2687 518.74 44.9954 518.42 45.542 517.78C46.102 517.14 46.382 516.2 46.382 514.96C46.382 513.72 46.102 512.787 45.542 512.16C44.9954 511.533 44.2687 511.22 43.362 511.22C42.4554 511.22 41.722 511.533 41.162 512.16C40.6154 512.787 40.342 513.72 40.342 514.96C40.342 516.2 40.6154 517.14 41.162 517.78C41.722 518.42 42.4554 518.74 43.362 518.74ZM55.7914 520.18C54.1914 520.18 52.9247 519.72 51.9914 518.8C51.0714 517.88 50.6114 516.613 50.6114 515C50.6114 513.933 50.8114 513.013 51.2114 512.24C51.6247 511.453 52.1914 510.847 52.9114 510.42C53.6314 509.98 54.4714 509.76 55.4314 509.76C56.3514 509.76 57.1314 509.96 57.7714 510.36C58.4114 510.747 58.8981 511.3 59.2314 512.02C59.5647 512.74 59.7314 513.593 59.7314 514.58V515.18H52.0314V514.1H58.4914L58.1514 514.36C58.1514 513.32 57.9181 512.513 57.4514 511.94C56.9981 511.367 56.3247 511.08 55.4314 511.08C54.4581 511.08 53.7047 511.42 53.1714 512.1C52.6381 512.767 52.3714 513.68 52.3714 514.84V515.02C52.3714 516.247 52.6714 517.173 53.2714 517.8C53.8847 518.427 54.7314 518.74 55.8114 518.74C56.4114 518.74 56.9714 518.653 57.4914 518.48C58.0114 518.307 58.5114 518.02 58.9914 517.62L59.5914 518.88C59.1381 519.293 58.5714 519.613 57.8914 519.84C57.2247 520.067 56.5247 520.18 55.7914 520.18ZM66.3498 520.18C65.3632 520.18 64.5098 519.973 63.7898 519.56C63.0698 519.133 62.5098 518.533 62.1098 517.76C61.7098 516.973 61.5098 516.04 61.5098 514.96C61.5098 513.893 61.7098 512.973 62.1098 512.2C62.5098 511.413 63.0698 510.813 63.7898 510.4C64.5098 509.973 65.3632 509.76 66.3498 509.76C67.3365 509.76 68.1898 509.973 68.9098 510.4C69.6432 510.813 70.2032 511.413 70.5898 512.2C70.9898 512.973 71.1898 513.893 71.1898 514.96C71.1898 516.04 70.9898 516.973 70.5898 517.76C70.2032 518.533 69.6432 519.133 68.9098 519.56C68.1898 519.973 67.3365 520.18 66.3498 520.18ZM66.3498 518.74C67.2565 518.74 67.9832 518.42 68.5298 517.78C69.0765 517.14 69.3498 516.2 69.3498 514.96C69.3498 513.72 69.0765 512.787 68.5298 512.16C67.9832 511.533 67.2565 511.22 66.3498 511.22C65.4298 511.22 64.6965 511.533 64.1498 512.16C63.6165 512.787 63.3498 513.72 63.3498 514.96C63.3498 516.2 63.6165 517.14 64.1498 517.78C64.6965 518.42 65.4298 518.74 66.3498 518.74ZM81.6267 520L77.8667 509.94H79.7667L82.8067 518.56H82.2867L85.4067 509.94H86.8867L89.9867 518.56H89.4867L92.5467 509.94H94.3667L90.5867 520H88.8667L85.6667 511.24H86.5467L83.3667 520H81.6267ZM96.3481 520V509.94H98.1681V520H96.3481ZM96.1881 507.74V505.78H98.3481V507.74H96.1881ZM104.971 520.18C103.918 520.18 103.118 519.893 102.571 519.32C102.038 518.733 101.771 517.853 101.771 516.68V511.34H99.8114V509.94H101.771V507.24L103.591 506.74V509.94H106.431V511.34H103.591V516.52C103.591 517.293 103.725 517.847 103.991 518.18C104.271 518.5 104.671 518.66 105.191 518.66C105.458 518.66 105.685 518.64 105.871 518.6C106.071 518.547 106.251 518.487 106.411 518.42V519.92C106.211 520 105.978 520.06 105.711 520.1C105.458 520.153 105.211 520.18 104.971 520.18ZM108.34 520V505.28H110.16V512.12H109.9C110.194 511.347 110.667 510.76 111.32 510.36C111.974 509.96 112.727 509.76 113.58 509.76C114.794 509.76 115.687 510.087 116.26 510.74C116.847 511.393 117.14 512.38 117.14 513.7V520H115.32V513.8C115.32 512.907 115.147 512.26 114.8 511.86C114.454 511.447 113.887 511.24 113.1 511.24C112.22 511.24 111.507 511.513 110.96 512.06C110.427 512.607 110.16 513.333 110.16 514.24V520H108.34ZM125.051 524.54L124.631 523.06C125.258 522.913 125.778 522.74 126.191 522.54C126.604 522.353 126.951 522.107 127.231 521.8C127.511 521.493 127.758 521.107 127.971 520.64L128.471 519.44L128.431 520.2L124.051 509.94H126.011L129.511 518.56H128.991L132.491 509.94H134.371L129.751 520.78C129.471 521.433 129.164 521.98 128.831 522.42C128.511 522.86 128.158 523.22 127.771 523.5C127.398 523.78 126.984 524 126.531 524.16C126.078 524.32 125.584 524.447 125.051 524.54ZM140.158 520.18C139.172 520.18 138.318 519.973 137.598 519.56C136.878 519.133 136.318 518.533 135.918 517.76C135.518 516.973 135.318 516.04 135.318 514.96C135.318 513.893 135.518 512.973 135.918 512.2C136.318 511.413 136.878 510.813 137.598 510.4C138.318 509.973 139.172 509.76 140.158 509.76C141.145 509.76 141.998 509.973 142.718 510.4C143.452 510.813 144.012 511.413 144.398 512.2C144.798 512.973 144.998 513.893 144.998 514.96C144.998 516.04 144.798 516.973 144.398 517.76C144.012 518.533 143.452 519.133 142.718 519.56C141.998 519.973 141.145 520.18 140.158 520.18ZM140.158 518.74C141.065 518.74 141.792 518.42 142.338 517.78C142.885 517.14 143.158 516.2 143.158 514.96C143.158 513.72 142.885 512.787 142.338 512.16C141.792 511.533 141.065 511.22 140.158 511.22C139.238 511.22 138.505 511.533 137.958 512.16C137.425 512.787 137.158 513.72 137.158 514.96C137.158 516.2 137.425 517.14 137.958 517.78C138.505 518.42 139.238 518.74 140.158 518.74ZM151.022 520.18C149.809 520.18 148.895 519.853 148.282 519.2C147.682 518.547 147.382 517.54 147.382 516.18V509.94H149.202V516.14C149.202 517.02 149.382 517.667 149.742 518.08C150.102 518.493 150.662 518.7 151.422 518.7C152.249 518.7 152.915 518.427 153.422 517.88C153.942 517.32 154.202 516.58 154.202 515.66V509.94H156.022V520H154.262V517.78H154.522C154.242 518.54 153.795 519.133 153.182 519.56C152.569 519.973 151.849 520.18 151.022 520.18ZM159.063 520V512.4C159.063 512 159.049 511.593 159.023 511.18C159.009 510.753 158.976 510.34 158.923 509.94H160.683L160.903 512.46L160.603 512.48C160.736 511.867 160.963 511.36 161.283 510.96C161.616 510.547 162.009 510.247 162.463 510.06C162.929 509.86 163.409 509.76 163.903 509.76C164.116 509.76 164.296 509.767 164.443 509.78C164.589 509.793 164.736 509.827 164.883 509.88L164.843 511.5C164.643 511.42 164.456 511.373 164.283 511.36C164.123 511.333 163.923 511.32 163.683 511.32C163.096 511.32 162.589 511.453 162.163 511.72C161.749 511.987 161.429 512.34 161.203 512.78C160.989 513.22 160.883 513.693 160.883 514.2V520H159.063ZM62.1109 545L57.8109 534.94H59.7709L63.2709 543.58H62.7109L66.2709 534.94H68.1309L63.8109 545H62.1109ZM69.8345 545V534.94H71.6545V545H69.8345ZM69.6745 532.74V530.78H71.8345V532.74H69.6745ZM79.2777 545.18C77.6777 545.18 76.4111 544.72 75.4777 543.8C74.5577 542.88 74.0977 541.613 74.0977 540C74.0977 538.933 74.2977 538.013 74.6977 537.24C75.1111 536.453 75.6777 535.847 76.3977 535.42C77.1177 534.98 77.9577 534.76 78.9177 534.76C79.8377 534.76 80.6177 534.96 81.2577 535.36C81.8977 535.747 82.3844 536.3 82.7177 537.02C83.0511 537.74 83.2177 538.593 83.2177 539.58V540.18H75.5177V539.1H81.9777L81.6377 539.36C81.6377 538.32 81.4044 537.513 80.9377 536.94C80.4844 536.367 79.8111 536.08 78.9177 536.08C77.9444 536.08 77.1911 536.42 76.6577 537.1C76.1244 537.767 75.8577 538.68 75.8577 539.84V540.02C75.8577 541.247 76.1577 542.173 76.7577 542.8C77.3711 543.427 78.2177 543.74 79.2977 543.74C79.8977 543.74 80.4577 543.653 80.9777 543.48C81.4977 543.307 81.9977 543.02 82.4777 542.62L83.0777 543.88C82.6244 544.293 82.0577 544.613 81.3777 544.84C80.7111 545.067 80.0111 545.18 79.2777 545.18ZM88.1795 545L84.4195 534.94H86.3195L89.3595 543.56H88.8395L91.9595 534.94H93.4395L96.5395 543.56H96.0395L99.0995 534.94H100.919L97.1395 545H95.4195L92.2195 536.24H93.0995L89.9195 545H88.1795ZM107.325 545.18C105.725 545.18 104.458 544.72 103.525 543.8C102.605 542.88 102.145 541.613 102.145 540C102.145 538.933 102.345 538.013 102.745 537.24C103.158 536.453 103.725 535.847 104.445 535.42C105.165 534.98 106.005 534.76 106.965 534.76C107.885 534.76 108.665 534.96 109.305 535.36C109.945 535.747 110.431 536.3 110.765 537.02C111.098 537.74 111.265 538.593 111.265 539.58V540.18H103.565V539.1H110.025L109.685 539.36C109.685 538.32 109.451 537.513 108.985 536.94C108.531 536.367 107.858 536.08 106.965 536.08C105.991 536.08 105.238 536.42 104.705 537.1C104.171 537.767 103.905 538.68 103.905 539.84V540.02C103.905 541.247 104.205 542.173 104.805 542.8C105.418 543.427 106.265 543.74 107.345 543.74C107.945 543.74 108.505 543.653 109.025 543.48C109.545 543.307 110.045 543.02 110.525 542.62L111.125 543.88C110.671 544.293 110.105 544.613 109.425 544.84C108.758 545.067 108.058 545.18 107.325 545.18ZM113.623 545V537.4C113.623 537 113.61 536.593 113.583 536.18C113.57 535.753 113.536 535.34 113.483 534.94H115.243L115.463 537.46L115.163 537.48C115.296 536.867 115.523 536.36 115.843 535.96C116.176 535.547 116.57 535.247 117.023 535.06C117.49 534.86 117.97 534.76 118.463 534.76C118.676 534.76 118.856 534.767 119.003 534.78C119.15 534.793 119.296 534.827 119.443 534.88L119.403 536.5C119.203 536.42 119.016 536.373 118.843 536.36C118.683 536.333 118.483 536.32 118.243 536.32C117.656 536.32 117.15 536.453 116.723 536.72C116.31 536.987 115.99 537.34 115.763 537.78C115.55 538.22 115.443 538.693 115.443 539.2V545H113.623ZM124.348 545.18C123.534 545.18 122.774 545.073 122.068 544.86C121.374 544.647 120.801 544.34 120.348 543.94L120.928 542.68C121.421 543.053 121.961 543.34 122.548 543.54C123.148 543.727 123.761 543.82 124.388 543.82C125.148 543.82 125.721 543.68 126.108 543.4C126.508 543.12 126.708 542.747 126.708 542.28C126.708 541.907 126.581 541.607 126.328 541.38C126.074 541.153 125.674 540.987 125.128 540.88L123.228 540.5C122.374 540.3 121.728 539.98 121.288 539.54C120.861 539.087 120.648 538.507 120.648 537.8C120.648 537.213 120.808 536.693 121.128 536.24C121.448 535.773 121.901 535.413 122.488 535.16C123.088 534.893 123.788 534.76 124.588 534.76C125.321 534.76 126.001 534.867 126.628 535.08C127.268 535.293 127.794 535.607 128.208 536.02L127.608 537.24C127.194 536.88 126.728 536.607 126.208 536.42C125.701 536.22 125.181 536.12 124.648 536.12C123.874 536.12 123.301 536.273 122.928 536.58C122.554 536.873 122.368 537.26 122.368 537.74C122.368 538.1 122.481 538.4 122.708 538.64C122.934 538.867 123.301 539.04 123.808 539.16L125.708 539.54C126.601 539.727 127.274 540.033 127.728 540.46C128.181 540.887 128.408 541.453 128.408 542.16C128.408 542.787 128.234 543.327 127.888 543.78C127.554 544.233 127.081 544.58 126.468 544.82C125.868 545.06 125.161 545.18 124.348 545.18Z" fill="#292D32"/>
<rect x="0.5" y="407.5" width="186" height="158" rx="9.5" stroke="#2563EB" stroke-opacity="0.2"/>
</svg>
