<svg width="682" height="537" viewBox="0 0 682 537" fill="none" xmlns="http://www.w3.org/2000/svg">
<g clip-path="url(#clip0_1347_14092)">
<mask id="mask0_1347_14092" style="mask-type:alpha" maskUnits="userSpaceOnUse" x="71" y="49" width="500" height="61">
<path fill-rule="evenodd" clip-rule="evenodd" d="M91 49.498C79.9543 49.498 71 58.4523 71 69.498V79.498V89.498V109.498H91H551H571V89.498V79.498V69.498C571 58.4523 562.045 49.498 551 49.498H91Z" fill="white"/>
</mask>
<g mask="url(#mask0_1347_14092)">
<path fill-rule="evenodd" clip-rule="evenodd" d="M91 49.5C79.9543 49.5 71 58.4543 71 69.5V79.5V89.5V109.5H91H551H571V89.5V79.5V69.5C571 58.4543 562.045 49.5 551 49.5H91Z" fill="white"/>
<path d="M71.0005 109.498H63.5005V116.998H71.0005V109.498ZM571 109.498V116.998H578.5V109.498H571ZM78.5005 69.498C78.5005 62.5945 84.0969 56.998 91.0005 56.998V41.998C75.8127 41.998 63.5005 54.3102 63.5005 69.498H78.5005ZM78.5005 79.498V69.498H63.5005V79.498H78.5005ZM78.5005 89.498V79.498H63.5005V89.498H78.5005ZM78.5005 109.498V89.498H63.5005V109.498H78.5005ZM91.0005 101.998H71.0005V116.998H91.0005V101.998ZM551 101.998H91.0005V116.998H551V101.998ZM571 101.998H551V116.998H571V101.998ZM563.5 89.498V109.498H578.5V89.498H563.5ZM563.5 79.498V89.498H578.5V79.498H563.5ZM563.5 69.498V79.498H578.5V69.498H563.5ZM551 56.998C557.903 56.998 563.5 62.5945 563.5 69.498H578.5C578.5 54.3102 566.188 41.998 551 41.998V56.998ZM91.0005 56.998H551V41.998H91.0005V56.998Z" fill="#E3E9F0"/>
</g>
<path fill-rule="evenodd" clip-rule="evenodd" d="M103.5 86.998C107.642 86.998 111 83.6403 111 79.498C111 75.3558 107.642 71.998 103.5 71.998C99.3573 71.998 95.9995 75.3558 95.9995 79.498C95.9995 83.6403 99.3573 86.998 103.5 86.998Z" fill="#E3E9F0"/>
<path fill-rule="evenodd" clip-rule="evenodd" d="M128.5 86.998C132.642 86.998 136 83.6403 136 79.498C136 75.3558 132.642 71.998 128.5 71.998C124.357 71.998 121 75.3558 121 79.498C121 83.6403 124.357 86.998 128.5 86.998Z" fill="#E3E9F0"/>
<path fill-rule="evenodd" clip-rule="evenodd" d="M153.499 86.998C157.641 86.998 160.999 83.6403 160.999 79.498C160.999 75.3558 157.641 71.998 153.499 71.998C149.357 71.998 145.999 75.3558 145.999 79.498C145.999 83.6403 149.357 86.998 153.499 86.998Z" fill="#E3E9F0"/>
<mask id="mask1_1347_14092" style="mask-type:alpha" maskUnits="userSpaceOnUse" x="71" y="102" width="500" height="400">
<path fill-rule="evenodd" clip-rule="evenodd" d="M551 502C562.045 502 571 493.045 571 482V302V122V102H551H91H71V122V302V482C71 493.045 79.9543 502 91 502H551Z" fill="white"/>
</mask>
<g mask="url(#mask1_1347_14092)">
<path fill-rule="evenodd" clip-rule="evenodd" d="M551 502C562.045 502 571 493.045 571 482V302V122V102H551H91H71V122V302V482C71 493.045 79.9543 502 91 502H551Z" fill="white"/>
<path d="M571 482H578.5H571ZM571 302H563.5H571ZM571 102H578.5V94.5H571V102ZM71.0005 102V94.5H63.5005V102H71.0005ZM71.0005 302H63.5005H71.0005ZM71.0005 482H78.5005H71.0005ZM563.5 482C563.5 488.902 557.903 494.5 551 494.5V509.5C566.188 509.5 578.5 497.187 578.5 482H563.5ZM563.5 302V482H578.5V302H563.5ZM563.5 122V302H578.5V122H563.5ZM563.5 102V122H578.5V102H563.5ZM551 109.5H571V94.5H551V109.5ZM91.0005 109.5H551V94.5H91.0005V109.5ZM71.0005 109.5H91.0005V94.5H71.0005V109.5ZM78.5005 122V102H63.5005V122H78.5005ZM78.5005 302V122H63.5005V302H78.5005ZM78.5005 482V302H63.5005V482H78.5005ZM91.0005 494.5C84.0969 494.5 78.5005 488.902 78.5005 482H63.5005C63.5005 497.187 75.8127 509.5 91.0005 509.5V494.5ZM551 494.5H91.0005V509.5H551V494.5Z" fill="#E3E9F0"/>
</g>
<path d="M301 140.748H113.5C111.429 140.748 109.75 142.427 109.75 144.498V279.498C109.75 281.569 111.429 283.248 113.5 283.248H301C303.072 283.248 304.75 281.569 304.75 279.498V144.498C304.75 142.427 303.072 140.748 301 140.748Z" fill="#ECECEC" stroke="#003169" stroke-opacity="0.2"/>
<path d="M204.696 389.498H114.804C112.703 389.498 111 391.737 111 394.498C111 397.259 112.703 399.498 114.804 399.498H204.696C206.797 399.498 208.5 397.259 208.5 394.498C208.5 391.737 206.797 389.498 204.696 389.498Z" fill="#E3E9F0"/>
<path d="M302.196 364.502H114.804C112.703 364.502 111 366.741 111 369.502C111 372.263 112.703 374.502 114.804 374.502H302.196C304.297 374.502 306 372.263 306 369.502C306 366.741 304.297 364.502 302.196 364.502Z" fill="#E3E9F0"/>
<path d="M280.53 339.5H114.804C112.703 339.5 111 341.739 111 344.5C111 347.261 112.703 349.5 114.804 349.5H280.53C282.631 349.5 284.334 347.261 284.334 344.5C284.334 341.739 282.631 339.5 280.53 339.5Z" fill="#E3E9F0"/>
<path d="M240.329 314.5H114.804C112.703 314.5 111 316.739 111 319.5C111 322.261 112.703 324.5 114.804 324.5H240.329C242.43 324.5 244.133 322.261 244.133 319.5C244.133 316.739 242.43 314.5 240.329 314.5Z" fill="#E3E9F0"/>
<path d="M384.75 142.002H354.75C351.298 142.002 348.5 144.8 348.5 148.252V178.252C348.5 181.704 351.298 184.502 354.75 184.502H384.75C388.201 184.502 391 181.704 391 178.252V148.252C391 144.8 388.201 142.002 384.75 142.002Z" fill="#003FC9" fill-opacity="0.2" stroke="#003169" stroke-opacity="0.2"/>
<path d="M384.75 209.5H354.75C351.298 209.5 348.5 212.298 348.5 215.75V245.75C348.5 249.202 351.298 252 354.75 252H384.75C388.201 252 391 249.202 391 245.75V215.75C391 212.298 388.201 209.5 384.75 209.5Z" fill="#CCD9F4" stroke="#003169" stroke-opacity="0.2"/>
<path d="M384.75 277H354.75C351.298 277 348.5 279.798 348.5 283.25V313.25C348.5 316.702 351.298 319.5 354.75 319.5H384.75C388.201 319.5 391 316.702 391 313.25V283.25C391 279.798 388.201 277 384.75 277Z" fill="#CCD9F4" stroke="#003169" stroke-opacity="0.2"/>
<path d="M384.75 344.498H354.75C351.298 344.498 348.5 347.296 348.5 350.748V380.748C348.5 384.2 351.298 386.998 354.75 386.998H384.75C388.201 386.998 391 384.2 391 380.748V350.748C391 347.296 388.201 344.498 384.75 344.498Z" fill="#CCD9F4" stroke="#003169" stroke-opacity="0.2"/>
<path d="M452.25 142.002H422.25C418.799 142.002 416 144.8 416 148.252V178.252C416 181.704 418.799 184.502 422.25 184.502H452.25C455.702 184.502 458.5 181.704 458.5 178.252V148.252C458.5 144.8 455.702 142.002 452.25 142.002Z" fill="#608FF7" fill-opacity="0.2" stroke="#003169" stroke-opacity="0.2"/>
<path d="M452.25 209.5H422.25C418.799 209.5 416 212.298 416 215.75V245.75C416 249.202 418.799 252 422.25 252H452.25C455.702 252 458.5 249.202 458.5 245.75V215.75C458.5 212.298 455.702 209.5 452.25 209.5Z" fill="#DFE9FD" stroke="#003169" stroke-opacity="0.2"/>
<path d="M452.25 277H422.25C418.799 277 416 279.798 416 283.25V313.25C416 316.702 418.799 319.5 422.25 319.5H452.25C455.702 319.5 458.5 316.702 458.5 313.25V283.25C458.5 279.798 455.702 277 452.25 277Z" fill="#DFE9FD" stroke="#003169" stroke-opacity="0.2"/>
<path d="M452.25 344.498H422.25C418.799 344.498 416 347.296 416 350.748V380.748C416 384.2 418.799 386.998 422.25 386.998H452.25C455.702 386.998 458.5 384.2 458.5 380.748V350.748C458.5 347.296 455.702 344.498 452.25 344.498Z" fill="#DFE9FD" stroke="#003169" stroke-opacity="0.2"/>
<path d="M519.75 142.002H489.75C486.298 142.002 483.5 144.8 483.5 148.252V178.252C483.5 181.704 486.298 184.502 489.75 184.502H519.75C523.202 184.502 526 181.704 526 178.252V148.252C526 144.8 523.202 142.002 519.75 142.002Z" fill="#C5D3F1" fill-opacity="0.2" stroke="#003169" stroke-opacity="0.2"/>
<path d="M519.75 209.5H489.75C486.298 209.5 483.5 212.298 483.5 215.75V245.75C483.5 249.202 486.298 252 489.75 252H519.75C523.202 252 526 249.202 526 245.75V215.75C526 212.298 523.202 209.5 519.75 209.5Z" fill="#F3F6FC" stroke="#003169" stroke-opacity="0.2"/>
<path d="M519.75 277H489.75C486.298 277 483.5 279.798 483.5 283.25V313.25C483.5 316.702 486.298 319.5 489.75 319.5H519.75C523.202 319.5 526 316.702 526 313.25V283.25C526 279.798 523.202 277 519.75 277Z" fill="#F3F6FC" stroke="#003169" stroke-opacity="0.2"/>
<path d="M519.75 344.498H489.75C486.298 344.498 483.5 347.296 483.5 350.748V380.748C483.5 384.2 486.298 386.998 489.75 386.998H519.75C523.202 386.998 526 384.2 526 380.748V350.748C526 347.296 523.202 344.498 519.75 344.498Z" fill="#F3F6FC" stroke="#003169" stroke-opacity="0.2"/>
<path fill-rule="evenodd" clip-rule="evenodd" d="M201.518 233.707C193.212 237.794 183.5 231.748 183.5 222.491V199.514C183.5 190.257 193.212 184.211 201.518 188.298L224.87 199.786C234.18 204.366 234.18 217.639 224.87 222.219L201.518 233.707Z" fill="white"/>
<path d="M187.25 222.487V199.509C187.25 193.029 194.048 188.797 199.863 191.658L223.215 203.146C229.733 206.352 229.733 215.643 223.215 218.849L199.863 230.338C194.048 233.198 187.25 228.966 187.25 222.487Z" stroke="#2563EB" stroke-width="7.5"/>
</g>
<rect x="378" y="416" width="304" height="121" rx="10" fill="white"/>
<path d="M434.52 464.439L429.825 453.474C428.235 449.754 425.31 449.604 423.345 453.144L420.51 458.259C419.07 460.854 416.385 461.079 414.525 458.754L414.195 458.334C412.26 455.904 409.53 456.204 408.135 458.979L405.555 464.154C403.74 467.754 406.365 471.999 410.385 471.999H429.525C433.425 471.999 436.05 468.024 434.52 464.439Z" stroke="#287DFB" stroke-width="2.25" stroke-linecap="round" stroke-linejoin="round"/>
<path d="M412.455 451C414.94 451 416.955 448.985 416.955 446.5C416.955 444.015 414.94 442 412.455 442C409.97 442 407.955 444.015 407.955 446.5C407.955 448.985 409.97 451 412.455 451Z" stroke="#287DFB" stroke-width="2.25" stroke-linecap="round" stroke-linejoin="round"/>
<path d="M449.72 459V444.9H455.46C456.98 444.9 458.147 445.22 458.96 445.86C459.773 446.5 460.18 447.4 460.18 448.56C460.18 449.44 459.913 450.173 459.38 450.76C458.86 451.347 458.147 451.74 457.24 451.94V451.64C458.28 451.76 459.087 452.12 459.66 452.72C460.247 453.32 460.54 454.113 460.54 455.1C460.54 456.353 460.12 457.32 459.28 458C458.44 458.667 457.253 459 455.72 459H449.72ZM451.52 457.52H455.54C456.527 457.52 457.3 457.333 457.86 456.96C458.433 456.573 458.72 455.94 458.72 455.06C458.72 454.167 458.433 453.533 457.86 453.16C457.3 452.787 456.527 452.6 455.54 452.6H451.52V457.52ZM451.52 451.12H455.2C456.253 451.12 457.04 450.92 457.56 450.52C458.08 450.107 458.34 449.513 458.34 448.74C458.34 447.967 458.08 447.38 457.56 446.98C457.04 446.567 456.253 446.36 455.2 446.36H451.52V451.12ZM467.012 459.18C466.132 459.18 465.359 458.973 464.692 458.56C464.026 458.147 463.506 457.547 463.132 456.76C462.759 455.973 462.572 455.04 462.572 453.96C462.572 452.88 462.759 451.953 463.132 451.18C463.506 450.393 464.026 449.793 464.692 449.38C465.359 448.967 466.132 448.76 467.012 448.76C467.906 448.76 468.679 448.987 469.332 449.44C469.999 449.88 470.439 450.487 470.652 451.26H470.412L470.632 448.94H472.392C472.352 449.34 472.312 449.74 472.272 450.14C472.246 450.54 472.232 450.933 472.232 451.32V459H470.412V456.7H470.632C470.419 457.46 469.979 458.067 469.312 458.52C468.659 458.96 467.892 459.18 467.012 459.18ZM467.432 457.74C468.339 457.74 469.066 457.42 469.612 456.78C470.159 456.14 470.432 455.2 470.432 453.96C470.432 452.72 470.159 451.787 469.612 451.16C469.066 450.533 468.339 450.22 467.432 450.22C466.526 450.22 465.792 450.533 465.232 451.16C464.686 451.787 464.412 452.72 464.412 453.96C464.412 455.2 464.686 456.14 465.232 456.78C465.779 457.42 466.512 457.74 467.432 457.74ZM479.602 459.18C478.602 459.18 477.735 458.973 477.002 458.56C476.268 458.133 475.695 457.527 475.282 456.74C474.882 455.94 474.682 454.993 474.682 453.9C474.682 452.82 474.888 451.9 475.302 451.14C475.715 450.367 476.288 449.78 477.022 449.38C477.755 448.967 478.615 448.76 479.602 448.76C480.255 448.76 480.888 448.873 481.502 449.1C482.115 449.313 482.615 449.627 483.002 450.04L482.382 451.32C481.995 450.947 481.568 450.673 481.102 450.5C480.635 450.313 480.175 450.22 479.722 450.22C478.735 450.22 477.962 450.54 477.402 451.18C476.842 451.807 476.562 452.72 476.562 453.92C476.562 455.133 476.842 456.067 477.402 456.72C477.962 457.373 478.735 457.7 479.722 457.7C480.162 457.7 480.615 457.613 481.082 457.44C481.548 457.267 481.982 456.993 482.382 456.62L483.002 457.88C482.602 458.307 482.088 458.633 481.462 458.86C480.848 459.073 480.228 459.18 479.602 459.18ZM485.223 459V444.28H487.043V453.38H487.083L491.623 448.94H493.883L488.483 454.22L488.503 453.36L494.363 459H492.043L487.083 454.32H487.043V459H485.223ZM499.938 463.48C499.058 463.48 498.251 463.373 497.518 463.16C496.784 462.947 496.124 462.62 495.538 462.18L496.018 460.84C496.431 461.12 496.838 461.347 497.238 461.52C497.638 461.693 498.051 461.82 498.478 461.9C498.918 461.98 499.371 462.02 499.838 462.02C500.824 462.02 501.564 461.767 502.058 461.26C502.551 460.753 502.798 460.033 502.798 459.1V456.28H502.998C502.784 457.04 502.344 457.647 501.678 458.1C501.024 458.54 500.251 458.76 499.358 458.76C498.451 458.76 497.658 458.56 496.978 458.16C496.311 457.747 495.791 457.167 495.418 456.42C495.044 455.66 494.858 454.773 494.858 453.76C494.858 452.733 495.044 451.847 495.418 451.1C495.791 450.353 496.311 449.78 496.978 449.38C497.658 448.967 498.451 448.76 499.358 448.76C500.251 448.76 501.024 448.98 501.678 449.42C502.331 449.86 502.764 450.467 502.978 451.24L502.798 451.06L502.978 448.94H504.738C504.698 449.34 504.658 449.74 504.618 450.14C504.591 450.54 504.578 450.933 504.578 451.32V458.88C504.578 460.373 504.184 461.513 503.398 462.3C502.624 463.087 501.471 463.48 499.938 463.48ZM499.758 457.32C500.678 457.32 501.411 457.007 501.958 456.38C502.504 455.753 502.778 454.88 502.778 453.76C502.778 452.627 502.504 451.753 501.958 451.14C501.411 450.527 500.678 450.22 499.758 450.22C498.824 450.22 498.078 450.527 497.518 451.14C496.971 451.753 496.698 452.627 496.698 453.76C496.698 454.88 496.971 455.753 497.518 456.38C498.078 457.007 498.824 457.32 499.758 457.32ZM507.605 459V451.4C507.605 451 507.592 450.593 507.565 450.18C507.552 449.753 507.519 449.34 507.465 448.94H509.225L509.445 451.46L509.145 451.48C509.279 450.867 509.505 450.36 509.825 449.96C510.159 449.547 510.552 449.247 511.005 449.06C511.472 448.86 511.952 448.76 512.445 448.76C512.659 448.76 512.839 448.767 512.985 448.78C513.132 448.793 513.279 448.827 513.425 448.88L513.385 450.5C513.185 450.42 512.999 450.373 512.825 450.36C512.665 450.333 512.465 450.32 512.225 450.32C511.639 450.32 511.132 450.453 510.705 450.72C510.292 450.987 509.972 451.34 509.745 451.78C509.532 452.22 509.425 452.693 509.425 453.2V459H507.605ZM519.131 459.18C518.144 459.18 517.291 458.973 516.571 458.56C515.851 458.133 515.291 457.533 514.891 456.76C514.491 455.973 514.291 455.04 514.291 453.96C514.291 452.893 514.491 451.973 514.891 451.2C515.291 450.413 515.851 449.813 516.571 449.4C517.291 448.973 518.144 448.76 519.131 448.76C520.118 448.76 520.971 448.973 521.691 449.4C522.424 449.813 522.984 450.413 523.371 451.2C523.771 451.973 523.971 452.893 523.971 453.96C523.971 455.04 523.771 455.973 523.371 456.76C522.984 457.533 522.424 458.133 521.691 458.56C520.971 458.973 520.118 459.18 519.131 459.18ZM519.131 457.74C520.038 457.74 520.764 457.42 521.311 456.78C521.858 456.14 522.131 455.2 522.131 453.96C522.131 452.72 521.858 451.787 521.311 451.16C520.764 450.533 520.038 450.22 519.131 450.22C518.211 450.22 517.478 450.533 516.931 451.16C516.398 451.787 516.131 452.72 516.131 453.96C516.131 455.2 516.398 456.14 516.931 456.78C517.478 457.42 518.211 457.74 519.131 457.74ZM529.995 459.18C528.781 459.18 527.868 458.853 527.255 458.2C526.655 457.547 526.355 456.54 526.355 455.18V448.94H528.175V455.14C528.175 456.02 528.355 456.667 528.715 457.08C529.075 457.493 529.635 457.7 530.395 457.7C531.221 457.7 531.888 457.427 532.395 456.88C532.915 456.32 533.175 455.58 533.175 454.66V448.94H534.995V459H533.235V456.78H533.495C533.215 457.54 532.768 458.133 532.155 458.56C531.541 458.973 530.821 459.18 529.995 459.18ZM538.055 459V451.32C538.055 450.933 538.042 450.54 538.015 450.14C537.988 449.74 537.948 449.34 537.895 448.94H539.655L539.855 451.1H539.615C539.922 450.34 540.395 449.76 541.035 449.36C541.675 448.96 542.422 448.76 543.275 448.76C544.462 448.76 545.355 449.087 545.955 449.74C546.555 450.38 546.855 451.38 546.855 452.74V459H545.035V452.84C545.035 451.92 544.855 451.26 544.495 450.86C544.135 450.447 543.575 450.24 542.815 450.24C541.908 450.24 541.188 450.513 540.655 451.06C540.135 451.607 539.875 452.347 539.875 453.28V459H538.055ZM553.673 459.18C552.793 459.18 552.019 458.973 551.353 458.56C550.686 458.147 550.166 457.547 549.793 456.76C549.419 455.973 549.233 455.04 549.233 453.96C549.233 452.88 549.419 451.953 549.793 451.18C550.166 450.393 550.686 449.793 551.353 449.38C552.019 448.967 552.793 448.76 553.673 448.76C554.553 448.76 555.319 448.98 555.973 449.42C556.639 449.86 557.086 450.467 557.313 451.24H557.073V444.28H558.893V459H557.093V456.66H557.313C557.099 457.447 556.659 458.067 555.993 458.52C555.339 458.96 554.566 459.18 553.673 459.18ZM554.093 457.74C554.999 457.74 555.726 457.42 556.273 456.78C556.833 456.14 557.113 455.2 557.113 453.96C557.113 452.72 556.833 451.787 556.273 451.16C555.726 450.533 554.999 450.22 554.093 450.22C553.186 450.22 552.453 450.533 551.893 451.16C551.346 451.787 551.073 452.72 551.073 453.96C551.073 455.2 551.346 456.14 551.893 456.78C552.453 457.42 553.186 457.74 554.093 457.74ZM567.215 459V448.94H569.035V459H567.215ZM567.055 446.74V444.78H569.215V446.74H567.055ZM572.079 459V451.32C572.079 450.933 572.065 450.54 572.039 450.14C572.012 449.74 571.972 449.34 571.919 448.94H573.679L573.879 451.1H573.639C573.905 450.353 574.332 449.78 574.919 449.38C575.505 448.967 576.205 448.76 577.019 448.76C577.845 448.76 578.525 448.96 579.059 449.36C579.592 449.747 579.952 450.36 580.139 451.2H579.839C580.092 450.453 580.539 449.86 581.179 449.42C581.819 448.98 582.565 448.76 583.419 448.76C584.525 448.76 585.359 449.087 585.919 449.74C586.479 450.38 586.759 451.38 586.759 452.74V459H584.939V452.84C584.939 451.92 584.779 451.26 584.459 450.86C584.139 450.447 583.632 450.24 582.939 450.24C582.125 450.24 581.485 450.52 581.019 451.08C580.552 451.627 580.319 452.373 580.319 453.32V459H578.499V452.84C578.499 451.92 578.339 451.26 578.019 450.86C577.712 450.447 577.205 450.24 576.499 450.24C575.685 450.24 575.045 450.52 574.579 451.08C574.125 451.627 573.899 452.373 573.899 453.32V459H572.079ZM593.575 459.18C592.695 459.18 591.922 458.973 591.255 458.56C590.588 458.147 590.068 457.547 589.695 456.76C589.322 455.973 589.135 455.04 589.135 453.96C589.135 452.88 589.322 451.953 589.695 451.18C590.068 450.393 590.588 449.793 591.255 449.38C591.922 448.967 592.695 448.76 593.575 448.76C594.468 448.76 595.242 448.987 595.895 449.44C596.562 449.88 597.002 450.487 597.215 451.26H596.975L597.195 448.94H598.955C598.915 449.34 598.875 449.74 598.835 450.14C598.808 450.54 598.795 450.933 598.795 451.32V459H596.975V456.7H597.195C596.982 457.46 596.542 458.067 595.875 458.52C595.222 458.96 594.455 459.18 593.575 459.18ZM593.995 457.74C594.902 457.74 595.628 457.42 596.175 456.78C596.722 456.14 596.995 455.2 596.995 453.96C596.995 452.72 596.722 451.787 596.175 451.16C595.628 450.533 594.902 450.22 593.995 450.22C593.088 450.22 592.355 450.533 591.795 451.16C591.248 451.787 590.975 452.72 590.975 453.96C590.975 455.2 591.248 456.14 591.795 456.78C592.342 457.42 593.075 457.74 593.995 457.74ZM606.324 463.48C605.444 463.48 604.638 463.373 603.904 463.16C603.171 462.947 602.511 462.62 601.924 462.18L602.404 460.84C602.818 461.12 603.224 461.347 603.624 461.52C604.024 461.693 604.438 461.82 604.864 461.9C605.304 461.98 605.758 462.02 606.224 462.02C607.211 462.02 607.951 461.767 608.444 461.26C608.938 460.753 609.184 460.033 609.184 459.1V456.28H609.384C609.171 457.04 608.731 457.647 608.064 458.1C607.411 458.54 606.638 458.76 605.744 458.76C604.838 458.76 604.044 458.56 603.364 458.16C602.698 457.747 602.178 457.167 601.804 456.42C601.431 455.66 601.244 454.773 601.244 453.76C601.244 452.733 601.431 451.847 601.804 451.1C602.178 450.353 602.698 449.78 603.364 449.38C604.044 448.967 604.838 448.76 605.744 448.76C606.638 448.76 607.411 448.98 608.064 449.42C608.718 449.86 609.151 450.467 609.364 451.24L609.184 451.06L609.364 448.94H611.124C611.084 449.34 611.044 449.74 611.004 450.14C610.978 450.54 610.964 450.933 610.964 451.32V458.88C610.964 460.373 610.571 461.513 609.784 462.3C609.011 463.087 607.858 463.48 606.324 463.48ZM606.144 457.32C607.064 457.32 607.798 457.007 608.344 456.38C608.891 455.753 609.164 454.88 609.164 453.76C609.164 452.627 608.891 451.753 608.344 451.14C607.798 450.527 607.064 450.22 606.144 450.22C605.211 450.22 604.464 450.527 603.904 451.14C603.358 451.753 603.084 452.627 603.084 453.76C603.084 454.88 603.358 455.753 603.904 456.38C604.464 457.007 605.211 457.32 606.144 457.32ZM618.592 459.18C616.992 459.18 615.726 458.72 614.792 457.8C613.872 456.88 613.412 455.613 613.412 454C613.412 452.933 613.612 452.013 614.012 451.24C614.426 450.453 614.992 449.847 615.712 449.42C616.432 448.98 617.272 448.76 618.232 448.76C619.152 448.76 619.932 448.96 620.572 449.36C621.212 449.747 621.699 450.3 622.032 451.02C622.366 451.74 622.532 452.593 622.532 453.58V454.18H614.832V453.1H621.292L620.952 453.36C620.952 452.32 620.719 451.513 620.252 450.94C619.799 450.367 619.126 450.08 618.232 450.08C617.259 450.08 616.506 450.42 615.972 451.1C615.439 451.767 615.172 452.68 615.172 453.84V454.02C615.172 455.247 615.472 456.173 616.072 456.8C616.686 457.427 617.532 457.74 618.612 457.74C619.212 457.74 619.772 457.653 620.292 457.48C620.812 457.307 621.312 457.02 621.792 456.62L622.392 457.88C621.939 458.293 621.372 458.613 620.692 458.84C620.026 459.067 619.326 459.18 618.592 459.18ZM449.52 484V469.28H451.34V476.12H451.08C451.373 475.347 451.847 474.76 452.5 474.36C453.153 473.96 453.907 473.76 454.76 473.76C455.973 473.76 456.867 474.087 457.44 474.74C458.027 475.393 458.32 476.38 458.32 477.7V484H456.5V477.8C456.5 476.907 456.327 476.26 455.98 475.86C455.633 475.447 455.067 475.24 454.28 475.24C453.4 475.24 452.687 475.513 452.14 476.06C451.607 476.607 451.34 477.333 451.34 478.24V484H449.52ZM465.137 484.18C464.257 484.18 463.484 483.973 462.817 483.56C462.151 483.147 461.631 482.547 461.257 481.76C460.884 480.973 460.697 480.04 460.697 478.96C460.697 477.88 460.884 476.953 461.257 476.18C461.631 475.393 462.151 474.793 462.817 474.38C463.484 473.967 464.257 473.76 465.137 473.76C466.031 473.76 466.804 473.987 467.457 474.44C468.124 474.88 468.564 475.487 468.777 476.26H468.537L468.757 473.94H470.517C470.477 474.34 470.437 474.74 470.397 475.14C470.371 475.54 470.357 475.933 470.357 476.32V484H468.537V481.7H468.757C468.544 482.46 468.104 483.067 467.437 483.52C466.784 483.96 466.017 484.18 465.137 484.18ZM465.557 482.74C466.464 482.74 467.191 482.42 467.737 481.78C468.284 481.14 468.557 480.2 468.557 478.96C468.557 477.72 468.284 476.787 467.737 476.16C467.191 475.533 466.464 475.22 465.557 475.22C464.651 475.22 463.917 475.533 463.357 476.16C462.811 476.787 462.537 477.72 462.537 478.96C462.537 480.2 462.811 481.14 463.357 481.78C463.904 482.42 464.637 482.74 465.557 482.74ZM476.807 484.18C475.993 484.18 475.233 484.073 474.527 483.86C473.833 483.647 473.26 483.34 472.807 482.94L473.387 481.68C473.88 482.053 474.42 482.34 475.007 482.54C475.607 482.727 476.22 482.82 476.847 482.82C477.607 482.82 478.18 482.68 478.567 482.4C478.967 482.12 479.167 481.747 479.167 481.28C479.167 480.907 479.04 480.607 478.787 480.38C478.533 480.153 478.133 479.987 477.587 479.88L475.687 479.5C474.833 479.3 474.187 478.98 473.747 478.54C473.32 478.087 473.107 477.507 473.107 476.8C473.107 476.213 473.267 475.693 473.587 475.24C473.907 474.773 474.36 474.413 474.947 474.16C475.547 473.893 476.247 473.76 477.047 473.76C477.78 473.76 478.46 473.867 479.087 474.08C479.727 474.293 480.253 474.607 480.667 475.02L480.067 476.24C479.653 475.88 479.187 475.607 478.667 475.42C478.16 475.22 477.64 475.12 477.107 475.12C476.333 475.12 475.76 475.273 475.387 475.58C475.013 475.873 474.827 476.26 474.827 476.74C474.827 477.1 474.94 477.4 475.167 477.64C475.393 477.867 475.76 478.04 476.267 478.16L478.167 478.54C479.06 478.727 479.733 479.033 480.187 479.46C480.64 479.887 480.867 480.453 480.867 481.16C480.867 481.787 480.693 482.327 480.347 482.78C480.013 483.233 479.54 483.58 478.927 483.82C478.327 484.06 477.62 484.18 476.807 484.18ZM493.842 484.18C492.948 484.18 492.175 483.96 491.522 483.52C490.868 483.067 490.435 482.447 490.222 481.66H490.442V484H488.622V469.28H490.442V476.24H490.222C490.448 475.467 490.882 474.86 491.522 474.42C492.175 473.98 492.948 473.76 493.842 473.76C494.735 473.76 495.515 473.973 496.182 474.4C496.848 474.813 497.362 475.407 497.722 476.18C498.095 476.953 498.282 477.887 498.282 478.98C498.282 480.06 498.095 480.993 497.722 481.78C497.362 482.553 496.842 483.147 496.162 483.56C495.495 483.973 494.722 484.18 493.842 484.18ZM493.422 482.74C494.328 482.74 495.055 482.427 495.602 481.8C496.162 481.16 496.442 480.22 496.442 478.98C496.442 477.74 496.162 476.807 495.602 476.18C495.055 475.54 494.328 475.22 493.422 475.22C492.502 475.22 491.768 475.533 491.222 476.16C490.688 476.787 490.422 477.72 490.422 478.96C490.422 480.2 490.688 481.14 491.222 481.78C491.768 482.42 492.502 482.74 493.422 482.74ZM505.311 484.18C503.711 484.18 502.444 483.72 501.511 482.8C500.591 481.88 500.131 480.613 500.131 479C500.131 477.933 500.331 477.013 500.731 476.24C501.144 475.453 501.711 474.847 502.431 474.42C503.151 473.98 503.991 473.76 504.951 473.76C505.871 473.76 506.651 473.96 507.291 474.36C507.931 474.747 508.418 475.3 508.751 476.02C509.084 476.74 509.251 477.593 509.251 478.58V479.18H501.551V478.1H508.011L507.671 478.36C507.671 477.32 507.438 476.513 506.971 475.94C506.518 475.367 505.844 475.08 504.951 475.08C503.978 475.08 503.224 475.42 502.691 476.1C502.158 476.767 501.891 477.68 501.891 478.84V479.02C501.891 480.247 502.191 481.173 502.791 481.8C503.404 482.427 504.251 482.74 505.331 482.74C505.931 482.74 506.491 482.653 507.011 482.48C507.531 482.307 508.031 482.02 508.511 481.62L509.111 482.88C508.658 483.293 508.091 483.613 507.411 483.84C506.744 484.067 506.044 484.18 505.311 484.18ZM516.209 484.18C514.609 484.18 513.343 483.72 512.409 482.8C511.489 481.88 511.029 480.613 511.029 479C511.029 477.933 511.229 477.013 511.629 476.24C512.043 475.453 512.609 474.847 513.329 474.42C514.049 473.98 514.889 473.76 515.849 473.76C516.769 473.76 517.549 473.96 518.189 474.36C518.829 474.747 519.316 475.3 519.649 476.02C519.983 476.74 520.149 477.593 520.149 478.58V479.18H512.449V478.1H518.909L518.569 478.36C518.569 477.32 518.336 476.513 517.869 475.94C517.416 475.367 516.743 475.08 515.849 475.08C514.876 475.08 514.123 475.42 513.589 476.1C513.056 476.767 512.789 477.68 512.789 478.84V479.02C512.789 480.247 513.089 481.173 513.689 481.8C514.303 482.427 515.149 482.74 516.229 482.74C516.829 482.74 517.389 482.653 517.909 482.48C518.429 482.307 518.929 482.02 519.409 481.62L520.009 482.88C519.556 483.293 518.989 483.613 518.309 483.84C517.643 484.067 516.943 484.18 516.209 484.18ZM522.528 484V476.32C522.528 475.933 522.514 475.54 522.488 475.14C522.461 474.74 522.421 474.34 522.368 473.94H524.128L524.328 476.1H524.088C524.394 475.34 524.868 474.76 525.508 474.36C526.148 473.96 526.894 473.76 527.748 473.76C528.934 473.76 529.828 474.087 530.428 474.74C531.028 475.38 531.328 476.38 531.328 477.74V484H529.508V477.84C529.508 476.92 529.328 476.26 528.968 475.86C528.608 475.447 528.048 475.24 527.288 475.24C526.381 475.24 525.661 475.513 525.128 476.06C524.608 476.607 524.348 477.347 524.348 478.28V484H522.528ZM542.979 484.18C542.165 484.18 541.405 484.073 540.699 483.86C540.005 483.647 539.432 483.34 538.979 482.94L539.559 481.68C540.052 482.053 540.592 482.34 541.179 482.54C541.779 482.727 542.392 482.82 543.019 482.82C543.779 482.82 544.352 482.68 544.739 482.4C545.139 482.12 545.339 481.747 545.339 481.28C545.339 480.907 545.212 480.607 544.959 480.38C544.705 480.153 544.305 479.987 543.759 479.88L541.859 479.5C541.005 479.3 540.359 478.98 539.919 478.54C539.492 478.087 539.279 477.507 539.279 476.8C539.279 476.213 539.439 475.693 539.759 475.24C540.079 474.773 540.532 474.413 541.119 474.16C541.719 473.893 542.419 473.76 543.219 473.76C543.952 473.76 544.632 473.867 545.259 474.08C545.899 474.293 546.425 474.607 546.839 475.02L546.239 476.24C545.825 475.88 545.359 475.607 544.839 475.42C544.332 475.22 543.812 475.12 543.279 475.12C542.505 475.12 541.932 475.273 541.559 475.58C541.185 475.873 540.999 476.26 540.999 476.74C540.999 477.1 541.112 477.4 541.339 477.64C541.565 477.867 541.932 478.04 542.439 478.16L544.339 478.54C545.232 478.727 545.905 479.033 546.359 479.46C546.812 479.887 547.039 480.453 547.039 481.16C547.039 481.787 546.865 482.327 546.519 482.78C546.185 483.233 545.712 483.58 545.099 483.82C544.499 484.06 543.792 484.18 542.979 484.18ZM554.1 484.18C552.5 484.18 551.233 483.72 550.3 482.8C549.38 481.88 548.92 480.613 548.92 479C548.92 477.933 549.12 477.013 549.52 476.24C549.933 475.453 550.5 474.847 551.22 474.42C551.94 473.98 552.78 473.76 553.74 473.76C554.66 473.76 555.44 473.96 556.08 474.36C556.72 474.747 557.207 475.3 557.54 476.02C557.873 476.74 558.04 477.593 558.04 478.58V479.18H550.34V478.1H556.8L556.46 478.36C556.46 477.32 556.227 476.513 555.76 475.94C555.307 475.367 554.633 475.08 553.74 475.08C552.767 475.08 552.013 475.42 551.48 476.1C550.947 476.767 550.68 477.68 550.68 478.84V479.02C550.68 480.247 550.98 481.173 551.58 481.8C552.193 482.427 553.04 482.74 554.12 482.74C554.72 482.74 555.28 482.653 555.8 482.48C556.32 482.307 556.82 482.02 557.3 481.62L557.9 482.88C557.447 483.293 556.88 483.613 556.2 483.84C555.533 484.067 554.833 484.18 554.1 484.18ZM560.418 484V469.28H562.238V484H560.418ZM569.862 484.18C568.262 484.18 566.995 483.72 566.062 482.8C565.142 481.88 564.682 480.613 564.682 479C564.682 477.933 564.882 477.013 565.282 476.24C565.695 475.453 566.262 474.847 566.982 474.42C567.702 473.98 568.542 473.76 569.502 473.76C570.422 473.76 571.202 473.96 571.842 474.36C572.482 474.747 572.968 475.3 573.302 476.02C573.635 476.74 573.802 477.593 573.802 478.58V479.18H566.102V478.1H572.562L572.222 478.36C572.222 477.32 571.988 476.513 571.522 475.94C571.068 475.367 570.395 475.08 569.502 475.08C568.528 475.08 567.775 475.42 567.242 476.1C566.708 476.767 566.442 477.68 566.442 478.84V479.02C566.442 480.247 566.742 481.173 567.342 481.8C567.955 482.427 568.802 482.74 569.882 482.74C570.482 482.74 571.042 482.653 571.562 482.48C572.082 482.307 572.582 482.02 573.062 481.62L573.662 482.88C573.208 483.293 572.642 483.613 571.962 483.84C571.295 484.067 570.595 484.18 569.862 484.18ZM580.5 484.18C579.5 484.18 578.633 483.973 577.9 483.56C577.167 483.133 576.593 482.527 576.18 481.74C575.78 480.94 575.58 479.993 575.58 478.9C575.58 477.82 575.787 476.9 576.2 476.14C576.613 475.367 577.187 474.78 577.92 474.38C578.653 473.967 579.513 473.76 580.5 473.76C581.153 473.76 581.787 473.873 582.4 474.1C583.013 474.313 583.513 474.627 583.9 475.04L583.28 476.32C582.893 475.947 582.467 475.673 582 475.5C581.533 475.313 581.073 475.22 580.62 475.22C579.633 475.22 578.86 475.54 578.3 476.18C577.74 476.807 577.46 477.72 577.46 478.92C577.46 480.133 577.74 481.067 578.3 481.72C578.86 482.373 579.633 482.7 580.62 482.7C581.06 482.7 581.513 482.613 581.98 482.44C582.447 482.267 582.88 481.993 583.28 481.62L583.9 482.88C583.5 483.307 582.987 483.633 582.36 483.86C581.747 484.073 581.127 484.18 580.5 484.18ZM589.901 484.18C588.848 484.18 588.048 483.893 587.501 483.32C586.968 482.733 586.701 481.853 586.701 480.68V475.34H584.741V473.94H586.701V471.24L588.521 470.74V473.94H591.361V475.34H588.521V480.52C588.521 481.293 588.654 481.847 588.921 482.18C589.201 482.5 589.601 482.66 590.121 482.66C590.388 482.66 590.614 482.64 590.801 482.6C591.001 482.547 591.181 482.487 591.341 482.42V483.92C591.141 484 590.908 484.06 590.641 484.1C590.388 484.153 590.141 484.18 589.901 484.18ZM597.752 484.18C596.152 484.18 594.886 483.72 593.952 482.8C593.032 481.88 592.572 480.613 592.572 479C592.572 477.933 592.772 477.013 593.172 476.24C593.586 475.453 594.152 474.847 594.872 474.42C595.592 473.98 596.432 473.76 597.392 473.76C598.312 473.76 599.092 473.96 599.732 474.36C600.372 474.747 600.859 475.3 601.192 476.02C601.526 476.74 601.692 477.593 601.692 478.58V479.18H593.992V478.1H600.452L600.112 478.36C600.112 477.32 599.879 476.513 599.412 475.94C598.959 475.367 598.286 475.08 597.392 475.08C596.419 475.08 595.666 475.42 595.132 476.1C594.599 476.767 594.332 477.68 594.332 478.84V479.02C594.332 480.247 594.632 481.173 595.232 481.8C595.846 482.427 596.692 482.74 597.772 482.74C598.372 482.74 598.932 482.653 599.452 482.48C599.972 482.307 600.472 482.02 600.952 481.62L601.552 482.88C601.099 483.293 600.532 483.613 599.852 483.84C599.186 484.067 598.486 484.18 597.752 484.18ZM607.911 484.18C607.031 484.18 606.257 483.973 605.591 483.56C604.924 483.147 604.404 482.547 604.031 481.76C603.657 480.973 603.471 480.04 603.471 478.96C603.471 477.88 603.657 476.953 604.031 476.18C604.404 475.393 604.924 474.793 605.591 474.38C606.257 473.967 607.031 473.76 607.911 473.76C608.791 473.76 609.557 473.98 610.211 474.42C610.877 474.86 611.324 475.467 611.551 476.24H611.311V469.28H613.131V484H611.331V481.66H611.551C611.337 482.447 610.897 483.067 610.231 483.52C609.577 483.96 608.804 484.18 607.911 484.18ZM608.331 482.74C609.237 482.74 609.964 482.42 610.511 481.78C611.071 481.14 611.351 480.2 611.351 478.96C611.351 477.72 611.071 476.787 610.511 476.16C609.964 475.533 609.237 475.22 608.331 475.22C607.424 475.22 606.691 475.533 606.131 476.16C605.584 476.787 605.311 477.72 605.311 478.96C605.311 480.2 605.584 481.14 606.131 481.78C606.691 482.42 607.424 482.74 608.331 482.74ZM622.014 484V475.34H620.054V473.94H622.514L622.014 474.4V472.78C622.014 471.607 622.307 470.72 622.894 470.12C623.48 469.507 624.334 469.2 625.454 469.2C625.72 469.2 626 469.22 626.294 469.26C626.6 469.3 626.854 469.367 627.054 469.46V470.94C626.894 470.873 626.694 470.82 626.454 470.78C626.214 470.74 625.98 470.72 625.754 470.72C625.354 470.72 625.007 470.8 624.714 470.96C624.42 471.12 624.2 471.36 624.054 471.68C623.907 471.987 623.834 472.393 623.834 472.9V474.32L623.554 473.94H626.614V475.34H623.834V484H622.014ZM632.315 484.18C631.328 484.18 630.475 483.973 629.755 483.56C629.035 483.133 628.475 482.533 628.075 481.76C627.675 480.973 627.475 480.04 627.475 478.96C627.475 477.893 627.675 476.973 628.075 476.2C628.475 475.413 629.035 474.813 629.755 474.4C630.475 473.973 631.328 473.76 632.315 473.76C633.301 473.76 634.155 473.973 634.875 474.4C635.608 474.813 636.168 475.413 636.555 476.2C636.955 476.973 637.155 477.893 637.155 478.96C637.155 480.04 636.955 480.973 636.555 481.76C636.168 482.533 635.608 483.133 634.875 483.56C634.155 483.973 633.301 484.18 632.315 484.18ZM632.315 482.74C633.221 482.74 633.948 482.42 634.495 481.78C635.041 481.14 635.315 480.2 635.315 478.96C635.315 477.72 635.041 476.787 634.495 476.16C633.948 475.533 633.221 475.22 632.315 475.22C631.395 475.22 630.661 475.533 630.115 476.16C629.581 476.787 629.315 477.72 629.315 478.96C629.315 480.2 629.581 481.14 630.115 481.78C630.661 482.42 631.395 482.74 632.315 482.74ZM639.578 484V476.4C639.578 476 639.565 475.593 639.538 475.18C639.525 474.753 639.491 474.34 639.438 473.94H641.198L641.418 476.46L641.118 476.48C641.251 475.867 641.478 475.36 641.798 474.96C642.131 474.547 642.525 474.247 642.978 474.06C643.445 473.86 643.925 473.76 644.418 473.76C644.631 473.76 644.811 473.767 644.958 473.78C645.105 473.793 645.251 473.827 645.398 473.88L645.358 475.5C645.158 475.42 644.971 475.373 644.798 475.36C644.638 475.333 644.438 475.32 644.198 475.32C643.611 475.32 643.105 475.453 642.678 475.72C642.265 475.987 641.945 476.34 641.718 476.78C641.505 477.22 641.398 477.693 641.398 478.2V484H639.578ZM449.52 513.32V501.32C449.52 500.933 449.507 500.54 449.48 500.14C449.453 499.74 449.413 499.34 449.36 498.94H451.12L451.34 501.26H451.12C451.32 500.487 451.747 499.88 452.4 499.44C453.053 498.987 453.833 498.76 454.74 498.76C455.633 498.76 456.413 498.967 457.08 499.38C457.747 499.793 458.26 500.393 458.62 501.18C458.993 501.953 459.18 502.88 459.18 503.96C459.18 505.04 458.993 505.973 458.62 506.76C458.26 507.547 457.747 508.147 457.08 508.56C456.413 508.973 455.633 509.18 454.74 509.18C453.847 509.18 453.073 508.96 452.42 508.52C451.78 508.067 451.347 507.46 451.12 506.7H451.34V513.32H449.52ZM454.32 507.74C455.24 507.74 455.973 507.42 456.52 506.78C457.067 506.14 457.34 505.2 457.34 503.96C457.34 502.72 457.067 501.787 456.52 501.16C455.973 500.533 455.24 500.22 454.32 500.22C453.4 500.22 452.667 500.533 452.12 501.16C451.587 501.787 451.32 502.72 451.32 503.96C451.32 505.2 451.587 506.14 452.12 506.78C452.667 507.42 453.4 507.74 454.32 507.74ZM465.869 509.18C464.883 509.18 464.029 508.973 463.309 508.56C462.589 508.133 462.029 507.533 461.629 506.76C461.229 505.973 461.029 505.04 461.029 503.96C461.029 502.893 461.229 501.973 461.629 501.2C462.029 500.413 462.589 499.813 463.309 499.4C464.029 498.973 464.883 498.76 465.869 498.76C466.856 498.76 467.709 498.973 468.429 499.4C469.163 499.813 469.723 500.413 470.109 501.2C470.509 501.973 470.709 502.893 470.709 503.96C470.709 505.04 470.509 505.973 470.109 506.76C469.723 507.533 469.163 508.133 468.429 508.56C467.709 508.973 466.856 509.18 465.869 509.18ZM465.869 507.74C466.776 507.74 467.503 507.42 468.049 506.78C468.596 506.14 468.869 505.2 468.869 503.96C468.869 502.72 468.596 501.787 468.049 501.16C467.503 500.533 466.776 500.22 465.869 500.22C464.949 500.22 464.216 500.533 463.669 501.16C463.136 501.787 462.869 502.72 462.869 503.96C462.869 505.2 463.136 506.14 463.669 506.78C464.216 507.42 464.949 507.74 465.869 507.74ZM476.993 509.18C476.113 509.18 475.339 508.973 474.673 508.56C474.006 508.147 473.486 507.547 473.113 506.76C472.739 505.973 472.553 505.04 472.553 503.96C472.553 502.88 472.739 501.953 473.113 501.18C473.486 500.393 474.006 499.793 474.673 499.38C475.339 498.967 476.113 498.76 476.993 498.76C477.873 498.76 478.639 498.98 479.293 499.42C479.959 499.86 480.406 500.467 480.633 501.24H480.393V494.28H482.213V509H480.413V506.66H480.633C480.419 507.447 479.979 508.067 479.313 508.52C478.659 508.96 477.886 509.18 476.993 509.18ZM477.413 507.74C478.319 507.74 479.046 507.42 479.593 506.78C480.153 506.14 480.433 505.2 480.433 503.96C480.433 502.72 480.153 501.787 479.593 501.16C479.046 500.533 478.319 500.22 477.413 500.22C476.506 500.22 475.773 500.533 475.213 501.16C474.666 501.787 474.393 502.72 474.393 503.96C474.393 505.2 474.666 506.14 475.213 506.78C475.773 507.42 476.506 507.74 477.413 507.74ZM489.582 509.18C488.582 509.18 487.716 508.973 486.982 508.56C486.249 508.133 485.676 507.527 485.262 506.74C484.862 505.94 484.662 504.993 484.662 503.9C484.662 502.82 484.869 501.9 485.282 501.14C485.696 500.367 486.269 499.78 487.002 499.38C487.736 498.967 488.596 498.76 489.582 498.76C490.236 498.76 490.869 498.873 491.482 499.1C492.096 499.313 492.596 499.627 492.982 500.04L492.362 501.32C491.976 500.947 491.549 500.673 491.082 500.5C490.616 500.313 490.156 500.22 489.702 500.22C488.716 500.22 487.942 500.54 487.382 501.18C486.822 501.807 486.542 502.72 486.542 503.92C486.542 505.133 486.822 506.067 487.382 506.72C487.942 507.373 488.716 507.7 489.702 507.7C490.142 507.7 490.596 507.613 491.062 507.44C491.529 507.267 491.962 506.993 492.362 506.62L492.982 507.88C492.582 508.307 492.069 508.633 491.442 508.86C490.829 509.073 490.209 509.18 489.582 509.18ZM498.965 509.18C498.085 509.18 497.312 508.973 496.645 508.56C495.979 508.147 495.459 507.547 495.085 506.76C494.712 505.973 494.525 505.04 494.525 503.96C494.525 502.88 494.712 501.953 495.085 501.18C495.459 500.393 495.979 499.793 496.645 499.38C497.312 498.967 498.085 498.76 498.965 498.76C499.859 498.76 500.632 498.987 501.285 499.44C501.952 499.88 502.392 500.487 502.605 501.26H502.365L502.585 498.94H504.345C504.305 499.34 504.265 499.74 504.225 500.14C504.199 500.54 504.185 500.933 504.185 501.32V509H502.365V506.7H502.585C502.372 507.46 501.932 508.067 501.265 508.52C500.612 508.96 499.845 509.18 498.965 509.18ZM499.385 507.74C500.292 507.74 501.019 507.42 501.565 506.78C502.112 506.14 502.385 505.2 502.385 503.96C502.385 502.72 502.112 501.787 501.565 501.16C501.019 500.533 500.292 500.22 499.385 500.22C498.479 500.22 497.745 500.533 497.185 501.16C496.639 501.787 496.365 502.72 496.365 503.96C496.365 505.2 496.639 506.14 497.185 506.78C497.732 507.42 498.465 507.74 499.385 507.74ZM510.635 509.18C509.822 509.18 509.062 509.073 508.355 508.86C507.662 508.647 507.088 508.34 506.635 507.94L507.215 506.68C507.708 507.053 508.248 507.34 508.835 507.54C509.435 507.727 510.048 507.82 510.675 507.82C511.435 507.82 512.008 507.68 512.395 507.4C512.795 507.12 512.995 506.747 512.995 506.28C512.995 505.907 512.868 505.607 512.615 505.38C512.362 505.153 511.962 504.987 511.415 504.88L509.515 504.5C508.662 504.3 508.015 503.98 507.575 503.54C507.148 503.087 506.935 502.507 506.935 501.8C506.935 501.213 507.095 500.693 507.415 500.24C507.735 499.773 508.188 499.413 508.775 499.16C509.375 498.893 510.075 498.76 510.875 498.76C511.608 498.76 512.288 498.867 512.915 499.08C513.555 499.293 514.082 499.607 514.495 500.02L513.895 501.24C513.482 500.88 513.015 500.607 512.495 500.42C511.988 500.22 511.468 500.12 510.935 500.12C510.162 500.12 509.588 500.273 509.215 500.58C508.842 500.873 508.655 501.26 508.655 501.74C508.655 502.1 508.768 502.4 508.995 502.64C509.222 502.867 509.588 503.04 510.095 503.16L511.995 503.54C512.888 503.727 513.562 504.033 514.015 504.46C514.468 504.887 514.695 505.453 514.695 506.16C514.695 506.787 514.522 507.327 514.175 507.78C513.842 508.233 513.368 508.58 512.755 508.82C512.155 509.06 511.448 509.18 510.635 509.18ZM520.839 509.18C519.785 509.18 518.985 508.893 518.439 508.32C517.905 507.733 517.639 506.853 517.639 505.68V500.34H515.679V498.94H517.639V496.24L519.459 495.74V498.94H522.299V500.34H519.459V505.52C519.459 506.293 519.592 506.847 519.859 507.18C520.139 507.5 520.539 507.66 521.059 507.66C521.325 507.66 521.552 507.64 521.739 507.6C521.939 507.547 522.119 507.487 522.279 507.42V508.92C522.079 509 521.845 509.06 521.579 509.1C521.325 509.153 521.079 509.18 520.839 509.18ZM532.441 509L528.141 498.94H530.101L533.601 507.58H533.041L536.601 498.94H538.461L534.141 509H532.441ZM540.165 509V498.94H541.985V509H540.165ZM540.005 496.74V494.78H542.165V496.74H540.005ZM548.868 509.18C547.988 509.18 547.214 508.973 546.548 508.56C545.881 508.147 545.361 507.547 544.988 506.76C544.614 505.973 544.428 505.04 544.428 503.96C544.428 502.88 544.614 501.953 544.988 501.18C545.361 500.393 545.881 499.793 546.548 499.38C547.214 498.967 547.988 498.76 548.868 498.76C549.748 498.76 550.514 498.98 551.168 499.42C551.834 499.86 552.281 500.467 552.508 501.24H552.268V494.28H554.088V509H552.288V506.66H552.508C552.294 507.447 551.854 508.067 551.188 508.52C550.534 508.96 549.761 509.18 548.868 509.18ZM549.288 507.74C550.194 507.74 550.921 507.42 551.468 506.78C552.028 506.14 552.308 505.2 552.308 503.96C552.308 502.72 552.028 501.787 551.468 501.16C550.921 500.533 550.194 500.22 549.288 500.22C548.381 500.22 547.648 500.533 547.088 501.16C546.541 501.787 546.268 502.72 546.268 503.96C546.268 505.2 546.541 506.14 547.088 506.78C547.648 507.42 548.381 507.74 549.288 507.74ZM561.717 509.18C560.117 509.18 558.851 508.72 557.917 507.8C556.997 506.88 556.537 505.613 556.537 504C556.537 502.933 556.737 502.013 557.137 501.24C557.551 500.453 558.117 499.847 558.837 499.42C559.557 498.98 560.397 498.76 561.357 498.76C562.277 498.76 563.057 498.96 563.697 499.36C564.337 499.747 564.824 500.3 565.157 501.02C565.491 501.74 565.657 502.593 565.657 503.58V504.18H557.957V503.1H564.417L564.077 503.36C564.077 502.32 563.844 501.513 563.377 500.94C562.924 500.367 562.251 500.08 561.357 500.08C560.384 500.08 559.631 500.42 559.097 501.1C558.564 501.767 558.297 502.68 558.297 503.84V504.02C558.297 505.247 558.597 506.173 559.197 506.8C559.811 507.427 560.657 507.74 561.737 507.74C562.337 507.74 562.897 507.653 563.417 507.48C563.937 507.307 564.437 507.02 564.917 506.62L565.517 507.88C565.064 508.293 564.497 508.613 563.817 508.84C563.151 509.067 562.451 509.18 561.717 509.18ZM572.276 509.18C571.289 509.18 570.436 508.973 569.716 508.56C568.996 508.133 568.436 507.533 568.036 506.76C567.636 505.973 567.436 505.04 567.436 503.96C567.436 502.893 567.636 501.973 568.036 501.2C568.436 500.413 568.996 499.813 569.716 499.4C570.436 498.973 571.289 498.76 572.276 498.76C573.262 498.76 574.116 498.973 574.836 499.4C575.569 499.813 576.129 500.413 576.516 501.2C576.916 501.973 577.116 502.893 577.116 503.96C577.116 505.04 576.916 505.973 576.516 506.76C576.129 507.533 575.569 508.133 574.836 508.56C574.116 508.973 573.262 509.18 572.276 509.18ZM572.276 507.74C573.182 507.74 573.909 507.42 574.456 506.78C575.002 506.14 575.276 505.2 575.276 503.96C575.276 502.72 575.002 501.787 574.456 501.16C573.909 500.533 573.182 500.22 572.276 500.22C571.356 500.22 570.622 500.533 570.076 501.16C569.542 501.787 569.276 502.72 569.276 503.96C569.276 505.2 569.542 506.14 570.076 506.78C570.622 507.42 571.356 507.74 572.276 507.74Z" fill="#292D32"/>
<rect x="379.5" y="417.5" width="301" height="118" rx="8.5" stroke="#2563EB" stroke-opacity="0.15" stroke-width="3"/>
<rect width="187" height="159" rx="10" fill="white"/>
<path d="M81.1549 39.3397L86.3449 44.5297C89.9899 48.1747 91.2349 48.1147 94.8349 44.5297L103.19 36.1747C106.1 33.2647 106.835 31.3297 103.19 27.6847L97.9999 22.4947C94.1149 18.6097 92.4199 19.5847 89.5099 22.4947L81.1549 30.8497C77.5699 34.4497 77.2699 35.4547 81.1549 39.3397Z" stroke="#9747FF" stroke-width="2.25" stroke-linecap="round" stroke-linejoin="round"/>
<path d="M104.3 41.1843L103.31 42.8193C101.915 45.1443 102.995 47.0493 105.71 47.0493C108.425 47.0493 109.505 45.1443 108.11 42.8193L107.12 41.1843C106.34 39.8943 105.065 39.8943 104.3 41.1843Z" stroke="#9747FF" stroke-width="2.25" stroke-linecap="round" stroke-linejoin="round"/>
<path d="M78.5 34.3602C86.84 32.0952 95.63 32.0202 104 34.1652L104.75 34.3602" stroke="#9747FF" stroke-width="2.25" stroke-linecap="round" stroke-linejoin="round"/>
<path d="M29.7017 88.18C28.2884 88.18 27.0751 87.8867 26.0617 87.3C25.0617 86.7133 24.2951 85.88 23.7617 84.8C23.2284 83.7067 22.9617 82.42 22.9617 80.94C22.9617 79.46 23.2284 78.18 23.7617 77.1C24.2951 76.02 25.0617 75.1867 26.0617 74.6C27.0751 74.0133 28.2884 73.72 29.7017 73.72C30.7151 73.72 31.6151 73.8733 32.4017 74.18C33.1884 74.4733 33.8751 74.9067 34.4617 75.48L33.7817 76.98C33.1417 76.42 32.5084 76.02 31.8817 75.78C31.2684 75.5267 30.5551 75.4 29.7417 75.4C28.1817 75.4 26.9884 75.88 26.1617 76.84C25.3351 77.8 24.9217 79.1667 24.9217 80.94C24.9217 82.7133 25.3351 84.0867 26.1617 85.06C26.9884 86.02 28.1817 86.5 29.7417 86.5C30.5551 86.5 31.2684 86.38 31.8817 86.14C32.5084 85.8867 33.1417 85.48 33.7817 84.92L34.4617 86.4C33.8751 86.9733 33.1817 87.4133 32.3817 87.72C31.5951 88.0267 30.7017 88.18 29.7017 88.18ZM40.3188 88.18C39.1054 88.18 38.1921 87.8533 37.5788 87.2C36.9788 86.5467 36.6788 85.54 36.6788 84.18V77.94H38.4988V84.14C38.4988 85.02 38.6788 85.6667 39.0388 86.08C39.3988 86.4933 39.9588 86.7 40.7188 86.7C41.5454 86.7 42.2121 86.4267 42.7188 85.88C43.2388 85.32 43.4988 84.58 43.4988 83.66V77.94H45.3187V88H43.5588V85.78H43.8188C43.5388 86.54 43.0921 87.1333 42.4788 87.56C41.8654 87.9733 41.1454 88.18 40.3188 88.18ZM51.7794 88.18C50.966 88.18 50.206 88.0733 49.4994 87.86C48.806 87.6467 48.2327 87.34 47.7794 86.94L48.3594 85.68C48.8527 86.0533 49.3927 86.34 49.9794 86.54C50.5794 86.7267 51.1927 86.82 51.8194 86.82C52.5794 86.82 53.1527 86.68 53.5394 86.4C53.9394 86.12 54.1394 85.7467 54.1394 85.28C54.1394 84.9067 54.0127 84.6067 53.7594 84.38C53.506 84.1533 53.106 83.9867 52.5594 83.88L50.6594 83.5C49.806 83.3 49.1594 82.98 48.7194 82.54C48.2927 82.0867 48.0794 81.5067 48.0794 80.8C48.0794 80.2133 48.2394 79.6933 48.5594 79.24C48.8794 78.7733 49.3327 78.4133 49.9194 78.16C50.5194 77.8933 51.2194 77.76 52.0194 77.76C52.7527 77.76 53.4327 77.8667 54.0594 78.08C54.6994 78.2933 55.226 78.6067 55.6394 79.02L55.0394 80.24C54.626 79.88 54.1594 79.6067 53.6394 79.42C53.1327 79.22 52.6127 79.12 52.0794 79.12C51.306 79.12 50.7327 79.2733 50.3594 79.58C49.986 79.8733 49.7994 80.26 49.7994 80.74C49.7994 81.1 49.9127 81.4 50.1394 81.64C50.366 81.8667 50.7327 82.04 51.2394 82.16L53.1394 82.54C54.0327 82.7267 54.706 83.0333 55.1594 83.46C55.6127 83.8867 55.8394 84.4533 55.8394 85.16C55.8394 85.7867 55.666 86.3267 55.3194 86.78C54.986 87.2333 54.5127 87.58 53.8994 87.82C53.2994 88.06 52.5927 88.18 51.7794 88.18ZM61.9831 88.18C60.9298 88.18 60.1298 87.8933 59.5831 87.32C59.0498 86.7333 58.7831 85.8533 58.7831 84.68V79.34H56.8231V77.94H58.7831V75.24L60.6031 74.74V77.94H63.4431V79.34H60.6031V84.52C60.6031 85.2933 60.7365 85.8467 61.0031 86.18C61.2831 86.5 61.6831 86.66 62.2031 86.66C62.4698 86.66 62.6965 86.64 62.8831 86.6C63.0831 86.5467 63.2631 86.4867 63.4231 86.42V87.92C63.2231 88 62.9898 88.06 62.7231 88.1C62.4698 88.1533 62.2231 88.18 61.9831 88.18ZM69.4944 88.18C68.5077 88.18 67.6544 87.9733 66.9344 87.56C66.2144 87.1333 65.6544 86.5333 65.2544 85.76C64.8544 84.9733 64.6544 84.04 64.6544 82.96C64.6544 81.8933 64.8544 80.9733 65.2544 80.2C65.6544 79.4133 66.2144 78.8133 66.9344 78.4C67.6544 77.9733 68.5077 77.76 69.4944 77.76C70.481 77.76 71.3344 77.9733 72.0544 78.4C72.7877 78.8133 73.3477 79.4133 73.7344 80.2C74.1344 80.9733 74.3344 81.8933 74.3344 82.96C74.3344 84.04 74.1344 84.9733 73.7344 85.76C73.3477 86.5333 72.7877 87.1333 72.0544 87.56C71.3344 87.9733 70.481 88.18 69.4944 88.18ZM69.4944 86.74C70.401 86.74 71.1277 86.42 71.6744 85.78C72.221 85.14 72.4944 84.2 72.4944 82.96C72.4944 81.72 72.221 80.7867 71.6744 80.16C71.1277 79.5333 70.401 79.22 69.4944 79.22C68.5744 79.22 67.841 79.5333 67.2944 80.16C66.761 80.7867 66.4944 81.72 66.4944 82.96C66.4944 84.2 66.761 85.14 67.2944 85.78C67.841 86.42 68.5744 86.74 69.4944 86.74ZM76.7778 88V80.32C76.7778 79.9333 76.7645 79.54 76.7378 79.14C76.7111 78.74 76.6711 78.34 76.6178 77.94H78.3778L78.5778 80.1H78.3378C78.6045 79.3533 79.0311 78.78 79.6178 78.38C80.2045 77.9667 80.9045 77.76 81.7178 77.76C82.5445 77.76 83.2245 77.96 83.7578 78.36C84.2911 78.7467 84.6511 79.36 84.8378 80.2H84.5378C84.7911 79.4533 85.2378 78.86 85.8778 78.42C86.5178 77.98 87.2645 77.76 88.1178 77.76C89.2245 77.76 90.0578 78.0867 90.6178 78.74C91.1778 79.38 91.4578 80.38 91.4578 81.74V88H89.6378V81.84C89.6378 80.92 89.4778 80.26 89.1578 79.86C88.8378 79.4467 88.3311 79.24 87.6378 79.24C86.8245 79.24 86.1845 79.52 85.7178 80.08C85.2511 80.6267 85.0178 81.3733 85.0178 82.32V88H83.1978V81.84C83.1978 80.92 83.0378 80.26 82.7178 79.86C82.4111 79.4467 81.9045 79.24 81.1978 79.24C80.3845 79.24 79.7445 79.52 79.2778 80.08C78.8245 80.6267 78.5978 81.3733 78.5978 82.32V88H76.7778ZM94.4341 88V77.94H96.2541V88H94.4341ZM94.2741 75.74V73.78H96.4341V75.74H94.2741ZM98.7573 88V86.78L105.437 78.88V79.34H98.7573V77.94H107.117V79.16L100.397 87.1L100.377 86.6H107.337V88H98.7573ZM114.073 88.18C112.473 88.18 111.206 87.72 110.273 86.8C109.353 85.88 108.893 84.6133 108.893 83C108.893 81.9333 109.093 81.0133 109.493 80.24C109.906 79.4533 110.473 78.8467 111.193 78.42C111.913 77.98 112.753 77.76 113.713 77.76C114.633 77.76 115.413 77.96 116.053 78.36C116.693 78.7467 117.179 79.3 117.513 80.02C117.846 80.74 118.013 81.5933 118.013 82.58V83.18H110.313V82.1H116.773L116.433 82.36C116.433 81.32 116.199 80.5133 115.733 79.94C115.279 79.3667 114.606 79.08 113.713 79.08C112.739 79.08 111.986 79.42 111.453 80.1C110.919 80.7667 110.653 81.68 110.653 82.84V83.02C110.653 84.2467 110.953 85.1733 111.553 85.8C112.166 86.4267 113.013 86.74 114.093 86.74C114.693 86.74 115.253 86.6533 115.773 86.48C116.293 86.3067 116.793 86.02 117.273 85.62L117.873 86.88C117.419 87.2933 116.853 87.6133 116.173 87.84C115.506 88.0667 114.806 88.18 114.073 88.18ZM125.325 92.54L124.905 91.06C125.531 90.9133 126.051 90.74 126.465 90.54C126.878 90.3533 127.225 90.1067 127.505 89.8C127.785 89.4933 128.031 89.1067 128.245 88.64L128.745 87.44L128.705 88.2L124.325 77.94H126.285L129.785 86.56H129.265L132.765 77.94H134.645L130.025 88.78C129.745 89.4333 129.438 89.98 129.105 90.42C128.785 90.86 128.431 91.22 128.045 91.5C127.671 91.78 127.258 92 126.805 92.16C126.351 92.32 125.858 92.4467 125.325 92.54ZM140.432 88.18C139.445 88.18 138.592 87.9733 137.872 87.56C137.152 87.1333 136.592 86.5333 136.192 85.76C135.792 84.9733 135.592 84.04 135.592 82.96C135.592 81.8933 135.792 80.9733 136.192 80.2C136.592 79.4133 137.152 78.8133 137.872 78.4C138.592 77.9733 139.445 77.76 140.432 77.76C141.419 77.76 142.272 77.9733 142.992 78.4C143.725 78.8133 144.285 79.4133 144.672 80.2C145.072 80.9733 145.272 81.8933 145.272 82.96C145.272 84.04 145.072 84.9733 144.672 85.76C144.285 86.5333 143.725 87.1333 142.992 87.56C142.272 87.9733 141.419 88.18 140.432 88.18ZM140.432 86.74C141.339 86.74 142.065 86.42 142.612 85.78C143.159 85.14 143.432 84.2 143.432 82.96C143.432 81.72 143.159 80.7867 142.612 80.16C142.065 79.5333 141.339 79.22 140.432 79.22C139.512 79.22 138.779 79.5333 138.232 80.16C137.699 80.7867 137.432 81.72 137.432 82.96C137.432 84.2 137.699 85.14 138.232 85.78C138.779 86.42 139.512 86.74 140.432 86.74ZM151.295 88.18C150.082 88.18 149.169 87.8533 148.555 87.2C147.955 86.5467 147.655 85.54 147.655 84.18V77.94H149.475V84.14C149.475 85.02 149.655 85.6667 150.015 86.08C150.375 86.4933 150.935 86.7 151.695 86.7C152.522 86.7 153.189 86.4267 153.695 85.88C154.215 85.32 154.475 84.58 154.475 83.66V77.94H156.295V88H154.535V85.78H154.795C154.515 86.54 154.069 87.1333 153.455 87.56C152.842 87.9733 152.122 88.18 151.295 88.18ZM159.336 88V80.4C159.336 80 159.323 79.5933 159.296 79.18C159.283 78.7533 159.249 78.34 159.196 77.94H160.956L161.176 80.46L160.876 80.48C161.009 79.8667 161.236 79.36 161.556 78.96C161.889 78.5467 162.283 78.2467 162.736 78.06C163.203 77.86 163.683 77.76 164.176 77.76C164.389 77.76 164.569 77.7667 164.716 77.78C164.863 77.7933 165.009 77.8267 165.156 77.88L165.116 79.5C164.916 79.42 164.729 79.3733 164.556 79.36C164.396 79.3333 164.196 79.32 163.956 79.32C163.369 79.32 162.863 79.4533 162.436 79.72C162.023 79.9867 161.703 80.34 161.476 80.78C161.263 81.22 161.156 81.6933 161.156 82.2V88H159.336ZM43.1584 113.18C42.1584 113.18 41.2917 112.973 40.5584 112.56C39.825 112.133 39.2517 111.527 38.8384 110.74C38.4384 109.94 38.2384 108.993 38.2384 107.9C38.2384 106.82 38.445 105.9 38.8584 105.14C39.2717 104.367 39.845 103.78 40.5784 103.38C41.3117 102.967 42.1717 102.76 43.1584 102.76C43.8117 102.76 44.445 102.873 45.0584 103.1C45.6717 103.313 46.1717 103.627 46.5584 104.04L45.9384 105.32C45.5517 104.947 45.125 104.673 44.6584 104.5C44.1917 104.313 43.7317 104.22 43.2784 104.22C42.2917 104.22 41.5184 104.54 40.9584 105.18C40.3984 105.807 40.1184 106.72 40.1184 107.92C40.1184 109.133 40.3984 110.067 40.9584 110.72C41.5184 111.373 42.2917 111.7 43.2784 111.7C43.7184 111.7 44.1717 111.613 44.6384 111.44C45.105 111.267 45.5384 110.993 45.9384 110.62L46.5584 111.88C46.1584 112.307 45.645 112.633 45.0184 112.86C44.405 113.073 43.785 113.18 43.1584 113.18ZM48.7798 113V98.28H50.5998V105.12H50.3398C50.6331 104.347 51.1064 103.76 51.7598 103.36C52.4131 102.96 53.1664 102.76 54.0198 102.76C55.2331 102.76 56.1264 103.087 56.6998 103.74C57.2864 104.393 57.5798 105.38 57.5798 106.7V113H55.7598V106.8C55.7598 105.907 55.5864 105.26 55.2398 104.86C54.8931 104.447 54.3264 104.24 53.5398 104.24C52.6598 104.24 51.9464 104.513 51.3998 105.06C50.8664 105.607 50.5998 106.333 50.5998 107.24V113H48.7798ZM64.3971 113.18C63.5171 113.18 62.7438 112.973 62.0771 112.56C61.4104 112.147 60.8904 111.547 60.5171 110.76C60.1438 109.973 59.9571 109.04 59.9571 107.96C59.9571 106.88 60.1438 105.953 60.5171 105.18C60.8904 104.393 61.4104 103.793 62.0771 103.38C62.7438 102.967 63.5171 102.76 64.3971 102.76C65.2904 102.76 66.0638 102.987 66.7171 103.44C67.3838 103.88 67.8238 104.487 68.0371 105.26H67.7971L68.0171 102.94H69.7771C69.7371 103.34 69.6971 103.74 69.6571 104.14C69.6304 104.54 69.6171 104.933 69.6171 105.32V113H67.7971V110.7H68.0171C67.8038 111.46 67.3638 112.067 66.6971 112.52C66.0438 112.96 65.2771 113.18 64.3971 113.18ZM64.8171 111.74C65.7238 111.74 66.4504 111.42 66.9971 110.78C67.5438 110.14 67.8171 109.2 67.8171 107.96C67.8171 106.72 67.5438 105.787 66.9971 105.16C66.4504 104.533 65.7238 104.22 64.8171 104.22C63.9104 104.22 63.1771 104.533 62.6171 105.16C62.0704 105.787 61.7971 106.72 61.7971 107.96C61.7971 109.2 62.0704 110.14 62.6171 110.78C63.1638 111.42 63.8971 111.74 64.8171 111.74ZM72.6465 113V105.4C72.6465 105 72.6332 104.593 72.6065 104.18C72.5932 103.753 72.5598 103.34 72.5065 102.94H74.2665L74.4865 105.46L74.1865 105.48C74.3198 104.867 74.5465 104.36 74.8665 103.96C75.1998 103.547 75.5932 103.247 76.0465 103.06C76.5132 102.86 76.9932 102.76 77.4865 102.76C77.6998 102.76 77.8798 102.767 78.0265 102.78C78.1732 102.793 78.3198 102.827 78.4665 102.88L78.4265 104.5C78.2265 104.42 78.0398 104.373 77.8665 104.36C77.7065 104.333 77.5065 104.32 77.2665 104.32C76.6798 104.32 76.1732 104.453 75.7465 104.72C75.3332 104.987 75.0132 105.34 74.7865 105.78C74.5732 106.22 74.4665 106.693 74.4665 107.2V113H72.6465ZM83.8112 113.18C82.9312 113.18 82.1578 112.973 81.4912 112.56C80.8245 112.147 80.3045 111.547 79.9312 110.76C79.5578 109.973 79.3712 109.04 79.3712 107.96C79.3712 106.88 79.5578 105.953 79.9312 105.18C80.3045 104.393 80.8245 103.793 81.4912 103.38C82.1578 102.967 82.9312 102.76 83.8112 102.76C84.7045 102.76 85.4778 102.987 86.1312 103.44C86.7978 103.88 87.2378 104.487 87.4512 105.26H87.2112L87.4312 102.94H89.1912C89.1512 103.34 89.1112 103.74 89.0712 104.14C89.0445 104.54 89.0312 104.933 89.0312 105.32V113H87.2112V110.7H87.4312C87.2178 111.46 86.7778 112.067 86.1112 112.52C85.4578 112.96 84.6912 113.18 83.8112 113.18ZM84.2312 111.74C85.1378 111.74 85.8645 111.42 86.4112 110.78C86.9578 110.14 87.2312 109.2 87.2312 107.96C87.2312 106.72 86.9578 105.787 86.4112 105.16C85.8645 104.533 85.1378 104.22 84.2312 104.22C83.3245 104.22 82.5912 104.533 82.0312 105.16C81.4845 105.787 81.2112 106.72 81.2112 107.96C81.2112 109.2 81.4845 110.14 82.0312 110.78C82.5778 111.42 83.3112 111.74 84.2312 111.74ZM96.4005 113.18C95.4005 113.18 94.5339 112.973 93.8005 112.56C93.0672 112.133 92.4939 111.527 92.0805 110.74C91.6805 109.94 91.4805 108.993 91.4805 107.9C91.4805 106.82 91.6872 105.9 92.1005 105.14C92.5139 104.367 93.0872 103.78 93.8205 103.38C94.5539 102.967 95.4139 102.76 96.4005 102.76C97.0539 102.76 97.6872 102.873 98.3005 103.1C98.9139 103.313 99.4139 103.627 99.8005 104.04L99.1805 105.32C98.7939 104.947 98.3672 104.673 97.9005 104.5C97.4339 104.313 96.9739 104.22 96.5205 104.22C95.5339 104.22 94.7605 104.54 94.2005 105.18C93.6405 105.807 93.3605 106.72 93.3605 107.92C93.3605 109.133 93.6405 110.067 94.2005 110.72C94.7605 111.373 95.5339 111.7 96.5205 111.7C96.9605 111.7 97.4139 111.613 97.8805 111.44C98.3472 111.267 98.7805 110.993 99.1805 110.62L99.8005 111.88C99.4005 112.307 98.8872 112.633 98.2605 112.86C97.6472 113.073 97.0272 113.18 96.4005 113.18ZM105.801 113.18C104.748 113.18 103.948 112.893 103.401 112.32C102.868 111.733 102.601 110.853 102.601 109.68V104.34H100.641V102.94H102.601V100.24L104.421 99.74V102.94H107.261V104.34H104.421V109.52C104.421 110.293 104.555 110.847 104.821 111.18C105.101 111.5 105.501 111.66 106.021 111.66C106.288 111.66 106.515 111.64 106.701 111.6C106.901 111.547 107.081 111.487 107.241 111.42V112.92C107.041 113 106.808 113.06 106.541 113.1C106.288 113.153 106.041 113.18 105.801 113.18ZM113.653 113.18C112.053 113.18 110.786 112.72 109.853 111.8C108.933 110.88 108.473 109.613 108.473 108C108.473 106.933 108.673 106.013 109.073 105.24C109.486 104.453 110.053 103.847 110.773 103.42C111.493 102.98 112.333 102.76 113.293 102.76C114.213 102.76 114.993 102.96 115.633 103.36C116.273 103.747 116.759 104.3 117.093 105.02C117.426 105.74 117.593 106.593 117.593 107.58V108.18H109.893V107.1H116.353L116.013 107.36C116.013 106.32 115.779 105.513 115.313 104.94C114.859 104.367 114.186 104.08 113.293 104.08C112.319 104.08 111.566 104.42 111.033 105.1C110.499 105.767 110.233 106.68 110.233 107.84V108.02C110.233 109.247 110.533 110.173 111.133 110.8C111.746 111.427 112.593 111.74 113.673 111.74C114.273 111.74 114.833 111.653 115.353 111.48C115.873 111.307 116.373 111.02 116.853 110.62L117.453 111.88C116.999 112.293 116.433 112.613 115.753 112.84C115.086 113.067 114.386 113.18 113.653 113.18ZM119.951 113V105.4C119.951 105 119.938 104.593 119.911 104.18C119.898 103.753 119.865 103.34 119.811 102.94H121.571L121.791 105.46L121.491 105.48C121.625 104.867 121.851 104.36 122.171 103.96C122.505 103.547 122.898 103.247 123.351 103.06C123.818 102.86 124.298 102.76 124.791 102.76C125.005 102.76 125.185 102.767 125.331 102.78C125.478 102.793 125.625 102.827 125.771 102.88L125.731 104.5C125.531 104.42 125.345 104.373 125.171 104.36C125.011 104.333 124.811 104.32 124.571 104.32C123.985 104.32 123.478 104.453 123.051 104.72C122.638 104.987 122.318 105.34 122.091 105.78C121.878 106.22 121.771 106.693 121.771 107.2V113H119.951ZM136.407 113.18C135.354 113.18 134.554 112.893 134.007 112.32C133.474 111.733 133.207 110.853 133.207 109.68V104.34H131.247V102.94H133.207V100.24L135.027 99.74V102.94H137.867V104.34H135.027V109.52C135.027 110.293 135.16 110.847 135.427 111.18C135.707 111.5 136.107 111.66 136.627 111.66C136.894 111.66 137.12 111.64 137.307 111.6C137.507 111.547 137.687 111.487 137.847 111.42V112.92C137.647 113 137.414 113.06 137.147 113.1C136.894 113.153 136.647 113.18 136.407 113.18ZM143.918 113.18C142.932 113.18 142.078 112.973 141.358 112.56C140.638 112.133 140.078 111.533 139.678 110.76C139.278 109.973 139.078 109.04 139.078 107.96C139.078 106.893 139.278 105.973 139.678 105.2C140.078 104.413 140.638 103.813 141.358 103.4C142.078 102.973 142.932 102.76 143.918 102.76C144.905 102.76 145.758 102.973 146.478 103.4C147.212 103.813 147.772 104.413 148.158 105.2C148.558 105.973 148.758 106.893 148.758 107.96C148.758 109.04 148.558 109.973 148.158 110.76C147.772 111.533 147.212 112.133 146.478 112.56C145.758 112.973 144.905 113.18 143.918 113.18ZM143.918 111.74C144.825 111.74 145.552 111.42 146.098 110.78C146.645 110.14 146.918 109.2 146.918 107.96C146.918 106.72 146.645 105.787 146.098 105.16C145.552 104.533 144.825 104.22 143.918 104.22C142.998 104.22 142.265 104.533 141.718 105.16C141.185 105.787 140.918 106.72 140.918 107.96C140.918 109.2 141.185 110.14 141.718 110.78C142.265 111.42 142.998 111.74 143.918 111.74ZM33.311 138V123.28H35.131V138H33.311ZM42.4143 138.18C41.4276 138.18 40.5743 137.973 39.8543 137.56C39.1343 137.133 38.5743 136.533 38.1743 135.76C37.7743 134.973 37.5743 134.04 37.5743 132.96C37.5743 131.893 37.7743 130.973 38.1743 130.2C38.5743 129.413 39.1343 128.813 39.8543 128.4C40.5743 127.973 41.4276 127.76 42.4143 127.76C43.401 127.76 44.2543 127.973 44.9743 128.4C45.7076 128.813 46.2676 129.413 46.6543 130.2C47.0543 130.973 47.2543 131.893 47.2543 132.96C47.2543 134.04 47.0543 134.973 46.6543 135.76C46.2676 136.533 45.7076 137.133 44.9743 137.56C44.2543 137.973 43.401 138.18 42.4143 138.18ZM42.4143 136.74C43.321 136.74 44.0476 136.42 44.5943 135.78C45.141 135.14 45.4143 134.2 45.4143 132.96C45.4143 131.72 45.141 130.787 44.5943 130.16C44.0476 129.533 43.321 129.22 42.4143 129.22C41.4943 129.22 40.761 129.533 40.2143 130.16C39.681 130.787 39.4143 131.72 39.4143 132.96C39.4143 134.2 39.681 135.14 40.2143 135.78C40.761 136.42 41.4943 136.74 42.4143 136.74ZM53.9377 138.18C52.9511 138.18 52.0977 137.973 51.3777 137.56C50.6577 137.133 50.0977 136.533 49.6977 135.76C49.2977 134.973 49.0977 134.04 49.0977 132.96C49.0977 131.893 49.2977 130.973 49.6977 130.2C50.0977 129.413 50.6577 128.813 51.3777 128.4C52.0977 127.973 52.9511 127.76 53.9377 127.76C54.9244 127.76 55.7777 127.973 56.4977 128.4C57.2311 128.813 57.7911 129.413 58.1777 130.2C58.5777 130.973 58.7777 131.893 58.7777 132.96C58.7777 134.04 58.5777 134.973 58.1777 135.76C57.7911 136.533 57.2311 137.133 56.4977 137.56C55.7777 137.973 54.9244 138.18 53.9377 138.18ZM53.9377 136.74C54.8444 136.74 55.5711 136.42 56.1177 135.78C56.6644 135.14 56.9377 134.2 56.9377 132.96C56.9377 131.72 56.6644 130.787 56.1177 130.16C55.5711 129.533 54.8444 129.22 53.9377 129.22C53.0177 129.22 52.2844 129.533 51.7377 130.16C51.2044 130.787 50.9377 131.72 50.9377 132.96C50.9377 134.2 51.2044 135.14 51.7377 135.78C52.2844 136.42 53.0177 136.74 53.9377 136.74ZM61.2212 138V123.28H63.0412V132.38H63.0812L67.6212 127.94H69.8812L64.4812 133.22L64.5012 132.36L70.3612 138H68.0412L63.0812 133.32H63.0412V138H61.2212ZM76.9634 138V123.28H78.7834V138H76.9634ZM81.8266 138V127.94H83.6466V138H81.8266ZM81.6666 125.74V123.78H83.8266V125.74H81.6666ZM86.6899 138V123.28H88.5099V132.38H88.5499L93.0899 127.94H95.3499L89.9499 133.22L89.9699 132.36L95.8299 138H93.5099L88.5499 133.32H88.5099V138H86.6899ZM101.504 138.18C99.9043 138.18 98.6376 137.72 97.7043 136.8C96.7843 135.88 96.3243 134.613 96.3243 133C96.3243 131.933 96.5243 131.013 96.9243 130.24C97.3376 129.453 97.9043 128.847 98.6243 128.42C99.3443 127.98 100.184 127.76 101.144 127.76C102.064 127.76 102.844 127.96 103.484 128.36C104.124 128.747 104.611 129.3 104.944 130.02C105.278 130.74 105.444 131.593 105.444 132.58V133.18H97.7443V132.1H104.204L103.864 132.36C103.864 131.32 103.631 130.513 103.164 129.94C102.711 129.367 102.038 129.08 101.144 129.08C100.171 129.08 99.4176 129.42 98.8843 130.1C98.351 130.767 98.0843 131.68 98.0843 132.84V133.02C98.0843 134.247 98.3843 135.173 98.9843 135.8C99.5976 136.427 100.444 136.74 101.524 136.74C102.124 136.74 102.684 136.653 103.204 136.48C103.724 136.307 104.224 136.02 104.704 135.62L105.304 136.88C104.851 137.293 104.284 137.613 103.604 137.84C102.938 138.067 102.238 138.18 101.504 138.18ZM112.756 142.54L112.336 141.06C112.963 140.913 113.483 140.74 113.896 140.54C114.31 140.353 114.656 140.107 114.936 139.8C115.216 139.493 115.463 139.107 115.676 138.64L116.176 137.44L116.136 138.2L111.756 127.94H113.716L117.216 136.56H116.696L120.196 127.94H122.076L117.456 138.78C117.176 139.433 116.87 139.98 116.536 140.42C116.216 140.86 115.863 141.22 115.476 141.5C115.103 141.78 114.69 142 114.236 142.16C113.783 142.32 113.29 142.447 112.756 142.54ZM127.864 138.18C126.877 138.18 126.024 137.973 125.304 137.56C124.584 137.133 124.024 136.533 123.624 135.76C123.224 134.973 123.024 134.04 123.024 132.96C123.024 131.893 123.224 130.973 123.624 130.2C124.024 129.413 124.584 128.813 125.304 128.4C126.024 127.973 126.877 127.76 127.864 127.76C128.85 127.76 129.704 127.973 130.424 128.4C131.157 128.813 131.717 129.413 132.104 130.2C132.504 130.973 132.704 131.893 132.704 132.96C132.704 134.04 132.504 134.973 132.104 135.76C131.717 136.533 131.157 137.133 130.424 137.56C129.704 137.973 128.85 138.18 127.864 138.18ZM127.864 136.74C128.77 136.74 129.497 136.42 130.044 135.78C130.59 135.14 130.864 134.2 130.864 132.96C130.864 131.72 130.59 130.787 130.044 130.16C129.497 129.533 128.77 129.22 127.864 129.22C126.944 129.22 126.21 129.533 125.664 130.16C125.13 130.787 124.864 131.72 124.864 132.96C124.864 134.2 125.13 135.14 125.664 135.78C126.21 136.42 126.944 136.74 127.864 136.74ZM138.727 138.18C137.514 138.18 136.6 137.853 135.987 137.2C135.387 136.547 135.087 135.54 135.087 134.18V127.94H136.907V134.14C136.907 135.02 137.087 135.667 137.447 136.08C137.807 136.493 138.367 136.7 139.127 136.7C139.954 136.7 140.62 136.427 141.127 135.88C141.647 135.32 141.907 134.58 141.907 133.66V127.94H143.727V138H141.967V135.78H142.227C141.947 136.54 141.5 137.133 140.887 137.56C140.274 137.973 139.554 138.18 138.727 138.18ZM152.301 134.2L151.741 123.9H154.001L153.421 134.2H152.301ZM151.761 138V135.78H153.981V138H151.761Z" fill="#292D32"/>
<rect x="0.5" y="0.5" width="186" height="158" rx="9.5" stroke="#2563EB" stroke-opacity="0.15"/>
<defs>
<clipPath id="clip0_1347_14092">
<rect width="500" height="455" fill="white" transform="translate(71 47)"/>
</clipPath>
</defs>
</svg>
