<svg width="733" height="473" viewBox="0 0 733 473" fill="none" xmlns="http://www.w3.org/2000/svg">
<g clip-path="url(#clip0_1347_14048)">
<mask id="mask0_1347_14048" style="mask-type:alpha" maskUnits="userSpaceOnUse" x="73" y="20" width="500" height="61">
<path fill-rule="evenodd" clip-rule="evenodd" d="M93 20.5C81.9543 20.5 73 29.4543 73 40.5V50.5V60.5V80.5H93H553H573V60.5V50.5V40.5C573 29.4543 564.045 20.5 553 20.5H93Z" fill="white"/>
</mask>
<g mask="url(#mask0_1347_14048)">
<path fill-rule="evenodd" clip-rule="evenodd" d="M93 20.5C81.9543 20.5 73 29.4543 73 40.5V50.5V60.5V80.5H93H553H573V60.5V50.5V40.5C573 29.4543 564.045 20.5 553 20.5H93Z" fill="white"/>
<path d="M73 80.5H65.5V88H73V80.5ZM573 80.5V88H580.5V80.5H573ZM80.5 40.5C80.5 33.5965 86.0965 28 93 28V13C77.8122 13 65.5 25.3122 65.5 40.5H80.5ZM80.5 50.5V40.5H65.5V50.5H80.5ZM80.5 60.5V50.5H65.5V60.5H80.5ZM80.5 80.5V60.5H65.5V80.5H80.5ZM93 73H73V88H93V73ZM553 73H93V88H553V73ZM573 73H553V88H573V73ZM565.5 60.5V80.5H580.5V60.5H565.5ZM565.5 50.5V60.5H580.5V50.5H565.5ZM565.5 40.5V50.5H580.5V40.5H565.5ZM553 28C559.903 28 565.5 33.5965 565.5 40.5H580.5C580.5 25.3122 568.188 13 553 13V28ZM93 28H553V13H93V28Z" fill="#E3E9F0"/>
</g>
<path fill-rule="evenodd" clip-rule="evenodd" d="M105.5 58C109.642 58 113 54.6423 113 50.5C113 46.3578 109.642 43 105.5 43C101.358 43 98 46.3578 98 50.5C98 54.6423 101.358 58 105.5 58Z" fill="#E3E9F0"/>
<path fill-rule="evenodd" clip-rule="evenodd" d="M130.5 58C134.642 58 138 54.6423 138 50.5C138 46.3578 134.642 43 130.5 43C126.358 43 123 46.3578 123 50.5C123 54.6423 126.358 58 130.5 58Z" fill="#E3E9F0"/>
<path fill-rule="evenodd" clip-rule="evenodd" d="M155.5 58C159.642 58 163 54.6423 163 50.5C163 46.3578 159.642 43 155.5 43C151.358 43 148 46.3578 148 50.5C148 54.6423 151.358 58 155.5 58Z" fill="#E3E9F0"/>
<path d="M221.206 43.102V34.4961C221.206 33.7637 221.368 33.2144 221.694 32.8481C222.028 32.4819 222.463 32.2988 223 32.2988C223.562 32.2988 224.005 32.4819 224.331 32.8481C224.664 33.2144 224.831 33.7637 224.831 34.4961V43.2973C224.831 44.2983 224.941 45.1365 225.161 45.812C225.389 46.4793 225.787 47.0003 226.357 47.3745C226.927 47.7408 227.724 47.9238 228.75 47.9238C230.166 47.9238 231.167 47.5495 231.753 46.8008C232.339 46.044 232.631 44.9005 232.631 43.3705V34.4961C232.631 33.7555 232.794 33.2062 233.12 32.8481C233.445 32.4819 233.881 32.2988 234.426 32.2988C234.971 32.2988 235.411 32.4819 235.744 32.8481C236.086 33.2062 236.257 33.7555 236.257 34.4961V43.102C236.257 44.5018 236.119 45.6695 235.842 46.6055C235.573 47.5413 235.061 48.3633 234.304 49.0713C233.653 49.6735 232.896 50.113 232.033 50.3898C231.171 50.6663 230.162 50.8048 229.006 50.8048C227.631 50.8048 226.447 50.6583 225.454 50.3653C224.461 50.064 223.651 49.6043 223.025 48.9858C222.398 48.3593 221.938 47.5618 221.645 46.5933C221.352 45.6168 221.206 44.453 221.206 43.102ZM249.621 43.5293H246.301V48.5953C246.301 49.3195 246.13 49.8688 245.788 50.2433C245.446 50.6175 245.015 50.8048 244.494 50.8048C243.949 50.8048 243.51 50.6215 243.176 50.2553C242.842 49.881 242.675 49.3358 242.675 48.6195V34.8257C242.675 34.0282 242.859 33.4585 243.225 33.1167C243.591 32.7749 244.173 32.604 244.97 32.604H249.621C250.997 32.604 252.054 32.7098 252.795 32.9214C253.527 33.1248 254.158 33.4626 254.687 33.9346C255.224 34.4066 255.631 34.9844 255.908 35.668C256.185 36.3516 256.323 37.1206 256.323 37.9751C256.323 39.798 255.761 41.1815 254.638 42.1255C253.515 43.0613 251.843 43.5293 249.621 43.5293ZM248.742 35.3262H246.301V40.7949H248.742C249.597 40.7949 250.309 40.7054 250.879 40.5264C251.456 40.3473 251.896 40.0544 252.197 39.6475C252.498 39.2406 252.649 38.7075 252.649 38.0483C252.649 37.259 252.417 36.616 251.953 36.1196C251.432 35.5907 250.362 35.3262 248.742 35.3262ZM265.402 34.4961V47.521H272.751C273.337 47.521 273.785 47.6635 274.094 47.9483C274.411 48.233 274.57 48.5913 274.57 49.0225C274.57 49.462 274.415 49.82 274.106 50.0968C273.797 50.3653 273.345 50.4995 272.751 50.4995H263.999C263.209 50.4995 262.64 50.3245 262.29 49.9745C261.948 49.6248 261.777 49.059 261.777 48.2778V34.4961C261.777 33.7637 261.94 33.2144 262.265 32.8481C262.599 32.4819 263.034 32.2988 263.571 32.2988C264.117 32.2988 264.556 32.4819 264.89 32.8481C265.232 33.2062 265.402 33.7555 265.402 34.4961ZM286.091 32.2988C287.946 32.2988 289.537 32.6772 290.864 33.4341C292.199 34.1828 293.208 35.2529 293.891 36.6445C294.575 38.028 294.917 39.6556 294.917 41.5273C294.917 42.9108 294.729 44.168 294.355 45.2993C293.981 46.4305 293.419 47.411 292.671 48.2413C291.922 49.0713 291.002 49.706 289.912 50.1455C288.821 50.585 287.572 50.8048 286.164 50.8048C284.764 50.8048 283.511 50.581 282.404 50.1333C281.298 49.6775 280.374 49.0388 279.633 48.2168C278.893 47.3948 278.331 46.406 277.949 45.2505C277.575 44.095 277.387 42.8457 277.387 41.5029C277.387 40.1276 277.583 38.8662 277.973 37.7188C278.372 36.5713 278.946 35.5947 279.694 34.7891C280.443 33.9834 281.355 33.369 282.429 32.9458C283.503 32.5145 284.724 32.2988 286.091 32.2988ZM291.242 41.5029C291.242 40.1927 291.031 39.0575 290.608 38.0972C290.184 37.1369 289.578 36.4126 288.789 35.9243C288.007 35.4279 287.108 35.1797 286.091 35.1797C285.367 35.1797 284.695 35.318 284.077 35.5947C283.466 35.8633 282.937 36.258 282.49 36.7788C282.05 37.2996 281.7 37.967 281.44 38.7808C281.188 39.5864 281.062 40.4938 281.062 41.5029C281.062 42.5202 281.188 43.4398 281.44 44.2618C281.7 45.0838 282.063 45.7673 282.526 46.3125C282.998 46.8495 283.536 47.2525 284.138 47.521C284.748 47.7895 285.415 47.9238 286.14 47.9238C287.068 47.9238 287.918 47.692 288.691 47.228C289.472 46.7643 290.091 46.048 290.547 45.0795C291.01 44.1113 291.242 42.9189 291.242 41.5029ZM311.015 48.4733L310.161 46.227H302.885L302.031 48.522C301.697 49.4173 301.412 50.0235 301.176 50.3408C300.94 50.65 300.554 50.8048 300.017 50.8048C299.561 50.8048 299.158 50.6378 298.808 50.3043C298.458 49.9705 298.283 49.592 298.283 49.169C298.283 48.9248 298.324 48.6725 298.405 48.412C298.487 48.1518 298.621 47.7895 298.808 47.3258L303.386 35.7046C303.516 35.3709 303.671 34.9722 303.85 34.5083C304.037 34.0363 304.232 33.6457 304.436 33.3364C304.647 33.0272 304.92 32.779 305.254 32.5918C305.595 32.3965 306.014 32.2988 306.511 32.2988C307.015 32.2988 307.435 32.3965 307.768 32.5918C308.11 32.779 308.383 33.0231 308.586 33.3242C308.798 33.6253 308.973 33.9508 309.111 34.3008C309.257 34.6426 309.441 35.1024 309.66 35.6802L314.336 47.228C314.702 48.107 314.885 48.7458 314.885 49.1445C314.885 49.5595 314.71 49.942 314.36 50.292C314.018 50.6338 313.603 50.8048 313.115 50.8048C312.83 50.8048 312.586 50.7518 312.382 50.646C312.179 50.5483 312.008 50.414 311.87 50.2433C311.731 50.064 311.581 49.7955 311.418 49.4375C311.263 49.0713 311.129 48.7498 311.015 48.4733ZM303.838 43.5048H309.184L306.486 36.1196L303.838 43.5048ZM322.304 32.604H327.028C328.258 32.604 329.31 32.7179 330.19 32.9458C331.07 33.1737 331.868 33.6009 332.583 34.2275C334.445 35.8226 335.378 38.2477 335.378 41.5029C335.378 42.5771 335.285 43.5578 335.098 44.4448C334.91 45.3318 334.62 46.1335 334.23 46.8495C333.84 47.5575 333.34 48.1923 332.73 48.754C332.25 49.1853 331.725 49.531 331.155 49.7915C330.585 50.052 329.97 50.235 329.31 50.3408C328.66 50.4465 327.923 50.4995 327.103 50.4995H322.378C321.718 50.4995 321.222 50.4018 320.888 50.2065C320.555 50.003 320.335 49.7223 320.229 49.3643C320.131 48.998 320.083 48.526 320.083 47.9483V34.8257C320.083 34.0444 320.258 33.4788 320.608 33.1289C320.957 32.779 321.523 32.604 322.304 32.604ZM323.708 35.4727V47.6188H326.455C327.058 47.6188 327.53 47.6023 327.87 47.5698C328.213 47.5373 328.568 47.456 328.933 47.3258C329.3 47.1955 329.615 47.0123 329.885 46.7763C331.098 45.751 331.703 43.985 331.703 41.4785C331.703 39.7126 331.435 38.3901 330.898 37.5112C330.37 36.6323 329.715 36.0749 328.933 35.8389C328.153 35.5947 327.208 35.4727 326.1 35.4727H323.708ZM360.508 35.3994H353.365V39.9771H359.335C359.89 39.9771 360.3 40.1032 360.568 40.3555C360.845 40.5996 360.983 40.9292 360.983 41.3442C360.983 41.7593 360.845 42.0889 360.568 42.333C360.293 42.5771 359.88 42.6992 359.335 42.6992H353.365V48.5953C353.365 49.344 353.195 49.9013 352.853 50.2675C352.52 50.6258 352.088 50.8048 351.56 50.8048C351.023 50.8048 350.583 50.6215 350.24 50.2553C349.908 49.8893 349.74 49.3358 349.74 48.5953V34.8257C349.74 34.3049 349.818 33.8817 349.973 33.5562C350.128 33.2225 350.368 32.9824 350.693 32.8359C351.028 32.6813 351.45 32.604 351.963 32.604H360.508C361.085 32.604 361.513 32.7342 361.79 32.9946C362.075 33.2469 362.218 33.5806 362.218 33.9956C362.218 34.4188 362.075 34.7606 361.79 35.021C361.513 35.2733 361.085 35.3994 360.508 35.3994ZM367.573 48.5953V34.4961C367.573 33.7637 367.74 33.2144 368.073 32.8481C368.408 32.4819 368.838 32.2988 369.368 32.2988C369.913 32.2988 370.353 32.4819 370.685 32.8481C371.028 33.2062 371.198 33.7555 371.198 34.4961V48.5953C371.198 49.3358 371.028 49.8893 370.685 50.2553C370.353 50.6215 369.913 50.8048 369.368 50.8048C368.848 50.8048 368.415 50.6215 368.073 50.2553C367.74 49.881 367.573 49.3275 367.573 48.5953ZM381.315 34.4961V47.521H388.665C389.25 47.521 389.698 47.6635 390.008 47.9483C390.325 48.233 390.483 48.5913 390.483 49.0225C390.483 49.462 390.328 49.82 390.02 50.0968C389.71 50.3653 389.258 50.4995 388.665 50.4995H379.913C379.123 50.4995 378.553 50.3245 378.203 49.9745C377.86 49.6248 377.69 49.059 377.69 48.2778V34.4961C377.69 33.7637 377.853 33.2144 378.178 32.8481C378.513 32.4819 378.948 32.2988 379.485 32.2988C380.03 32.2988 380.47 32.4819 380.803 32.8481C381.145 33.2062 381.315 33.7555 381.315 34.4961ZM407.168 35.3994H399V39.7939H406.52C407.075 39.7939 407.485 39.9201 407.753 40.1724C408.03 40.4165 408.168 40.742 408.168 41.1489C408.168 41.5558 408.035 41.8895 407.765 42.1499C407.498 42.4022 407.083 42.5283 406.52 42.5283H399V47.6188H407.448C408.018 47.6188 408.445 47.753 408.73 48.0215C409.023 48.282 409.17 48.6318 409.17 49.0713C409.17 49.4945 409.023 49.8403 408.73 50.109C408.445 50.3693 408.018 50.4995 407.448 50.4995H397.598C396.808 50.4995 396.238 50.3245 395.888 49.9745C395.548 49.6248 395.375 49.059 395.375 48.2778V34.8257C395.375 34.3049 395.453 33.8817 395.608 33.5562C395.763 33.2225 396.003 32.9824 396.328 32.8359C396.663 32.6813 397.085 32.604 397.598 32.604H407.168C407.745 32.604 408.173 32.7342 408.45 32.9946C408.735 33.2469 408.878 33.5806 408.878 33.9956C408.878 34.4188 408.735 34.7606 408.45 35.021C408.173 35.2733 407.745 35.3994 407.168 35.3994ZM428.15 45.1285C428.15 46.2108 427.868 47.1833 427.308 48.046C426.753 48.9085 425.94 49.584 424.865 50.0723C423.79 50.5605 422.518 50.8048 421.045 50.8048C419.278 50.8048 417.823 50.471 416.675 49.8038C415.86 49.3235 415.198 48.6848 414.685 47.8873C414.18 47.0815 413.928 46.3003 413.928 45.5435C413.928 45.104 414.078 44.7298 414.38 44.4205C414.688 44.103 415.08 43.9443 415.553 43.9443C415.935 43.9443 416.255 44.0665 416.515 44.3105C416.785 44.5548 417.013 44.9168 417.2 45.397C417.428 45.9665 417.67 46.4428 417.933 46.8253C418.2 47.2078 418.575 47.525 419.055 47.7773C419.535 48.0215 420.165 48.1435 420.948 48.1435C422.02 48.1435 422.893 47.8953 423.56 47.399C424.235 46.8943 424.573 46.2678 424.573 45.519C424.573 44.925 424.39 44.4448 424.023 44.0785C423.665 43.7043 423.198 43.4195 422.62 43.224C422.05 43.0288 421.285 42.8213 420.325 42.6016C419.038 42.3005 417.96 41.9505 417.09 41.5518C416.228 41.1449 415.54 40.5955 415.028 39.9038C414.523 39.2039 414.27 38.3372 414.27 37.3037C414.27 36.319 414.538 35.4442 415.075 34.6792C415.613 33.9142 416.39 33.3283 417.408 32.9214C418.425 32.5063 419.62 32.2988 420.995 32.2988C422.095 32.2988 423.043 32.4372 423.84 32.7139C424.645 32.9824 425.313 33.3446 425.843 33.8003C426.37 34.2479 426.758 34.7199 427.003 35.2163C427.245 35.7127 427.368 36.1969 427.368 36.6689C427.368 37.1003 427.213 37.4909 426.905 37.8408C426.603 38.1826 426.225 38.3535 425.768 38.3535C425.353 38.3535 425.035 38.2518 424.818 38.0483C424.605 37.8368 424.373 37.495 424.12 37.023C423.795 36.3475 423.405 35.8226 422.948 35.4482C422.493 35.0658 421.76 34.8745 420.753 34.8745C419.815 34.8745 419.06 35.082 418.48 35.4971C417.913 35.904 417.628 36.3963 417.628 36.9741C417.628 37.3322 417.725 37.6414 417.92 37.9019C418.115 38.1623 418.383 38.3861 418.725 38.5732C419.068 38.7604 419.413 38.9069 419.763 39.0127C420.113 39.1185 420.69 39.2731 421.495 39.4766C422.505 39.7126 423.418 39.973 424.23 40.2578C425.053 40.5426 425.748 40.8885 426.318 41.2954C426.895 41.7023 427.343 42.2191 427.66 42.8457C427.985 43.4643 428.15 44.225 428.15 45.1285Z" fill="#E3E9F0"/>
<mask id="mask1_1347_14048" style="mask-type:alpha" maskUnits="userSpaceOnUse" x="73" y="73" width="500" height="400">
<path fill-rule="evenodd" clip-rule="evenodd" d="M553 473C564.045 473 573 464.045 573 453V273V93V73H553H93H73V93V273V453C73 464.045 81.9543 473 93 473H553Z" fill="white"/>
</mask>
<g mask="url(#mask1_1347_14048)">
<path fill-rule="evenodd" clip-rule="evenodd" d="M553 473C564.045 473 573 464.045 573 453V273V93V73H553H93H73V93V273V453C73 464.045 81.9543 473 93 473H553Z" fill="white"/>
<path d="M573 73H580.5V65.5H573V73ZM73 73V65.5H65.5V73H73ZM565.5 453C565.5 459.903 559.903 465.5 553 465.5V480.5C568.188 480.5 580.5 468.188 580.5 453H565.5ZM565.5 273V453H580.5V273H565.5ZM565.5 93V273H580.5V93H565.5ZM565.5 73V93H580.5V73H565.5ZM553 80.5H573V65.5H553V80.5ZM93 80.5H553V65.5H93V80.5ZM73 80.5H93V65.5H73V80.5ZM80.5 93V73H65.5V93H80.5ZM80.5 273V93H65.5V273H80.5ZM80.5 453V273H65.5V453H80.5ZM93 465.5C86.0965 465.5 80.5 459.903 80.5 453H65.5C65.5 468.188 77.8122 480.5 93 480.5V465.5ZM553 465.5H93V480.5H553V465.5Z" fill="#CAD6E2" fill-opacity="0.53"/>
</g>
<path d="M510.5 233H135.5C134.119 233 133 234.119 133 235.5V408C133 409.381 134.119 410.5 135.5 410.5H510.5C511.881 410.5 513 409.381 513 408V235.5C513 234.119 511.881 233 510.5 233Z" fill="white" stroke="#CAD6E2" stroke-width="3" stroke-linecap="round" stroke-dasharray="2.5 12.5"/>
<path fill-rule="evenodd" clip-rule="evenodd" d="M322.452 302.624C324.522 302.624 326.202 300.944 326.202 298.874V285.129L329.51 288.437C330.975 289.902 333.347 289.902 334.812 288.437L334.887 288.362C336.352 286.897 336.352 284.522 334.887 283.059L325.125 273.297L325.05 273.222C323.585 271.757 321.212 271.757 319.747 273.222L319.671 273.297L310.576 282.392C309.111 283.857 309.111 286.232 310.576 287.694L310.651 287.772C312.116 289.237 314.49 289.237 315.955 287.772L318.595 285.129V298.874C318.595 300.944 320.274 302.624 322.345 302.624H322.452Z" fill="#CAD6E2"/>
<path d="M380.5 328H265.5C255.835 328 248 335.835 248 345.5C248 355.165 255.835 363 265.5 363H380.5C390.165 363 398 355.165 398 345.5C398 335.835 390.165 328 380.5 328Z" fill="#2563EB"/>
<path d="M380.5 331.75H265.5C257.906 331.75 251.75 337.906 251.75 345.5C251.75 353.094 257.906 359.25 265.5 359.25H380.5C388.094 359.25 394.25 353.094 394.25 345.5C394.25 337.906 388.094 331.75 380.5 331.75Z" stroke="#02306A" stroke-opacity="0.2"/>
<path d="M365.5 165.5H213C210.239 165.5 208 167.739 208 170.5C208 173.261 210.239 175.5 213 175.5H365.5C368.261 175.5 370.5 173.261 370.5 170.5C370.5 167.739 368.261 165.5 365.5 165.5Z" fill="#CAD6E2" fill-opacity="0.5"/>
<path d="M388 140.5H213C210.239 140.5 208 142.739 208 145.5C208 148.261 210.239 150.5 213 150.5H388C390.761 150.5 393 148.261 393 145.5C393 142.739 390.761 140.5 388 140.5Z" fill="#CAD6E2" fill-opacity="0.5"/>
<path fill-rule="evenodd" clip-rule="evenodd" d="M492.367 147.443C490.905 148.908 490.905 151.282 492.367 152.747L496.435 156.812L492.367 160.877C490.905 162.342 490.905 164.716 492.367 166.181L492.445 166.256C493.907 167.721 496.282 167.721 497.747 166.256L501.812 162.191L505.877 166.256C507.342 167.721 509.717 167.721 511.182 166.256L511.257 166.181C512.722 164.716 512.722 162.342 511.257 160.877L507.192 156.812L511.257 152.747C512.722 151.282 512.722 148.908 511.257 147.443L511.182 147.368C509.717 145.903 507.342 145.903 505.877 147.368L501.812 151.433L497.747 147.368C496.282 145.903 493.907 145.903 492.445 147.368L492.367 147.443Z" fill="#CAD6E2"/>
<path d="M173 136.75H143C139.548 136.75 136.75 139.548 136.75 143V173C136.75 176.452 139.548 179.25 143 179.25H173C176.452 179.25 179.25 176.452 179.25 173V143C179.25 139.548 176.452 136.75 173 136.75Z" fill="#727378" fill-opacity="0.2" stroke="#003169" stroke-opacity="0.2"/>
</g>
<rect x="461" y="50" width="272" height="128" rx="10" fill="white"/>
<path d="M497.63 99.6651C498.931 99.6651 499.985 98.6107 499.985 97.3101C499.985 96.0095 498.931 94.9551 497.63 94.9551C496.329 94.9551 495.275 96.0095 495.275 97.3101C495.275 98.6107 496.329 99.6651 497.63 99.6651Z" stroke="#287DFB" stroke-width="1.5" stroke-linecap="round" stroke-linejoin="round"/>
<path d="M508.625 95.7351V86.5251C508.625 84.5601 507.395 84.2902 506.15 84.6352L501.44 85.9251C500.585 86.1651 500 86.8401 500 87.8151V89.4651V90.5751V97.3251" stroke="#287DFB" stroke-width="1.5" stroke-linecap="round" stroke-linejoin="round"/>
<path d="M506.27 98.0909C507.571 98.0909 508.625 97.0365 508.625 95.7359C508.625 94.4352 507.571 93.3809 506.27 93.3809C504.969 93.3809 503.915 94.4352 503.915 95.7359C503.915 97.0365 504.969 98.0909 506.27 98.0909Z" stroke="#287DFB" stroke-width="1.5" stroke-linecap="round" stroke-linejoin="round"/>
<path d="M499.985 90.5601L508.625 88.2051" stroke="#287DFB" stroke-width="1.5" stroke-linecap="round" stroke-linejoin="round"/>
<path d="M537.38 94.18C536.247 94.18 535.227 94.0333 534.32 93.74C533.413 93.4467 532.627 93.0333 531.96 92.5L532.6 91.02C533.067 91.3667 533.54 91.66 534.02 91.9C534.5 92.1267 535.013 92.3 535.56 92.42C536.12 92.5267 536.727 92.58 537.38 92.58C538.54 92.58 539.393 92.3733 539.94 91.96C540.5 91.5333 540.78 90.9733 540.78 90.28C540.78 89.68 540.587 89.22 540.2 88.9C539.813 88.58 539.14 88.3267 538.18 88.14L536.04 87.7C534.747 87.4333 533.78 87 533.14 86.4C532.513 85.7867 532.2 84.96 532.2 83.92C532.2 83.08 532.42 82.3467 532.86 81.72C533.313 81.08 533.933 80.5867 534.72 80.24C535.52 79.8933 536.453 79.72 537.52 79.72C538.507 79.72 539.42 79.8667 540.26 80.16C541.1 80.4533 541.807 80.8867 542.38 81.46L541.74 82.88C541.14 82.3333 540.493 81.94 539.8 81.7C539.12 81.4467 538.347 81.32 537.48 81.32C536.427 81.32 535.593 81.5467 534.98 82C534.367 82.4533 534.06 83.0667 534.06 83.84C534.06 84.4533 534.253 84.94 534.64 85.3C535.027 85.6467 535.667 85.9133 536.56 86.1L538.7 86.52C540.06 86.7867 541.053 87.2067 541.68 87.78C542.32 88.3533 542.64 89.1467 542.64 90.16C542.64 90.96 542.427 91.6667 542 92.28C541.573 92.88 540.967 93.3467 540.18 93.68C539.393 94.0133 538.46 94.18 537.38 94.18ZM545.079 94V79.28H546.899V86.12H546.639C546.932 85.3467 547.405 84.76 548.059 84.36C548.712 83.96 549.465 83.76 550.319 83.76C551.532 83.76 552.425 84.0867 552.999 84.74C553.585 85.3933 553.879 86.38 553.879 87.7V94H552.059V87.8C552.059 86.9067 551.885 86.26 551.539 85.86C551.192 85.4467 550.625 85.24 549.839 85.24C548.959 85.24 548.245 85.5133 547.699 86.06C547.165 86.6067 546.899 87.3333 546.899 88.24V94H545.079ZM561.096 94.18C560.109 94.18 559.256 93.9733 558.536 93.56C557.816 93.1333 557.256 92.5333 556.856 91.76C556.456 90.9733 556.256 90.04 556.256 88.96C556.256 87.8933 556.456 86.9733 556.856 86.2C557.256 85.4133 557.816 84.8133 558.536 84.4C559.256 83.9733 560.109 83.76 561.096 83.76C562.083 83.76 562.936 83.9733 563.656 84.4C564.389 84.8133 564.949 85.4133 565.336 86.2C565.736 86.9733 565.936 87.8933 565.936 88.96C565.936 90.04 565.736 90.9733 565.336 91.76C564.949 92.5333 564.389 93.1333 563.656 93.56C562.936 93.9733 562.083 94.18 561.096 94.18ZM561.096 92.74C562.003 92.74 562.729 92.42 563.276 91.78C563.823 91.14 564.096 90.2 564.096 88.96C564.096 87.72 563.823 86.7867 563.276 86.16C562.729 85.5333 562.003 85.22 561.096 85.22C560.176 85.22 559.443 85.5333 558.896 86.16C558.363 86.7867 558.096 87.72 558.096 88.96C558.096 90.2 558.363 91.14 558.896 91.78C559.443 92.42 560.176 92.74 561.096 92.74ZM571.959 94.18C570.746 94.18 569.833 93.8533 569.219 93.2C568.619 92.5467 568.319 91.54 568.319 90.18V83.94H570.139V90.14C570.139 91.02 570.319 91.6667 570.679 92.08C571.039 92.4933 571.599 92.7 572.359 92.7C573.186 92.7 573.853 92.4267 574.359 91.88C574.879 91.32 575.139 90.58 575.139 89.66V83.94H576.959V94H575.199V91.78H575.459C575.179 92.54 574.733 93.1333 574.119 93.56C573.506 93.9733 572.786 94.18 571.959 94.18ZM580.02 94V79.28H581.84V94H580.02ZM588.723 94.18C587.843 94.18 587.07 93.9733 586.403 93.56C585.737 93.1467 585.217 92.5467 584.843 91.76C584.47 90.9733 584.283 90.04 584.283 88.96C584.283 87.88 584.47 86.9533 584.843 86.18C585.217 85.3933 585.737 84.7933 586.403 84.38C587.07 83.9667 587.843 83.76 588.723 83.76C589.603 83.76 590.37 83.98 591.023 84.42C591.69 84.86 592.137 85.4667 592.363 86.24H592.123V79.28H593.943V94H592.143V91.66H592.363C592.15 92.4467 591.71 93.0667 591.043 93.52C590.39 93.96 589.617 94.18 588.723 94.18ZM589.143 92.74C590.05 92.74 590.777 92.42 591.323 91.78C591.883 91.14 592.163 90.2 592.163 88.96C592.163 87.72 591.883 86.7867 591.323 86.16C590.777 85.5333 590.05 85.22 589.143 85.22C588.237 85.22 587.503 85.5333 586.943 86.16C586.397 86.7867 586.123 87.72 586.123 88.96C586.123 90.2 586.397 91.14 586.943 91.78C587.503 92.42 588.237 92.74 589.143 92.74ZM604.986 94L601.226 83.94H603.126L606.166 92.56H605.646L608.766 83.94H610.246L613.346 92.56H612.846L615.906 83.94H617.726L613.946 94H612.226L609.026 85.24H609.906L606.726 94H604.986ZM624.131 94.18C622.531 94.18 621.265 93.72 620.331 92.8C619.411 91.88 618.951 90.6133 618.951 89C618.951 87.9333 619.151 87.0133 619.551 86.24C619.965 85.4533 620.531 84.8467 621.251 84.42C621.971 83.98 622.811 83.76 623.771 83.76C624.691 83.76 625.471 83.96 626.111 84.36C626.751 84.7467 627.238 85.3 627.571 86.02C627.905 86.74 628.071 87.5933 628.071 88.58V89.18H620.371V88.1H626.831L626.491 88.36C626.491 87.32 626.258 86.5133 625.791 85.94C625.338 85.3667 624.665 85.08 623.771 85.08C622.798 85.08 622.045 85.42 621.511 86.1C620.978 86.7667 620.711 87.68 620.711 88.84V89.02C620.711 90.2467 621.011 91.1733 621.611 91.8C622.225 92.4267 623.071 92.74 624.151 92.74C624.751 92.74 625.311 92.6533 625.831 92.48C626.351 92.3067 626.851 92.02 627.331 91.62L627.931 92.88C627.478 93.2933 626.911 93.6133 626.231 93.84C625.565 94.0667 624.865 94.18 624.131 94.18ZM537.1 119.18C535.5 119.18 534.233 118.72 533.3 117.8C532.38 116.88 531.92 115.613 531.92 114C531.92 112.933 532.12 112.013 532.52 111.24C532.933 110.453 533.5 109.847 534.22 109.42C534.94 108.98 535.78 108.76 536.74 108.76C537.66 108.76 538.44 108.96 539.08 109.36C539.72 109.747 540.207 110.3 540.54 111.02C540.873 111.74 541.04 112.593 541.04 113.58V114.18H533.34V113.1H539.8L539.46 113.36C539.46 112.32 539.227 111.513 538.76 110.94C538.307 110.367 537.633 110.08 536.74 110.08C535.767 110.08 535.013 110.42 534.48 111.1C533.947 111.767 533.68 112.68 533.68 113.84V114.02C533.68 115.247 533.98 116.173 534.58 116.8C535.193 117.427 536.04 117.74 537.12 117.74C537.72 117.74 538.28 117.653 538.8 117.48C539.32 117.307 539.82 117.02 540.3 116.62L540.9 117.88C540.447 118.293 539.88 118.613 539.2 118.84C538.533 119.067 537.833 119.18 537.1 119.18ZM541.94 119L546.5 113.36V114.26L542.2 108.94H544.38L547.52 112.96H546.86L550 108.94H552.16L547.92 114.22V113.4L552.42 119H550.22L546.86 114.7H547.52L544.12 119H541.94ZM558.448 119.18C556.848 119.18 555.581 118.72 554.648 117.8C553.728 116.88 553.268 115.613 553.268 114C553.268 112.933 553.468 112.013 553.868 111.24C554.281 110.453 554.848 109.847 555.568 109.42C556.288 108.98 557.128 108.76 558.088 108.76C559.008 108.76 559.788 108.96 560.428 109.36C561.068 109.747 561.554 110.3 561.888 111.02C562.221 111.74 562.388 112.593 562.388 113.58V114.18H554.688V113.1H561.148L560.808 113.36C560.808 112.32 560.574 111.513 560.108 110.94C559.654 110.367 558.981 110.08 558.088 110.08C557.114 110.08 556.361 110.42 555.828 111.1C555.294 111.767 555.028 112.68 555.028 113.84V114.02C555.028 115.247 555.328 116.173 555.928 116.8C556.541 117.427 557.388 117.74 558.468 117.74C559.068 117.74 559.628 117.653 560.148 117.48C560.668 117.307 561.168 117.02 561.648 116.62L562.248 117.88C561.794 118.293 561.228 118.613 560.548 118.84C559.881 119.067 559.181 119.18 558.448 119.18ZM564.746 119V111.4C564.746 111 564.733 110.593 564.706 110.18C564.693 109.753 564.659 109.34 564.606 108.94H566.366L566.586 111.46L566.286 111.48C566.419 110.867 566.646 110.36 566.966 109.96C567.299 109.547 567.693 109.247 568.146 109.06C568.613 108.86 569.093 108.76 569.586 108.76C569.799 108.76 569.979 108.767 570.126 108.78C570.273 108.793 570.419 108.827 570.566 108.88L570.526 110.5C570.326 110.42 570.139 110.373 569.966 110.36C569.806 110.333 569.606 110.32 569.366 110.32C568.779 110.32 568.273 110.453 567.846 110.72C567.433 110.987 567.113 111.34 566.886 111.78C566.673 112.22 566.566 112.693 566.566 113.2V119H564.746ZM576.352 119.18C575.352 119.18 574.485 118.973 573.752 118.56C573.018 118.133 572.445 117.527 572.032 116.74C571.632 115.94 571.432 114.993 571.432 113.9C571.432 112.82 571.638 111.9 572.052 111.14C572.465 110.367 573.038 109.78 573.772 109.38C574.505 108.967 575.365 108.76 576.352 108.76C577.005 108.76 577.638 108.873 578.252 109.1C578.865 109.313 579.365 109.627 579.752 110.04L579.132 111.32C578.745 110.947 578.318 110.673 577.852 110.5C577.385 110.313 576.925 110.22 576.472 110.22C575.485 110.22 574.712 110.54 574.152 111.18C573.592 111.807 573.312 112.72 573.312 113.92C573.312 115.133 573.592 116.067 574.152 116.72C574.712 117.373 575.485 117.7 576.472 117.7C576.912 117.7 577.365 117.613 577.832 117.44C578.298 117.267 578.732 116.993 579.132 116.62L579.752 117.88C579.352 118.307 578.838 118.633 578.212 118.86C577.598 119.073 576.978 119.18 576.352 119.18ZM581.973 119V108.94H583.793V119H581.973ZM581.813 106.74V104.78H583.973V106.74H581.813ZM590.236 119.18C589.423 119.18 588.663 119.073 587.956 118.86C587.263 118.647 586.69 118.34 586.236 117.94L586.816 116.68C587.31 117.053 587.85 117.34 588.436 117.54C589.036 117.727 589.65 117.82 590.276 117.82C591.036 117.82 591.61 117.68 591.996 117.4C592.396 117.12 592.596 116.747 592.596 116.28C592.596 115.907 592.47 115.607 592.216 115.38C591.963 115.153 591.563 114.987 591.016 114.88L589.116 114.5C588.263 114.3 587.616 113.98 587.176 113.54C586.75 113.087 586.536 112.507 586.536 111.8C586.536 111.213 586.696 110.693 587.016 110.24C587.336 109.773 587.79 109.413 588.376 109.16C588.976 108.893 589.676 108.76 590.476 108.76C591.21 108.76 591.89 108.867 592.516 109.08C593.156 109.293 593.683 109.607 594.096 110.02L593.496 111.24C593.083 110.88 592.616 110.607 592.096 110.42C591.59 110.22 591.07 110.12 590.536 110.12C589.763 110.12 589.19 110.273 588.816 110.58C588.443 110.873 588.256 111.26 588.256 111.74C588.256 112.1 588.37 112.4 588.596 112.64C588.823 112.867 589.19 113.04 589.696 113.16L591.596 113.54C592.49 113.727 593.163 114.033 593.616 114.46C594.07 114.887 594.296 115.453 594.296 116.16C594.296 116.787 594.123 117.327 593.776 117.78C593.443 118.233 592.97 118.58 592.356 118.82C591.756 119.06 591.05 119.18 590.236 119.18ZM601.358 119.18C599.758 119.18 598.491 118.72 597.558 117.8C596.638 116.88 596.178 115.613 596.178 114C596.178 112.933 596.378 112.013 596.778 111.24C597.191 110.453 597.758 109.847 598.478 109.42C599.198 108.98 600.038 108.76 600.998 108.76C601.918 108.76 602.698 108.96 603.338 109.36C603.978 109.747 604.464 110.3 604.798 111.02C605.131 111.74 605.298 112.593 605.298 113.58V114.18H597.598V113.1H604.058L603.718 113.36C603.718 112.32 603.484 111.513 603.018 110.94C602.564 110.367 601.891 110.08 600.998 110.08C600.024 110.08 599.271 110.42 598.738 111.1C598.204 111.767 597.938 112.68 597.938 113.84V114.02C597.938 115.247 598.238 116.173 598.838 116.8C599.451 117.427 600.298 117.74 601.378 117.74C601.978 117.74 602.538 117.653 603.058 117.48C603.578 117.307 604.078 117.02 604.558 116.62L605.158 117.88C604.704 118.293 604.138 118.613 603.458 118.84C602.791 119.067 602.091 119.18 601.358 119.18ZM617.53 119.18C615.93 119.18 614.663 118.72 613.73 117.8C612.81 116.88 612.35 115.613 612.35 114C612.35 112.933 612.55 112.013 612.95 111.24C613.363 110.453 613.93 109.847 614.65 109.42C615.37 108.98 616.21 108.76 617.17 108.76C618.09 108.76 618.87 108.96 619.51 109.36C620.15 109.747 620.636 110.3 620.97 111.02C621.303 111.74 621.47 112.593 621.47 113.58V114.18H613.77V113.1H620.23L619.89 113.36C619.89 112.32 619.656 111.513 619.19 110.94C618.736 110.367 618.063 110.08 617.17 110.08C616.196 110.08 615.443 110.42 614.91 111.1C614.376 111.767 614.11 112.68 614.11 113.84V114.02C614.11 115.247 614.41 116.173 615.01 116.8C615.623 117.427 616.47 117.74 617.55 117.74C618.15 117.74 618.71 117.653 619.23 117.48C619.75 117.307 620.25 117.02 620.73 116.62L621.33 117.88C620.876 118.293 620.31 118.613 619.63 118.84C618.963 119.067 618.263 119.18 617.53 119.18ZM626.671 119L622.371 108.94H624.331L627.831 117.58H627.271L630.831 108.94H632.691L628.371 119H626.671ZM638.819 119.18C637.219 119.18 635.952 118.72 635.019 117.8C634.099 116.88 633.639 115.613 633.639 114C633.639 112.933 633.839 112.013 634.239 111.24C634.652 110.453 635.219 109.847 635.939 109.42C636.659 108.98 637.499 108.76 638.459 108.76C639.379 108.76 640.159 108.96 640.799 109.36C641.439 109.747 641.925 110.3 642.259 111.02C642.592 111.74 642.759 112.593 642.759 113.58V114.18H635.059V113.1H641.519L641.179 113.36C641.179 112.32 640.945 111.513 640.479 110.94C640.025 110.367 639.352 110.08 638.459 110.08C637.485 110.08 636.732 110.42 636.199 111.1C635.665 111.767 635.399 112.68 635.399 113.84V114.02C635.399 115.247 635.699 116.173 636.299 116.8C636.912 117.427 637.759 117.74 638.839 117.74C639.439 117.74 639.999 117.653 640.519 117.48C641.039 117.307 641.539 117.02 642.019 116.62L642.619 117.88C642.165 118.293 641.599 118.613 640.919 118.84C640.252 119.067 639.552 119.18 638.819 119.18ZM645.117 119V111.4C645.117 111 645.104 110.593 645.077 110.18C645.064 109.753 645.031 109.34 644.977 108.94H646.737L646.957 111.46L646.657 111.48C646.791 110.867 647.017 110.36 647.337 109.96C647.671 109.547 648.064 109.247 648.517 109.06C648.984 108.86 649.464 108.76 649.957 108.76C650.171 108.76 650.351 108.767 650.497 108.78C650.644 108.793 650.791 108.827 650.937 108.88L650.897 110.5C650.697 110.42 650.511 110.373 650.337 110.36C650.177 110.333 649.977 110.32 649.737 110.32C649.151 110.32 648.644 110.453 648.217 110.72C647.804 110.987 647.484 111.34 647.257 111.78C647.044 112.22 646.937 112.693 646.937 113.2V119H645.117ZM652.805 123.54L652.385 122.06C653.012 121.913 653.532 121.74 653.945 121.54C654.358 121.353 654.705 121.107 654.985 120.8C655.265 120.493 655.512 120.107 655.725 119.64L656.225 118.44L656.185 119.2L651.805 108.94H653.765L657.265 117.56H656.745L660.245 108.94H662.125L657.505 119.78C657.225 120.433 656.918 120.98 656.585 121.42C656.265 121.86 655.912 122.22 655.525 122.5C655.152 122.78 654.738 123 654.285 123.16C653.832 123.32 653.338 123.447 652.805 123.54ZM667.512 119.18C666.632 119.18 665.859 118.973 665.192 118.56C664.526 118.147 664.006 117.547 663.632 116.76C663.259 115.973 663.072 115.04 663.072 113.96C663.072 112.88 663.259 111.953 663.632 111.18C664.006 110.393 664.526 109.793 665.192 109.38C665.859 108.967 666.632 108.76 667.512 108.76C668.392 108.76 669.159 108.98 669.812 109.42C670.479 109.86 670.926 110.467 671.152 111.24H670.912V104.28H672.732V119H670.932V116.66H671.152C670.939 117.447 670.499 118.067 669.832 118.52C669.179 118.96 668.406 119.18 667.512 119.18ZM667.932 117.74C668.839 117.74 669.566 117.42 670.112 116.78C670.672 116.14 670.952 115.2 670.952 113.96C670.952 112.72 670.672 111.787 670.112 111.16C669.566 110.533 668.839 110.22 667.932 110.22C667.026 110.22 666.292 110.533 665.732 111.16C665.186 111.787 664.912 112.72 664.912 113.96C664.912 115.2 665.186 116.14 665.732 116.78C666.292 117.42 667.026 117.74 667.932 117.74ZM679.622 119.18C678.742 119.18 677.968 118.973 677.302 118.56C676.635 118.147 676.115 117.547 675.742 116.76C675.368 115.973 675.182 115.04 675.182 113.96C675.182 112.88 675.368 111.953 675.742 111.18C676.115 110.393 676.635 109.793 677.302 109.38C677.968 108.967 678.742 108.76 679.622 108.76C680.515 108.76 681.288 108.987 681.942 109.44C682.608 109.88 683.048 110.487 683.262 111.26H683.022L683.242 108.94H685.002C684.962 109.34 684.922 109.74 684.882 110.14C684.855 110.54 684.842 110.933 684.842 111.32V119H683.022V116.7H683.242C683.028 117.46 682.588 118.067 681.922 118.52C681.268 118.96 680.502 119.18 679.622 119.18ZM680.042 117.74C680.948 117.74 681.675 117.42 682.222 116.78C682.768 116.14 683.042 115.2 683.042 113.96C683.042 112.72 682.768 111.787 682.222 111.16C681.675 110.533 680.948 110.22 680.042 110.22C679.135 110.22 678.402 110.533 677.842 111.16C677.295 111.787 677.022 112.72 677.022 113.96C677.022 115.2 677.295 116.14 677.842 116.78C678.388 117.42 679.122 117.74 680.042 117.74ZM687.453 123.54L687.033 122.06C687.66 121.913 688.18 121.74 688.593 121.54C689.007 121.353 689.353 121.107 689.633 120.8C689.913 120.493 690.16 120.107 690.373 119.64L690.873 118.44L690.833 119.2L686.453 108.94H688.413L691.913 117.56H691.393L694.893 108.94H696.773L692.153 119.78C691.873 120.433 691.567 120.98 691.233 121.42C690.913 121.86 690.56 122.22 690.173 122.5C689.8 122.78 689.387 123 688.933 123.16C688.48 123.32 687.987 123.447 687.453 123.54ZM700.026 115.2V114.56C700.026 113.907 700.153 113.293 700.406 112.72C700.659 112.133 701.113 111.48 701.766 110.76C702.273 110.213 702.626 109.733 702.826 109.32C703.026 108.893 703.126 108.467 703.126 108.04C703.126 107.493 702.926 107.067 702.526 106.76C702.126 106.453 701.579 106.3 700.886 106.3C700.366 106.3 699.859 106.373 699.366 106.52C698.886 106.653 698.426 106.847 697.986 107.1V105.44C698.426 105.213 698.919 105.04 699.466 104.92C700.013 104.787 700.553 104.72 701.086 104.72C701.859 104.72 702.539 104.84 703.126 105.08C703.713 105.32 704.166 105.673 704.486 106.14C704.819 106.593 704.986 107.167 704.986 107.86C704.986 108.287 704.913 108.7 704.766 109.1C704.633 109.5 704.426 109.893 704.146 110.28C703.879 110.667 703.526 111.08 703.086 111.52C702.433 112.173 701.973 112.74 701.706 113.22C701.453 113.7 701.293 114.193 701.226 114.7L701.166 115.2H700.026ZM699.486 119V116.78H701.706V119H699.486Z" fill="#292D32"/>
<path d="M532.984 150V148.736H535.624V139.984H536.376L533.224 141.936V140.48L536.04 138.72H537.112V148.736H539.592V150H532.984ZM544.626 150.144C544.028 150.144 543.431 150.021 542.834 149.776C542.236 149.531 541.74 149.205 541.346 148.8L541.89 147.664C542.284 148.059 542.716 148.357 543.186 148.56C543.666 148.763 544.151 148.864 544.642 148.864C545.687 148.864 546.492 148.491 547.058 147.744C547.623 146.987 547.906 145.867 547.906 144.384V142.96H548.066C548.002 143.547 547.815 144.059 547.506 144.496C547.207 144.923 546.828 145.253 546.37 145.488C545.911 145.723 545.388 145.84 544.802 145.84C544.13 145.84 543.532 145.685 543.01 145.376C542.487 145.067 542.076 144.645 541.778 144.112C541.479 143.568 541.33 142.949 541.33 142.256C541.33 141.541 541.484 140.907 541.794 140.352C542.114 139.797 542.551 139.365 543.106 139.056C543.66 138.736 544.3 138.576 545.026 138.576C546.412 138.576 547.479 139.061 548.226 140.032C548.972 140.992 549.346 142.347 549.346 144.096C549.346 145.387 549.154 146.485 548.77 147.392C548.396 148.288 547.858 148.971 547.154 149.44C546.45 149.909 545.607 150.144 544.626 150.144ZM545.122 144.608C545.591 144.608 546.002 144.507 546.354 144.304C546.716 144.101 546.999 143.819 547.202 143.456C547.404 143.093 547.506 142.677 547.506 142.208C547.506 141.728 547.404 141.312 547.202 140.96C546.999 140.597 546.716 140.315 546.354 140.112C546.002 139.899 545.591 139.792 545.122 139.792C544.652 139.792 544.236 139.899 543.874 140.112C543.522 140.315 543.244 140.597 543.042 140.96C542.85 141.312 542.754 141.728 542.754 142.208C542.754 142.677 542.85 143.093 543.042 143.456C543.244 143.819 543.522 144.101 543.874 144.304C544.236 144.507 544.652 144.608 545.122 144.608ZM551.164 143.712V141.952H552.94V143.712H551.164ZM551.164 150V148.224H552.94V150H551.164ZM555.282 150V148.896L559.218 144.768C559.73 144.245 560.109 143.744 560.354 143.264C560.61 142.784 560.738 142.288 560.738 141.776C560.738 141.147 560.541 140.672 560.146 140.352C559.762 140.021 559.197 139.856 558.45 139.856C557.874 139.856 557.33 139.963 556.818 140.176C556.317 140.379 555.837 140.693 555.378 141.12L554.85 139.984C555.287 139.557 555.837 139.216 556.498 138.96C557.17 138.704 557.874 138.576 558.61 138.576C559.762 138.576 560.653 138.843 561.282 139.376C561.911 139.899 562.226 140.651 562.226 141.632C562.226 142.347 562.05 143.029 561.698 143.68C561.357 144.32 560.85 144.981 560.178 145.664L556.738 149.152V148.736H562.69V150H555.282ZM569.58 150V147.616H564.284V146.544L569.82 138.72H571.036V146.432H572.732V147.616H571.036V150H569.58ZM569.58 146.432V140.48H569.948L565.484 146.784V146.432H569.58Z" fill="#292D32" fill-opacity="0.45"/>
<rect x="461.5" y="50.5" width="271" height="127" rx="9.5" stroke="#2563EB" stroke-opacity="0.2"/>
<rect x="461" width="272" height="46" rx="10" fill="white"/>
<path d="M548.5 28L552.966 18.13H554.478L559 28H557.166L555.962 25.228L556.69 25.718H550.768L551.524 25.228L550.32 28H548.5ZM553.708 20.062L551.734 24.738L551.37 24.304H556.074L555.78 24.738L553.764 20.062H553.708ZM562.5 28.14C561.632 28.14 560.983 27.902 560.554 27.426C560.125 26.95 559.91 26.222 559.91 25.242V20.93H561.66V25.228C561.66 25.7507 561.767 26.138 561.982 26.39C562.197 26.6327 562.523 26.754 562.962 26.754C563.457 26.754 563.858 26.586 564.166 26.25C564.483 25.914 564.642 25.4707 564.642 24.92V20.93H566.392V28H564.684V26.558H564.88C564.675 27.062 564.362 27.454 563.942 27.734C563.531 28.0047 563.051 28.14 562.5 28.14ZM571.036 28.14C570.42 28.14 569.874 27.9953 569.398 27.706C568.931 27.4073 568.567 26.9827 568.306 26.432C568.045 25.8813 567.914 25.2233 567.914 24.458C567.914 23.6927 568.045 23.0393 568.306 22.498C568.567 21.9473 568.931 21.5273 569.398 21.238C569.874 20.9393 570.42 20.79 571.036 20.79C571.624 20.79 572.142 20.9347 572.59 21.224C573.047 21.504 573.351 21.8867 573.5 22.372H573.318V17.696H575.068V28H573.346V26.502H573.514C573.365 27.006 573.061 27.4073 572.604 27.706C572.156 27.9953 571.633 28.14 571.036 28.14ZM571.526 26.796C572.077 26.796 572.52 26.6047 572.856 26.222C573.192 25.83 573.36 25.242 573.36 24.458C573.36 23.674 573.192 23.0907 572.856 22.708C572.52 22.3253 572.077 22.134 571.526 22.134C570.975 22.134 570.527 22.3253 570.182 22.708C569.846 23.0907 569.678 23.674 569.678 24.458C569.678 25.242 569.846 25.83 570.182 26.222C570.527 26.6047 570.975 26.796 571.526 26.796ZM576.973 28V20.93H578.723V28H576.973ZM576.875 19.6V17.892H578.821V19.6H576.875ZM583.816 28.14C583.088 28.14 582.458 27.9907 581.926 27.692C581.394 27.3933 580.979 26.9687 580.68 26.418C580.391 25.8673 580.246 25.214 580.246 24.458C580.246 23.702 580.391 23.0533 580.68 22.512C580.979 21.9613 581.394 21.5367 581.926 21.238C582.458 20.9393 583.088 20.79 583.816 20.79C584.544 20.79 585.174 20.9393 585.706 21.238C586.247 21.5367 586.663 21.9613 586.952 22.512C587.251 23.0533 587.4 23.702 587.4 24.458C587.4 25.214 587.251 25.8673 586.952 26.418C586.663 26.9687 586.247 27.3933 585.706 27.692C585.174 27.9907 584.544 28.14 583.816 28.14ZM583.816 26.796C584.367 26.796 584.805 26.6047 585.132 26.222C585.459 25.83 585.622 25.242 585.622 24.458C585.622 23.674 585.459 23.0907 585.132 22.708C584.805 22.3253 584.367 22.134 583.816 22.134C583.265 22.134 582.827 22.3253 582.5 22.708C582.173 23.0907 582.01 23.674 582.01 24.458C582.01 25.242 582.173 25.83 582.5 26.222C582.827 26.6047 583.265 26.796 583.816 26.796ZM588.453 28V26.054H590.413V28H588.453ZM592.122 28V22.694C592.122 22.4047 592.113 22.1107 592.094 21.812C592.075 21.5133 592.047 21.2193 592.01 20.93H593.704L593.844 22.33H593.676C593.872 21.8447 594.171 21.4667 594.572 21.196C594.983 20.9253 595.468 20.79 596.028 20.79C596.588 20.79 597.05 20.9253 597.414 21.196C597.787 21.4573 598.049 21.868 598.198 22.428H597.974C598.17 21.924 598.492 21.5273 598.94 21.238C599.388 20.9393 599.901 20.79 600.48 20.79C601.273 20.79 601.866 21.0233 602.258 21.49C602.65 21.9567 602.846 22.6847 602.846 23.674V28H601.096V23.744C601.096 23.184 601.003 22.7827 600.816 22.54C600.629 22.288 600.331 22.162 599.92 22.162C599.435 22.162 599.052 22.3347 598.772 22.68C598.492 23.016 598.352 23.4733 598.352 24.052V28H596.602V23.744C596.602 23.184 596.509 22.7827 596.322 22.54C596.135 22.288 595.837 22.162 595.426 22.162C594.941 22.162 594.558 22.3347 594.278 22.68C594.007 23.016 593.872 23.4733 593.872 24.052V28H592.122ZM604.714 31.024V22.694C604.714 22.4047 604.704 22.1107 604.686 21.812C604.667 21.5133 604.639 21.2193 604.602 20.93H606.296L606.45 22.414H606.296C606.436 21.9193 606.73 21.5273 607.178 21.238C607.635 20.9393 608.162 20.79 608.76 20.79C609.385 20.79 609.931 20.9393 610.398 21.238C610.864 21.5273 611.228 21.9473 611.49 22.498C611.751 23.0393 611.882 23.6927 611.882 24.458C611.882 25.2233 611.751 25.8813 611.49 26.432C611.228 26.9827 610.864 27.4073 610.398 27.706C609.931 27.9953 609.385 28.14 608.76 28.14C608.172 28.14 607.654 27.9953 607.206 27.706C606.758 27.4167 606.459 27.0293 606.31 26.544H606.464V31.024H604.714ZM608.27 26.796C608.83 26.796 609.278 26.6047 609.614 26.222C609.95 25.83 610.118 25.242 610.118 24.458C610.118 23.674 609.95 23.0907 609.614 22.708C609.278 22.3253 608.83 22.134 608.27 22.134C607.719 22.134 607.276 22.3253 606.94 22.708C606.604 23.0907 606.436 23.674 606.436 24.458C606.436 25.242 606.604 25.83 606.94 26.222C607.276 26.6047 607.719 26.796 608.27 26.796ZM616.489 28.14C615.808 28.14 615.155 28.042 614.529 27.846C613.904 27.6407 613.391 27.3607 612.989 27.006L613.577 25.648C614.016 25.984 614.469 26.2313 614.935 26.39C615.411 26.5487 615.911 26.628 616.433 26.628C617.068 26.628 617.549 26.502 617.875 26.25C618.202 25.998 618.365 25.6293 618.365 25.144C618.365 24.6773 618.202 24.3273 617.875 24.094C617.558 23.8513 617.091 23.73 616.475 23.73H614.879V22.288H616.321C616.853 22.288 617.278 22.1573 617.595 21.896C617.913 21.6347 618.071 21.2753 618.071 20.818C618.071 20.3887 617.922 20.062 617.623 19.838C617.334 19.614 616.914 19.502 616.363 19.502C615.374 19.502 614.501 19.838 613.745 20.51L613.157 19.166C613.559 18.7927 614.053 18.5033 614.641 18.298C615.239 18.0927 615.864 17.99 616.517 17.99C617.544 17.99 618.347 18.2233 618.925 18.69C619.513 19.1473 619.807 19.7867 619.807 20.608C619.807 21.196 619.639 21.7047 619.303 22.134C618.977 22.554 618.524 22.834 617.945 22.974V22.806C618.627 22.918 619.154 23.198 619.527 23.646C619.91 24.0847 620.101 24.6353 620.101 25.298C620.101 26.1753 619.779 26.8707 619.135 27.384C618.491 27.888 617.609 28.14 616.489 28.14ZM626.108 28V22.246H624.75V20.93H626.598L626.108 21.378V20.3C626.108 19.4227 626.327 18.76 626.766 18.312C627.214 17.864 627.862 17.64 628.712 17.64C628.917 17.64 629.132 17.654 629.356 17.682C629.589 17.71 629.79 17.7613 629.958 17.836V19.208C629.836 19.1613 629.692 19.124 629.524 19.096C629.356 19.068 629.192 19.054 629.034 19.054C628.67 19.054 628.38 19.1613 628.166 19.376C627.951 19.5813 627.844 19.9173 627.844 20.384V21.238L627.592 20.93H632.506V28H630.756V22.246H627.858V28H626.108ZM630.658 19.6V17.892H632.604V19.6H630.658ZM634.409 28V17.696H636.159V28H634.409ZM641.475 28.14C640.29 28.14 639.361 27.8133 638.689 27.16C638.017 26.5067 637.681 25.6107 637.681 24.472C637.681 23.7347 637.826 23.0907 638.115 22.54C638.405 21.9893 638.806 21.56 639.319 21.252C639.842 20.944 640.449 20.79 641.139 20.79C641.821 20.79 642.39 20.9347 642.847 21.224C643.305 21.5133 643.65 21.9193 643.883 22.442C644.126 22.9647 644.247 23.576 644.247 24.276V24.738H639.095V23.814H643.001L642.763 24.01C642.763 23.3567 642.623 22.8573 642.343 22.512C642.073 22.1667 641.676 21.994 641.153 21.994C640.575 21.994 640.127 22.1993 639.809 22.61C639.501 23.0207 639.347 23.5947 639.347 24.332V24.514C639.347 25.2793 639.534 25.8533 639.907 26.236C640.29 26.6093 640.827 26.796 641.517 26.796C641.919 26.796 642.292 26.7447 642.637 26.642C642.992 26.53 643.328 26.3527 643.645 26.11L644.163 27.286C643.827 27.5567 643.426 27.7667 642.959 27.916C642.493 28.0653 641.998 28.14 641.475 28.14Z" fill="#9BC1FF"/>
<rect x="461.5" y="0.5" width="271" height="45" rx="9.5" stroke="#2563EB" stroke-opacity="0.2"/>
<rect y="312" width="138" height="134" rx="10" fill="white"/>
<path d="M64.5 361H73.5C81 361 84 358 84 350.5V341.5C84 334 81 331 73.5 331H64.5C57 331 54 334 54 341.5V350.5C54 358 57 361 64.5 361Z" stroke="#5EEC5E" stroke-width="1.5" stroke-linecap="round" stroke-linejoin="round"/>
<path d="M62.625 346.001L66.87 350.246L75.375 341.756" stroke="#5EEC5E" stroke-width="1.5" stroke-linecap="round" stroke-linejoin="round"/>
<path d="M19.9388 400V385.9H28.8588V387.42H21.7988V392.14H28.3988V393.66H21.7988V400H19.9388ZM31.0473 400V389.94H32.8673V400H31.0473ZM30.8873 387.74V385.78H33.0473V387.74H30.8873ZM35.9106 400V385.28H37.7306V400H35.9106ZM45.3539 400.18C43.7539 400.18 42.4872 399.72 41.5539 398.8C40.6339 397.88 40.1739 396.613 40.1739 395C40.1739 393.933 40.3739 393.013 40.7739 392.24C41.1872 391.453 41.7539 390.847 42.4739 390.42C43.1939 389.98 44.0339 389.76 44.9939 389.76C45.9139 389.76 46.6939 389.96 47.3339 390.36C47.9739 390.747 48.4606 391.3 48.7939 392.02C49.1272 392.74 49.2939 393.593 49.2939 394.58V395.18H41.5939V394.1H48.0539L47.7139 394.36C47.7139 393.32 47.4806 392.513 47.0139 391.94C46.5606 391.367 45.8872 391.08 44.9939 391.08C44.0206 391.08 43.2672 391.42 42.7339 392.1C42.2006 392.767 41.9339 393.68 41.9339 394.84V395.02C41.9339 396.247 42.2339 397.173 42.8339 397.8C43.4472 398.427 44.2939 398.74 45.3739 398.74C45.9739 398.74 46.5339 398.653 47.0539 398.48C47.5739 398.307 48.0739 398.02 48.5539 397.62L49.1539 398.88C48.7006 399.293 48.1339 399.613 47.4539 399.84C46.7872 400.067 46.0872 400.18 45.3539 400.18ZM60.5258 400.18C59.3124 400.18 58.3991 399.853 57.7858 399.2C57.1858 398.547 56.8858 397.54 56.8858 396.18V389.94H58.7058V396.14C58.7058 397.02 58.8858 397.667 59.2458 398.08C59.6058 398.493 60.1658 398.7 60.9258 398.7C61.7524 398.7 62.4191 398.427 62.9258 397.88C63.4458 397.32 63.7058 396.58 63.7058 395.66V389.94H65.5258V400H63.7658V397.78H64.0258C63.7458 398.54 63.2991 399.133 62.6858 399.56C62.0724 399.973 61.3524 400.18 60.5258 400.18ZM68.5864 404.32V392.32C68.5864 391.933 68.5731 391.54 68.5464 391.14C68.5197 390.74 68.4797 390.34 68.4264 389.94H70.1864L70.4064 392.26H70.1864C70.3864 391.487 70.8131 390.88 71.4664 390.44C72.1197 389.987 72.8997 389.76 73.8064 389.76C74.6997 389.76 75.4797 389.967 76.1464 390.38C76.8131 390.793 77.3264 391.393 77.6864 392.18C78.0597 392.953 78.2464 393.88 78.2464 394.96C78.2464 396.04 78.0597 396.973 77.6864 397.76C77.3264 398.547 76.8131 399.147 76.1464 399.56C75.4797 399.973 74.6997 400.18 73.8064 400.18C72.9131 400.18 72.1397 399.96 71.4864 399.52C70.8464 399.067 70.4131 398.46 70.1864 397.7H70.4064V404.32H68.5864ZM73.3864 398.74C74.3064 398.74 75.0397 398.42 75.5864 397.78C76.1331 397.14 76.4064 396.2 76.4064 394.96C76.4064 393.72 76.1331 392.787 75.5864 392.16C75.0397 391.533 74.3064 391.22 73.3864 391.22C72.4664 391.22 71.7331 391.533 71.1864 392.16C70.6531 392.787 70.3864 393.72 70.3864 394.96C70.3864 396.2 70.6531 397.14 71.1864 397.78C71.7331 398.42 72.4664 398.74 73.3864 398.74ZM80.6958 400V385.28H82.5158V400H80.6958ZM89.7991 400.18C88.8124 400.18 87.9591 399.973 87.2391 399.56C86.5191 399.133 85.9591 398.533 85.5591 397.76C85.1591 396.973 84.9591 396.04 84.9591 394.96C84.9591 393.893 85.1591 392.973 85.5591 392.2C85.9591 391.413 86.5191 390.813 87.2391 390.4C87.9591 389.973 88.8124 389.76 89.7991 389.76C90.7857 389.76 91.6391 389.973 92.3591 390.4C93.0924 390.813 93.6524 391.413 94.0391 392.2C94.4391 392.973 94.6391 393.893 94.6391 394.96C94.6391 396.04 94.4391 396.973 94.0391 397.76C93.6524 398.533 93.0924 399.133 92.3591 399.56C91.6391 399.973 90.7857 400.18 89.7991 400.18ZM89.7991 398.74C90.7057 398.74 91.4324 398.42 91.9791 397.78C92.5257 397.14 92.7991 396.2 92.7991 394.96C92.7991 393.72 92.5257 392.787 91.9791 392.16C91.4324 391.533 90.7057 391.22 89.7991 391.22C88.8791 391.22 88.1457 391.533 87.5991 392.16C87.0657 392.787 86.7991 393.72 86.7991 394.96C86.7991 396.2 87.0657 397.14 87.5991 397.78C88.1457 398.42 88.8791 398.74 89.7991 398.74ZM100.923 400.18C100.043 400.18 99.2692 399.973 98.6025 399.56C97.9358 399.147 97.4158 398.547 97.0425 397.76C96.6692 396.973 96.4825 396.04 96.4825 394.96C96.4825 393.88 96.6692 392.953 97.0425 392.18C97.4158 391.393 97.9358 390.793 98.6025 390.38C99.2692 389.967 100.043 389.76 100.923 389.76C101.816 389.76 102.589 389.987 103.243 390.44C103.909 390.88 104.349 391.487 104.563 392.26H104.323L104.543 389.94H106.303C106.263 390.34 106.223 390.74 106.183 391.14C106.156 391.54 106.143 391.933 106.143 392.32V400H104.323V397.7H104.543C104.329 398.46 103.889 399.067 103.223 399.52C102.569 399.96 101.803 400.18 100.923 400.18ZM101.343 398.74C102.249 398.74 102.976 398.42 103.523 397.78C104.069 397.14 104.343 396.2 104.343 394.96C104.343 393.72 104.069 392.787 103.523 392.16C102.976 391.533 102.249 391.22 101.343 391.22C100.436 391.22 99.7025 391.533 99.1425 392.16C98.5958 392.787 98.3225 393.72 98.3225 394.96C98.3225 396.2 98.5958 397.14 99.1425 397.78C99.6892 398.42 100.423 398.74 101.343 398.74ZM113.032 400.18C112.152 400.18 111.379 399.973 110.712 399.56C110.045 399.147 109.525 398.547 109.152 397.76C108.779 396.973 108.592 396.04 108.592 394.96C108.592 393.88 108.779 392.953 109.152 392.18C109.525 391.393 110.045 390.793 110.712 390.38C111.379 389.967 112.152 389.76 113.032 389.76C113.912 389.76 114.679 389.98 115.332 390.42C115.999 390.86 116.445 391.467 116.672 392.24H116.432V385.28H118.252V400H116.452V397.66H116.672C116.459 398.447 116.019 399.067 115.352 399.52C114.699 399.96 113.925 400.18 113.032 400.18ZM113.452 398.74C114.359 398.74 115.085 398.42 115.632 397.78C116.192 397.14 116.472 396.2 116.472 394.96C116.472 393.72 116.192 392.787 115.632 392.16C115.085 391.533 114.359 391.22 113.452 391.22C112.545 391.22 111.812 391.533 111.252 392.16C110.705 392.787 110.432 393.72 110.432 394.96C110.432 396.2 110.705 397.14 111.252 397.78C111.812 398.42 112.545 398.74 113.452 398.74ZM21.3223 425.18C20.509 425.18 19.749 425.073 19.0423 424.86C18.349 424.647 17.7757 424.34 17.3223 423.94L17.9023 422.68C18.3957 423.053 18.9357 423.34 19.5223 423.54C20.1223 423.727 20.7357 423.82 21.3623 423.82C22.1223 423.82 22.6957 423.68 23.0823 423.4C23.4823 423.12 23.6823 422.747 23.6823 422.28C23.6823 421.907 23.5557 421.607 23.3023 421.38C23.049 421.153 22.649 420.987 22.1023 420.88L20.2023 420.5C19.349 420.3 18.7023 419.98 18.2623 419.54C17.8357 419.087 17.6223 418.507 17.6223 417.8C17.6223 417.213 17.7823 416.693 18.1023 416.24C18.4223 415.773 18.8757 415.413 19.4623 415.16C20.0623 414.893 20.7623 414.76 21.5623 414.76C22.2957 414.76 22.9757 414.867 23.6023 415.08C24.2423 415.293 24.769 415.607 25.1823 416.02L24.5823 417.24C24.169 416.88 23.7023 416.607 23.1823 416.42C22.6757 416.22 22.1557 416.12 21.6223 416.12C20.849 416.12 20.2757 416.273 19.9023 416.58C19.529 416.873 19.3423 417.26 19.3423 417.74C19.3423 418.1 19.4557 418.4 19.6823 418.64C19.909 418.867 20.2757 419.04 20.7823 419.16L22.6823 419.54C23.5757 419.727 24.249 420.033 24.7023 420.46C25.1557 420.887 25.3823 421.453 25.3823 422.16C25.3823 422.787 25.209 423.327 24.8623 423.78C24.529 424.233 24.0557 424.58 23.4423 424.82C22.8423 425.06 22.1357 425.18 21.3223 425.18ZM31.4438 425.18C30.2304 425.18 29.3171 424.853 28.7038 424.2C28.1038 423.547 27.8038 422.54 27.8038 421.18V414.94H29.6238V421.14C29.6238 422.02 29.8038 422.667 30.1638 423.08C30.5238 423.493 31.0838 423.7 31.8438 423.7C32.6704 423.7 33.3371 423.427 33.8438 422.88C34.3638 422.32 34.6238 421.58 34.6238 420.66V414.94H36.4437V425H34.6838V422.78H34.9438C34.6638 423.54 34.2171 424.133 33.6038 424.56C32.9904 424.973 32.2704 425.18 31.4438 425.18ZM43.8244 425.18C42.8244 425.18 41.9577 424.973 41.2244 424.56C40.491 424.133 39.9177 423.527 39.5044 422.74C39.1044 421.94 38.9044 420.993 38.9044 419.9C38.9044 418.82 39.111 417.9 39.5244 417.14C39.9377 416.367 40.511 415.78 41.2444 415.38C41.9777 414.967 42.8377 414.76 43.8244 414.76C44.4777 414.76 45.111 414.873 45.7244 415.1C46.3377 415.313 46.8377 415.627 47.2244 416.04L46.6044 417.32C46.2177 416.947 45.791 416.673 45.3244 416.5C44.8577 416.313 44.3977 416.22 43.9444 416.22C42.9577 416.22 42.1844 416.54 41.6244 417.18C41.0644 417.807 40.7844 418.72 40.7844 419.92C40.7844 421.133 41.0644 422.067 41.6244 422.72C42.1844 423.373 42.9577 423.7 43.9444 423.7C44.3844 423.7 44.8377 423.613 45.3044 423.44C45.771 423.267 46.2044 422.993 46.6044 422.62L47.2244 423.88C46.8244 424.307 46.311 424.633 45.6844 424.86C45.071 425.073 44.451 425.18 43.8244 425.18ZM53.5705 425.18C52.5705 425.18 51.7038 424.973 50.9705 424.56C50.2371 424.133 49.6638 423.527 49.2505 422.74C48.8505 421.94 48.6505 420.993 48.6505 419.9C48.6505 418.82 48.8571 417.9 49.2705 417.14C49.6838 416.367 50.2571 415.78 50.9905 415.38C51.7238 414.967 52.5838 414.76 53.5705 414.76C54.2238 414.76 54.8571 414.873 55.4705 415.1C56.0838 415.313 56.5838 415.627 56.9705 416.04L56.3505 417.32C55.9638 416.947 55.5371 416.673 55.0705 416.5C54.6038 416.313 54.1438 416.22 53.6905 416.22C52.7038 416.22 51.9305 416.54 51.3705 417.18C50.8105 417.807 50.5305 418.72 50.5305 419.92C50.5305 421.133 50.8105 422.067 51.3705 422.72C51.9305 423.373 52.7038 423.7 53.6905 423.7C54.1305 423.7 54.5838 423.613 55.0505 423.44C55.5171 423.267 55.9505 422.993 56.3505 422.62L56.9705 423.88C56.5705 424.307 56.0571 424.633 55.4305 424.86C54.8171 425.073 54.1971 425.18 53.5705 425.18ZM63.5766 425.18C61.9766 425.18 60.7099 424.72 59.7766 423.8C58.8566 422.88 58.3966 421.613 58.3966 420C58.3966 418.933 58.5966 418.013 58.9966 417.24C59.4099 416.453 59.9766 415.847 60.6966 415.42C61.4166 414.98 62.2566 414.76 63.2166 414.76C64.1366 414.76 64.9166 414.96 65.5566 415.36C66.1966 415.747 66.6832 416.3 67.0166 417.02C67.3499 417.74 67.5166 418.593 67.5166 419.58V420.18H59.8166V419.1H66.2766L65.9366 419.36C65.9366 418.32 65.7032 417.513 65.2366 416.94C64.7832 416.367 64.1099 416.08 63.2166 416.08C62.2432 416.08 61.4899 416.42 60.9566 417.1C60.4232 417.767 60.1566 418.68 60.1566 419.84V420.02C60.1566 421.247 60.4566 422.173 61.0566 422.8C61.6699 423.427 62.5166 423.74 63.5966 423.74C64.1966 423.74 64.7566 423.653 65.2766 423.48C65.7966 423.307 66.2966 423.02 66.7766 422.62L67.3766 423.88C66.9232 424.293 66.3566 424.613 65.6766 424.84C65.0099 425.067 64.3099 425.18 63.5766 425.18ZM73.295 425.18C72.4817 425.18 71.7217 425.073 71.015 424.86C70.3217 424.647 69.7483 424.34 69.295 423.94L69.875 422.68C70.3683 423.053 70.9083 423.34 71.495 423.54C72.095 423.727 72.7083 423.82 73.335 423.82C74.095 423.82 74.6683 423.68 75.055 423.4C75.455 423.12 75.655 422.747 75.655 422.28C75.655 421.907 75.5283 421.607 75.275 421.38C75.0217 421.153 74.6217 420.987 74.075 420.88L72.175 420.5C71.3217 420.3 70.675 419.98 70.235 419.54C69.8083 419.087 69.595 418.507 69.595 417.8C69.595 417.213 69.755 416.693 70.075 416.24C70.395 415.773 70.8483 415.413 71.435 415.16C72.035 414.893 72.735 414.76 73.535 414.76C74.2683 414.76 74.9483 414.867 75.575 415.08C76.215 415.293 76.7417 415.607 77.155 416.02L76.555 417.24C76.1417 416.88 75.675 416.607 75.155 416.42C74.6483 416.22 74.1283 416.12 73.595 416.12C72.8217 416.12 72.2483 416.273 71.875 416.58C71.5017 416.873 71.315 417.26 71.315 417.74C71.315 418.1 71.4283 418.4 71.655 418.64C71.8817 418.867 72.2483 419.04 72.755 419.16L74.655 419.54C75.5483 419.727 76.2217 420.033 76.675 420.46C77.1283 420.887 77.355 421.453 77.355 422.16C77.355 422.787 77.1817 423.327 76.835 423.78C76.5017 424.233 76.0283 424.58 75.415 424.82C74.815 425.06 74.1083 425.18 73.295 425.18ZM83.2364 425.18C82.4231 425.18 81.6631 425.073 80.9564 424.86C80.2631 424.647 79.6897 424.34 79.2364 423.94L79.8164 422.68C80.3097 423.053 80.8497 423.34 81.4364 423.54C82.0364 423.727 82.6497 423.82 83.2764 423.82C84.0364 423.82 84.6097 423.68 84.9964 423.4C85.3964 423.12 85.5964 422.747 85.5964 422.28C85.5964 421.907 85.4697 421.607 85.2164 421.38C84.9631 421.153 84.5631 420.987 84.0164 420.88L82.1164 420.5C81.2631 420.3 80.6164 419.98 80.1764 419.54C79.7497 419.087 79.5364 418.507 79.5364 417.8C79.5364 417.213 79.6964 416.693 80.0164 416.24C80.3364 415.773 80.7897 415.413 81.3764 415.16C81.9764 414.893 82.6764 414.76 83.4764 414.76C84.2097 414.76 84.8897 414.867 85.5164 415.08C86.1564 415.293 86.6831 415.607 87.0964 416.02L86.4964 417.24C86.0831 416.88 85.6164 416.607 85.0964 416.42C84.5897 416.22 84.0697 416.12 83.5364 416.12C82.7631 416.12 82.1897 416.273 81.8164 416.58C81.4431 416.873 81.2564 417.26 81.2564 417.74C81.2564 418.1 81.3697 418.4 81.5964 418.64C81.8231 418.867 82.1897 419.04 82.6964 419.16L84.5964 419.54C85.4897 419.727 86.1631 420.033 86.6164 420.46C87.0697 420.887 87.2964 421.453 87.2964 422.16C87.2964 422.787 87.1231 423.327 86.7764 423.78C86.4431 424.233 85.9697 424.58 85.3564 424.82C84.7564 425.06 84.0497 425.18 83.2364 425.18ZM90.3378 425V416.34H88.3778V414.94H90.8378L90.3378 415.4V413.78C90.3378 412.607 90.6311 411.72 91.2178 411.12C91.8045 410.507 92.6578 410.2 93.7778 410.2C94.0445 410.2 94.3245 410.22 94.6178 410.26C94.9245 410.3 95.1778 410.367 95.3778 410.46V411.94C95.2178 411.873 95.0178 411.82 94.7778 411.78C94.5378 411.74 94.3045 411.72 94.0778 411.72C93.6778 411.72 93.3311 411.8 93.0378 411.96C92.7445 412.12 92.5245 412.36 92.3778 412.68C92.2311 412.987 92.1578 413.393 92.1578 413.9V415.32L91.8778 414.94H94.9378V416.34H92.1578V425H90.3378ZM100.252 425.18C99.039 425.18 98.1257 424.853 97.5123 424.2C96.9123 423.547 96.6123 422.54 96.6123 421.18V414.94H98.4323V421.14C98.4323 422.02 98.6123 422.667 98.9723 423.08C99.3323 423.493 99.8923 423.7 100.652 423.7C101.479 423.7 102.146 423.427 102.652 422.88C103.172 422.32 103.432 421.58 103.432 420.66V414.94H105.252V425H103.492V422.78H103.752C103.472 423.54 103.026 424.133 102.412 424.56C101.799 424.973 101.079 425.18 100.252 425.18ZM108.313 425V410.28H110.133V425H108.313ZM118.69 421.2L118.13 410.9H120.39L119.81 421.2H118.69ZM118.15 425V422.78H120.37V425H118.15Z" fill="#292D32"/>
<rect x="0.5" y="312.5" width="137" height="133" rx="9.5" stroke="#2563EB" stroke-opacity="0.2"/>
<defs>
<clipPath id="clip0_1347_14048">
<rect width="500" height="455" fill="white" transform="translate(73 18)"/>
</clipPath>
</defs>
</svg>
