<svg width="732" height="473" viewBox="0 0 732 473" fill="none" xmlns="http://www.w3.org/2000/svg">
<g clip-path="url(#clip0_129_12947)">
<mask id="mask0_129_12947" style="mask-type:alpha" maskUnits="userSpaceOnUse" x="72" y="20" width="500" height="61">
<path fill-rule="evenodd" clip-rule="evenodd" d="M92 20.5C80.9543 20.5 72 29.4543 72 40.5V50.5V60.5V80.5H92H552H572V60.5V50.5V40.5C572 29.4543 563.045 20.5 552 20.5H92Z" fill="white"/>
</mask>
<g mask="url(#mask0_129_12947)">
<path fill-rule="evenodd" clip-rule="evenodd" d="M92 20.5C80.9543 20.5 72 29.4543 72 40.5V50.5V60.5V80.5H92H552H572V60.5V50.5V40.5C572 29.4543 563.045 20.5 552 20.5H92Z" fill="white"/>
<path d="M72 80.5H64.5V88H72V80.5ZM572 80.5V88H579.5V80.5H572ZM79.5 40.5C79.5 33.5965 85.0965 28 92 28V13C76.8122 13 64.5 25.3122 64.5 40.5H79.5ZM79.5 50.5V40.5H64.5V50.5H79.5ZM79.5 60.5V50.5H64.5V60.5H79.5ZM79.5 80.5V60.5H64.5V80.5H79.5ZM92 73H72V88H92V73ZM552 73H92V88H552V73ZM572 73H552V88H572V73ZM564.5 60.5V80.5H579.5V60.5H564.5ZM564.5 50.5V60.5H579.5V50.5H564.5ZM564.5 40.5V50.5H579.5V40.5H564.5ZM552 28C558.903 28 564.5 33.5965 564.5 40.5H579.5C579.5 25.3122 567.188 13 552 13V28ZM92 28H552V13H92V28Z" fill="#E3E9F0"/>
</g>
<path fill-rule="evenodd" clip-rule="evenodd" d="M104.5 58C108.642 58 112 54.6423 112 50.5C112 46.3578 108.642 43 104.5 43C100.358 43 97 46.3578 97 50.5C97 54.6423 100.358 58 104.5 58Z" fill="#E3E9F0"/>
<path fill-rule="evenodd" clip-rule="evenodd" d="M129.5 58C133.642 58 137 54.6423 137 50.5C137 46.3578 133.642 43 129.5 43C125.358 43 122 46.3578 122 50.5C122 54.6423 125.358 58 129.5 58Z" fill="#E3E9F0"/>
<path fill-rule="evenodd" clip-rule="evenodd" d="M154.5 58C158.642 58 162 54.6423 162 50.5C162 46.3578 158.642 43 154.5 43C150.358 43 147 46.3578 147 50.5C147 54.6423 150.358 58 154.5 58Z" fill="#E3E9F0"/>
<path d="M220.206 43.1025V34.4966C220.206 33.7641 220.368 33.2148 220.694 32.8486C221.028 32.4824 221.463 32.2993 222 32.2993C222.562 32.2993 223.005 32.4824 223.331 32.8486C223.664 33.2148 223.831 33.7641 223.831 34.4966V43.2977C223.831 44.2987 223.941 45.137 224.161 45.8125C224.389 46.4797 224.787 47.0007 225.357 47.375C225.927 47.7412 226.724 47.9242 227.75 47.9242C229.166 47.9242 230.167 47.55 230.753 46.8012C231.339 46.0445 231.631 44.901 231.631 43.371V34.4966C231.631 33.756 231.794 33.2067 232.12 32.8486C232.445 32.4824 232.881 32.2993 233.426 32.2993C233.971 32.2993 234.411 32.4824 234.744 32.8486C235.086 33.2067 235.257 33.756 235.257 34.4966V43.1025C235.257 44.5022 235.119 45.67 234.842 46.606C234.573 47.5417 234.061 48.3637 233.304 49.0717C232.653 49.674 231.896 50.1135 231.033 50.3902C230.171 50.6667 229.162 50.8052 228.006 50.8052C226.631 50.8052 225.447 50.6587 224.454 50.3657C223.461 50.0645 222.651 49.6047 222.025 48.9862C221.398 48.3597 220.938 47.5622 220.645 46.5937C220.352 45.6172 220.206 44.4535 220.206 43.1025ZM248.621 43.5297H245.301V48.5957C245.301 49.32 245.13 49.8692 244.788 50.2437C244.446 50.618 244.015 50.8052 243.494 50.8052C242.949 50.8052 242.51 50.622 242.176 50.2557C241.842 49.8815 241.675 49.3362 241.675 48.62V34.8262C241.675 34.0286 241.859 33.459 242.225 33.1172C242.591 32.7754 243.173 32.6045 243.97 32.6045H248.621C249.997 32.6045 251.054 32.7103 251.795 32.9219C252.527 33.1253 253.158 33.463 253.687 33.935C254.224 34.4071 254.631 34.9849 254.908 35.6684C255.185 36.352 255.323 37.1211 255.323 37.9756C255.323 39.7985 254.761 41.182 253.638 42.126C252.515 43.0617 250.843 43.5297 248.621 43.5297ZM247.742 35.3266H245.301V40.7954H247.742C248.597 40.7954 249.309 40.7059 249.879 40.5268C250.456 40.3478 250.896 40.0548 251.197 39.6479C251.498 39.241 251.649 38.708 251.649 38.0488C251.649 37.2594 251.417 36.6165 250.953 36.1201C250.432 35.5911 249.362 35.3266 247.742 35.3266ZM264.402 34.4966V47.5215H271.751C272.337 47.5215 272.785 47.664 273.094 47.9487C273.411 48.2335 273.57 48.5917 273.57 49.023C273.57 49.4625 273.415 49.8205 273.106 50.0972C272.797 50.3657 272.345 50.5 271.751 50.5H262.999C262.209 50.5 261.64 50.325 261.29 49.975C260.948 49.6252 260.777 49.0595 260.777 48.2782V34.4966C260.777 33.7641 260.94 33.2148 261.265 32.8486C261.599 32.4824 262.034 32.2993 262.571 32.2993C263.117 32.2993 263.556 32.4824 263.89 32.8486C264.232 33.2067 264.402 33.756 264.402 34.4966ZM285.091 32.2993C286.946 32.2993 288.537 32.6777 289.864 33.4346C291.199 34.1833 292.208 35.2534 292.891 36.645C293.575 38.0285 293.917 39.6561 293.917 41.5278C293.917 42.9113 293.729 44.1685 293.355 45.2997C292.981 46.431 292.419 47.4115 291.671 48.2417C290.922 49.0717 290.002 49.7065 288.912 50.146C287.821 50.5855 286.572 50.8052 285.164 50.8052C283.764 50.8052 282.511 50.5815 281.404 50.1337C280.298 49.678 279.374 49.0392 278.633 48.2172C277.893 47.3952 277.331 46.4065 276.949 45.251C276.575 44.0955 276.387 42.8462 276.387 41.5034C276.387 40.1281 276.583 38.8667 276.973 37.7192C277.372 36.5718 277.946 35.5952 278.694 34.7895C279.443 33.9839 280.355 33.3695 281.429 32.9463C282.503 32.515 283.724 32.2993 285.091 32.2993ZM290.242 41.5034C290.242 40.1932 290.031 39.0579 289.608 38.0976C289.184 37.1374 288.578 36.4131 287.789 35.9248C287.007 35.4284 286.108 35.1802 285.091 35.1802C284.367 35.1802 283.695 35.3185 283.077 35.5952C282.466 35.8638 281.937 36.2585 281.49 36.7793C281.05 37.3001 280.7 37.9674 280.44 38.7812C280.188 39.5869 280.062 40.4943 280.062 41.5034C280.062 42.5207 280.188 43.4402 280.44 44.2622C280.7 45.0842 281.063 45.7677 281.526 46.313C281.998 46.85 282.536 47.253 283.138 47.5215C283.748 47.79 284.415 47.9242 285.14 47.9242C286.068 47.9242 286.918 47.6925 287.691 47.2285C288.472 46.7647 289.091 46.0485 289.547 45.08C290.01 44.1117 290.242 42.9194 290.242 41.5034ZM310.015 48.4737L309.161 46.2275H301.885L301.031 48.5225C300.697 49.4177 300.412 50.024 300.176 50.3412C299.94 50.6505 299.554 50.8052 299.017 50.8052C298.561 50.8052 298.158 50.6382 297.808 50.3047C297.458 49.971 297.283 49.5925 297.283 49.1695C297.283 48.9252 297.324 48.673 297.405 48.4125C297.487 48.1522 297.621 47.79 297.808 47.3262L302.386 35.7051C302.516 35.3714 302.671 34.9726 302.85 34.5088C303.037 34.0368 303.232 33.6461 303.436 33.3369C303.647 33.0277 303.92 32.7794 304.254 32.5923C304.595 32.397 305.014 32.2993 305.511 32.2993C306.015 32.2993 306.435 32.397 306.768 32.5923C307.11 32.7794 307.383 33.0236 307.586 33.3247C307.798 33.6258 307.973 33.9513 308.111 34.3013C308.257 34.6431 308.441 35.1029 308.66 35.6807L313.336 47.2285C313.702 48.1075 313.885 48.7462 313.885 49.145C313.885 49.56 313.71 49.9425 313.36 50.2925C313.018 50.6342 312.603 50.8052 312.115 50.8052C311.83 50.8052 311.586 50.7522 311.382 50.6465C311.179 50.5487 311.008 50.4145 310.87 50.2437C310.731 50.0645 310.581 49.796 310.418 49.438C310.263 49.0717 310.129 48.7502 310.015 48.4737ZM302.838 43.5052H308.184L305.486 36.1201L302.838 43.5052ZM321.304 32.6045H326.028C327.258 32.6045 328.31 32.7184 329.19 32.9463C330.07 33.1741 330.868 33.6014 331.583 34.228C333.445 35.8231 334.378 38.2482 334.378 41.5034C334.378 42.5776 334.285 43.5582 334.098 44.4452C333.91 45.3322 333.62 46.134 333.23 46.85C332.84 47.558 332.34 48.1927 331.73 48.7545C331.25 49.1857 330.725 49.5315 330.155 49.792C329.585 50.0525 328.97 50.2355 328.31 50.3412C327.66 50.447 326.923 50.5 326.103 50.5H321.378C320.718 50.5 320.222 50.4022 319.888 50.207C319.555 50.0035 319.335 49.7227 319.229 49.3647C319.131 48.9985 319.083 48.5265 319.083 47.9487V34.8262C319.083 34.0449 319.258 33.4793 319.608 33.1294C319.957 32.7794 320.523 32.6045 321.304 32.6045ZM322.708 35.4731V47.6192H325.455C326.058 47.6192 326.53 47.6027 326.87 47.5702C327.213 47.5377 327.568 47.4565 327.933 47.3262C328.3 47.196 328.615 47.0127 328.885 46.7767C330.098 45.7515 330.703 43.9855 330.703 41.479C330.703 39.713 330.435 38.3906 329.898 37.5117C329.37 36.6328 328.715 36.0753 327.933 35.8393C327.153 35.5952 326.208 35.4731 325.1 35.4731H322.708ZM359.508 35.3999H352.365V39.9775H358.335C358.89 39.9775 359.3 40.1037 359.568 40.3559C359.845 40.6001 359.983 40.9297 359.983 41.3447C359.983 41.7598 359.845 42.0893 359.568 42.3335C359.293 42.5776 358.88 42.6997 358.335 42.6997H352.365V48.5957C352.365 49.3445 352.195 49.9017 351.853 50.268C351.52 50.6262 351.088 50.8052 350.56 50.8052C350.023 50.8052 349.583 50.622 349.24 50.2557C348.908 49.8897 348.74 49.3362 348.74 48.5957V34.8262C348.74 34.3053 348.818 33.8821 348.973 33.5566C349.128 33.223 349.368 32.9829 349.693 32.8364C350.028 32.6818 350.45 32.6045 350.963 32.6045H359.508C360.085 32.6045 360.513 32.7347 360.79 32.9951C361.075 33.2474 361.218 33.581 361.218 33.9961C361.218 34.4193 361.075 34.7611 360.79 35.0215C360.513 35.2738 360.085 35.3999 359.508 35.3999ZM366.573 48.5957V34.4966C366.573 33.7641 366.74 33.2148 367.073 32.8486C367.408 32.4824 367.838 32.2993 368.368 32.2993C368.913 32.2993 369.353 32.4824 369.685 32.8486C370.028 33.2067 370.198 33.756 370.198 34.4966V48.5957C370.198 49.3362 370.028 49.8897 369.685 50.2557C369.353 50.622 368.913 50.8052 368.368 50.8052C367.848 50.8052 367.415 50.622 367.073 50.2557C366.74 49.8815 366.573 49.328 366.573 48.5957ZM380.315 34.4966V47.5215H387.665C388.25 47.5215 388.698 47.664 389.008 47.9487C389.325 48.2335 389.483 48.5917 389.483 49.023C389.483 49.4625 389.328 49.8205 389.02 50.0972C388.71 50.3657 388.258 50.5 387.665 50.5H378.913C378.123 50.5 377.553 50.325 377.203 49.975C376.86 49.6252 376.69 49.0595 376.69 48.2782V34.4966C376.69 33.7641 376.853 33.2148 377.178 32.8486C377.513 32.4824 377.948 32.2993 378.485 32.2993C379.03 32.2993 379.47 32.4824 379.803 32.8486C380.145 33.2067 380.315 33.756 380.315 34.4966ZM406.168 35.3999H398V39.7944H405.52C406.075 39.7944 406.485 39.9206 406.753 40.1728C407.03 40.417 407.168 40.7425 407.168 41.1494C407.168 41.5563 407.035 41.89 406.765 42.1504C406.498 42.4027 406.083 42.5288 405.52 42.5288H398V47.6192H406.448C407.018 47.6192 407.445 47.7535 407.73 48.022C408.023 48.2825 408.17 48.6322 408.17 49.0717C408.17 49.495 408.023 49.8407 407.73 50.1095C407.445 50.3697 407.018 50.5 406.448 50.5H396.598C395.808 50.5 395.238 50.325 394.888 49.975C394.548 49.6252 394.375 49.0595 394.375 48.2782V34.8262C394.375 34.3053 394.453 33.8821 394.608 33.5566C394.763 33.223 395.003 32.9829 395.328 32.8364C395.663 32.6818 396.085 32.6045 396.598 32.6045H406.168C406.745 32.6045 407.173 32.7347 407.45 32.9951C407.735 33.2474 407.878 33.581 407.878 33.9961C407.878 34.4193 407.735 34.7611 407.45 35.0215C407.173 35.2738 406.745 35.3999 406.168 35.3999ZM427.15 45.129C427.15 46.2112 426.868 47.1837 426.308 48.0465C425.753 48.909 424.94 49.5845 423.865 50.0727C422.79 50.561 421.518 50.8052 420.045 50.8052C418.278 50.8052 416.823 50.4715 415.675 49.8042C414.86 49.324 414.198 48.6852 413.685 47.8877C413.18 47.082 412.928 46.3007 412.928 45.544C412.928 45.1045 413.078 44.7302 413.38 44.421C413.688 44.1035 414.08 43.9447 414.553 43.9447C414.935 43.9447 415.255 44.067 415.515 44.311C415.785 44.5552 416.013 44.9172 416.2 45.3975C416.428 45.967 416.67 46.4432 416.933 46.8257C417.2 47.2082 417.575 47.5255 418.055 47.7777C418.535 48.022 419.165 48.144 419.948 48.144C421.02 48.144 421.893 47.8957 422.56 47.3995C423.235 46.8947 423.573 46.2682 423.573 45.5195C423.573 44.9255 423.39 44.4452 423.023 44.079C422.665 43.7047 422.198 43.42 421.62 43.2245C421.05 43.0292 420.285 42.8218 419.325 42.602C418.038 42.3009 416.96 41.951 416.09 41.5522C415.228 41.1453 414.54 40.596 414.028 39.9043C413.523 39.2044 413.27 38.3377 413.27 37.3042C413.27 36.3195 413.538 35.4446 414.075 34.6797C414.613 33.9147 415.39 33.3288 416.408 32.9219C417.425 32.5068 418.62 32.2993 419.995 32.2993C421.095 32.2993 422.043 32.4377 422.84 32.7143C423.645 32.9829 424.313 33.345 424.843 33.8008C425.37 34.2484 425.758 34.7204 426.003 35.2168C426.245 35.7132 426.368 36.1974 426.368 36.6694C426.368 37.1007 426.213 37.4914 425.905 37.8413C425.603 38.1831 425.225 38.354 424.768 38.354C424.353 38.354 424.035 38.2523 423.818 38.0488C423.605 37.8372 423.373 37.4954 423.12 37.0234C422.795 36.348 422.405 35.8231 421.948 35.4487C421.493 35.0662 420.76 34.875 419.753 34.875C418.815 34.875 418.06 35.0825 417.48 35.4975C416.913 35.9044 416.628 36.3968 416.628 36.9746C416.628 37.3327 416.725 37.6419 416.92 37.9023C417.115 38.1627 417.383 38.3865 417.725 38.5737C418.068 38.7609 418.413 38.9074 418.763 39.0132C419.113 39.119 419.69 39.2736 420.495 39.477C421.505 39.713 422.418 39.9735 423.23 40.2583C424.053 40.5431 424.748 40.889 425.318 41.2959C425.895 41.7028 426.343 42.2196 426.66 42.8462C426.985 43.4647 427.15 44.2255 427.15 45.129Z" fill="#E3E9F0"/>
<mask id="mask1_129_12947" style="mask-type:alpha" maskUnits="userSpaceOnUse" x="72" y="73" width="500" height="400">
<path fill-rule="evenodd" clip-rule="evenodd" d="M552 473C563.045 473 572 464.045 572 453V273V93V73H552H92H72V93V273V453C72 464.045 80.9543 473 92 473H552Z" fill="white"/>
</mask>
<g mask="url(#mask1_129_12947)">
<path fill-rule="evenodd" clip-rule="evenodd" d="M552 473C563.045 473 572 464.045 572 453V273V93V73H552H92H72V93V273V453C72 464.045 80.9543 473 92 473H552Z" fill="white"/>
<path d="M572 73H579.5V65.5H572V73ZM72 73V65.5H64.5V73H72ZM564.5 453C564.5 459.903 558.903 465.5 552 465.5V480.5C567.188 480.5 579.5 468.188 579.5 453H564.5ZM564.5 273V453H579.5V273H564.5ZM564.5 93V273H579.5V93H564.5ZM564.5 73V93H579.5V73H564.5ZM552 80.5H572V65.5H552V80.5ZM92 80.5H552V65.5H92V80.5ZM72 80.5H92V65.5H72V80.5ZM79.5 93V73H64.5V93H79.5ZM79.5 273V93H64.5V273H79.5ZM79.5 453V273H64.5V453H79.5ZM92 465.5C85.0965 465.5 79.5 459.903 79.5 453H64.5C64.5 468.188 76.8122 480.5 92 480.5V465.5ZM552 465.5H92V480.5H552V465.5Z" fill="#CAD6E2" fill-opacity="0.53"/>
</g>
<path d="M509.5 233H134.5C133.119 233 132 234.119 132 235.5V408C132 409.381 133.119 410.5 134.5 410.5H509.5C510.881 410.5 512 409.381 512 408V235.5C512 234.119 510.881 233 509.5 233Z" fill="white" stroke="#CAD6E2" stroke-width="3" stroke-linecap="round" stroke-dasharray="2.5 12.5"/>
<path fill-rule="evenodd" clip-rule="evenodd" d="M321.452 302.625C323.523 302.625 325.203 300.945 325.203 298.875V285.13L328.51 288.437C329.975 289.902 332.348 289.902 333.813 288.437L333.888 288.362C335.353 286.897 335.353 284.522 333.888 283.06L324.125 273.297L324.05 273.222C322.585 271.757 320.212 271.757 318.747 273.222L318.672 273.297L309.576 282.392C308.111 283.857 308.111 286.232 309.576 287.695L309.652 287.772C311.116 289.237 313.49 289.237 314.955 287.772L317.596 285.13V298.875C317.596 300.945 319.274 302.625 321.346 302.625H321.452Z" fill="#CAD6E2"/>
<path d="M379.5 328H264.5C254.835 328 247 335.835 247 345.5C247 355.165 254.835 363 264.5 363H379.5C389.165 363 397 355.165 397 345.5C397 335.835 389.165 328 379.5 328Z" fill="#2158D2"/>
<path d="M379.5 331.75H264.5C256.906 331.75 250.75 337.906 250.75 345.5C250.75 353.094 256.906 359.25 264.5 359.25H379.5C387.094 359.25 393.25 353.094 393.25 345.5C393.25 337.906 387.094 331.75 379.5 331.75Z" stroke="#2563EB"/>
<rect x="130.5" y="129.5" width="47" height="47" rx="23.5" fill="#2158D2"/>
<path d="M165.435 146.974C165.789 146.549 165.731 145.919 165.307 145.565C164.883 145.212 164.252 145.269 163.899 145.693L156.711 154.318C155.267 156.051 154.252 157.266 153.371 158.061C152.51 158.838 151.917 159.085 151.334 159.085C150.751 159.085 150.157 158.838 149.296 158.061C148.415 157.266 147.4 156.051 145.956 154.318L144.102 152.093C143.748 151.669 143.118 151.612 142.693 151.965C142.269 152.319 142.212 152.949 142.565 153.374L144.471 155.661C145.851 157.317 146.957 158.644 147.956 159.546C148.988 160.478 150.043 161.085 151.334 161.085C152.624 161.085 153.679 160.478 154.711 159.546C155.71 158.644 156.816 157.317 158.196 155.661L165.435 146.974Z" fill="white"/>
<rect x="130.5" y="129.5" width="47" height="47" rx="23.5" stroke="#171D2E"/>
<path d="M198.192 159V153.736L198.48 154.632L193.808 147.72H195.344L199.056 153.336H198.72L202.416 147.72H203.888L199.232 154.632L199.52 153.736V159H198.192ZM207.013 159.144C206.245 159.144 205.573 158.979 204.997 158.648C204.432 158.307 203.994 157.827 203.685 157.208C203.376 156.579 203.221 155.837 203.221 154.984C203.221 154.12 203.376 153.379 203.685 152.76C203.994 152.141 204.432 151.667 204.997 151.336C205.573 150.995 206.245 150.824 207.013 150.824C207.792 150.824 208.464 150.995 209.029 151.336C209.605 151.667 210.048 152.141 210.357 152.76C210.677 153.379 210.837 154.12 210.837 154.984C210.837 155.837 210.677 156.579 210.357 157.208C210.048 157.827 209.605 158.307 209.029 158.648C208.464 158.979 207.792 159.144 207.013 159.144ZM207.013 158.088C207.781 158.088 208.389 157.827 208.837 157.304C209.285 156.771 209.509 155.997 209.509 154.984C209.509 153.96 209.28 153.187 208.821 152.664C208.373 152.131 207.77 151.864 207.013 151.864C206.256 151.864 205.653 152.131 205.205 152.664C204.757 153.187 204.533 153.96 204.533 154.984C204.533 155.997 204.757 156.771 205.205 157.304C205.653 157.827 206.256 158.088 207.013 158.088ZM215.69 159.144C214.74 159.144 214.02 158.883 213.53 158.36C213.05 157.837 212.81 157.037 212.81 155.96V150.968H214.106V155.928C214.106 156.664 214.255 157.208 214.554 157.56C214.852 157.901 215.316 158.072 215.946 158.072C216.65 158.072 217.215 157.843 217.642 157.384C218.068 156.925 218.282 156.312 218.282 155.544V150.968H219.578V159H218.314V157.192H218.522C218.298 157.811 217.935 158.291 217.434 158.632C216.943 158.973 216.362 159.144 215.69 159.144ZM222.06 159V152.904C222.06 152.584 222.049 152.259 222.028 151.928C222.017 151.597 221.996 151.277 221.964 150.968H223.212L223.372 152.92L223.148 152.936C223.255 152.456 223.441 152.061 223.708 151.752C223.975 151.443 224.289 151.213 224.652 151.064C225.015 150.904 225.393 150.824 225.788 150.824C225.948 150.824 226.087 150.829 226.204 150.84C226.332 150.851 226.449 150.877 226.556 150.92L226.54 152.072C226.38 152.019 226.231 151.987 226.092 151.976C225.964 151.955 225.815 151.944 225.644 151.944C225.175 151.944 224.764 152.056 224.412 152.28C224.071 152.504 223.809 152.792 223.628 153.144C223.457 153.496 223.372 153.869 223.372 154.264V159H222.06ZM231.101 159L236.077 147.72H237.229L242.285 159H240.909L239.501 155.784L240.093 156.12H233.197L233.837 155.784L232.461 159H231.101ZM236.637 149.24L234.045 155.32L233.661 155.032H239.613L239.325 155.32L236.669 149.24H236.637ZM246.674 159.144C245.725 159.144 245.005 158.883 244.514 158.36C244.034 157.837 243.794 157.037 243.794 155.96V150.968H245.09V155.928C245.09 156.664 245.239 157.208 245.538 157.56C245.837 157.901 246.301 158.072 246.93 158.072C247.634 158.072 248.199 157.843 248.626 157.384C249.053 156.925 249.266 156.312 249.266 155.544V150.968H250.562V159H249.298V157.192H249.506C249.282 157.811 248.919 158.291 248.418 158.632C247.927 158.973 247.346 159.144 246.674 159.144ZM256.117 159.144C255.413 159.144 254.794 158.979 254.261 158.648C253.727 158.307 253.311 157.827 253.013 157.208C252.725 156.589 252.581 155.848 252.581 154.984C252.581 154.109 252.725 153.363 253.013 152.744C253.311 152.125 253.727 151.651 254.261 151.32C254.794 150.989 255.413 150.824 256.117 150.824C256.842 150.824 257.466 151.005 257.989 151.368C258.522 151.731 258.879 152.221 259.061 152.84H258.869V147.224H260.165V159H258.885V157.08H259.061C258.89 157.72 258.538 158.227 258.005 158.6C257.471 158.963 256.842 159.144 256.117 159.144ZM256.389 158.088C257.146 158.088 257.754 157.827 258.213 157.304C258.671 156.771 258.901 155.997 258.901 154.984C258.901 153.96 258.671 153.187 258.213 152.664C257.754 152.131 257.146 151.864 256.389 151.864C255.631 151.864 255.023 152.131 254.565 152.664C254.117 153.187 253.893 153.96 253.893 154.984C253.893 155.997 254.117 156.771 254.565 157.304C255.023 157.827 255.631 158.088 256.389 158.088ZM262.67 159V150.968H263.966V159H262.67ZM262.51 149.144V147.688H264.11V149.144H262.51ZM269.779 159.144C269.011 159.144 268.339 158.979 267.763 158.648C267.197 158.307 266.76 157.827 266.451 157.208C266.141 156.579 265.987 155.837 265.987 154.984C265.987 154.12 266.141 153.379 266.451 152.76C266.76 152.141 267.197 151.667 267.763 151.336C268.339 150.995 269.011 150.824 269.779 150.824C270.557 150.824 271.229 150.995 271.795 151.336C272.371 151.667 272.813 152.141 273.123 152.76C273.443 153.379 273.603 154.12 273.603 154.984C273.603 155.837 273.443 156.579 273.123 157.208C272.813 157.827 272.371 158.307 271.795 158.648C271.229 158.979 270.557 159.144 269.779 159.144ZM269.779 158.088C270.547 158.088 271.155 157.827 271.603 157.304C272.051 156.771 272.275 155.997 272.275 154.984C272.275 153.96 272.045 153.187 271.587 152.664C271.139 152.131 270.536 151.864 269.779 151.864C269.021 151.864 268.419 152.131 267.971 152.664C267.523 153.187 267.299 153.96 267.299 154.984C267.299 155.997 267.523 156.771 267.971 157.304C268.419 157.827 269.021 158.088 269.779 158.088ZM279.795 159V147.224H281.091V152.744H280.883C281.107 152.115 281.481 151.64 282.003 151.32C282.537 150.989 283.15 150.824 283.843 150.824C284.803 150.824 285.518 151.085 285.987 151.608C286.457 152.12 286.691 152.899 286.691 153.944V159H285.395V154.024C285.395 153.277 285.246 152.733 284.947 152.392C284.659 152.051 284.19 151.88 283.539 151.88C282.793 151.88 282.195 152.109 281.747 152.568C281.31 153.027 281.091 153.629 281.091 154.376V159H279.795ZM292.226 159.144C291.512 159.144 290.888 158.979 290.354 158.648C289.821 158.307 289.405 157.827 289.106 157.208C288.818 156.589 288.674 155.848 288.674 154.984C288.674 154.109 288.818 153.363 289.106 152.744C289.405 152.125 289.821 151.651 290.354 151.32C290.888 150.989 291.512 150.824 292.226 150.824C292.952 150.824 293.576 151.011 294.098 151.384C294.632 151.747 294.984 152.243 295.154 152.872H294.962L295.138 150.968H296.386C296.354 151.277 296.322 151.592 296.29 151.912C296.269 152.221 296.258 152.525 296.258 152.824V159H294.962V157.112H295.138C294.968 157.741 294.616 158.237 294.082 158.6C293.549 158.963 292.93 159.144 292.226 159.144ZM292.482 158.088C293.25 158.088 293.858 157.827 294.306 157.304C294.754 156.771 294.978 155.997 294.978 154.984C294.978 153.96 294.754 153.187 294.306 152.664C293.858 152.131 293.25 151.864 292.482 151.864C291.725 151.864 291.117 152.131 290.658 152.664C290.21 153.187 289.986 153.96 289.986 154.984C289.986 155.997 290.21 156.771 290.658 157.304C291.117 157.827 291.725 158.088 292.482 158.088ZM301.436 159.144C300.796 159.144 300.199 159.059 299.644 158.888C299.089 158.707 298.631 158.456 298.268 158.136L298.716 157.224C299.111 157.533 299.537 157.763 299.996 157.912C300.465 158.061 300.951 158.136 301.452 158.136C302.092 158.136 302.572 158.024 302.892 157.8C303.223 157.565 303.388 157.245 303.388 156.84C303.388 156.531 303.281 156.285 303.068 156.104C302.865 155.912 302.529 155.763 302.06 155.656L300.572 155.352C299.889 155.203 299.377 154.952 299.036 154.6C298.695 154.237 298.524 153.779 298.524 153.224C298.524 152.755 298.647 152.344 298.892 151.992C299.137 151.629 299.495 151.347 299.964 151.144C300.433 150.931 300.983 150.824 301.612 150.824C302.199 150.824 302.737 150.915 303.228 151.096C303.729 151.267 304.145 151.517 304.476 151.848L304.012 152.744C303.692 152.435 303.324 152.205 302.908 152.056C302.503 151.896 302.081 151.816 301.644 151.816C301.015 151.816 300.54 151.944 300.22 152.2C299.911 152.445 299.756 152.771 299.756 153.176C299.756 153.485 299.852 153.741 300.044 153.944C300.247 154.136 300.556 154.28 300.972 154.376L302.46 154.68C303.185 154.84 303.724 155.091 304.076 155.432C304.439 155.763 304.62 156.211 304.62 156.776C304.62 157.256 304.487 157.677 304.22 158.04C303.953 158.392 303.58 158.664 303.1 158.856C302.631 159.048 302.076 159.144 301.436 159.144ZM314.905 159.144C314.18 159.144 313.556 158.963 313.033 158.6C312.511 158.227 312.159 157.72 311.977 157.08H312.153V159H310.873V147.224H312.169V152.84H311.977C312.159 152.221 312.511 151.731 313.033 151.368C313.556 151.005 314.18 150.824 314.905 150.824C315.631 150.824 316.255 150.995 316.777 151.336C317.311 151.667 317.721 152.141 318.009 152.76C318.308 153.379 318.457 154.12 318.457 154.984C318.457 155.848 318.308 156.589 318.009 157.208C317.711 157.827 317.295 158.307 316.761 158.648C316.239 158.979 315.62 159.144 314.905 159.144ZM314.633 158.088C315.391 158.088 315.999 157.827 316.457 157.304C316.916 156.781 317.145 156.008 317.145 154.984C317.145 153.96 316.916 153.187 316.457 152.664C315.999 152.131 315.391 151.864 314.633 151.864C313.876 151.864 313.268 152.131 312.809 152.664C312.361 153.187 312.137 153.96 312.137 154.984C312.137 155.997 312.361 156.771 312.809 157.304C313.268 157.827 313.876 158.088 314.633 158.088ZM324.035 159.144C322.776 159.144 321.784 158.781 321.059 158.056C320.334 157.32 319.971 156.301 319.971 155C319.971 154.157 320.131 153.427 320.451 152.808C320.771 152.179 321.219 151.693 321.795 151.352C322.371 151 323.032 150.824 323.779 150.824C324.515 150.824 325.134 150.979 325.635 151.288C326.136 151.597 326.52 152.04 326.787 152.616C327.054 153.181 327.187 153.853 327.187 154.632V155.112H320.963V154.296H326.339L326.067 154.504C326.067 153.651 325.875 152.984 325.491 152.504C325.107 152.024 324.536 151.784 323.779 151.784C322.979 151.784 322.355 152.067 321.907 152.632C321.459 153.187 321.235 153.939 321.235 154.888V155.032C321.235 156.035 321.48 156.797 321.971 157.32C322.472 157.832 323.171 158.088 324.067 158.088C324.547 158.088 324.995 158.019 325.411 157.88C325.838 157.731 326.243 157.491 326.627 157.16L327.075 158.072C326.723 158.413 326.275 158.68 325.731 158.872C325.198 159.053 324.632 159.144 324.035 159.144ZM332.738 159.144C331.48 159.144 330.488 158.781 329.762 158.056C329.037 157.32 328.674 156.301 328.674 155C328.674 154.157 328.834 153.427 329.154 152.808C329.474 152.179 329.922 151.693 330.498 151.352C331.074 151 331.736 150.824 332.482 150.824C333.218 150.824 333.837 150.979 334.338 151.288C334.84 151.597 335.224 152.04 335.49 152.616C335.757 153.181 335.89 153.853 335.89 154.632V155.112H329.666V154.296H335.042L334.77 154.504C334.77 153.651 334.578 152.984 334.194 152.504C333.81 152.024 333.24 151.784 332.482 151.784C331.682 151.784 331.058 152.067 330.61 152.632C330.162 153.187 329.938 153.939 329.938 154.888V155.032C329.938 156.035 330.184 156.797 330.674 157.32C331.176 157.832 331.874 158.088 332.77 158.088C333.25 158.088 333.698 158.019 334.114 157.88C334.541 157.731 334.946 157.491 335.33 157.16L335.778 158.072C335.426 158.413 334.978 158.68 334.434 158.872C333.901 159.053 333.336 159.144 332.738 159.144ZM337.873 159V152.824C337.873 152.525 337.857 152.221 337.825 151.912C337.804 151.592 337.777 151.277 337.745 150.968H338.993L339.153 152.728H338.961C339.196 152.109 339.569 151.64 340.081 151.32C340.604 150.989 341.207 150.824 341.889 150.824C342.839 150.824 343.553 151.08 344.033 151.592C344.524 152.093 344.769 152.888 344.769 153.976V159H343.473V154.056C343.473 153.299 343.319 152.749 343.009 152.408C342.711 152.056 342.241 151.88 341.601 151.88C340.855 151.88 340.263 152.109 339.825 152.568C339.388 153.027 339.169 153.64 339.169 154.408V159H337.873ZM354.252 159.144C353.303 159.144 352.583 158.883 352.092 158.36C351.612 157.837 351.372 157.037 351.372 155.96V150.968H352.668V155.928C352.668 156.664 352.818 157.208 353.116 157.56C353.415 157.901 353.879 158.072 354.508 158.072C355.212 158.072 355.778 157.843 356.204 157.384C356.631 156.925 356.844 156.312 356.844 155.544V150.968H358.14V159H356.876V157.192H357.084C356.86 157.811 356.498 158.291 355.996 158.632C355.506 158.973 354.924 159.144 354.252 159.144ZM360.655 162.456V152.824C360.655 152.525 360.639 152.221 360.607 151.912C360.585 151.592 360.559 151.277 360.527 150.968H361.775L361.951 152.872H361.759C361.929 152.243 362.276 151.747 362.799 151.384C363.321 151.011 363.945 150.824 364.671 150.824C365.396 150.824 366.02 150.989 366.543 151.32C367.076 151.651 367.492 152.125 367.791 152.744C368.089 153.363 368.239 154.109 368.239 154.984C368.239 155.848 368.089 156.589 367.791 157.208C367.503 157.827 367.092 158.307 366.559 158.648C366.025 158.979 365.396 159.144 364.671 159.144C363.956 159.144 363.337 158.963 362.815 158.6C362.292 158.237 361.945 157.741 361.775 157.112H361.951V162.456H360.655ZM364.415 158.088C365.183 158.088 365.791 157.827 366.239 157.304C366.697 156.771 366.927 155.997 366.927 154.984C366.927 153.96 366.697 153.187 366.239 152.664C365.791 152.131 365.183 151.864 364.415 151.864C363.657 151.864 363.049 152.131 362.591 152.664C362.143 153.187 361.919 153.96 361.919 154.984C361.919 155.997 362.143 156.771 362.591 157.304C363.049 157.827 363.657 158.088 364.415 158.088ZM370.248 159V147.224H371.544V159H370.248ZM377.357 159.144C376.589 159.144 375.917 158.979 375.341 158.648C374.776 158.307 374.338 157.827 374.029 157.208C373.72 156.579 373.565 155.837 373.565 154.984C373.565 154.12 373.72 153.379 374.029 152.76C374.338 152.141 374.776 151.667 375.341 151.336C375.917 150.995 376.589 150.824 377.357 150.824C378.136 150.824 378.808 150.995 379.373 151.336C379.949 151.667 380.392 152.141 380.701 152.76C381.021 153.379 381.181 154.12 381.181 154.984C381.181 155.837 381.021 156.579 380.701 157.208C380.392 157.827 379.949 158.307 379.373 158.648C378.808 158.979 378.136 159.144 377.357 159.144ZM377.357 158.088C378.125 158.088 378.733 157.827 379.181 157.304C379.629 156.771 379.853 155.997 379.853 154.984C379.853 153.96 379.624 153.187 379.165 152.664C378.717 152.131 378.114 151.864 377.357 151.864C376.6 151.864 375.997 152.131 375.549 152.664C375.101 153.187 374.877 153.96 374.877 154.984C374.877 155.997 375.101 156.771 375.549 157.304C375.997 157.827 376.6 158.088 377.357 158.088ZM386.258 159.144C385.543 159.144 384.919 158.979 384.386 158.648C383.852 158.307 383.436 157.827 383.138 157.208C382.85 156.589 382.706 155.848 382.706 154.984C382.706 154.109 382.85 153.363 383.138 152.744C383.436 152.125 383.852 151.651 384.386 151.32C384.919 150.989 385.543 150.824 386.258 150.824C386.983 150.824 387.607 151.011 388.13 151.384C388.663 151.747 389.015 152.243 389.186 152.872H388.994L389.17 150.968H390.418C390.386 151.277 390.354 151.592 390.322 151.912C390.3 152.221 390.29 152.525 390.29 152.824V159H388.994V157.112H389.17C388.999 157.741 388.647 158.237 388.114 158.6C387.58 158.963 386.962 159.144 386.258 159.144ZM386.514 158.088C387.282 158.088 387.89 157.827 388.338 157.304C388.786 156.771 389.01 155.997 389.01 154.984C389.01 153.96 388.786 153.187 388.338 152.664C387.89 152.131 387.282 151.864 386.514 151.864C385.756 151.864 385.148 152.131 384.69 152.664C384.242 153.187 384.018 153.96 384.018 154.984C384.018 155.997 384.242 156.771 384.69 157.304C385.148 157.827 385.756 158.088 386.514 158.088ZM395.835 159.144C395.131 159.144 394.513 158.979 393.979 158.648C393.446 158.307 393.03 157.827 392.731 157.208C392.443 156.589 392.299 155.848 392.299 154.984C392.299 154.109 392.443 153.363 392.731 152.744C393.03 152.125 393.446 151.651 393.979 151.32C394.513 150.989 395.131 150.824 395.835 150.824C396.561 150.824 397.185 151.005 397.707 151.368C398.241 151.731 398.598 152.221 398.779 152.84H398.587V147.224H399.883V159H398.603V157.08H398.779C398.609 157.72 398.257 158.227 397.723 158.6C397.19 158.963 396.561 159.144 395.835 159.144ZM396.107 158.088C396.865 158.088 397.473 157.827 397.931 157.304C398.39 156.771 398.619 155.997 398.619 154.984C398.619 153.96 398.39 153.187 397.931 152.664C397.473 152.131 396.865 151.864 396.107 151.864C395.35 151.864 394.742 152.131 394.283 152.664C393.835 153.187 393.611 153.96 393.611 154.984C393.611 155.997 393.835 156.771 394.283 157.304C394.742 157.827 395.35 158.088 396.107 158.088ZM405.957 159.144C404.698 159.144 403.706 158.781 402.981 158.056C402.256 157.32 401.893 156.301 401.893 155C401.893 154.157 402.053 153.427 402.373 152.808C402.693 152.179 403.141 151.693 403.717 151.352C404.293 151 404.954 150.824 405.701 150.824C406.437 150.824 407.056 150.979 407.557 151.288C408.058 151.597 408.442 152.04 408.709 152.616C408.976 153.181 409.109 153.853 409.109 154.632V155.112H402.885V154.296H408.261L407.989 154.504C407.989 153.651 407.797 152.984 407.413 152.504C407.029 152.024 406.458 151.784 405.701 151.784C404.901 151.784 404.277 152.067 403.829 152.632C403.381 153.187 403.157 153.939 403.157 154.888V155.032C403.157 156.035 403.402 156.797 403.893 157.32C404.394 157.832 405.093 158.088 405.989 158.088C406.469 158.088 406.917 158.019 407.333 157.88C407.76 157.731 408.165 157.491 408.549 157.16L408.997 158.072C408.645 158.413 408.197 158.68 407.653 158.872C407.12 159.053 406.554 159.144 405.957 159.144ZM414.132 159.144C413.428 159.144 412.809 158.979 412.276 158.648C411.743 158.307 411.327 157.827 411.028 157.208C410.74 156.589 410.596 155.848 410.596 154.984C410.596 154.109 410.74 153.363 411.028 152.744C411.327 152.125 411.743 151.651 412.276 151.32C412.809 150.989 413.428 150.824 414.132 150.824C414.857 150.824 415.481 151.005 416.004 151.368C416.537 151.731 416.895 152.221 417.076 152.84H416.884V147.224H418.18V159H416.9V157.08H417.076C416.905 157.72 416.553 158.227 416.02 158.6C415.487 158.963 414.857 159.144 414.132 159.144ZM414.404 158.088C415.161 158.088 415.769 157.827 416.228 157.304C416.687 156.771 416.916 155.997 416.916 154.984C416.916 153.96 416.687 153.187 416.228 152.664C415.769 152.131 415.161 151.864 414.404 151.864C413.647 151.864 413.039 152.131 412.58 152.664C412.132 153.187 411.908 153.96 411.908 154.984C411.908 155.997 412.132 156.771 412.58 157.304C413.039 157.827 413.647 158.088 414.404 158.088ZM427.53 159.144C426.89 159.144 426.292 159.059 425.738 158.888C425.183 158.707 424.724 158.456 424.362 158.136L424.81 157.224C425.204 157.533 425.631 157.763 426.09 157.912C426.559 158.061 427.044 158.136 427.546 158.136C428.186 158.136 428.666 158.024 428.986 157.8C429.316 157.565 429.482 157.245 429.482 156.84C429.482 156.531 429.375 156.285 429.162 156.104C428.959 155.912 428.623 155.763 428.154 155.656L426.666 155.352C425.983 155.203 425.471 154.952 425.13 154.6C424.788 154.237 424.618 153.779 424.618 153.224C424.618 152.755 424.74 152.344 424.986 151.992C425.231 151.629 425.588 151.347 426.058 151.144C426.527 150.931 427.076 150.824 427.706 150.824C428.292 150.824 428.831 150.915 429.322 151.096C429.823 151.267 430.239 151.517 430.57 151.848L430.106 152.744C429.786 152.435 429.418 152.205 429.002 152.056C428.596 151.896 428.175 151.816 427.738 151.816C427.108 151.816 426.634 151.944 426.314 152.2C426.004 152.445 425.85 152.771 425.85 153.176C425.85 153.485 425.946 153.741 426.138 153.944C426.34 154.136 426.65 154.28 427.066 154.376L428.554 154.68C429.279 154.84 429.818 155.091 430.17 155.432C430.532 155.763 430.714 156.211 430.714 156.776C430.714 157.256 430.58 157.677 430.314 158.04C430.047 158.392 429.674 158.664 429.194 158.856C428.724 159.048 428.17 159.144 427.53 159.144ZM435.627 159.144C434.678 159.144 433.958 158.883 433.467 158.36C432.987 157.837 432.747 157.037 432.747 155.96V150.968H434.043V155.928C434.043 156.664 434.193 157.208 434.491 157.56C434.79 157.901 435.254 158.072 435.883 158.072C436.587 158.072 437.153 157.843 437.579 157.384C438.006 156.925 438.219 156.312 438.219 155.544V150.968H439.515V159H438.251V157.192H438.459C438.235 157.811 437.873 158.291 437.371 158.632C436.881 158.973 436.299 159.144 435.627 159.144ZM445.406 159.144C444.616 159.144 443.928 158.973 443.342 158.632C442.766 158.291 442.318 157.805 441.998 157.176C441.688 156.547 441.534 155.8 441.534 154.936C441.534 154.061 441.694 153.32 442.014 152.712C442.334 152.093 442.782 151.624 443.358 151.304C443.944 150.984 444.627 150.824 445.406 150.824C445.918 150.824 446.414 150.915 446.894 151.096C447.384 151.277 447.79 151.533 448.11 151.864L447.646 152.792C447.326 152.483 446.974 152.253 446.59 152.104C446.216 151.955 445.848 151.88 445.486 151.88C444.654 151.88 444.008 152.141 443.55 152.664C443.091 153.187 442.862 153.949 442.862 154.952C442.862 155.944 443.091 156.712 443.55 157.256C444.008 157.8 444.654 158.072 445.486 158.072C445.838 158.072 446.2 158.003 446.574 157.864C446.958 157.725 447.315 157.496 447.646 157.176L448.11 158.088C447.779 158.429 447.368 158.691 446.878 158.872C446.387 159.053 445.896 159.144 445.406 159.144ZM453.171 159.144C452.382 159.144 451.694 158.973 451.107 158.632C450.531 158.291 450.083 157.805 449.763 157.176C449.454 156.547 449.299 155.8 449.299 154.936C449.299 154.061 449.459 153.32 449.779 152.712C450.099 152.093 450.547 151.624 451.123 151.304C451.71 150.984 452.393 150.824 453.171 150.824C453.683 150.824 454.179 150.915 454.659 151.096C455.15 151.277 455.555 151.533 455.875 151.864L455.411 152.792C455.091 152.483 454.739 152.253 454.355 152.104C453.982 151.955 453.614 151.88 453.251 151.88C452.419 151.88 451.774 152.141 451.315 152.664C450.857 153.187 450.627 153.949 450.627 154.952C450.627 155.944 450.857 156.712 451.315 157.256C451.774 157.8 452.419 158.072 453.251 158.072C453.603 158.072 453.966 158.003 454.339 157.864C454.723 157.725 455.081 157.496 455.411 157.176L455.875 158.088C455.545 158.429 455.134 158.691 454.643 158.872C454.153 159.053 453.662 159.144 453.171 159.144ZM461.129 159.144C459.87 159.144 458.878 158.781 458.153 158.056C457.428 157.32 457.065 156.301 457.065 155C457.065 154.157 457.225 153.427 457.545 152.808C457.865 152.179 458.313 151.693 458.889 151.352C459.465 151 460.126 150.824 460.873 150.824C461.609 150.824 462.228 150.979 462.729 151.288C463.23 151.597 463.614 152.04 463.881 152.616C464.148 153.181 464.281 153.853 464.281 154.632V155.112H458.057V154.296H463.433L463.161 154.504C463.161 153.651 462.969 152.984 462.585 152.504C462.201 152.024 461.63 151.784 460.873 151.784C460.073 151.784 459.449 152.067 459.001 152.632C458.553 153.187 458.329 153.939 458.329 154.888V155.032C458.329 156.035 458.574 156.797 459.065 157.32C459.566 157.832 460.265 158.088 461.161 158.088C461.641 158.088 462.089 158.019 462.505 157.88C462.932 157.731 463.337 157.491 463.721 157.16L464.169 158.072C463.817 158.413 463.369 158.68 462.825 158.872C462.292 159.053 461.726 159.144 461.129 159.144ZM468.936 159.144C468.296 159.144 467.699 159.059 467.144 158.888C466.589 158.707 466.131 158.456 465.768 158.136L466.216 157.224C466.611 157.533 467.037 157.763 467.496 157.912C467.965 158.061 468.451 158.136 468.952 158.136C469.592 158.136 470.072 158.024 470.392 157.8C470.723 157.565 470.888 157.245 470.888 156.84C470.888 156.531 470.781 156.285 470.568 156.104C470.365 155.912 470.029 155.763 469.56 155.656L468.072 155.352C467.389 155.203 466.877 154.952 466.536 154.6C466.195 154.237 466.024 153.779 466.024 153.224C466.024 152.755 466.147 152.344 466.392 151.992C466.637 151.629 466.995 151.347 467.464 151.144C467.933 150.931 468.483 150.824 469.112 150.824C469.699 150.824 470.237 150.915 470.728 151.096C471.229 151.267 471.645 151.517 471.976 151.848L471.512 152.744C471.192 152.435 470.824 152.205 470.408 152.056C470.003 151.896 469.581 151.816 469.144 151.816C468.515 151.816 468.04 151.944 467.72 152.2C467.411 152.445 467.256 152.771 467.256 153.176C467.256 153.485 467.352 153.741 467.544 153.944C467.747 154.136 468.056 154.28 468.472 154.376L469.96 154.68C470.685 154.84 471.224 155.091 471.576 155.432C471.939 155.763 472.12 156.211 472.12 156.776C472.12 157.256 471.987 157.677 471.72 158.04C471.453 158.392 471.08 158.664 470.6 158.856C470.131 159.048 469.576 159.144 468.936 159.144ZM476.874 159.144C476.234 159.144 475.636 159.059 475.082 158.888C474.527 158.707 474.068 158.456 473.706 158.136L474.154 157.224C474.548 157.533 474.975 157.763 475.434 157.912C475.903 158.061 476.388 158.136 476.89 158.136C477.53 158.136 478.01 158.024 478.33 157.8C478.66 157.565 478.826 157.245 478.826 156.84C478.826 156.531 478.719 156.285 478.506 156.104C478.303 155.912 477.967 155.763 477.498 155.656L476.01 155.352C475.327 155.203 474.815 154.952 474.474 154.6C474.132 154.237 473.962 153.779 473.962 153.224C473.962 152.755 474.084 152.344 474.33 151.992C474.575 151.629 474.932 151.347 475.402 151.144C475.871 150.931 476.42 150.824 477.049 150.824C477.636 150.824 478.175 150.915 478.666 151.096C479.167 151.267 479.583 151.517 479.914 151.848L479.45 152.744C479.13 152.435 478.762 152.205 478.346 152.056C477.94 151.896 477.519 151.816 477.082 151.816C476.452 151.816 475.978 151.944 475.658 152.2C475.348 152.445 475.194 152.771 475.194 153.176C475.194 153.485 475.29 153.741 475.482 153.944C475.684 154.136 475.994 154.28 476.41 154.376L477.898 154.68C478.623 154.84 479.162 155.091 479.514 155.432C479.876 155.763 480.058 156.211 480.058 156.776C480.058 157.256 479.924 157.677 479.658 158.04C479.391 158.392 479.018 158.664 478.538 158.856C478.068 159.048 477.514 159.144 476.874 159.144ZM482.555 159V151.976H480.987V150.968H482.907L482.555 151.304V149.96C482.555 149.053 482.784 148.36 483.243 147.88C483.702 147.4 484.358 147.16 485.211 147.16C485.424 147.16 485.643 147.181 485.867 147.224C486.102 147.256 486.294 147.304 486.443 147.368V148.44C486.315 148.387 486.155 148.344 485.963 148.312C485.782 148.269 485.595 148.248 485.403 148.248C485.072 148.248 484.79 148.317 484.555 148.456C484.32 148.584 484.144 148.781 484.027 149.048C483.91 149.315 483.851 149.656 483.851 150.072V151.24L483.643 150.968H486.091V151.976H483.851V159H482.555ZM490.377 159.144C489.428 159.144 488.708 158.883 488.217 158.36C487.737 157.837 487.497 157.037 487.497 155.96V150.968H488.793V155.928C488.793 156.664 488.943 157.208 489.241 157.56C489.54 157.901 490.004 158.072 490.633 158.072C491.337 158.072 491.903 157.843 492.329 157.384C492.756 156.925 492.969 156.312 492.969 155.544V150.968H494.265V159H493.001V157.192H493.209C492.985 157.811 492.623 158.291 492.121 158.632C491.631 158.973 491.049 159.144 490.377 159.144ZM496.78 159V147.224H498.076V159H496.78ZM500.592 159V147.224H501.888V159H500.592ZM504.085 162.632L503.781 161.56C504.282 161.443 504.698 161.304 505.029 161.144C505.37 160.995 505.653 160.792 505.877 160.536C506.101 160.28 506.293 159.96 506.453 159.576L506.869 158.632L506.837 159.176L503.333 150.968H504.741L507.637 158.024H507.221L510.085 150.968H511.445L507.733 159.672C507.519 160.184 507.285 160.611 507.029 160.952C506.773 161.304 506.495 161.587 506.197 161.8C505.909 162.024 505.589 162.2 505.237 162.328C504.885 162.456 504.501 162.557 504.085 162.632Z" fill="#666666"/>
</g>
<rect x="460" y="50" width="272" height="128" rx="10" fill="white"/>
<path d="M496.63 99.6651C497.931 99.6651 498.985 98.6107 498.985 97.3101C498.985 96.0095 497.931 94.9551 496.63 94.9551C495.329 94.9551 494.275 96.0095 494.275 97.3101C494.275 98.6107 495.329 99.6651 496.63 99.6651Z" stroke="#2158D2" stroke-width="1.5" stroke-linecap="round" stroke-linejoin="round"/>
<path d="M507.625 95.7351V86.5251C507.625 84.5601 506.395 84.2902 505.15 84.6352L500.44 85.9251C499.585 86.1651 499 86.8401 499 87.8151V89.4651V90.5751V97.3251" stroke="#2158D2" stroke-width="1.5" stroke-linecap="round" stroke-linejoin="round"/>
<path d="M505.27 98.0899C506.571 98.0899 507.625 97.0355 507.625 95.7349C507.625 94.4343 506.571 93.3799 505.27 93.3799C503.969 93.3799 502.915 94.4343 502.915 95.7349C502.915 97.0355 503.969 98.0899 505.27 98.0899Z" stroke="#2158D2" stroke-width="1.5" stroke-linecap="round" stroke-linejoin="round"/>
<path d="M498.985 90.5601L507.625 88.2051" stroke="#2158D2" stroke-width="1.5" stroke-linecap="round" stroke-linejoin="round"/>
<path d="M535.088 90.144C534.181 90.144 533.371 90.0267 532.656 89.792C531.941 89.5573 531.317 89.2213 530.784 88.784L531.264 87.728C531.637 88.0053 532.011 88.24 532.384 88.432C532.768 88.6133 533.179 88.752 533.616 88.848C534.053 88.9333 534.544 88.976 535.088 88.976C536.037 88.976 536.741 88.8 537.2 88.448C537.659 88.096 537.888 87.6267 537.888 87.04C537.888 86.5387 537.728 86.1547 537.408 85.888C537.088 85.6213 536.528 85.408 535.728 85.248L534.048 84.912C533.013 84.6987 532.24 84.352 531.728 83.872C531.227 83.392 530.976 82.7413 530.976 81.92C530.976 81.248 531.147 80.6613 531.488 80.16C531.84 79.6587 532.331 79.2693 532.96 78.992C533.589 78.7147 534.32 78.576 535.152 78.576C535.952 78.576 536.683 78.6987 537.344 78.944C538.005 79.1787 538.571 79.5253 539.04 79.984L538.576 81.008C538.075 80.56 537.547 80.24 536.992 80.048C536.448 79.8453 535.829 79.744 535.136 79.744C534.261 79.744 533.568 79.936 533.056 80.32C532.555 80.6933 532.304 81.2053 532.304 81.856C532.304 82.3787 532.464 82.7893 532.784 83.088C533.104 83.376 533.632 83.5947 534.368 83.744L536.064 84.08C537.152 84.304 537.952 84.64 538.464 85.088C538.976 85.536 539.232 86.1653 539.232 86.976C539.232 87.5947 539.061 88.144 538.72 88.624C538.389 89.104 537.915 89.4773 537.296 89.744C536.677 90.0107 535.941 90.144 535.088 90.144ZM541.233 90V78.224H542.529V83.744H542.321C542.545 83.1147 542.918 82.64 543.441 82.32C543.974 81.9893 544.587 81.824 545.281 81.824C546.241 81.824 546.955 82.0853 547.425 82.608C547.894 83.12 548.129 83.8987 548.129 84.944V90H546.833V85.024C546.833 84.2773 546.683 83.7333 546.385 83.392C546.097 83.0507 545.627 82.88 544.977 82.88C544.23 82.88 543.633 83.1093 543.185 83.568C542.747 84.0267 542.529 84.6293 542.529 85.376V90H541.233ZM553.904 90.144C553.136 90.144 552.464 89.9787 551.888 89.648C551.322 89.3067 550.885 88.8267 550.576 88.208C550.266 87.5787 550.112 86.8373 550.112 85.984C550.112 85.12 550.266 84.3787 550.576 83.76C550.885 83.1413 551.322 82.6667 551.888 82.336C552.464 81.9947 553.136 81.824 553.904 81.824C554.682 81.824 555.354 81.9947 555.92 82.336C556.496 82.6667 556.938 83.1413 557.248 83.76C557.568 84.3787 557.728 85.12 557.728 85.984C557.728 86.8373 557.568 87.5787 557.248 88.208C556.938 88.8267 556.496 89.3067 555.92 89.648C555.354 89.9787 554.682 90.144 553.904 90.144ZM553.904 89.088C554.672 89.088 555.28 88.8267 555.728 88.304C556.176 87.7707 556.4 86.9973 556.4 85.984C556.4 84.96 556.17 84.1867 555.712 83.664C555.264 83.1307 554.661 82.864 553.904 82.864C553.146 82.864 552.544 83.1307 552.096 83.664C551.648 84.1867 551.424 84.96 551.424 85.984C551.424 86.9973 551.648 87.7707 552.096 88.304C552.544 88.8267 553.146 89.088 553.904 89.088ZM562.58 90.144C561.631 90.144 560.911 89.8827 560.42 89.36C559.94 88.8373 559.7 88.0373 559.7 86.96V81.968H560.996V86.928C560.996 87.664 561.146 88.208 561.444 88.56C561.743 88.9013 562.207 89.072 562.836 89.072C563.54 89.072 564.106 88.8427 564.532 88.384C564.959 87.9253 565.172 87.312 565.172 86.544V81.968H566.468V90H565.204V88.192H565.412C565.188 88.8107 564.826 89.2907 564.324 89.632C563.834 89.9733 563.252 90.144 562.58 90.144ZM568.983 90V78.224H570.279V90H568.983ZM575.835 90.144C575.131 90.144 574.513 89.9787 573.979 89.648C573.446 89.3067 573.03 88.8267 572.731 88.208C572.443 87.5893 572.299 86.848 572.299 85.984C572.299 85.1093 572.443 84.3627 572.731 83.744C573.03 83.1253 573.446 82.6507 573.979 82.32C574.513 81.9893 575.131 81.824 575.835 81.824C576.561 81.824 577.185 82.0053 577.707 82.368C578.241 82.7307 578.598 83.2213 578.779 83.84H578.587V78.224H579.883V90H578.603V88.08H578.779C578.609 88.72 578.257 89.2267 577.723 89.6C577.19 89.9627 576.561 90.144 575.835 90.144ZM576.107 89.088C576.865 89.088 577.473 88.8267 577.931 88.304C578.39 87.7707 578.619 86.9973 578.619 85.984C578.619 84.96 578.39 84.1867 577.931 83.664C577.473 83.1307 576.865 82.864 576.107 82.864C575.35 82.864 574.742 83.1307 574.283 83.664C573.835 84.1867 573.611 84.96 573.611 85.984C573.611 86.9973 573.835 87.7707 574.283 88.304C574.742 88.8267 575.35 89.088 576.107 89.088ZM588.705 90L585.729 81.968H587.105L589.585 89.04H589.169L591.729 81.968H592.849L595.361 89.04H594.961L597.457 81.968H598.769L595.777 90H594.529L591.937 82.816H592.577L589.969 90H588.705ZM603.926 90.144C602.667 90.144 601.675 89.7813 600.95 89.056C600.224 88.32 599.862 87.3013 599.862 86C599.862 85.1573 600.022 84.4267 600.342 83.808C600.662 83.1787 601.11 82.6933 601.686 82.352C602.262 82 602.923 81.824 603.67 81.824C604.406 81.824 605.024 81.9787 605.526 82.288C606.027 82.5973 606.411 83.04 606.678 83.616C606.944 84.1813 607.078 84.8533 607.078 85.632V86.112H600.854V85.296H606.23L605.958 85.504C605.958 84.6507 605.766 83.984 605.382 83.504C604.998 83.024 604.427 82.784 603.67 82.784C602.87 82.784 602.246 83.0667 601.798 83.632C601.35 84.1867 601.126 84.9387 601.126 85.888V86.032C601.126 87.0347 601.371 87.7973 601.862 88.32C602.363 88.832 603.062 89.088 603.958 89.088C604.438 89.088 604.886 89.0187 605.302 88.88C605.728 88.7307 606.134 88.4907 606.518 88.16L606.966 89.072C606.614 89.4133 606.166 89.68 605.622 89.872C605.088 90.0533 604.523 90.144 603.926 90.144ZM616.801 90.144C615.542 90.144 614.55 89.7813 613.825 89.056C613.099 88.32 612.737 87.3013 612.737 86C612.737 85.1573 612.897 84.4267 613.217 83.808C613.537 83.1787 613.985 82.6933 614.561 82.352C615.137 82 615.798 81.824 616.545 81.824C617.281 81.824 617.899 81.9787 618.401 82.288C618.902 82.5973 619.286 83.04 619.553 83.616C619.819 84.1813 619.953 84.8533 619.953 85.632V86.112H613.729V85.296H619.105L618.833 85.504C618.833 84.6507 618.641 83.984 618.257 83.504C617.873 83.024 617.302 82.784 616.545 82.784C615.745 82.784 615.121 83.0667 614.673 83.632C614.225 84.1867 614.001 84.9387 614.001 85.888V86.032C614.001 87.0347 614.246 87.7973 614.737 88.32C615.238 88.832 615.937 89.088 616.833 89.088C617.313 89.088 617.761 89.0187 618.177 88.88C618.603 88.7307 619.009 88.4907 619.393 88.16L619.841 89.072C619.489 89.4133 619.041 89.68 618.497 89.872C617.963 90.0533 617.398 90.144 616.801 90.144ZM620.785 90L624.385 85.536V86.176L620.977 81.968H622.545L625.121 85.248H624.657L627.217 81.968H628.769L625.409 86.16V85.568L628.977 90H627.393L624.641 86.496H625.121L622.337 90H620.785ZM633.832 90.144C632.573 90.144 631.581 89.7813 630.856 89.056C630.131 88.32 629.768 87.3013 629.768 86C629.768 85.1573 629.928 84.4267 630.248 83.808C630.568 83.1787 631.016 82.6933 631.592 82.352C632.168 82 632.829 81.824 633.576 81.824C634.312 81.824 634.931 81.9787 635.432 82.288C635.933 82.5973 636.317 83.04 636.584 83.616C636.851 84.1813 636.984 84.8533 636.984 85.632V86.112H630.76V85.296H636.136L635.864 85.504C635.864 84.6507 635.672 83.984 635.288 83.504C634.904 83.024 634.333 82.784 633.576 82.784C632.776 82.784 632.152 83.0667 631.704 83.632C631.256 84.1867 631.032 84.9387 631.032 85.888V86.032C631.032 87.0347 631.277 87.7973 631.768 88.32C632.269 88.832 632.968 89.088 633.864 89.088C634.344 89.088 634.792 89.0187 635.208 88.88C635.635 88.7307 636.04 88.4907 636.424 88.16L636.872 89.072C636.52 89.4133 636.072 89.68 635.528 89.872C634.995 90.0533 634.429 90.144 633.832 90.144ZM638.935 90V83.904C638.935 83.584 638.924 83.2587 638.903 82.928C638.892 82.5973 638.871 82.2773 638.839 81.968H640.087L640.247 83.92L640.023 83.936C640.13 83.456 640.316 83.0613 640.583 82.752C640.85 82.4427 641.164 82.2133 641.527 82.064C641.89 81.904 642.268 81.824 642.663 81.824C642.823 81.824 642.962 81.8293 643.079 81.84C643.207 81.8507 643.324 81.8773 643.431 81.92L643.415 83.072C643.255 83.0187 643.106 82.9867 642.967 82.976C642.839 82.9547 642.69 82.944 642.519 82.944C642.05 82.944 641.639 83.056 641.287 83.28C640.946 83.504 640.684 83.792 640.503 84.144C640.332 84.496 640.247 84.8693 640.247 85.264V90H638.935ZM648.062 90.144C647.273 90.144 646.585 89.9733 645.998 89.632C645.422 89.2907 644.974 88.8053 644.654 88.176C644.345 87.5467 644.19 86.8 644.19 85.936C644.19 85.0613 644.35 84.32 644.67 83.712C644.99 83.0933 645.438 82.624 646.014 82.304C646.601 81.984 647.283 81.824 648.062 81.824C648.574 81.824 649.07 81.9147 649.55 82.096C650.041 82.2773 650.446 82.5333 650.766 82.864L650.302 83.792C649.982 83.4827 649.63 83.2533 649.246 83.104C648.873 82.9547 648.505 82.88 648.142 82.88C647.31 82.88 646.665 83.1413 646.206 83.664C645.747 84.1867 645.518 84.9493 645.518 85.952C645.518 86.944 645.747 87.712 646.206 88.256C646.665 88.8 647.31 89.072 648.142 89.072C648.494 89.072 648.857 89.0027 649.23 88.864C649.614 88.7253 649.971 88.496 650.302 88.176L650.766 89.088C650.435 89.4293 650.025 89.6907 649.534 89.872C649.043 90.0533 648.553 90.144 648.062 90.144ZM652.608 90V81.968H653.904V90H652.608ZM652.448 80.144V78.688H654.048V80.144H652.448ZM659.092 90.144C658.452 90.144 657.855 90.0587 657.3 89.888C656.746 89.7067 656.287 89.456 655.924 89.136L656.372 88.224C656.767 88.5333 657.194 88.7627 657.652 88.912C658.122 89.0613 658.607 89.136 659.108 89.136C659.748 89.136 660.228 89.024 660.548 88.8C660.879 88.5653 661.044 88.2453 661.044 87.84C661.044 87.5307 660.938 87.2853 660.724 87.104C660.522 86.912 660.186 86.7627 659.716 86.656L658.228 86.352C657.546 86.2027 657.034 85.952 656.692 85.6C656.351 85.2373 656.18 84.7787 656.18 84.224C656.18 83.7547 656.303 83.344 656.548 82.992C656.794 82.6293 657.151 82.3467 657.62 82.144C658.09 81.9307 658.639 81.824 659.268 81.824C659.855 81.824 660.394 81.9147 660.884 82.096C661.386 82.2667 661.802 82.5173 662.132 82.848L661.668 83.744C661.348 83.4347 660.98 83.2053 660.564 83.056C660.159 82.896 659.738 82.816 659.3 82.816C658.671 82.816 658.196 82.944 657.876 83.2C657.567 83.4453 657.412 83.7707 657.412 84.176C657.412 84.4853 657.508 84.7413 657.7 84.944C657.903 85.136 658.212 85.28 658.628 85.376L660.116 85.68C660.842 85.84 661.38 86.0907 661.732 86.432C662.095 86.7627 662.276 87.2107 662.276 87.776C662.276 88.256 662.143 88.6773 661.876 89.04C661.61 89.392 661.236 89.664 660.756 89.856C660.287 90.048 659.732 90.144 659.092 90.144ZM667.926 90.144C666.667 90.144 665.675 89.7813 664.95 89.056C664.224 88.32 663.862 87.3013 663.862 86C663.862 85.1573 664.022 84.4267 664.342 83.808C664.662 83.1787 665.11 82.6933 665.686 82.352C666.262 82 666.923 81.824 667.67 81.824C668.406 81.824 669.024 81.9787 669.526 82.288C670.027 82.5973 670.411 83.04 670.678 83.616C670.944 84.1813 671.078 84.8533 671.078 85.632V86.112H664.854V85.296H670.23L669.958 85.504C669.958 84.6507 669.766 83.984 669.382 83.504C668.998 83.024 668.427 82.784 667.67 82.784C666.87 82.784 666.246 83.0667 665.798 83.632C665.35 84.1867 665.126 84.9387 665.126 85.888V86.032C665.126 87.0347 665.371 87.7973 665.862 88.32C666.363 88.832 667.062 89.088 667.958 89.088C668.438 89.088 668.886 89.0187 669.302 88.88C669.728 88.7307 670.134 88.4907 670.518 88.16L670.966 89.072C670.614 89.4133 670.166 89.68 669.622 89.872C669.088 90.0533 668.523 90.144 667.926 90.144ZM534.832 110.144C533.573 110.144 532.581 109.781 531.856 109.056C531.131 108.32 530.768 107.301 530.768 106C530.768 105.157 530.928 104.427 531.248 103.808C531.568 103.179 532.016 102.693 532.592 102.352C533.168 102 533.829 101.824 534.576 101.824C535.312 101.824 535.931 101.979 536.432 102.288C536.933 102.597 537.317 103.04 537.584 103.616C537.851 104.181 537.984 104.853 537.984 105.632V106.112H531.76V105.296H537.136L536.864 105.504C536.864 104.651 536.672 103.984 536.288 103.504C535.904 103.024 535.333 102.784 534.576 102.784C533.776 102.784 533.152 103.067 532.704 103.632C532.256 104.187 532.032 104.939 532.032 105.888V106.032C532.032 107.035 532.277 107.797 532.768 108.32C533.269 108.832 533.968 109.088 534.864 109.088C535.344 109.088 535.792 109.019 536.208 108.88C536.635 108.731 537.04 108.491 537.424 108.16L537.872 109.072C537.52 109.413 537.072 109.68 536.528 109.872C535.995 110.053 535.429 110.144 534.832 110.144ZM542.241 110L538.801 101.968H540.209L543.089 109.04H542.657L545.569 101.968H546.913L543.473 110H542.241ZM551.832 110.144C550.573 110.144 549.581 109.781 548.856 109.056C548.131 108.32 547.768 107.301 547.768 106C547.768 105.157 547.928 104.427 548.248 103.808C548.568 103.179 549.016 102.693 549.592 102.352C550.168 102 550.829 101.824 551.576 101.824C552.312 101.824 552.931 101.979 553.432 102.288C553.933 102.597 554.317 103.04 554.584 103.616C554.851 104.181 554.984 104.853 554.984 105.632V106.112H548.76V105.296H554.136L553.864 105.504C553.864 104.651 553.672 103.984 553.288 103.504C552.904 103.024 552.333 102.784 551.576 102.784C550.776 102.784 550.152 103.067 549.704 103.632C549.256 104.187 549.032 104.939 549.032 105.888V106.032C549.032 107.035 549.277 107.797 549.768 108.32C550.269 108.832 550.968 109.088 551.864 109.088C552.344 109.088 552.792 109.019 553.208 108.88C553.635 108.731 554.04 108.491 554.424 108.16L554.872 109.072C554.52 109.413 554.072 109.68 553.528 109.872C552.995 110.053 552.429 110.144 551.832 110.144ZM556.935 110V103.904C556.935 103.584 556.924 103.259 556.903 102.928C556.892 102.597 556.871 102.277 556.839 101.968H558.087L558.247 103.92L558.023 103.936C558.13 103.456 558.316 103.061 558.583 102.752C558.85 102.443 559.164 102.213 559.527 102.064C559.89 101.904 560.268 101.824 560.663 101.824C560.823 101.824 560.962 101.829 561.079 101.84C561.207 101.851 561.324 101.877 561.431 101.92L561.415 103.072C561.255 103.019 561.106 102.987 560.967 102.976C560.839 102.955 560.69 102.944 560.519 102.944C560.05 102.944 559.639 103.056 559.287 103.28C558.946 103.504 558.684 103.792 558.503 104.144C558.332 104.496 558.247 104.869 558.247 105.264V110H556.935ZM562.944 113.632L562.64 112.56C563.141 112.443 563.557 112.304 563.888 112.144C564.229 111.995 564.512 111.792 564.736 111.536C564.96 111.28 565.152 110.96 565.312 110.576L565.728 109.632L565.696 110.176L562.192 101.968H563.6L566.496 109.024H566.08L568.944 101.968H570.304L566.592 110.672C566.379 111.184 566.144 111.611 565.888 111.952C565.632 112.304 565.355 112.587 565.056 112.8C564.768 113.024 564.448 113.2 564.096 113.328C563.744 113.456 563.36 113.557 562.944 113.632ZM574.695 110.144C573.991 110.144 573.372 109.979 572.839 109.648C572.305 109.307 571.889 108.827 571.591 108.208C571.303 107.589 571.159 106.848 571.159 105.984C571.159 105.109 571.303 104.363 571.591 103.744C571.889 103.125 572.305 102.651 572.839 102.32C573.372 101.989 573.991 101.824 574.695 101.824C575.42 101.824 576.044 102.005 576.567 102.368C577.1 102.731 577.457 103.221 577.639 103.84H577.447V98.224H578.743V110H577.463V108.08H577.639C577.468 108.72 577.116 109.227 576.583 109.6C576.049 109.963 575.42 110.144 574.695 110.144ZM574.967 109.088C575.724 109.088 576.332 108.827 576.791 108.304C577.249 107.771 577.479 106.997 577.479 105.984C577.479 104.96 577.249 104.187 576.791 103.664C576.332 103.131 575.724 102.864 574.967 102.864C574.209 102.864 573.601 103.131 573.143 103.664C572.695 104.187 572.471 104.96 572.471 105.984C572.471 106.997 572.695 107.771 573.143 108.304C573.601 108.827 574.209 109.088 574.967 109.088ZM584.304 110.144C583.59 110.144 582.966 109.979 582.432 109.648C581.899 109.307 581.483 108.827 581.184 108.208C580.896 107.589 580.752 106.848 580.752 105.984C580.752 105.109 580.896 104.363 581.184 103.744C581.483 103.125 581.899 102.651 582.432 102.32C582.966 101.989 583.59 101.824 584.304 101.824C585.03 101.824 585.654 102.011 586.176 102.384C586.71 102.747 587.062 103.243 587.232 103.872H587.04L587.216 101.968H588.464C588.432 102.277 588.4 102.592 588.368 102.912C588.347 103.221 588.336 103.525 588.336 103.824V110H587.04V108.112H587.216C587.046 108.741 586.694 109.237 586.16 109.6C585.627 109.963 585.008 110.144 584.304 110.144ZM584.56 109.088C585.328 109.088 585.936 108.827 586.384 108.304C586.832 107.771 587.056 106.997 587.056 105.984C587.056 104.96 586.832 104.187 586.384 103.664C585.936 103.131 585.328 102.864 584.56 102.864C583.803 102.864 583.195 103.131 582.736 103.664C582.288 104.187 582.064 104.96 582.064 105.984C582.064 106.997 582.288 107.771 582.736 108.304C583.195 108.827 583.803 109.088 584.56 109.088ZM590.444 113.632L590.14 112.56C590.641 112.443 591.057 112.304 591.388 112.144C591.729 111.995 592.012 111.792 592.236 111.536C592.46 111.28 592.652 110.96 592.812 110.576L593.228 109.632L593.196 110.176L589.692 101.968H591.1L593.996 109.024H593.58L596.444 101.968H597.804L594.092 110.672C593.879 111.184 593.644 111.611 593.388 111.952C593.132 112.304 592.855 112.587 592.556 112.8C592.268 113.024 591.948 113.2 591.596 113.328C591.244 113.456 590.86 113.557 590.444 113.632ZM600.455 107.056V106.592C600.455 106.048 600.556 105.541 600.759 105.072C600.972 104.592 601.346 104.053 601.879 103.456C602.295 102.997 602.588 102.597 602.759 102.256C602.93 101.904 603.015 101.547 603.015 101.184C603.015 100.725 602.85 100.368 602.519 100.112C602.188 99.8453 601.73 99.712 601.143 99.712C600.727 99.712 600.327 99.7707 599.943 99.888C599.559 99.9947 599.191 100.144 598.839 100.336V99.136C599.191 98.9547 599.575 98.816 599.991 98.72C600.418 98.624 600.844 98.576 601.271 98.576C601.879 98.576 602.412 98.6773 602.871 98.88C603.33 99.072 603.687 99.3547 603.943 99.728C604.21 100.091 604.343 100.539 604.343 101.072C604.343 101.413 604.29 101.744 604.183 102.064C604.076 102.373 603.911 102.688 603.687 103.008C603.463 103.317 603.175 103.659 602.823 104.032C602.3 104.565 601.932 105.035 601.719 105.44C601.506 105.835 601.378 106.24 601.335 106.656L601.287 107.056H600.455ZM600.039 110V108.368H601.687V110H600.039Z" fill="#292D32"/>
<path d="M532.032 146V144.864H534.688V135.856H535.392L532.288 137.792V136.464L535.056 134.72H536.016V144.864H538.512V146H532.032ZM543.642 146.144C543.055 146.144 542.463 146.021 541.866 145.776C541.268 145.52 540.772 145.189 540.378 144.784L540.874 143.744C541.279 144.16 541.722 144.469 542.202 144.672C542.682 144.875 543.167 144.976 543.658 144.976C544.735 144.976 545.562 144.592 546.138 143.824C546.724 143.045 547.018 141.883 547.018 140.336V138.848H547.178C547.114 139.445 546.927 139.968 546.618 140.416C546.319 140.864 545.93 141.205 545.45 141.44C544.98 141.675 544.452 141.792 543.866 141.792C543.183 141.792 542.575 141.643 542.042 141.344C541.519 141.045 541.108 140.624 540.81 140.08C540.511 139.536 540.362 138.923 540.362 138.24C540.362 137.525 540.516 136.896 540.826 136.352C541.146 135.797 541.578 135.365 542.122 135.056C542.676 134.736 543.311 134.576 544.026 134.576C545.402 134.576 546.458 135.056 547.194 136.016C547.94 136.976 548.314 138.331 548.314 140.08C548.314 141.371 548.127 142.469 547.754 143.376C547.38 144.283 546.847 144.971 546.154 145.44C545.46 145.909 544.623 146.144 543.642 146.144ZM544.138 140.688C544.628 140.688 545.06 140.581 545.434 140.368C545.807 140.155 546.095 139.861 546.298 139.488C546.511 139.115 546.618 138.683 546.618 138.192C546.618 137.691 546.511 137.253 546.298 136.88C546.095 136.507 545.807 136.213 545.434 136C545.06 135.787 544.628 135.68 544.138 135.68C543.647 135.68 543.21 135.787 542.826 136C542.452 136.213 542.159 136.507 541.946 136.88C541.743 137.253 541.642 137.691 541.642 138.192C541.642 138.683 541.743 139.115 541.946 139.488C542.159 139.861 542.452 140.155 542.826 140.368C543.21 140.581 543.647 140.688 544.138 140.688ZM550.196 139.6V137.968H551.828V139.6H550.196ZM550.196 146V144.368H551.828V146H550.196ZM554.204 146V145.008L558.204 140.832C558.727 140.288 559.116 139.771 559.372 139.28C559.639 138.779 559.772 138.261 559.772 137.728C559.772 137.077 559.569 136.587 559.164 136.256C558.759 135.915 558.172 135.744 557.404 135.744C556.807 135.744 556.252 135.851 555.74 136.064C555.239 136.267 554.753 136.592 554.284 137.04L553.804 136C554.231 135.573 554.775 135.232 555.436 134.976C556.097 134.709 556.796 134.576 557.532 134.576C558.673 134.576 559.553 134.843 560.172 135.376C560.791 135.899 561.1 136.645 561.1 137.616C561.1 138.331 560.924 139.013 560.572 139.664C560.231 140.304 559.729 140.965 559.068 141.648L555.532 145.232V144.864H561.58V146H554.204ZM568.598 146V143.552H563.222V142.592L568.806 134.72H569.894V142.48H571.622V143.552H569.894V146H568.598ZM568.598 142.48V136.288H568.95L564.31 142.816V142.48H568.598Z" fill="#292D32"/>
<rect x="460.5" y="50.5" width="271" height="127" rx="9.5" stroke="#2563EB" stroke-opacity="0.3"/>
<rect x="460" width="272" height="46" rx="10" fill="white"/>
<path d="M547.5 28L551.966 18.13H553.478L558 28H556.166L554.962 25.228L555.69 25.718H549.768L550.524 25.228L549.32 28H547.5ZM552.708 20.062L550.734 24.738L550.37 24.304H555.074L554.78 24.738L552.764 20.062H552.708ZM561.5 28.14C560.632 28.14 559.983 27.902 559.554 27.426C559.125 26.95 558.91 26.222 558.91 25.242V20.93H560.66V25.228C560.66 25.7507 560.767 26.138 560.982 26.39C561.197 26.6327 561.523 26.754 561.962 26.754C562.457 26.754 562.858 26.586 563.166 26.25C563.483 25.914 563.642 25.4707 563.642 24.92V20.93H565.392V28H563.684V26.558H563.88C563.675 27.062 563.362 27.454 562.942 27.734C562.531 28.0047 562.051 28.14 561.5 28.14ZM570.036 28.14C569.42 28.14 568.874 27.9953 568.398 27.706C567.931 27.4073 567.567 26.9827 567.306 26.432C567.045 25.8813 566.914 25.2233 566.914 24.458C566.914 23.6927 567.045 23.0393 567.306 22.498C567.567 21.9473 567.931 21.5273 568.398 21.238C568.874 20.9393 569.42 20.79 570.036 20.79C570.624 20.79 571.142 20.9347 571.59 21.224C572.047 21.504 572.351 21.8867 572.5 22.372H572.318V17.696H574.068V28H572.346V26.502H572.514C572.365 27.006 572.061 27.4073 571.604 27.706C571.156 27.9953 570.633 28.14 570.036 28.14ZM570.526 26.796C571.077 26.796 571.52 26.6047 571.856 26.222C572.192 25.83 572.36 25.242 572.36 24.458C572.36 23.674 572.192 23.0907 571.856 22.708C571.52 22.3253 571.077 22.134 570.526 22.134C569.975 22.134 569.527 22.3253 569.182 22.708C568.846 23.0907 568.678 23.674 568.678 24.458C568.678 25.242 568.846 25.83 569.182 26.222C569.527 26.6047 569.975 26.796 570.526 26.796ZM575.973 28V20.93H577.723V28H575.973ZM575.875 19.6V17.892H577.821V19.6H575.875ZM582.816 28.14C582.088 28.14 581.458 27.9907 580.926 27.692C580.394 27.3933 579.979 26.9687 579.68 26.418C579.391 25.8673 579.246 25.214 579.246 24.458C579.246 23.702 579.391 23.0533 579.68 22.512C579.979 21.9613 580.394 21.5367 580.926 21.238C581.458 20.9393 582.088 20.79 582.816 20.79C583.544 20.79 584.174 20.9393 584.706 21.238C585.247 21.5367 585.663 21.9613 585.952 22.512C586.251 23.0533 586.4 23.702 586.4 24.458C586.4 25.214 586.251 25.8673 585.952 26.418C585.663 26.9687 585.247 27.3933 584.706 27.692C584.174 27.9907 583.544 28.14 582.816 28.14ZM582.816 26.796C583.367 26.796 583.805 26.6047 584.132 26.222C584.459 25.83 584.622 25.242 584.622 24.458C584.622 23.674 584.459 23.0907 584.132 22.708C583.805 22.3253 583.367 22.134 582.816 22.134C582.265 22.134 581.827 22.3253 581.5 22.708C581.173 23.0907 581.01 23.674 581.01 24.458C581.01 25.242 581.173 25.83 581.5 26.222C581.827 26.6047 582.265 26.796 582.816 26.796ZM587.453 28V26.054H589.413V28H587.453ZM591.122 28V22.694C591.122 22.4047 591.113 22.1107 591.094 21.812C591.075 21.5133 591.047 21.2193 591.01 20.93H592.704L592.844 22.33H592.676C592.872 21.8447 593.171 21.4667 593.572 21.196C593.983 20.9253 594.468 20.79 595.028 20.79C595.588 20.79 596.05 20.9253 596.414 21.196C596.787 21.4573 597.049 21.868 597.198 22.428H596.974C597.17 21.924 597.492 21.5273 597.94 21.238C598.388 20.9393 598.901 20.79 599.48 20.79C600.273 20.79 600.866 21.0233 601.258 21.49C601.65 21.9567 601.846 22.6847 601.846 23.674V28H600.096V23.744C600.096 23.184 600.003 22.7827 599.816 22.54C599.629 22.288 599.331 22.162 598.92 22.162C598.435 22.162 598.052 22.3347 597.772 22.68C597.492 23.016 597.352 23.4733 597.352 24.052V28H595.602V23.744C595.602 23.184 595.509 22.7827 595.322 22.54C595.135 22.288 594.837 22.162 594.426 22.162C593.941 22.162 593.558 22.3347 593.278 22.68C593.007 23.016 592.872 23.4733 592.872 24.052V28H591.122ZM603.714 31.024V22.694C603.714 22.4047 603.704 22.1107 603.686 21.812C603.667 21.5133 603.639 21.2193 603.602 20.93H605.296L605.45 22.414H605.296C605.436 21.9193 605.73 21.5273 606.178 21.238C606.635 20.9393 607.162 20.79 607.76 20.79C608.385 20.79 608.931 20.9393 609.398 21.238C609.864 21.5273 610.228 21.9473 610.49 22.498C610.751 23.0393 610.882 23.6927 610.882 24.458C610.882 25.2233 610.751 25.8813 610.49 26.432C610.228 26.9827 609.864 27.4073 609.398 27.706C608.931 27.9953 608.385 28.14 607.76 28.14C607.172 28.14 606.654 27.9953 606.206 27.706C605.758 27.4167 605.459 27.0293 605.31 26.544H605.464V31.024H603.714ZM607.27 26.796C607.83 26.796 608.278 26.6047 608.614 26.222C608.95 25.83 609.118 25.242 609.118 24.458C609.118 23.674 608.95 23.0907 608.614 22.708C608.278 22.3253 607.83 22.134 607.27 22.134C606.719 22.134 606.276 22.3253 605.94 22.708C605.604 23.0907 605.436 23.674 605.436 24.458C605.436 25.242 605.604 25.83 605.94 26.222C606.276 26.6047 606.719 26.796 607.27 26.796ZM615.489 28.14C614.808 28.14 614.155 28.042 613.529 27.846C612.904 27.6407 612.391 27.3607 611.989 27.006L612.577 25.648C613.016 25.984 613.469 26.2313 613.935 26.39C614.411 26.5487 614.911 26.628 615.433 26.628C616.068 26.628 616.549 26.502 616.875 26.25C617.202 25.998 617.365 25.6293 617.365 25.144C617.365 24.6773 617.202 24.3273 616.875 24.094C616.558 23.8513 616.091 23.73 615.475 23.73H613.879V22.288H615.321C615.853 22.288 616.278 22.1573 616.595 21.896C616.913 21.6347 617.071 21.2753 617.071 20.818C617.071 20.3887 616.922 20.062 616.623 19.838C616.334 19.614 615.914 19.502 615.363 19.502C614.374 19.502 613.501 19.838 612.745 20.51L612.157 19.166C612.559 18.7927 613.053 18.5033 613.641 18.298C614.239 18.0927 614.864 17.99 615.517 17.99C616.544 17.99 617.347 18.2233 617.925 18.69C618.513 19.1473 618.807 19.7867 618.807 20.608C618.807 21.196 618.639 21.7047 618.303 22.134C617.977 22.554 617.524 22.834 616.945 22.974V22.806C617.627 22.918 618.154 23.198 618.527 23.646C618.91 24.0847 619.101 24.6353 619.101 25.298C619.101 26.1753 618.779 26.8707 618.135 27.384C617.491 27.888 616.609 28.14 615.489 28.14ZM625.108 28V22.246H623.75V20.93H625.598L625.108 21.378V20.3C625.108 19.4227 625.327 18.76 625.766 18.312C626.214 17.864 626.862 17.64 627.712 17.64C627.917 17.64 628.132 17.654 628.356 17.682C628.589 17.71 628.79 17.7613 628.958 17.836V19.208C628.836 19.1613 628.692 19.124 628.524 19.096C628.356 19.068 628.192 19.054 628.034 19.054C627.67 19.054 627.38 19.1613 627.166 19.376C626.951 19.5813 626.844 19.9173 626.844 20.384V21.238L626.592 20.93H631.506V28H629.756V22.246H626.858V28H625.108ZM629.658 19.6V17.892H631.604V19.6H629.658ZM633.409 28V17.696H635.159V28H633.409ZM640.475 28.14C639.29 28.14 638.361 27.8133 637.689 27.16C637.017 26.5067 636.681 25.6107 636.681 24.472C636.681 23.7347 636.826 23.0907 637.115 22.54C637.405 21.9893 637.806 21.56 638.319 21.252C638.842 20.944 639.449 20.79 640.139 20.79C640.821 20.79 641.39 20.9347 641.847 21.224C642.305 21.5133 642.65 21.9193 642.883 22.442C643.126 22.9647 643.247 23.576 643.247 24.276V24.738H638.095V23.814H642.001L641.763 24.01C641.763 23.3567 641.623 22.8573 641.343 22.512C641.073 22.1667 640.676 21.994 640.153 21.994C639.575 21.994 639.127 22.1993 638.809 22.61C638.501 23.0207 638.347 23.5947 638.347 24.332V24.514C638.347 25.2793 638.534 25.8533 638.907 26.236C639.29 26.6093 639.827 26.796 640.517 26.796C640.919 26.796 641.292 26.7447 641.637 26.642C641.992 26.53 642.328 26.3527 642.645 26.11L643.163 27.286C642.827 27.5567 642.426 27.7667 641.959 27.916C641.493 28.0653 640.998 28.14 640.475 28.14Z" fill="#2158D2"/>
<rect x="460.5" y="0.5" width="271" height="45" rx="9.5" stroke="#2563EB" stroke-opacity="0.2"/>
<rect y="312" width="138" height="124" rx="10" fill="white"/>
<path d="M64.5 361H73.5C81 361 84 358 84 350.5V341.5C84 334 81 331 73.5 331H64.5C57 331 54 334 54 341.5V350.5C54 358 57 361 64.5 361Z" stroke="#27AE60" stroke-width="1.5" stroke-linecap="round" stroke-linejoin="round"/>
<path d="M62.625 346L66.87 350.245L75.375 341.755" stroke="#27AE60" stroke-width="1.5" stroke-linecap="round" stroke-linejoin="round"/>
<path d="M30.1814 396V384.72H37.2214V385.808H31.5094V389.76H36.8694V390.848H31.5094V396H30.1814ZM39.0218 396V387.968H40.3178V396H39.0218ZM38.8618 386.144V384.688H40.4618V386.144H38.8618ZM42.8343 396V384.224H44.1303V396H42.8343ZM50.2148 396.144C48.9561 396.144 47.9641 395.781 47.2388 395.056C46.5135 394.32 46.1508 393.301 46.1508 392C46.1508 391.157 46.3108 390.427 46.6308 389.808C46.9508 389.179 47.3988 388.693 47.9748 388.352C48.5508 388 49.2121 387.824 49.9588 387.824C50.6948 387.824 51.3135 387.979 51.8148 388.288C52.3161 388.597 52.7001 389.04 52.9668 389.616C53.2335 390.181 53.3668 390.853 53.3668 391.632V392.112H47.1428V391.296H52.5188L52.2468 391.504C52.2468 390.651 52.0548 389.984 51.6708 389.504C51.2868 389.024 50.7161 388.784 49.9588 388.784C49.1588 388.784 48.5348 389.067 48.0868 389.632C47.6388 390.187 47.4148 390.939 47.4148 391.888V392.032C47.4148 393.035 47.6601 393.797 48.1508 394.32C48.6521 394.832 49.3508 395.088 50.2468 395.088C50.7268 395.088 51.1748 395.019 51.5908 394.88C52.0175 394.731 52.4228 394.491 52.8068 394.16L53.2548 395.072C52.9028 395.413 52.4548 395.68 51.9108 395.872C51.3775 396.053 50.8121 396.144 50.2148 396.144ZM62.3538 396.144C61.4045 396.144 60.6845 395.883 60.1938 395.36C59.7138 394.837 59.4738 394.037 59.4738 392.96V387.968H60.7698V392.928C60.7698 393.664 60.9191 394.208 61.2178 394.56C61.5165 394.901 61.9805 395.072 62.6098 395.072C63.3138 395.072 63.8791 394.843 64.3058 394.384C64.7325 393.925 64.9458 393.312 64.9458 392.544V387.968H66.2418V396H64.9778V394.192H65.1858C64.9618 394.811 64.5991 395.291 64.0978 395.632C63.6071 395.973 63.0258 396.144 62.3538 396.144ZM68.7562 399.456V389.824C68.7562 389.525 68.7402 389.221 68.7082 388.912C68.6869 388.592 68.6602 388.277 68.6282 387.968H69.8762L70.0522 389.872H69.8602C70.0309 389.243 70.3775 388.747 70.9002 388.384C71.4229 388.011 72.0469 387.824 72.7722 387.824C73.4975 387.824 74.1215 387.989 74.6442 388.32C75.1775 388.651 75.5935 389.125 75.8922 389.744C76.1909 390.363 76.3402 391.109 76.3402 391.984C76.3402 392.848 76.1909 393.589 75.8922 394.208C75.6042 394.827 75.1935 395.307 74.6602 395.648C74.1269 395.979 73.4975 396.144 72.7722 396.144C72.0575 396.144 71.4389 395.963 70.9162 395.6C70.3935 395.237 70.0469 394.741 69.8762 394.112H70.0522V399.456H68.7562ZM72.5162 395.088C73.2842 395.088 73.8922 394.827 74.3402 394.304C74.7989 393.771 75.0282 392.997 75.0282 391.984C75.0282 390.96 74.7989 390.187 74.3402 389.664C73.8922 389.131 73.2842 388.864 72.5162 388.864C71.7589 388.864 71.1509 389.131 70.6922 389.664C70.2442 390.187 70.0202 390.96 70.0202 391.984C70.0202 392.997 70.2442 393.771 70.6922 394.304C71.1509 394.827 71.7589 395.088 72.5162 395.088ZM78.3499 396V384.224H79.6459V396H78.3499ZM85.4584 396.144C84.6904 396.144 84.0184 395.979 83.4424 395.648C82.8771 395.307 82.4398 394.827 82.1304 394.208C81.8211 393.579 81.6664 392.837 81.6664 391.984C81.6664 391.12 81.8211 390.379 82.1304 389.76C82.4398 389.141 82.8771 388.667 83.4424 388.336C84.0184 387.995 84.6904 387.824 85.4584 387.824C86.2371 387.824 86.9091 387.995 87.4744 388.336C88.0504 388.667 88.4931 389.141 88.8024 389.76C89.1224 390.379 89.2824 391.12 89.2824 391.984C89.2824 392.837 89.1224 393.579 88.8024 394.208C88.4931 394.827 88.0504 395.307 87.4744 395.648C86.9091 395.979 86.2371 396.144 85.4584 396.144ZM85.4584 395.088C86.2264 395.088 86.8344 394.827 87.2824 394.304C87.7304 393.771 87.9544 392.997 87.9544 391.984C87.9544 390.96 87.7251 390.187 87.2664 389.664C86.8184 389.131 86.2158 388.864 85.4584 388.864C84.7011 388.864 84.0984 389.131 83.6504 389.664C83.2024 390.187 82.9784 390.96 82.9784 391.984C82.9784 392.997 83.2024 393.771 83.6504 394.304C84.0984 394.827 84.7011 395.088 85.4584 395.088ZM94.3591 396.144C93.6444 396.144 93.0204 395.979 92.4871 395.648C91.9537 395.307 91.5377 394.827 91.2391 394.208C90.9511 393.589 90.8071 392.848 90.8071 391.984C90.8071 391.109 90.9511 390.363 91.2391 389.744C91.5377 389.125 91.9537 388.651 92.4871 388.32C93.0204 387.989 93.6444 387.824 94.3591 387.824C95.0844 387.824 95.7084 388.011 96.2311 388.384C96.7644 388.747 97.1164 389.243 97.2871 389.872H97.0951L97.2711 387.968H98.5191C98.4871 388.277 98.4551 388.592 98.4231 388.912C98.4017 389.221 98.3911 389.525 98.3911 389.824V396H97.0951V394.112H97.2711C97.1004 394.741 96.7484 395.237 96.2151 395.6C95.6817 395.963 95.0631 396.144 94.3591 396.144ZM94.6151 395.088C95.3831 395.088 95.9911 394.827 96.4391 394.304C96.8871 393.771 97.1111 392.997 97.1111 391.984C97.1111 390.96 96.8871 390.187 96.4391 389.664C95.9911 389.131 95.3831 388.864 94.6151 388.864C93.8577 388.864 93.2497 389.131 92.7911 389.664C92.3431 390.187 92.1191 390.96 92.1191 391.984C92.1191 392.997 92.3431 393.771 92.7911 394.304C93.2497 394.827 93.8577 395.088 94.6151 395.088ZM103.937 396.144C103.233 396.144 102.614 395.979 102.081 395.648C101.547 395.307 101.131 394.827 100.833 394.208C100.545 393.589 100.401 392.848 100.401 391.984C100.401 391.109 100.545 390.363 100.833 389.744C101.131 389.125 101.547 388.651 102.081 388.32C102.614 387.989 103.233 387.824 103.937 387.824C104.662 387.824 105.286 388.005 105.809 388.368C106.342 388.731 106.699 389.221 106.881 389.84H106.689V384.224H107.985V396H106.705V394.08H106.881C106.71 394.72 106.358 395.227 105.825 395.6C105.291 395.963 104.662 396.144 103.937 396.144ZM104.209 395.088C104.966 395.088 105.574 394.827 106.033 394.304C106.491 393.771 106.721 392.997 106.721 391.984C106.721 390.96 106.491 390.187 106.033 389.664C105.574 389.131 104.966 388.864 104.209 388.864C103.451 388.864 102.843 389.131 102.385 389.664C101.937 390.187 101.713 390.96 101.713 391.984C101.713 392.997 101.937 393.771 102.385 394.304C102.843 394.827 103.451 395.088 104.209 395.088ZM31.1626 416.144C30.5226 416.144 29.9252 416.059 29.3706 415.888C28.8159 415.707 28.3572 415.456 27.9946 415.136L28.4426 414.224C28.8372 414.533 29.2639 414.763 29.7226 414.912C30.1919 415.061 30.6772 415.136 31.1786 415.136C31.8186 415.136 32.2986 415.024 32.6186 414.8C32.9492 414.565 33.1146 414.245 33.1146 413.84C33.1146 413.531 33.0079 413.285 32.7946 413.104C32.5919 412.912 32.2559 412.763 31.7866 412.656L30.2986 412.352C29.6159 412.203 29.1039 411.952 28.7626 411.6C28.4212 411.237 28.2506 410.779 28.2506 410.224C28.2506 409.755 28.3732 409.344 28.6186 408.992C28.8639 408.629 29.2212 408.347 29.6906 408.144C30.1599 407.931 30.7092 407.824 31.3386 407.824C31.9252 407.824 32.4639 407.915 32.9546 408.096C33.4559 408.267 33.8719 408.517 34.2026 408.848L33.7386 409.744C33.4186 409.435 33.0506 409.205 32.6346 409.056C32.2292 408.896 31.8079 408.816 31.3706 408.816C30.7412 408.816 30.2666 408.944 29.9466 409.2C29.6372 409.445 29.4826 409.771 29.4826 410.176C29.4826 410.485 29.5786 410.741 29.7706 410.944C29.9732 411.136 30.2826 411.28 30.6986 411.376L32.1866 411.68C32.9119 411.84 33.4506 412.091 33.8026 412.432C34.1652 412.763 34.3466 413.211 34.3466 413.776C34.3466 414.256 34.2132 414.677 33.9466 415.04C33.6799 415.392 33.3066 415.664 32.8266 415.856C32.3572 416.048 31.8026 416.144 31.1626 416.144ZM39.2601 416.144C38.3107 416.144 37.5907 415.883 37.1001 415.36C36.6201 414.837 36.3801 414.037 36.3801 412.96V407.968H37.6761V412.928C37.6761 413.664 37.8254 414.208 38.1241 414.56C38.4227 414.901 38.8867 415.072 39.5161 415.072C40.2201 415.072 40.7854 414.843 41.2121 414.384C41.6387 413.925 41.8521 413.312 41.8521 412.544V407.968H43.1481V416H41.8841V414.192H42.0921C41.8681 414.811 41.5054 415.291 41.0041 415.632C40.5134 415.973 39.9321 416.144 39.2601 416.144ZM49.0384 416.144C48.2491 416.144 47.5611 415.973 46.9744 415.632C46.3984 415.291 45.9504 414.805 45.6304 414.176C45.3211 413.547 45.1664 412.8 45.1664 411.936C45.1664 411.061 45.3264 410.32 45.6464 409.712C45.9664 409.093 46.4144 408.624 46.9904 408.304C47.5771 407.984 48.2598 407.824 49.0384 407.824C49.5504 407.824 50.0464 407.915 50.5264 408.096C51.0171 408.277 51.4224 408.533 51.7424 408.864L51.2784 409.792C50.9584 409.483 50.6064 409.253 50.2224 409.104C49.8491 408.955 49.4811 408.88 49.1184 408.88C48.2864 408.88 47.6411 409.141 47.1824 409.664C46.7238 410.187 46.4944 410.949 46.4944 411.952C46.4944 412.944 46.7238 413.712 47.1824 414.256C47.6411 414.8 48.2864 415.072 49.1184 415.072C49.4704 415.072 49.8331 415.003 50.2064 414.864C50.5904 414.725 50.9478 414.496 51.2784 414.176L51.7424 415.088C51.4118 415.429 51.0011 415.691 50.5104 415.872C50.0198 416.053 49.5291 416.144 49.0384 416.144ZM56.8041 416.144C56.0147 416.144 55.3267 415.973 54.7401 415.632C54.1641 415.291 53.7161 414.805 53.3961 414.176C53.0867 413.547 52.9321 412.8 52.9321 411.936C52.9321 411.061 53.0921 410.32 53.4121 409.712C53.7321 409.093 54.1801 408.624 54.7561 408.304C55.3427 407.984 56.0254 407.824 56.8041 407.824C57.3161 407.824 57.8121 407.915 58.2921 408.096C58.7827 408.277 59.1881 408.533 59.5081 408.864L59.0441 409.792C58.7241 409.483 58.3721 409.253 57.9881 409.104C57.6147 408.955 57.2467 408.88 56.8841 408.88C56.0521 408.88 55.4067 409.141 54.9481 409.664C54.4894 410.187 54.2601 410.949 54.2601 411.952C54.2601 412.944 54.4894 413.712 54.9481 414.256C55.4067 414.8 56.0521 415.072 56.8841 415.072C57.2361 415.072 57.5987 415.003 57.9721 414.864C58.3561 414.725 58.7134 414.496 59.0441 414.176L59.5081 415.088C59.1774 415.429 58.7667 415.691 58.2761 415.872C57.7854 416.053 57.2947 416.144 56.8041 416.144ZM64.7617 416.144C63.503 416.144 62.511 415.781 61.7857 415.056C61.0604 414.32 60.6977 413.301 60.6977 412C60.6977 411.157 60.8577 410.427 61.1777 409.808C61.4977 409.179 61.9457 408.693 62.5217 408.352C63.0977 408 63.759 407.824 64.5057 407.824C65.2417 407.824 65.8604 407.979 66.3617 408.288C66.863 408.597 67.247 409.04 67.5137 409.616C67.7804 410.181 67.9137 410.853 67.9137 411.632V412.112H61.6897V411.296H67.0657L66.7937 411.504C66.7937 410.651 66.6017 409.984 66.2177 409.504C65.8337 409.024 65.263 408.784 64.5057 408.784C63.7057 408.784 63.0817 409.067 62.6337 409.632C62.1857 410.187 61.9617 410.939 61.9617 411.888V412.032C61.9617 413.035 62.207 413.797 62.6977 414.32C63.199 414.832 63.8977 415.088 64.7937 415.088C65.2737 415.088 65.7217 415.019 66.1377 414.88C66.5644 414.731 66.9697 414.491 67.3537 414.16L67.8017 415.072C67.4497 415.413 67.0017 415.68 66.4577 415.872C65.9244 416.053 65.359 416.144 64.7617 416.144ZM72.5688 416.144C71.9288 416.144 71.3315 416.059 70.7768 415.888C70.2221 415.707 69.7635 415.456 69.4008 415.136L69.8488 414.224C70.2435 414.533 70.6701 414.763 71.1288 414.912C71.5981 415.061 72.0835 415.136 72.5848 415.136C73.2248 415.136 73.7048 415.024 74.0248 414.8C74.3555 414.565 74.5208 414.245 74.5208 413.84C74.5208 413.531 74.4141 413.285 74.2008 413.104C73.9981 412.912 73.6621 412.763 73.1928 412.656L71.7048 412.352C71.0221 412.203 70.5101 411.952 70.1688 411.6C69.8275 411.237 69.6568 410.779 69.6568 410.224C69.6568 409.755 69.7795 409.344 70.0248 408.992C70.2701 408.629 70.6275 408.347 71.0968 408.144C71.5661 407.931 72.1155 407.824 72.7448 407.824C73.3315 407.824 73.8701 407.915 74.3608 408.096C74.8621 408.267 75.2781 408.517 75.6088 408.848L75.1448 409.744C74.8248 409.435 74.4568 409.205 74.0408 409.056C73.6355 408.896 73.2141 408.816 72.7768 408.816C72.1475 408.816 71.6728 408.944 71.3528 409.2C71.0435 409.445 70.8888 409.771 70.8888 410.176C70.8888 410.485 70.9848 410.741 71.1768 410.944C71.3795 411.136 71.6888 411.28 72.1048 411.376L73.5928 411.68C74.3181 411.84 74.8568 412.091 75.2088 412.432C75.5715 412.763 75.7528 413.211 75.7528 413.776C75.7528 414.256 75.6195 414.677 75.3528 415.04C75.0861 415.392 74.7128 415.664 74.2328 415.856C73.7635 416.048 73.2088 416.144 72.5688 416.144ZM80.5063 416.144C79.8663 416.144 79.269 416.059 78.7143 415.888C78.1596 415.707 77.701 415.456 77.3383 415.136L77.7863 414.224C78.181 414.533 78.6076 414.763 79.0663 414.912C79.5356 415.061 80.021 415.136 80.5223 415.136C81.1623 415.136 81.6423 415.024 81.9623 414.8C82.293 414.565 82.4583 414.245 82.4583 413.84C82.4583 413.531 82.3516 413.285 82.1383 413.104C81.9356 412.912 81.5996 412.763 81.1303 412.656L79.6423 412.352C78.9596 412.203 78.4476 411.952 78.1063 411.6C77.765 411.237 77.5943 410.779 77.5943 410.224C77.5943 409.755 77.717 409.344 77.9623 408.992C78.2076 408.629 78.565 408.347 79.0343 408.144C79.5036 407.931 80.053 407.824 80.6823 407.824C81.269 407.824 81.8076 407.915 82.2983 408.096C82.7996 408.267 83.2156 408.517 83.5463 408.848L83.0823 409.744C82.7623 409.435 82.3943 409.205 81.9783 409.056C81.573 408.896 81.1516 408.816 80.7143 408.816C80.085 408.816 79.6103 408.944 79.2903 409.2C78.981 409.445 78.8263 409.771 78.8263 410.176C78.8263 410.485 78.9223 410.741 79.1143 410.944C79.317 411.136 79.6263 411.28 80.0423 411.376L81.5303 411.68C82.2556 411.84 82.7943 412.091 83.1463 412.432C83.509 412.763 83.6903 413.211 83.6903 413.776C83.6903 414.256 83.557 414.677 83.2903 415.04C83.0236 415.392 82.6503 415.664 82.1703 415.856C81.701 416.048 81.1463 416.144 80.5063 416.144ZM86.1878 416V408.976H84.6198V407.968H86.5398L86.1878 408.304V406.96C86.1878 406.053 86.4171 405.36 86.8758 404.88C87.3345 404.4 87.9905 404.16 88.8438 404.16C89.0571 404.16 89.2758 404.181 89.4998 404.224C89.7345 404.256 89.9265 404.304 90.0758 404.368V405.44C89.9478 405.387 89.7878 405.344 89.5958 405.312C89.4145 405.269 89.2278 405.248 89.0358 405.248C88.7051 405.248 88.4225 405.317 88.1878 405.456C87.9531 405.584 87.7771 405.781 87.6598 406.048C87.5425 406.315 87.4838 406.656 87.4838 407.072V408.24L87.2758 407.968H89.7238V408.976H87.4838V416H86.1878ZM94.0101 416.144C93.0607 416.144 92.3407 415.883 91.8501 415.36C91.3701 414.837 91.1301 414.037 91.1301 412.96V407.968H92.4261V412.928C92.4261 413.664 92.5754 414.208 92.8741 414.56C93.1727 414.901 93.6367 415.072 94.2661 415.072C94.9701 415.072 95.5354 414.843 95.9621 414.384C96.3887 413.925 96.6021 413.312 96.6021 412.544V407.968H97.8981V416H96.6341V414.192H96.8421C96.6181 414.811 96.2554 415.291 95.7541 415.632C95.2634 415.973 94.6821 416.144 94.0101 416.144ZM100.412 416V404.224H101.708V416H100.412ZM108.557 413.056L108.157 404.72H109.757L109.357 413.056H108.557ZM108.141 416V414.368H109.773V416H108.141Z" fill="#292D32"/>
<rect x="0.5" y="312.5" width="137" height="123" rx="9.5" stroke="#2563EB" stroke-opacity="0.2"/>
<defs>
<clipPath id="clip0_129_12947">
<rect width="500" height="455" fill="white" transform="translate(72 18)"/>
</clipPath>
</defs>
</svg>
