<svg width="40" height="44" viewBox="0 0 40 44" fill="none" xmlns="http://www.w3.org/2000/svg">
<path d="M34.2089 20.8634C34.2141 19.844 33.9105 18.8499 33.343 18.0281C32.7755 17.2062 31.9742 16.6003 31.0576 16.2997C30.9209 13.4085 29.7452 10.6832 27.7732 8.68607C25.8011 6.68895 23.183 5.57229 20.4589 5.56641H19.2089C16.4848 5.57229 13.8667 6.68895 11.8946 8.68607C9.92249 10.6832 8.74684 13.4085 8.61012 16.2997C7.64736 16.6238 6.81514 17.2825 6.24735 18.17C5.67956 19.0576 5.40919 20.1223 5.47975 21.1928C5.55031 22.2634 5.95768 23.2777 6.63635 24.0724C7.31501 24.8672 8.2255 25.3962 9.22137 25.5745C9.29621 27.651 9.84083 29.6777 10.8091 31.483C11.7774 33.2884 13.1408 34.8192 14.7839 35.9458L18.172 38.2572C18.6685 38.5946 19.2455 38.7739 19.8348 38.7739C20.4241 38.7739 21.0011 38.5946 21.4976 38.2572L25.2089 35.708C26.361 35.2158 26.3477 26.8971 27.7732 27.7734C29.1986 28.6497 25.0561 29.5125 26.7028 29.5188L25.2089 28.8131C25.33 28.813 20.6598 26.5222 26.4216 33.0189C26.523 32.9486 26.8601 32.0858 26.9089 31.968C24.755 30.358 22.7772 27.6707 26.6726 31.4107C18.9379 25.3301 11.927 27.1209 21.4976 31.968L26.9089 33.117L30.3078 30.1713L31.0576 27.8168L31.3976 25.3C28.1132 21.4609 31.2237 30.6013 31.0976 25.4144C32.0047 25.1069 32.7957 24.4995 33.3553 23.6809C33.9149 22.8623 34.214 21.8752 34.2089 20.8634ZM19.2089 6.89479H20.4589C22.7633 6.89962 22.9963 10.077 24.7135 11.7102C26.4306 13.3434 26.1624 9.27674 26.4216 11.7102L28.6081 11.1705C28.2558 10.786 27.7104 7.73419 26.7028 10.1742C27.4327 6.48799 23.481 7.17782 22.9831 7.26756L18.172 6.27211L16.6797 9.43798C15.6282 9.63351 10.2231 12.3723 9.88324 15.8414C10.1235 13.3895 14.9578 11.0899 16.6797 9.43798C18.4016 7.78607 16.8891 6.89876 19.2089 6.89479ZM26.1791 31.968C27.1098 34.5335 24.9839 27.4637 26.7028 29.5188L30.3078 27.8168C28.8677 27.8122 26.4524 27.1774 25.2089 26.4054C20.3264 22.3147 25.9199 37.039 25.2089 35.708C27.6336 33.9306 30.0496 31.851 30.7602 28.8131C30.9938 30.483 25.606 30.3933 26.1791 31.968Z" fill="white" fill-opacity="0.84"/>
</svg>
