<svg width="40" height="40" viewBox="0 0 40 40" fill="none" xmlns="http://www.w3.org/2000/svg">
<path d="M17.6948 5.00506C13.0811 5.02999 8.48143 7.44672 6.2726 12.0652C4.57834 15.6069 4.69286 19.934 5.92748 23.8497C7.11974 27.6205 9.41328 30.9441 12.3014 32.9541C12.4112 33.032 12.4834 33.1738 12.5963 33.247L14.9008 34.7569L13.7242 32.2732C13.7242 32.2732 13.125 31.0344 12.6936 29.0587C14.0019 31.3492 15.8091 32.9276 17.8423 33.6865C20.3131 34.6058 23.0929 34.2287 25.4398 32.3698C26.0689 31.8712 26.6477 31.304 27.156 30.6667C26.9191 31.4816 26.6728 32.2529 26.3716 33.1987L25.832 35L27.4996 34.1227C30.6371 32.5022 32.5479 29.6819 33.6272 26.5266C34.7065 23.3744 35.0077 19.8592 34.9999 16.788C34.992 13.7184 33.6601 11.2565 31.8623 9.92267C30.9634 9.25733 29.9218 8.86778 28.8723 8.9005C28.1726 8.92232 27.4855 9.17163 26.8627 9.58299C26.6744 9.2433 26.4705 8.86467 26.2744 8.55926C25.9151 8.00611 25.4476 7.51528 24.6554 7.00108C23.1438 6.02209 21.4393 5.37455 19.6557 5.10166C19.0056 5.01885 18.35 4.98655 17.6948 5.00506ZM23.3329 17.1292C23.402 17.6029 23.5149 17.9847 23.6749 18.3462C23.9965 19.0723 24.5064 19.6067 25.0476 19.9044C26.1348 20.5027 27.2643 20.4497 27.8431 20.6835C27.973 20.7278 28.0923 20.7984 28.1935 20.8906C28.2947 20.9828 28.3757 21.0948 28.4314 21.2195C28.5303 21.4033 28.6213 21.7118 28.6762 22.0967C28.6716 22.1449 28.6716 22.1934 28.6762 22.2416V22.2915C28.3797 25.9205 26.825 29.2799 24.4593 31.1529C22.4874 32.7157 20.3648 32.965 18.3803 32.2249C16.3959 31.4847 14.5541 29.6866 13.3807 26.8679C12.8647 25.6206 12.5186 24.3106 12.3516 22.9724C12.3521 22.9563 12.3521 22.9402 12.3516 22.9241C12.543 21.3005 12.9948 20.4856 13.5281 20.0508C14.2372 19.4712 15.4044 19.3824 16.959 19.2717C18.5137 19.1627 20.3852 18.9726 22.2536 17.86C22.6144 17.645 22.98 17.4175 23.3329 17.1292Z" fill="#8F8F8F"/>
</svg>
