<svg width="40" height="37" viewBox="0 0 40 37" fill="none" xmlns="http://www.w3.org/2000/svg">
<path d="M20.8089 4.77592C20.7679 4.47053 20.2321 4.47053 20.1927 4.77592C18.8525 14.871 12 16.9519 12 23.9689C12 28.3054 15.8914 31.8196 20.5008 31.8196C25.1086 31.8196 29 28.304 29 23.9689C29 16.9519 22.149 14.871 20.8089 4.77592ZM19.5142 15.9363C19.4247 16.2474 19.3276 16.567 19.2274 16.8993C18.6188 18.922 17.9282 21.216 17.9282 23.868C17.9282 25.3055 17.0206 25.8154 16.1737 25.8154C15.9423 25.8145 15.7134 25.7709 15.5 25.6872C15.2866 25.6034 15.0929 25.4812 14.93 25.3274C14.7671 25.1736 14.6381 24.9913 14.5505 24.7908C14.4628 24.5904 14.4182 24.3758 14.4192 24.1592C14.4192 21.0243 16.0311 18.976 17.4547 17.1706C17.9024 16.6053 18.3228 16.0698 18.6643 15.5371C18.8206 15.2928 19.241 15.3042 19.4323 15.5457C19.5218 15.6593 19.5522 15.8042 19.5142 15.9363Z" fill="#8F8F8F" fill-opacity="0.84"/>
</svg>
