<svg width="24" height="24" viewBox="0 0 24 24" fill="none" xmlns="http://www.w3.org/2000/svg">
<path d="M8.46588 11.2931C9.59888 10.1601 11.5749 10.1601 12.7079 11.2931L13.4149 12.0001L14.8289 10.5861L14.1219 9.87906C13.1789 8.93506 11.9229 8.41406 10.5869 8.41406C9.25088 8.41406 7.99488 8.93506 7.05188 9.87906L4.92988 12.0001C3.99417 12.9388 3.46875 14.2101 3.46875 15.5356C3.46875 16.861 3.99417 18.1323 4.92988 19.0711C5.39375 19.5356 5.94484 19.9039 6.55149 20.1548C7.15814 20.4057 7.80839 20.5342 8.46488 20.5331C9.12154 20.5344 9.77199 20.406 10.3788 20.1551C10.9857 19.9042 11.5369 19.5358 12.0009 19.0711L12.7079 18.3641L11.2939 16.9501L10.5869 17.6571C10.0233 18.2181 9.26055 18.533 8.46538 18.533C7.67021 18.533 6.90741 18.2181 6.34388 17.6571C5.78238 17.0938 5.46708 16.3309 5.46708 15.5356C5.46708 14.7402 5.78238 13.9773 6.34388 13.4141L8.46588 11.2931Z" fill="#252525"/>
<path d="M11.9999 4.9307L11.2929 5.6377L12.7069 7.0517L13.4139 6.3447C13.9774 5.78369 14.7402 5.46873 15.5354 5.46873C16.3305 5.46873 17.0933 5.78369 17.6569 6.3447C18.2184 6.90797 18.5337 7.67087 18.5337 8.4662C18.5337 9.26154 18.2184 10.0244 17.6569 10.5877L15.5349 12.7087C14.4019 13.8417 12.4259 13.8417 11.2929 12.7087L10.5859 12.0017L9.17188 13.4157L9.87887 14.1227C10.8219 15.0667 12.0779 15.5877 13.4139 15.5877C14.7499 15.5877 16.0059 15.0667 16.9489 14.1227L19.0709 12.0017C20.0066 11.063 20.532 9.79162 20.532 8.4662C20.532 7.14078 20.0066 5.86942 19.0709 4.9307C18.1324 3.99451 16.861 3.46875 15.5354 3.46875C14.2098 3.46875 12.9383 3.99451 11.9999 4.9307Z" fill="#252525"/>
</svg>
