<svg width="48" height="48" viewBox="0 0 48 48" fill="none" xmlns="http://www.w3.org/2000/svg">
<path d="M35.4375 17.9722C35.7911 17.548 35.7338 16.9174 35.3095 16.5638C34.8852 16.2103 34.2546 16.2676 33.9011 16.6919L26.7135 25.317C25.2697 27.0495 24.2541 28.2645 23.3731 29.06C22.5128 29.8369 21.919 30.0839 21.336 30.0839C20.7529 30.0839 20.1592 29.8369 19.2988 29.06C18.4178 28.2645 17.4022 27.0495 15.9584 25.3169L14.1042 23.0919C13.7506 22.6676 13.1201 22.6103 12.6958 22.9638C12.2715 23.3174 12.2142 23.948 12.5677 24.3722L14.4734 26.6591C15.8538 28.3155 16.9592 29.6421 17.9584 30.5444C18.9905 31.4763 20.0455 32.0839 21.336 32.0839C22.6264 32.0839 23.6815 31.4763 24.7135 30.5444C25.7127 29.6421 26.8181 28.3156 28.1985 26.6591L35.4375 17.9722Z" fill="#2563EB"/>
<rect x="0.5" y="0.5" width="47" height="47" rx="23.5" stroke="#2158D2"/>
</svg>
