<svg width="112" height="112" viewBox="0 0 112 112" fill="none" xmlns="http://www.w3.org/2000/svg">
<path d="M56.0026 72.332C66.3159 72.332 74.6693 63.9787 74.6693 53.6654V27.9987C74.6693 17.6854 66.3159 9.33203 56.0026 9.33203C45.6893 9.33203 37.3359 17.6854 37.3359 27.9987V53.6654C37.3359 63.9787 45.6893 72.332 56.0026 72.332Z" stroke="#525252" stroke-width="1.5" stroke-linecap="round" stroke-linejoin="round"/>
<path d="M20.2969 45.0352V52.9685C20.2969 72.6618 36.3035 88.6685 55.9969 88.6685C75.6902 88.6685 91.6969 72.6618 91.6969 52.9685V45.0352" stroke="#525252" stroke-width="1.5" stroke-linecap="round" stroke-linejoin="round"/>
<path d="M49.5156 30.0066C53.7156 28.4666 58.289 28.4666 62.489 30.0066" stroke="#525252" stroke-width="1.5" stroke-linecap="round" stroke-linejoin="round"/>
<path d="M52.2656 39.9002C54.739 39.2468 57.3056 39.2468 59.779 39.9002" stroke="#525252" stroke-width="1.5" stroke-linecap="round" stroke-linejoin="round"/>
<path d="M56 88.668V102.668" stroke="#525252" stroke-width="1.5" stroke-linecap="round" stroke-linejoin="round"/>
</svg>
