<svg width="24" height="24" viewBox="0 0 24 24" fill="none" xmlns="http://www.w3.org/2000/svg">
<path d="M7.96875 22C10.1779 22 11.9688 20.2091 11.9688 18C11.9688 15.7909 10.1779 14 7.96875 14C5.75961 14 3.96875 15.7909 3.96875 18C3.96875 20.2091 5.75961 22 7.96875 22Z" stroke="#292D32" stroke-opacity="0.6" stroke-width="1.5" stroke-linecap="round" stroke-linejoin="round"/>
<path d="M11.9688 18V4" stroke="#292D32" stroke-opacity="0.6" stroke-width="1.5" stroke-linecap="round" stroke-linejoin="round"/>
<path d="M14.6066 2.11049L19.0266 3.58049C20.0966 3.94049 20.9766 5.15049 20.9766 6.28049V7.45049C20.9766 8.98049 19.7966 9.83049 18.3466 9.35049L13.9266 7.88049C12.8566 7.52049 11.9766 6.31049 11.9766 5.18049V4.00049C11.9666 2.48049 13.1566 1.62049 14.6066 2.11049Z" stroke="#292D32" stroke-opacity="0.6" stroke-width="1.5" stroke-linecap="round" stroke-linejoin="round"/>
</svg>
